ISO-10303-21;
HEADER;
/* Generated by software containing ST-Developer
 * from STEP Tools, Inc. (www.steptools.com) 
 */
/* OPTION: using custom renumber hook */

FILE_DESCRIPTION(
/* description */ ('STEP AP242 Edition 2',
'CAx-IF Rec.Pracs.---Representation and Presentation of Product Manufa
cturing Information (PMI)---4.0---2014-10-13',
'CAx-IF Rec.Pracs.---3D Tessellated Geometry---0.4---2014-09-14','2;1',
'CAx-IF Rec.Pracs.---User Defined Attributes---1.5---2016-08-15'),
/* implementation_level */ '2;1');

FILE_NAME(
/* name */ 'side_left',
/* time_stamp */ '2026-09-05T01:40:48Z',
/* author */ (''),
/* organization */ (''),
/* preprocessor_version */ 'ST-DEVELOPER v20',
/* originating_system */ 'ONSHAPE BY PTC INC, 1.220',
/* authorisation */ '  ');

FILE_SCHEMA (('AP242_MANAGED_MODEL_BASED_3D_ENGINEERING_MIM_LF { 1 0 10303 442 3 1 4 }'));
ENDSEC;

DATA;
#10=SHAPE_REPRESENTATION_RELATIONSHIP('','',#243,#11);
#11=ADVANCED_BREP_SHAPE_REPRESENTATION('',(#241),#381);
#12=CYLINDRICAL_SURFACE('',#257,0.0241188539774725);
#13=CIRCLE('',#250,0.0241188539774725);
#14=CIRCLE('',#252,0.0241188539774725);
#15=ORIENTED_EDGE('',*,*,#75,.F.);
#16=ORIENTED_EDGE('',*,*,#76,.F.);
#17=ORIENTED_EDGE('',*,*,#77,.T.);
#18=ORIENTED_EDGE('',*,*,#78,.T.);
#19=ORIENTED_EDGE('',*,*,#79,.F.);
#20=ORIENTED_EDGE('',*,*,#80,.T.);
#21=ORIENTED_EDGE('',*,*,#81,.F.);
#22=ORIENTED_EDGE('',*,*,#76,.T.);
#23=ORIENTED_EDGE('',*,*,#82,.T.);
#24=ORIENTED_EDGE('',*,*,#83,.F.);
#25=ORIENTED_EDGE('',*,*,#84,.F.);
#26=ORIENTED_EDGE('',*,*,#85,.F.);
#27=ORIENTED_EDGE('',*,*,#86,.T.);
#28=ORIENTED_EDGE('',*,*,#87,.F.);
#29=ORIENTED_EDGE('',*,*,#88,.F.);
#30=ORIENTED_EDGE('',*,*,#83,.T.);
#31=ORIENTED_EDGE('',*,*,#89,.F.);
#32=ORIENTED_EDGE('',*,*,#78,.F.);
#33=ORIENTED_EDGE('',*,*,#90,.T.);
#34=ORIENTED_EDGE('',*,*,#87,.T.);
#35=ORIENTED_EDGE('',*,*,#91,.F.);
#36=ORIENTED_EDGE('',*,*,#92,.F.);
#37=ORIENTED_EDGE('',*,*,#93,.F.);
#38=ORIENTED_EDGE('',*,*,#94,.T.);
#39=ORIENTED_EDGE('',*,*,#95,.T.);
#40=ORIENTED_EDGE('',*,*,#84,.T.);
#41=ORIENTED_EDGE('',*,*,#88,.T.);
#42=ORIENTED_EDGE('',*,*,#90,.F.);
#43=ORIENTED_EDGE('',*,*,#77,.F.);
#44=ORIENTED_EDGE('',*,*,#81,.T.);
#45=ORIENTED_EDGE('',*,*,#96,.T.);
#46=ORIENTED_EDGE('',*,*,#97,.T.);
#47=ORIENTED_EDGE('',*,*,#75,.T.);
#48=ORIENTED_EDGE('',*,*,#89,.T.);
#49=ORIENTED_EDGE('',*,*,#86,.F.);
#50=ORIENTED_EDGE('',*,*,#82,.F.);
#51=ORIENTED_EDGE('',*,*,#94,.F.);
#52=ORIENTED_EDGE('',*,*,#98,.F.);
#53=ORIENTED_EDGE('',*,*,#99,.T.);
#54=ORIENTED_EDGE('',*,*,#100,.T.);
#55=ORIENTED_EDGE('',*,*,#93,.T.);
#56=ORIENTED_EDGE('',*,*,#80,.F.);
#57=ORIENTED_EDGE('',*,*,#101,.F.);
#58=ORIENTED_EDGE('',*,*,#98,.T.);
#59=ORIENTED_EDGE('',*,*,#95,.F.);
#60=ORIENTED_EDGE('',*,*,#100,.F.);
#61=ORIENTED_EDGE('',*,*,#102,.T.);
#62=ORIENTED_EDGE('',*,*,#85,.T.);
#63=ORIENTED_EDGE('',*,*,#99,.F.);
#64=ORIENTED_EDGE('',*,*,#101,.T.);
#65=ORIENTED_EDGE('',*,*,#79,.T.);
#66=ORIENTED_EDGE('',*,*,#102,.F.);
#67=ORIENTED_EDGE('',*,*,#103,.T.);
#68=ORIENTED_EDGE('',*,*,#91,.T.);
#69=ORIENTED_EDGE('',*,*,#104,.F.);
#70=ORIENTED_EDGE('',*,*,#97,.F.);
#71=ORIENTED_EDGE('',*,*,#104,.T.);
#72=ORIENTED_EDGE('',*,*,#92,.T.);
#73=ORIENTED_EDGE('',*,*,#103,.F.);
#74=ORIENTED_EDGE('',*,*,#96,.F.);
#75=EDGE_CURVE('',#105,#106,#125,.T.);
#76=EDGE_CURVE('',#107,#105,#126,.T.);
#77=EDGE_CURVE('',#107,#108,#127,.T.);
#78=EDGE_CURVE('',#108,#106,#128,.T.);
#79=EDGE_CURVE('',#109,#110,#129,.T.);
#80=EDGE_CURVE('',#109,#111,#130,.T.);
#81=EDGE_CURVE('',#107,#111,#131,.T.);
#82=EDGE_CURVE('',#105,#112,#132,.T.);
#83=EDGE_CURVE('',#113,#112,#133,.T.);
#84=EDGE_CURVE('',#114,#113,#134,.T.);
#85=EDGE_CURVE('',#110,#114,#135,.T.);
#86=EDGE_CURVE('',#112,#115,#136,.T.);
#87=EDGE_CURVE('',#116,#115,#137,.T.);
#88=EDGE_CURVE('',#113,#116,#138,.T.);
#89=EDGE_CURVE('',#106,#115,#139,.T.);
#90=EDGE_CURVE('',#108,#116,#140,.T.);
#91=EDGE_CURVE('',#117,#118,#13,.T.);
#92=EDGE_CURVE('',#118,#117,#141,.T.);
#93=EDGE_CURVE('',#119,#111,#142,.T.);
#94=EDGE_CURVE('',#119,#120,#143,.T.);
#95=EDGE_CURVE('',#120,#114,#144,.T.);
#96=EDGE_CURVE('',#121,#122,#145,.T.);
#97=EDGE_CURVE('',#122,#121,#14,.T.);
#98=EDGE_CURVE('',#123,#119,#146,.T.);
#99=EDGE_CURVE('',#123,#124,#147,.T.);
#100=EDGE_CURVE('',#124,#120,#148,.T.);
#101=EDGE_CURVE('',#123,#109,#149,.T.);
#102=EDGE_CURVE('',#124,#110,#150,.T.);
#103=EDGE_CURVE('',#122,#117,#151,.T.);
#104=EDGE_CURVE('',#121,#118,#152,.T.);
#105=VERTEX_POINT('',#320);
#106=VERTEX_POINT('',#321);
#107=VERTEX_POINT('',#323);
#108=VERTEX_POINT('',#325);
#109=VERTEX_POINT('',#329);
#110=VERTEX_POINT('',#330);
#111=VERTEX_POINT('',#332);
#112=VERTEX_POINT('',#335);
#113=VERTEX_POINT('',#337);
#114=VERTEX_POINT('',#339);
#115=VERTEX_POINT('',#343);
#116=VERTEX_POINT('',#345);
#117=VERTEX_POINT('',#352);
#118=VERTEX_POINT('',#353);
#119=VERTEX_POINT('',#356);
#120=VERTEX_POINT('',#358);
#121=VERTEX_POINT('',#362);
#122=VERTEX_POINT('',#363);
#123=VERTEX_POINT('',#367);
#124=VERTEX_POINT('',#369);
#125=LINE('',#319,#153);
#126=LINE('',#322,#154);
#127=LINE('',#324,#155);
#128=LINE('',#326,#156);
#129=LINE('',#328,#157);
#130=LINE('',#331,#158);
#131=LINE('',#333,#159);
#132=LINE('',#334,#160);
#133=LINE('',#336,#161);
#134=LINE('',#338,#162);
#135=LINE('',#340,#163);
#136=LINE('',#342,#164);
#137=LINE('',#344,#165);
#138=LINE('',#346,#166);
#139=LINE('',#348,#167);
#140=LINE('',#349,#168);
#141=LINE('',#354,#169);
#142=LINE('',#355,#170);
#143=LINE('',#357,#171);
#144=LINE('',#359,#172);
#145=LINE('',#361,#173);
#146=LINE('',#366,#174);
#147=LINE('',#368,#175);
#148=LINE('',#370,#176);
#149=LINE('',#372,#177);
#150=LINE('',#374,#178);
#151=LINE('',#377,#179);
#152=LINE('',#378,#180);
#153=VECTOR('',#263,1.);
#154=VECTOR('',#264,1.);
#155=VECTOR('',#265,1.);
#156=VECTOR('',#266,1.);
#157=VECTOR('',#269,1.);
#158=VECTOR('',#270,1.);
#159=VECTOR('',#271,1.);
#160=VECTOR('',#272,1.);
#161=VECTOR('',#273,1.);
#162=VECTOR('',#274,1.);
#163=VECTOR('',#275,1.);
#164=VECTOR('',#278,1.);
#165=VECTOR('',#279,1.);
#166=VECTOR('',#280,1.);
#167=VECTOR('',#283,1.);
#168=VECTOR('',#284,1.);
#169=VECTOR('',#289,1.);
#170=VECTOR('',#290,1.);
#171=VECTOR('',#291,1.);
#172=VECTOR('',#292,1.);
#173=VECTOR('',#295,1.);
#174=VECTOR('',#300,1.);
#175=VECTOR('',#301,1.);
#176=VECTOR('',#302,1.);
#177=VECTOR('',#305,1.);
#178=VECTOR('',#308,1.);
#179=VECTOR('',#313,1.);
#180=VECTOR('',#314,1.);
#181=EDGE_LOOP('',(#15,#16,#17,#18));
#182=EDGE_LOOP('',(#19,#20,#21,#22,#23,#24,#25,#26));
#183=EDGE_LOOP('',(#27,#28,#29,#30));
#184=EDGE_LOOP('',(#31,#32,#33,#34));
#185=EDGE_LOOP('',(#35,#36));
#186=EDGE_LOOP('',(#37,#38,#39,#40,#41,#42,#43,#44));
#187=EDGE_LOOP('',(#45,#46));
#188=EDGE_LOOP('',(#47,#48,#49,#50));
#189=EDGE_LOOP('',(#51,#52,#53,#54));
#190=EDGE_LOOP('',(#55,#56,#57,#58));
#191=EDGE_LOOP('',(#59,#60,#61,#62));
#192=EDGE_LOOP('',(#63,#64,#65,#66));
#193=EDGE_LOOP('',(#67,#68,#69,#70));
#194=EDGE_LOOP('',(#71,#72,#73,#74));
#195=FACE_BOUND('',#181,.T.);
#196=FACE_BOUND('',#182,.T.);
#197=FACE_BOUND('',#183,.T.);
#198=FACE_BOUND('',#184,.T.);
#199=FACE_BOUND('',#185,.T.);
#200=FACE_BOUND('',#186,.T.);
#201=FACE_BOUND('',#187,.T.);
#202=FACE_BOUND('',#188,.T.);
#203=FACE_BOUND('',#189,.T.);
#204=FACE_BOUND('',#190,.T.);
#205=FACE_BOUND('',#191,.T.);
#206=FACE_BOUND('',#192,.T.);
#207=FACE_BOUND('',#193,.T.);
#208=FACE_BOUND('',#194,.T.);
#209=PLANE('',#245);
#210=PLANE('',#246);
#211=PLANE('',#247);
#212=PLANE('',#248);
#213=PLANE('',#249);
#214=PLANE('',#251);
#215=PLANE('',#253);
#216=PLANE('',#254);
#217=PLANE('',#255);
#218=PLANE('',#256);
#219=PLANE('',#258);
#220=ADVANCED_FACE('',(#195),#209,.T.);
#221=ADVANCED_FACE('',(#196),#210,.F.);
#222=ADVANCED_FACE('',(#197),#211,.F.);
#223=ADVANCED_FACE('',(#198),#212,.T.);
#224=ADVANCED_FACE('',(#199,#200),#213,.T.);
#225=ADVANCED_FACE('',(#201,#202),#214,.F.);
#226=ADVANCED_FACE('',(#203),#215,.T.);
#227=ADVANCED_FACE('',(#204),#216,.F.);
#228=ADVANCED_FACE('',(#205),#217,.T.);
#229=ADVANCED_FACE('',(#206),#218,.T.);
#230=ADVANCED_FACE('',(#207),#12,.F.);
#231=ADVANCED_FACE('',(#208),#219,.F.);
#232=CLOSED_SHELL('',(#220,#221,#222,#223,#224,#225,#226,#227,#228,#229,
#230,#231));
#233=STYLED_ITEM('',(#234),#241);
#234=PRESENTATION_STYLE_ASSIGNMENT((#235));
#235=SURFACE_STYLE_USAGE(.BOTH.,#236);
#236=SURFACE_SIDE_STYLE('',(#237));
#237=SURFACE_STYLE_FILL_AREA(#238);
#238=FILL_AREA_STYLE('',(#239));
#239=FILL_AREA_STYLE_COLOUR('',#240);
#240=COLOUR_RGB('',0.615686274509804,0.811764705882353,0.929411764705882);
#241=MANIFOLD_SOLID_BREP('Part 1',#232);
#242=SHAPE_DEFINITION_REPRESENTATION(#386,#243);
#243=SHAPE_REPRESENTATION('Part 1',(#244),#381);
#244=AXIS2_PLACEMENT_3D('',#317,#259,#260);
#245=AXIS2_PLACEMENT_3D('',#318,#261,#262);
#246=AXIS2_PLACEMENT_3D('',#327,#267,#268);
#247=AXIS2_PLACEMENT_3D('',#341,#276,#277);
#248=AXIS2_PLACEMENT_3D('',#347,#281,#282);
#249=AXIS2_PLACEMENT_3D('',#350,#285,#286);
#250=AXIS2_PLACEMENT_3D('',#351,#287,#288);
#251=AXIS2_PLACEMENT_3D('',#360,#293,#294);
#252=AXIS2_PLACEMENT_3D('',#364,#296,#297);
#253=AXIS2_PLACEMENT_3D('',#365,#298,#299);
#254=AXIS2_PLACEMENT_3D('',#371,#303,#304);
#255=AXIS2_PLACEMENT_3D('',#373,#306,#307);
#256=AXIS2_PLACEMENT_3D('',#375,#309,#310);
#257=AXIS2_PLACEMENT_3D('',#376,#311,#312);
#258=AXIS2_PLACEMENT_3D('',#379,#315,#316);
#259=DIRECTION('',(0.,0.,1.));
#260=DIRECTION('',(1.,0.,0.));
#261=DIRECTION('',(0.,1.,0.));
#262=DIRECTION('',(0.,0.,1.));
#263=DIRECTION('',(1.,0.,0.));
#264=DIRECTION('',(0.,0.,-1.));
#265=DIRECTION('',(1.,0.,0.));
#266=DIRECTION('',(0.,0.,-1.));
#267=DIRECTION('',(1.,0.,0.));
#268=DIRECTION('',(0.,0.,-1.));
#269=DIRECTION('',(0.,-1.,0.));
#270=DIRECTION('',(0.,0.,1.));
#271=DIRECTION('',(0.,-1.,0.));
#272=DIRECTION('',(0.,-1.,0.));
#273=DIRECTION('',(0.,0.,-1.));
#274=DIRECTION('',(0.,-1.,0.));
#275=DIRECTION('',(0.,0.,1.));
#276=DIRECTION('',(0.,1.,0.));
#277=DIRECTION('',(0.,0.,1.));
#278=DIRECTION('',(1.,0.,0.));
#279=DIRECTION('',(0.,0.,-1.));
#280=DIRECTION('',(1.,0.,0.));
#281=DIRECTION('',(1.,0.,0.));
#282=DIRECTION('',(0.,0.,-1.));
#283=DIRECTION('',(0.,-1.,0.));
#284=DIRECTION('',(0.,-1.,0.));
#285=DIRECTION('',(0.,0.,1.));
#286=DIRECTION('',(1.,0.,0.));
#287=DIRECTION('',(0.,0.,1.));
#288=DIRECTION('',(1.,0.,0.));
#289=DIRECTION('',(1.,1.50845519650157E-16,0.));
#290=DIRECTION('',(-1.,0.,0.));
#291=DIRECTION('',(0.,-1.,0.));
#292=DIRECTION('',(-1.,-9.46212805078258E-17,0.));
#293=DIRECTION('',(0.,0.,1.));
#294=DIRECTION('',(1.,0.,0.));
#295=DIRECTION('',(1.,1.50845519650157E-16,0.));
#296=DIRECTION('',(0.,0.,1.));
#297=DIRECTION('',(1.,0.,0.));
#298=DIRECTION('',(-1.,0.,0.));
#299=DIRECTION('',(0.,0.,1.));
#300=DIRECTION('',(0.,0.,1.));
#301=DIRECTION('',(0.,-1.,0.));
#302=DIRECTION('',(0.,0.,1.));
#303=DIRECTION('',(0.,1.,0.));
#304=DIRECTION('',(0.,0.,1.));
#305=DIRECTION('',(-1.,0.,0.));
#306=DIRECTION('',(-9.46212805078258E-17,1.,0.));
#307=DIRECTION('',(-1.,-9.46212805078258E-17,0.));
#308=DIRECTION('',(-1.,-9.46212805078258E-17,0.));
#309=DIRECTION('',(0.,0.,1.));
#310=DIRECTION('',(1.,0.,0.));
#311=DIRECTION('',(0.,0.,1.));
#312=DIRECTION('',(1.,0.,0.));
#313=DIRECTION('',(0.,0.,1.));
#314=DIRECTION('',(0.,0.,1.));
#315=DIRECTION('',(1.50845519650157E-16,-1.,0.));
#316=DIRECTION('',(1.,1.50845519650157E-16,0.));
#317=CARTESIAN_POINT('',(0.,0.,0.));
#318=CARTESIAN_POINT('',(-0.00372158586978913,0.0697869256138802,0.0025));
#319=CARTESIAN_POINT('',(-0.00372158586978913,0.0697869256138802,0.));
#320=CARTESIAN_POINT('',(-0.0724715858697891,0.0697869256138802,0.));
#321=CARTESIAN_POINT('',(0.0650284141302109,0.0697869256138802,0.));
#322=CARTESIAN_POINT('',(-0.0724715858697891,0.0697869256138802,0.0025));
#323=CARTESIAN_POINT('',(-0.0724715858697891,0.0697869256138802,0.0025));
#324=CARTESIAN_POINT('',(-0.00372158586978913,0.0697869256138802,0.0025));
#325=CARTESIAN_POINT('',(0.0650284141302109,0.0697869256138802,0.0025));
#326=CARTESIAN_POINT('',(0.0650284141302109,0.0697869256138802,0.0025));
#327=CARTESIAN_POINT('',(-0.0724715858697891,0.00103692561388016,0.0025));
#328=CARTESIAN_POINT('',(-0.0724715858697891,0.00103692561388016,0.001));
#329=CARTESIAN_POINT('',(-0.0724715858697891,0.0247869256138801,0.001));
#330=CARTESIAN_POINT('',(-0.0724715858697891,0.0222869256138802,0.001));
#331=CARTESIAN_POINT('',(-0.0724715858697891,0.0247869256138801,0.001));
#332=CARTESIAN_POINT('',(-0.0724715858697891,0.0247869256138801,0.0025));
#333=CARTESIAN_POINT('',(-0.0724715858697891,0.00103692561388016,0.0025));
#334=CARTESIAN_POINT('',(-0.0724715858697891,0.00103692561388016,0.));
#335=CARTESIAN_POINT('',(-0.0724715858697891,-0.0677130743861198,0.));
#336=CARTESIAN_POINT('',(-0.0724715858697891,-0.0677130743861198,0.0025));
#337=CARTESIAN_POINT('',(-0.0724715858697891,-0.0677130743861198,0.0025));
#338=CARTESIAN_POINT('',(-0.0724715858697891,0.00103692561388016,0.0025));
#339=CARTESIAN_POINT('',(-0.0724715858697891,0.0222869256138802,0.0025));
#340=CARTESIAN_POINT('',(-0.0724715858697891,0.0222869256138802,0.001));
#341=CARTESIAN_POINT('',(-0.00372158586978913,-0.0677130743861198,0.0025));
#342=CARTESIAN_POINT('',(-0.00372158586978913,-0.0677130743861198,0.));
#343=CARTESIAN_POINT('',(0.0650284141302109,-0.0677130743861198,0.));
#344=CARTESIAN_POINT('',(0.0650284141302109,-0.0677130743861198,0.0025));
#345=CARTESIAN_POINT('',(0.0650284141302109,-0.0677130743861198,0.0025));
#346=CARTESIAN_POINT('',(-0.00372158586978913,-0.0677130743861198,0.0025));
#347=CARTESIAN_POINT('',(0.0650284141302109,0.00103692561388016,0.0025));
#348=CARTESIAN_POINT('',(0.0650284141302109,0.00103692561388016,0.));
#349=CARTESIAN_POINT('',(0.0650284141302109,0.00103692561388016,0.0025));
#350=CARTESIAN_POINT('',(-0.00372158586978913,0.00103692561388016,0.0025));
#351=CARTESIAN_POINT('',(-0.00596136471331121,0.0377863620240368,0.0025));
#352=CARTESIAN_POINT('',(0.0170386352866888,0.0305255688726901,0.0025));
#353=CARTESIAN_POINT('',(-0.0289613647133112,0.03052556887269,0.0025));
#354=CARTESIAN_POINT('',(-0.00596136471331121,0.03052556887269,0.0025));
#355=CARTESIAN_POINT('',(-0.0174715858697891,0.0247869256138801,0.0025));
#356=CARTESIAN_POINT('',(0.0375284141302108,0.0247869256138802,0.0025));
#357=CARTESIAN_POINT('',(0.0375284141302108,0.0235369256138802,0.0025));
#358=CARTESIAN_POINT('',(0.0375284141302108,0.0222869256138802,0.0025));
#359=CARTESIAN_POINT('',(-0.0174715858697891,0.0222869256138802,0.0025));
#360=CARTESIAN_POINT('',(-0.00372158586978913,0.00103692561388016,0.));
#361=CARTESIAN_POINT('',(-0.00372158586978914,0.03052556887269,0.));
#362=CARTESIAN_POINT('',(-0.0289613647133112,0.0305255688726901,0.));
#363=CARTESIAN_POINT('',(0.0170386352866888,0.0305255688726901,0.));
#364=CARTESIAN_POINT('',(-0.00596136471331121,0.0377863620240368,0.));
#365=CARTESIAN_POINT('',(0.0375284141302108,0.0235369256138802,0.001));
#366=CARTESIAN_POINT('',(0.0375284141302108,0.0247869256138802,0.001));
#367=CARTESIAN_POINT('',(0.0375284141302108,0.0247869256138802,0.001));
#368=CARTESIAN_POINT('',(0.0375284141302108,0.0235369256138802,0.001));
#369=CARTESIAN_POINT('',(0.0375284141302108,0.0222869256138802,0.001));
#370=CARTESIAN_POINT('',(0.0375284141302108,0.0222869256138802,0.001));
#371=CARTESIAN_POINT('',(-0.0174715858697891,0.0247869256138801,0.001));
#372=CARTESIAN_POINT('',(-0.0174715858697891,0.0247869256138801,0.001));
#373=CARTESIAN_POINT('',(-0.0174715858697891,0.0222869256138802,0.001));
#374=CARTESIAN_POINT('',(-0.0174715858697891,0.0222869256138802,0.001));
#375=CARTESIAN_POINT('',(-0.00372158586978913,0.00103692561388016,0.001));
#376=CARTESIAN_POINT('',(-0.00596136471331121,0.0377863620240368,-0.0225));
#377=CARTESIAN_POINT('',(0.0170386352866888,0.0305255688726901,-0.0225));
#378=CARTESIAN_POINT('',(-0.0289613647133112,0.0305255688726901,-0.0225));
#379=CARTESIAN_POINT('',(-0.00596136471331121,0.03052556887269,-0.0225));
#380=MECHANICAL_DESIGN_GEOMETRIC_PRESENTATION_REPRESENTATION('',(#233),
#381);
#381=(
GEOMETRIC_REPRESENTATION_CONTEXT(3)
GLOBAL_UNCERTAINTY_ASSIGNED_CONTEXT((#382))
GLOBAL_UNIT_ASSIGNED_CONTEXT((#385,#384,#383))
REPRESENTATION_CONTEXT('Part 1','TOP_LEVEL_ASSEMBLY_PART')
);
#382=UNCERTAINTY_MEASURE_WITH_UNIT(LENGTH_MEASURE(1.E-8),#385,
'DISTANCE_ACCURACY_VALUE','Maximum Tolerance applied to model');
#383=(
NAMED_UNIT(*)
SI_UNIT($,.STERADIAN.)
SOLID_ANGLE_UNIT()
);
#384=(
NAMED_UNIT(*)
PLANE_ANGLE_UNIT()
SI_UNIT($,.RADIAN.)
);
#385=(
LENGTH_UNIT()
NAMED_UNIT(*)
SI_UNIT($,.METRE.)
);
#386=PRODUCT_DEFINITION_SHAPE('','',#387);
#387=PRODUCT_DEFINITION('','',#389,#388);
#388=PRODUCT_DEFINITION_CONTEXT('',#395,'design');
#389=PRODUCT_DEFINITION_FORMATION_WITH_SPECIFIED_SOURCE('','',#391,
 .NOT_KNOWN.);
#390=PRODUCT_RELATED_PRODUCT_CATEGORY('','',(#391));
#391=PRODUCT('Part 1','Part 1','Part 1',(#393));
#392=PRODUCT_CATEGORY('','');
#393=PRODUCT_CONTEXT('',#395,'mechanical');
#394=APPLICATION_PROTOCOL_DEFINITION('international standard',
'ap242_managed_model_based_3d_engineering',2020,#395);
#395=APPLICATION_CONTEXT('managed model based 3d engineering');
ENDSEC;
END-ISO-10303-21;
