ISO-10303-21;
HEADER;
/* Generated by software containing ST-Developer
 * from STEP Tools, Inc. (www.steptools.com) 
 */
/* OPTION: using custom renumber hook */

FILE_DESCRIPTION(
/* description */ ('STEP AP242 Edition 2',
'CAx-IF Rec.Pracs.---Representation and Presentation of Product Manufa
cturing Information (PMI)---4.0---2014-10-13',
'CAx-IF Rec.Pracs.---3D Tessellated Geometry---0.4---2014-09-14','2;1',
'CAx-IF Rec.Pracs.---User Defined Attributes---1.5---2016-08-15'),
/* implementation_level */ '2;1');

FILE_NAME(
/* name */ 'bed',
/* time_stamp */ '2026-09-05T01:50:20Z',
/* author */ (''),
/* organization */ (''),
/* preprocessor_version */ 'ST-DEVELOPER v20',
/* originating_system */ 'ONSHAPE BY PTC INC, 1.220',
/* authorisation */ '  ');

FILE_SCHEMA (('AP242_MANAGED_MODEL_BASED_3D_ENGINEERING_MIM_LF { 1 0 10303 442 3 1 4 }'));
ENDSEC;

DATA;
#10=SHAPE_REPRESENTATION_RELATIONSHIP('','',#586,#11);
#11=ADVANCED_BREP_SHAPE_REPRESENTATION('',(#584),#1020);
#12=CONICAL_SURFACE('',#652,0.00155317099430051,0.22043235);
#13=CONICAL_SURFACE('',#655,0.00155317099430051,0.22043235);
#14=CONICAL_SURFACE('',#658,0.00155317099430051,0.22043235);
#15=CONICAL_SURFACE('',#661,0.00155317099430051,0.22043235);
#16=ELLIPSE('',#610,0.00375563491861041,0.0026556349186104);
#17=ELLIPSE('',#635,0.00375563491861041,0.0026556349186104);
#18=SPHERICAL_SURFACE('',#605,0.0026556349186104);
#19=SPHERICAL_SURFACE('',#611,0.0026556349186104);
#20=SPHERICAL_SURFACE('',#624,0.0026556349186104);
#21=SPHERICAL_SURFACE('',#626,0.0026556349186104);
#22=SPHERICAL_SURFACE('',#628,0.0026556349186104);
#23=SPHERICAL_SURFACE('',#636,0.0026556349186104);
#24=CYLINDRICAL_SURFACE('',#602,0.0026556349186104);
#25=CYLINDRICAL_SURFACE('',#608,0.0026556349186104);
#26=CYLINDRICAL_SURFACE('',#613,0.0026556349186104);
#27=CYLINDRICAL_SURFACE('',#615,0.0026556349186104);
#28=CYLINDRICAL_SURFACE('',#617,0.0026556349186104);
#29=CYLINDRICAL_SURFACE('',#619,0.0026556349186104);
#30=CYLINDRICAL_SURFACE('',#621,0.0026556349186104);
#31=CYLINDRICAL_SURFACE('',#630,0.0026556349186104);
#32=CYLINDRICAL_SURFACE('',#632,0.0026556349186104);
#33=CYLINDRICAL_SURFACE('',#634,0.0026556349186104);
#34=CYLINDRICAL_SURFACE('',#638,0.0026556349186104);
#35=CYLINDRICAL_SURFACE('',#648,0.00314);
#36=CYLINDRICAL_SURFACE('',#649,0.00314);
#37=CYLINDRICAL_SURFACE('',#650,0.00314);
#38=CYLINDRICAL_SURFACE('',#651,0.00314);
#39=CIRCLE('',#589,0.00314);
#40=CIRCLE('',#590,0.00314);
#41=CIRCLE('',#591,0.00314);
#42=CIRCLE('',#592,0.00314);
#43=CIRCLE('',#594,0.00155317099430051);
#44=CIRCLE('',#595,0.00155317099430051);
#45=CIRCLE('',#596,0.00155317099430051);
#46=CIRCLE('',#597,0.00155317099430051);
#47=CIRCLE('',#603,0.0026556349186104);
#48=CIRCLE('',#604,0.0026556349186104);
#49=CIRCLE('',#606,0.0026556349186104);
#50=CIRCLE('',#607,0.0026556349186104);
#51=CIRCLE('',#609,0.0026556349186104);
#52=CIRCLE('',#612,0.0026556349186104);
#53=CIRCLE('',#614,0.0026556349186104);
#54=CIRCLE('',#616,0.0026556349186104);
#55=CIRCLE('',#618,0.0026556349186104);
#56=CIRCLE('',#620,0.0026556349186104);
#57=CIRCLE('',#622,0.0026556349186104);
#58=CIRCLE('',#623,0.0026556349186104);
#59=CIRCLE('',#625,0.0026556349186104);
#60=CIRCLE('',#627,0.0026556349186104);
#61=CIRCLE('',#629,0.0026556349186104);
#62=CIRCLE('',#631,0.0026556349186104);
#63=CIRCLE('',#633,0.0026556349186104);
#64=CIRCLE('',#637,0.0026556349186104);
#65=CIRCLE('',#644,0.00314);
#66=CIRCLE('',#645,0.00314);
#67=CIRCLE('',#646,0.00314);
#68=CIRCLE('',#647,0.00314);
#69=CIRCLE('',#653,0.000858543344613872);
#70=CIRCLE('',#656,0.000858543344613873);
#71=CIRCLE('',#659,0.000858543344613872);
#72=CIRCLE('',#662,0.000858543344613873);
#73=ORIENTED_EDGE('',*,*,#223,.T.);
#74=ORIENTED_EDGE('',*,*,#224,.T.);
#75=ORIENTED_EDGE('',*,*,#225,.T.);
#76=ORIENTED_EDGE('',*,*,#226,.T.);
#77=ORIENTED_EDGE('',*,*,#227,.F.);
#78=ORIENTED_EDGE('',*,*,#228,.T.);
#79=ORIENTED_EDGE('',*,*,#229,.T.);
#80=ORIENTED_EDGE('',*,*,#230,.T.);
#81=ORIENTED_EDGE('',*,*,#231,.T.);
#82=ORIENTED_EDGE('',*,*,#232,.T.);
#83=ORIENTED_EDGE('',*,*,#233,.F.);
#84=ORIENTED_EDGE('',*,*,#234,.T.);
#85=ORIENTED_EDGE('',*,*,#235,.F.);
#86=ORIENTED_EDGE('',*,*,#236,.F.);
#87=ORIENTED_EDGE('',*,*,#237,.F.);
#88=ORIENTED_EDGE('',*,*,#238,.F.);
#89=ORIENTED_EDGE('',*,*,#239,.F.);
#90=ORIENTED_EDGE('',*,*,#240,.T.);
#91=ORIENTED_EDGE('',*,*,#241,.T.);
#92=ORIENTED_EDGE('',*,*,#242,.T.);
#93=ORIENTED_EDGE('',*,*,#243,.T.);
#94=ORIENTED_EDGE('',*,*,#244,.T.);
#95=ORIENTED_EDGE('',*,*,#245,.T.);
#96=ORIENTED_EDGE('',*,*,#246,.T.);
#97=ORIENTED_EDGE('',*,*,#247,.T.);
#98=ORIENTED_EDGE('',*,*,#248,.T.);
#99=ORIENTED_EDGE('',*,*,#249,.T.);
#100=ORIENTED_EDGE('',*,*,#250,.T.);
#101=ORIENTED_EDGE('',*,*,#251,.T.);
#102=ORIENTED_EDGE('',*,*,#252,.T.);
#103=ORIENTED_EDGE('',*,*,#253,.T.);
#104=ORIENTED_EDGE('',*,*,#254,.T.);
#105=ORIENTED_EDGE('',*,*,#255,.T.);
#106=ORIENTED_EDGE('',*,*,#256,.T.);
#107=ORIENTED_EDGE('',*,*,#239,.T.);
#108=ORIENTED_EDGE('',*,*,#257,.T.);
#109=ORIENTED_EDGE('',*,*,#258,.F.);
#110=ORIENTED_EDGE('',*,*,#250,.F.);
#111=ORIENTED_EDGE('',*,*,#259,.F.);
#112=ORIENTED_EDGE('',*,*,#251,.F.);
#113=ORIENTED_EDGE('',*,*,#260,.F.);
#114=ORIENTED_EDGE('',*,*,#258,.T.);
#115=ORIENTED_EDGE('',*,*,#261,.F.);
#116=ORIENTED_EDGE('',*,*,#262,.F.);
#117=ORIENTED_EDGE('',*,*,#249,.F.);
#118=ORIENTED_EDGE('',*,*,#263,.F.);
#119=ORIENTED_EDGE('',*,*,#242,.F.);
#120=ORIENTED_EDGE('',*,*,#259,.T.);
#121=ORIENTED_EDGE('',*,*,#262,.T.);
#122=ORIENTED_EDGE('',*,*,#264,.F.);
#123=ORIENTED_EDGE('',*,*,#261,.T.);
#124=ORIENTED_EDGE('',*,*,#254,.F.);
#125=ORIENTED_EDGE('',*,*,#265,.F.);
#126=ORIENTED_EDGE('',*,*,#225,.F.);
#127=ORIENTED_EDGE('',*,*,#260,.T.);
#128=ORIENTED_EDGE('',*,*,#224,.F.);
#129=ORIENTED_EDGE('',*,*,#266,.F.);
#130=ORIENTED_EDGE('',*,*,#247,.F.);
#131=ORIENTED_EDGE('',*,*,#263,.T.);
#132=ORIENTED_EDGE('',*,*,#248,.F.);
#133=ORIENTED_EDGE('',*,*,#267,.F.);
#134=ORIENTED_EDGE('',*,*,#257,.F.);
#135=ORIENTED_EDGE('',*,*,#264,.T.);
#136=ORIENTED_EDGE('',*,*,#241,.F.);
#137=ORIENTED_EDGE('',*,*,#268,.F.);
#138=ORIENTED_EDGE('',*,*,#252,.F.);
#139=ORIENTED_EDGE('',*,*,#269,.F.);
#140=ORIENTED_EDGE('',*,*,#253,.F.);
#141=ORIENTED_EDGE('',*,*,#270,.F.);
#142=ORIENTED_EDGE('',*,*,#246,.F.);
#143=ORIENTED_EDGE('',*,*,#265,.T.);
#144=ORIENTED_EDGE('',*,*,#269,.T.);
#145=ORIENTED_EDGE('',*,*,#271,.F.);
#146=ORIENTED_EDGE('',*,*,#267,.T.);
#147=ORIENTED_EDGE('',*,*,#266,.T.);
#148=ORIENTED_EDGE('',*,*,#272,.F.);
#149=ORIENTED_EDGE('',*,*,#270,.T.);
#150=ORIENTED_EDGE('',*,*,#268,.T.);
#151=ORIENTED_EDGE('',*,*,#273,.F.);
#152=ORIENTED_EDGE('',*,*,#271,.T.);
#153=ORIENTED_EDGE('',*,*,#245,.F.);
#154=ORIENTED_EDGE('',*,*,#274,.F.);
#155=ORIENTED_EDGE('',*,*,#226,.F.);
#156=ORIENTED_EDGE('',*,*,#272,.T.);
#157=ORIENTED_EDGE('',*,*,#223,.F.);
#158=ORIENTED_EDGE('',*,*,#275,.F.);
#159=ORIENTED_EDGE('',*,*,#255,.F.);
#160=ORIENTED_EDGE('',*,*,#273,.T.);
#161=ORIENTED_EDGE('',*,*,#240,.F.);
#162=ORIENTED_EDGE('',*,*,#276,.F.);
#163=ORIENTED_EDGE('',*,*,#243,.F.);
#164=ORIENTED_EDGE('',*,*,#275,.T.);
#165=ORIENTED_EDGE('',*,*,#274,.T.);
#166=ORIENTED_EDGE('',*,*,#277,.F.);
#167=ORIENTED_EDGE('',*,*,#276,.T.);
#168=ORIENTED_EDGE('',*,*,#256,.F.);
#169=ORIENTED_EDGE('',*,*,#277,.T.);
#170=ORIENTED_EDGE('',*,*,#244,.F.);
#171=ORIENTED_EDGE('',*,*,#229,.F.);
#172=ORIENTED_EDGE('',*,*,#278,.T.);
#173=ORIENTED_EDGE('',*,*,#279,.T.);
#174=ORIENTED_EDGE('',*,*,#280,.T.);
#175=ORIENTED_EDGE('',*,*,#227,.T.);
#176=ORIENTED_EDGE('',*,*,#281,.T.);
#177=ORIENTED_EDGE('',*,*,#282,.F.);
#178=ORIENTED_EDGE('',*,*,#283,.T.);
#179=ORIENTED_EDGE('',*,*,#284,.F.);
#180=ORIENTED_EDGE('',*,*,#285,.T.);
#181=ORIENTED_EDGE('',*,*,#233,.T.);
#182=ORIENTED_EDGE('',*,*,#286,.T.);
#183=ORIENTED_EDGE('',*,*,#287,.T.);
#184=ORIENTED_EDGE('',*,*,#288,.T.);
#185=ORIENTED_EDGE('',*,*,#231,.F.);
#186=ORIENTED_EDGE('',*,*,#289,.T.);
#187=ORIENTED_EDGE('',*,*,#282,.T.);
#188=ORIENTED_EDGE('',*,*,#290,.T.);
#189=ORIENTED_EDGE('',*,*,#284,.T.);
#190=ORIENTED_EDGE('',*,*,#291,.T.);
#191=ORIENTED_EDGE('',*,*,#287,.F.);
#192=ORIENTED_EDGE('',*,*,#292,.T.);
#193=ORIENTED_EDGE('',*,*,#279,.F.);
#194=ORIENTED_EDGE('',*,*,#293,.T.);
#195=ORIENTED_EDGE('',*,*,#290,.F.);
#196=ORIENTED_EDGE('',*,*,#281,.F.);
#197=ORIENTED_EDGE('',*,*,#234,.F.);
#198=ORIENTED_EDGE('',*,*,#285,.F.);
#199=ORIENTED_EDGE('',*,*,#291,.F.);
#200=ORIENTED_EDGE('',*,*,#286,.F.);
#201=ORIENTED_EDGE('',*,*,#232,.F.);
#202=ORIENTED_EDGE('',*,*,#288,.F.);
#203=ORIENTED_EDGE('',*,*,#293,.F.);
#204=ORIENTED_EDGE('',*,*,#278,.F.);
#205=ORIENTED_EDGE('',*,*,#228,.F.);
#206=ORIENTED_EDGE('',*,*,#283,.F.);
#207=ORIENTED_EDGE('',*,*,#292,.F.);
#208=ORIENTED_EDGE('',*,*,#289,.F.);
#209=ORIENTED_EDGE('',*,*,#230,.F.);
#210=ORIENTED_EDGE('',*,*,#280,.F.);
#211=ORIENTED_EDGE('',*,*,#294,.F.);
#212=ORIENTED_EDGE('',*,*,#238,.T.);
#213=ORIENTED_EDGE('',*,*,#294,.T.);
#214=ORIENTED_EDGE('',*,*,#295,.F.);
#215=ORIENTED_EDGE('',*,*,#237,.T.);
#216=ORIENTED_EDGE('',*,*,#295,.T.);
#217=ORIENTED_EDGE('',*,*,#296,.F.);
#218=ORIENTED_EDGE('',*,*,#236,.T.);
#219=ORIENTED_EDGE('',*,*,#296,.T.);
#220=ORIENTED_EDGE('',*,*,#297,.F.);
#221=ORIENTED_EDGE('',*,*,#235,.T.);
#222=ORIENTED_EDGE('',*,*,#297,.T.);
#223=EDGE_CURVE('',#298,#299,#344,.T.);
#224=EDGE_CURVE('',#299,#300,#345,.F.);
#225=EDGE_CURVE('',#300,#301,#346,.F.);
#226=EDGE_CURVE('',#301,#298,#347,.T.);
#227=EDGE_CURVE('',#302,#303,#348,.T.);
#228=EDGE_CURVE('',#302,#304,#39,.T.);
#229=EDGE_CURVE('',#304,#305,#349,.T.);
#230=EDGE_CURVE('',#305,#306,#40,.T.);
#231=EDGE_CURVE('',#306,#307,#350,.T.);
#232=EDGE_CURVE('',#307,#308,#41,.T.);
#233=EDGE_CURVE('',#309,#308,#351,.T.);
#234=EDGE_CURVE('',#309,#303,#42,.T.);
#235=EDGE_CURVE('',#310,#310,#43,.T.);
#236=EDGE_CURVE('',#311,#311,#44,.T.);
#237=EDGE_CURVE('',#312,#312,#45,.T.);
#238=EDGE_CURVE('',#313,#313,#46,.T.);
#239=EDGE_CURVE('',#314,#315,#352,.T.);
#240=EDGE_CURVE('',#314,#316,#353,.F.);
#241=EDGE_CURVE('',#316,#317,#354,.T.);
#242=EDGE_CURVE('',#317,#315,#355,.T.);
#243=EDGE_CURVE('',#318,#319,#356,.T.);
#244=EDGE_CURVE('',#319,#320,#357,.T.);
#245=EDGE_CURVE('',#320,#321,#358,.F.);
#246=EDGE_CURVE('',#321,#318,#359,.F.);
#247=EDGE_CURVE('',#322,#323,#360,.T.);
#248=EDGE_CURVE('',#323,#324,#361,.F.);
#249=EDGE_CURVE('',#324,#325,#362,.F.);
#250=EDGE_CURVE('',#325,#322,#363,.T.);
#251=EDGE_CURVE('',#326,#327,#364,.F.);
#252=EDGE_CURVE('',#327,#328,#365,.F.);
#253=EDGE_CURVE('',#328,#329,#366,.T.);
#254=EDGE_CURVE('',#329,#326,#367,.T.);
#255=EDGE_CURVE('',#330,#331,#368,.F.);
#256=EDGE_CURVE('',#331,#314,#369,.F.);
#257=EDGE_CURVE('',#315,#330,#370,.T.);
#258=EDGE_CURVE('',#322,#326,#47,.T.);
#259=EDGE_CURVE('',#327,#325,#48,.T.);
#260=EDGE_CURVE('',#322,#300,#49,.F.);
#261=EDGE_CURVE('',#300,#326,#50,.F.);
#262=EDGE_CURVE('',#325,#317,#51,.T.);
#263=EDGE_CURVE('',#315,#324,#16,.T.);
#264=EDGE_CURVE('',#327,#317,#52,.F.);
#265=EDGE_CURVE('',#301,#329,#53,.T.);
#266=EDGE_CURVE('',#323,#299,#54,.T.);
#267=EDGE_CURVE('',#330,#323,#55,.T.);
#268=EDGE_CURVE('',#328,#316,#56,.T.);
#269=EDGE_CURVE('',#329,#321,#57,.T.);
#270=EDGE_CURVE('',#318,#328,#58,.T.);
#271=EDGE_CURVE('',#301,#321,#59,.F.);
#272=EDGE_CURVE('',#330,#299,#60,.F.);
#273=EDGE_CURVE('',#318,#316,#61,.F.);
#274=EDGE_CURVE('',#298,#320,#62,.T.);
#275=EDGE_CURVE('',#331,#298,#63,.T.);
#276=EDGE_CURVE('',#319,#314,#17,.F.);
#277=EDGE_CURVE('',#331,#320,#64,.F.);
#278=EDGE_CURVE('',#304,#332,#371,.F.);
#279=EDGE_CURVE('',#332,#333,#372,.T.);
#280=EDGE_CURVE('',#333,#305,#373,.T.);
#281=EDGE_CURVE('',#303,#334,#374,.F.);
#282=EDGE_CURVE('',#335,#334,#375,.T.);
#283=EDGE_CURVE('',#335,#302,#376,.T.);
#284=EDGE_CURVE('',#336,#337,#377,.T.);
#285=EDGE_CURVE('',#336,#309,#378,.T.);
#286=EDGE_CURVE('',#308,#337,#379,.F.);
#287=EDGE_CURVE('',#338,#339,#380,.T.);
#288=EDGE_CURVE('',#339,#307,#381,.T.);
#289=EDGE_CURVE('',#306,#338,#382,.F.);
#290=EDGE_CURVE('',#334,#336,#65,.T.);
#291=EDGE_CURVE('',#337,#339,#66,.T.);
#292=EDGE_CURVE('',#338,#333,#67,.T.);
#293=EDGE_CURVE('',#332,#335,#68,.T.);
#294=EDGE_CURVE('',#340,#340,#69,.T.);
#295=EDGE_CURVE('',#341,#341,#70,.T.);
#296=EDGE_CURVE('',#342,#342,#71,.T.);
#297=EDGE_CURVE('',#343,#343,#72,.T.);
#298=VERTEX_POINT('',#860);
#299=VERTEX_POINT('',#861);
#300=VERTEX_POINT('',#863);
#301=VERTEX_POINT('',#865);
#302=VERTEX_POINT('',#868);
#303=VERTEX_POINT('',#869);
#304=VERTEX_POINT('',#871);
#305=VERTEX_POINT('',#873);
#306=VERTEX_POINT('',#875);
#307=VERTEX_POINT('',#877);
#308=VERTEX_POINT('',#879);
#309=VERTEX_POINT('',#881);
#310=VERTEX_POINT('',#885);
#311=VERTEX_POINT('',#887);
#312=VERTEX_POINT('',#889);
#313=VERTEX_POINT('',#891);
#314=VERTEX_POINT('',#893);
#315=VERTEX_POINT('',#894);
#316=VERTEX_POINT('',#896);
#317=VERTEX_POINT('',#898);
#318=VERTEX_POINT('',#902);
#319=VERTEX_POINT('',#903);
#320=VERTEX_POINT('',#905);
#321=VERTEX_POINT('',#907);
#322=VERTEX_POINT('',#911);
#323=VERTEX_POINT('',#912);
#324=VERTEX_POINT('',#914);
#325=VERTEX_POINT('',#916);
#326=VERTEX_POINT('',#920);
#327=VERTEX_POINT('',#921);
#328=VERTEX_POINT('',#923);
#329=VERTEX_POINT('',#925);
#330=VERTEX_POINT('',#929);
#331=VERTEX_POINT('',#930);
#332=VERTEX_POINT('',#972);
#333=VERTEX_POINT('',#974);
#334=VERTEX_POINT('',#978);
#335=VERTEX_POINT('',#980);
#336=VERTEX_POINT('',#984);
#337=VERTEX_POINT('',#985);
#338=VERTEX_POINT('',#990);
#339=VERTEX_POINT('',#991);
#340=VERTEX_POINT('',#1005);
#341=VERTEX_POINT('',#1009);
#342=VERTEX_POINT('',#1013);
#343=VERTEX_POINT('',#1017);
#344=LINE('',#859,#383);
#345=LINE('',#862,#384);
#346=LINE('',#864,#385);
#347=LINE('',#866,#386);
#348=LINE('',#867,#387);
#349=LINE('',#872,#388);
#350=LINE('',#876,#389);
#351=LINE('',#880,#390);
#352=LINE('',#892,#391);
#353=LINE('',#895,#392);
#354=LINE('',#897,#393);
#355=LINE('',#899,#394);
#356=LINE('',#901,#395);
#357=LINE('',#904,#396);
#358=LINE('',#906,#397);
#359=LINE('',#908,#398);
#360=LINE('',#910,#399);
#361=LINE('',#913,#400);
#362=LINE('',#915,#401);
#363=LINE('',#917,#402);
#364=LINE('',#919,#403);
#365=LINE('',#922,#404);
#366=LINE('',#924,#405);
#367=LINE('',#926,#406);
#368=LINE('',#928,#407);
#369=LINE('',#931,#408);
#370=LINE('',#932,#409);
#371=LINE('',#971,#410);
#372=LINE('',#973,#411);
#373=LINE('',#975,#412);
#374=LINE('',#977,#413);
#375=LINE('',#979,#414);
#376=LINE('',#981,#415);
#377=LINE('',#983,#416);
#378=LINE('',#986,#417);
#379=LINE('',#987,#418);
#380=LINE('',#989,#419);
#381=LINE('',#992,#420);
#382=LINE('',#993,#421);
#383=VECTOR('',#668,1.);
#384=VECTOR('',#669,1.);
#385=VECTOR('',#670,1.);
#386=VECTOR('',#671,1.);
#387=VECTOR('',#672,1.);
#388=VECTOR('',#675,1.);
#389=VECTOR('',#678,1.);
#390=VECTOR('',#681,1.);
#391=VECTOR('',#694,1.);
#392=VECTOR('',#695,1.);
#393=VECTOR('',#696,1.);
#394=VECTOR('',#697,1.);
#395=VECTOR('',#700,1.);
#396=VECTOR('',#701,1.);
#397=VECTOR('',#702,1.);
#398=VECTOR('',#703,1.);
#399=VECTOR('',#706,1.);
#400=VECTOR('',#707,1.);
#401=VECTOR('',#708,1.);
#402=VECTOR('',#709,1.);
#403=VECTOR('',#712,1.);
#404=VECTOR('',#713,1.);
#405=VECTOR('',#714,1.);
#406=VECTOR('',#715,1.);
#407=VECTOR('',#718,1.);
#408=VECTOR('',#719,1.);
#409=VECTOR('',#720,1.);
#410=VECTOR('',#797,1.);
#411=VECTOR('',#798,1.);
#412=VECTOR('',#799,1.);
#413=VECTOR('',#802,1.);
#414=VECTOR('',#803,1.);
#415=VECTOR('',#804,1.);
#416=VECTOR('',#807,1.);
#417=VECTOR('',#808,1.);
#418=VECTOR('',#809,1.);
#419=VECTOR('',#812,1.);
#420=VECTOR('',#813,1.);
#421=VECTOR('',#814,1.);
#422=EDGE_LOOP('',(#73,#74,#75,#76));
#423=EDGE_LOOP('',(#77,#78,#79,#80,#81,#82,#83,#84));
#424=EDGE_LOOP('',(#85));
#425=EDGE_LOOP('',(#86));
#426=EDGE_LOOP('',(#87));
#427=EDGE_LOOP('',(#88));
#428=EDGE_LOOP('',(#89,#90,#91,#92));
#429=EDGE_LOOP('',(#93,#94,#95,#96));
#430=EDGE_LOOP('',(#97,#98,#99,#100));
#431=EDGE_LOOP('',(#101,#102,#103,#104));
#432=EDGE_LOOP('',(#105,#106,#107,#108));
#433=EDGE_LOOP('',(#109,#110,#111,#112));
#434=EDGE_LOOP('',(#113,#114,#115));
#435=EDGE_LOOP('',(#116,#117,#118,#119));
#436=EDGE_LOOP('',(#120,#121,#122));
#437=EDGE_LOOP('',(#123,#124,#125,#126));
#438=EDGE_LOOP('',(#127,#128,#129,#130));
#439=EDGE_LOOP('',(#131,#132,#133,#134));
#440=EDGE_LOOP('',(#135,#136,#137,#138));
#441=EDGE_LOOP('',(#139,#140,#141,#142));
#442=EDGE_LOOP('',(#143,#144,#145));
#443=EDGE_LOOP('',(#146,#147,#148));
#444=EDGE_LOOP('',(#149,#150,#151));
#445=EDGE_LOOP('',(#152,#153,#154,#155));
#446=EDGE_LOOP('',(#156,#157,#158,#159));
#447=EDGE_LOOP('',(#160,#161,#162,#163));
#448=EDGE_LOOP('',(#164,#165,#166));
#449=EDGE_LOOP('',(#167,#168,#169,#170));
#450=EDGE_LOOP('',(#171,#172,#173,#174));
#451=EDGE_LOOP('',(#175,#176,#177,#178));
#452=EDGE_LOOP('',(#179,#180,#181,#182));
#453=EDGE_LOOP('',(#183,#184,#185,#186));
#454=EDGE_LOOP('',(#187,#188,#189,#190,#191,#192,#193,#194));
#455=EDGE_LOOP('',(#195,#196,#197,#198));
#456=EDGE_LOOP('',(#199,#200,#201,#202));
#457=EDGE_LOOP('',(#203,#204,#205,#206));
#458=EDGE_LOOP('',(#207,#208,#209,#210));
#459=EDGE_LOOP('',(#211));
#460=EDGE_LOOP('',(#212));
#461=EDGE_LOOP('',(#213));
#462=EDGE_LOOP('',(#214));
#463=EDGE_LOOP('',(#215));
#464=EDGE_LOOP('',(#216));
#465=EDGE_LOOP('',(#217));
#466=EDGE_LOOP('',(#218));
#467=EDGE_LOOP('',(#219));
#468=EDGE_LOOP('',(#220));
#469=EDGE_LOOP('',(#221));
#470=EDGE_LOOP('',(#222));
#471=FACE_BOUND('',#422,.T.);
#472=FACE_BOUND('',#423,.T.);
#473=FACE_BOUND('',#424,.T.);
#474=FACE_BOUND('',#425,.T.);
#475=FACE_BOUND('',#426,.T.);
#476=FACE_BOUND('',#427,.T.);
#477=FACE_BOUND('',#428,.T.);
#478=FACE_BOUND('',#429,.T.);
#479=FACE_BOUND('',#430,.T.);
#480=FACE_BOUND('',#431,.T.);
#481=FACE_BOUND('',#432,.T.);
#482=FACE_BOUND('',#433,.T.);
#483=FACE_BOUND('',#434,.T.);
#484=FACE_BOUND('',#435,.T.);
#485=FACE_BOUND('',#436,.T.);
#486=FACE_BOUND('',#437,.T.);
#487=FACE_BOUND('',#438,.T.);
#488=FACE_BOUND('',#439,.T.);
#489=FACE_BOUND('',#440,.T.);
#490=FACE_BOUND('',#441,.T.);
#491=FACE_BOUND('',#442,.T.);
#492=FACE_BOUND('',#443,.T.);
#493=FACE_BOUND('',#444,.T.);
#494=FACE_BOUND('',#445,.T.);
#495=FACE_BOUND('',#446,.T.);
#496=FACE_BOUND('',#447,.T.);
#497=FACE_BOUND('',#448,.T.);
#498=FACE_BOUND('',#449,.T.);
#499=FACE_BOUND('',#450,.T.);
#500=FACE_BOUND('',#451,.T.);
#501=FACE_BOUND('',#452,.T.);
#502=FACE_BOUND('',#453,.T.);
#503=FACE_BOUND('',#454,.T.);
#504=FACE_BOUND('',#455,.T.);
#505=FACE_BOUND('',#456,.T.);
#506=FACE_BOUND('',#457,.T.);
#507=FACE_BOUND('',#458,.T.);
#508=FACE_BOUND('',#459,.T.);
#509=FACE_BOUND('',#460,.T.);
#510=FACE_BOUND('',#461,.T.);
#511=FACE_BOUND('',#462,.T.);
#512=FACE_BOUND('',#463,.T.);
#513=FACE_BOUND('',#464,.T.);
#514=FACE_BOUND('',#465,.T.);
#515=FACE_BOUND('',#466,.T.);
#516=FACE_BOUND('',#467,.T.);
#517=FACE_BOUND('',#468,.T.);
#518=FACE_BOUND('',#469,.T.);
#519=FACE_BOUND('',#470,.T.);
#520=PLANE('',#588);
#521=PLANE('',#593);
#522=PLANE('',#598);
#523=PLANE('',#599);
#524=PLANE('',#600);
#525=PLANE('',#601);
#526=PLANE('',#639);
#527=PLANE('',#640);
#528=PLANE('',#641);
#529=PLANE('',#642);
#530=PLANE('',#643);
#531=PLANE('',#654);
#532=PLANE('',#657);
#533=PLANE('',#660);
#534=PLANE('',#663);
#535=ADVANCED_FACE('',(#471,#472),#520,.F.);
#536=ADVANCED_FACE('',(#473,#474,#475,#476,#477),#521,.T.);
#537=ADVANCED_FACE('',(#478),#522,.F.);
#538=ADVANCED_FACE('',(#479),#523,.T.);
#539=ADVANCED_FACE('',(#480),#524,.T.);
#540=ADVANCED_FACE('',(#481),#525,.F.);
#541=ADVANCED_FACE('',(#482),#24,.T.);
#542=ADVANCED_FACE('',(#483),#18,.T.);
#543=ADVANCED_FACE('',(#484),#25,.T.);
#544=ADVANCED_FACE('',(#485),#19,.T.);
#545=ADVANCED_FACE('',(#486),#26,.T.);
#546=ADVANCED_FACE('',(#487),#27,.T.);
#547=ADVANCED_FACE('',(#488),#28,.T.);
#548=ADVANCED_FACE('',(#489),#29,.T.);
#549=ADVANCED_FACE('',(#490),#30,.T.);
#550=ADVANCED_FACE('',(#491),#20,.T.);
#551=ADVANCED_FACE('',(#492),#21,.T.);
#552=ADVANCED_FACE('',(#493),#22,.T.);
#553=ADVANCED_FACE('',(#494),#31,.T.);
#554=ADVANCED_FACE('',(#495),#32,.T.);
#555=ADVANCED_FACE('',(#496),#33,.T.);
#556=ADVANCED_FACE('',(#497),#23,.T.);
#557=ADVANCED_FACE('',(#498),#34,.T.);
#558=ADVANCED_FACE('',(#499),#526,.T.);
#559=ADVANCED_FACE('',(#500),#527,.F.);
#560=ADVANCED_FACE('',(#501),#528,.F.);
#561=ADVANCED_FACE('',(#502),#529,.T.);
#562=ADVANCED_FACE('',(#503),#530,.T.);
#563=ADVANCED_FACE('',(#504),#35,.F.);
#564=ADVANCED_FACE('',(#505),#36,.F.);
#565=ADVANCED_FACE('',(#506),#37,.F.);
#566=ADVANCED_FACE('',(#507),#38,.F.);
#567=ADVANCED_FACE('',(#508,#509),#12,.T.);
#568=ADVANCED_FACE('',(#510),#531,.T.);
#569=ADVANCED_FACE('',(#511,#512),#13,.T.);
#570=ADVANCED_FACE('',(#513),#532,.T.);
#571=ADVANCED_FACE('',(#514,#515),#14,.T.);
#572=ADVANCED_FACE('',(#516),#533,.T.);
#573=ADVANCED_FACE('',(#517,#518),#15,.T.);
#574=ADVANCED_FACE('',(#519),#534,.T.);
#575=CLOSED_SHELL('',(#535,#536,#537,#538,#539,#540,#541,#542,#543,#544,
#545,#546,#547,#548,#549,#550,#551,#552,#553,#554,#555,#556,#557,#558,#559,
#560,#561,#562,#563,#564,#565,#566,#567,#568,#569,#570,#571,#572,#573,#574));
#576=STYLED_ITEM('',(#577),#584);
#577=PRESENTATION_STYLE_ASSIGNMENT((#578));
#578=SURFACE_STYLE_USAGE(.BOTH.,#579);
#579=SURFACE_SIDE_STYLE('',(#580));
#580=SURFACE_STYLE_FILL_AREA(#581);
#581=FILL_AREA_STYLE('',(#582));
#582=FILL_AREA_STYLE_COLOUR('',#583);
#583=COLOUR_RGB('',0.615686274509804,0.811764705882353,0.929411764705882);
#584=MANIFOLD_SOLID_BREP('Part 1',#575);
#585=SHAPE_DEFINITION_REPRESENTATION(#1025,#586);
#586=SHAPE_REPRESENTATION('Part 1',(#587),#1020);
#587=AXIS2_PLACEMENT_3D('',#857,#664,#665);
#588=AXIS2_PLACEMENT_3D('',#858,#666,#667);
#589=AXIS2_PLACEMENT_3D('',#870,#673,#674);
#590=AXIS2_PLACEMENT_3D('',#874,#676,#677);
#591=AXIS2_PLACEMENT_3D('',#878,#679,#680);
#592=AXIS2_PLACEMENT_3D('',#882,#682,#683);
#593=AXIS2_PLACEMENT_3D('',#883,#684,#685);
#594=AXIS2_PLACEMENT_3D('',#884,#686,#687);
#595=AXIS2_PLACEMENT_3D('',#886,#688,#689);
#596=AXIS2_PLACEMENT_3D('',#888,#690,#691);
#597=AXIS2_PLACEMENT_3D('',#890,#692,#693);
#598=AXIS2_PLACEMENT_3D('',#900,#698,#699);
#599=AXIS2_PLACEMENT_3D('',#909,#704,#705);
#600=AXIS2_PLACEMENT_3D('',#918,#710,#711);
#601=AXIS2_PLACEMENT_3D('',#927,#716,#717);
#602=AXIS2_PLACEMENT_3D('',#933,#721,#722);
#603=AXIS2_PLACEMENT_3D('',#934,#723,#724);
#604=AXIS2_PLACEMENT_3D('',#935,#725,#726);
#605=AXIS2_PLACEMENT_3D('',#936,#727,#728);
#606=AXIS2_PLACEMENT_3D('',#937,#729,#730);
#607=AXIS2_PLACEMENT_3D('',#938,#731,#732);
#608=AXIS2_PLACEMENT_3D('',#939,#733,#734);
#609=AXIS2_PLACEMENT_3D('',#940,#735,#736);
#610=AXIS2_PLACEMENT_3D('',#941,#737,#738);
#611=AXIS2_PLACEMENT_3D('',#942,#739,#740);
#612=AXIS2_PLACEMENT_3D('',#943,#741,#742);
#613=AXIS2_PLACEMENT_3D('',#944,#743,#744);
#614=AXIS2_PLACEMENT_3D('',#945,#745,#746);
#615=AXIS2_PLACEMENT_3D('',#946,#747,#748);
#616=AXIS2_PLACEMENT_3D('',#947,#749,#750);
#617=AXIS2_PLACEMENT_3D('',#948,#751,#752);
#618=AXIS2_PLACEMENT_3D('',#949,#753,#754);
#619=AXIS2_PLACEMENT_3D('',#950,#755,#756);
#620=AXIS2_PLACEMENT_3D('',#951,#757,#758);
#621=AXIS2_PLACEMENT_3D('',#952,#759,#760);
#622=AXIS2_PLACEMENT_3D('',#953,#761,#762);
#623=AXIS2_PLACEMENT_3D('',#954,#763,#764);
#624=AXIS2_PLACEMENT_3D('',#955,#765,#766);
#625=AXIS2_PLACEMENT_3D('',#956,#767,#768);
#626=AXIS2_PLACEMENT_3D('',#957,#769,#770);
#627=AXIS2_PLACEMENT_3D('',#958,#771,#772);
#628=AXIS2_PLACEMENT_3D('',#959,#773,#774);
#629=AXIS2_PLACEMENT_3D('',#960,#775,#776);
#630=AXIS2_PLACEMENT_3D('',#961,#777,#778);
#631=AXIS2_PLACEMENT_3D('',#962,#779,#780);
#632=AXIS2_PLACEMENT_3D('',#963,#781,#782);
#633=AXIS2_PLACEMENT_3D('',#964,#783,#784);
#634=AXIS2_PLACEMENT_3D('',#965,#785,#786);
#635=AXIS2_PLACEMENT_3D('',#966,#787,#788);
#636=AXIS2_PLACEMENT_3D('',#967,#789,#790);
#637=AXIS2_PLACEMENT_3D('',#968,#791,#792);
#638=AXIS2_PLACEMENT_3D('',#969,#793,#794);
#639=AXIS2_PLACEMENT_3D('',#970,#795,#796);
#640=AXIS2_PLACEMENT_3D('',#976,#800,#801);
#641=AXIS2_PLACEMENT_3D('',#982,#805,#806);
#642=AXIS2_PLACEMENT_3D('',#988,#810,#811);
#643=AXIS2_PLACEMENT_3D('',#994,#815,#816);
#644=AXIS2_PLACEMENT_3D('',#995,#817,#818);
#645=AXIS2_PLACEMENT_3D('',#996,#819,#820);
#646=AXIS2_PLACEMENT_3D('',#997,#821,#822);
#647=AXIS2_PLACEMENT_3D('',#998,#823,#824);
#648=AXIS2_PLACEMENT_3D('',#999,#825,#826);
#649=AXIS2_PLACEMENT_3D('',#1000,#827,#828);
#650=AXIS2_PLACEMENT_3D('',#1001,#829,#830);
#651=AXIS2_PLACEMENT_3D('',#1002,#831,#832);
#652=AXIS2_PLACEMENT_3D('',#1003,#833,#834);
#653=AXIS2_PLACEMENT_3D('',#1004,#835,#836);
#654=AXIS2_PLACEMENT_3D('',#1006,#837,#838);
#655=AXIS2_PLACEMENT_3D('',#1007,#839,#840);
#656=AXIS2_PLACEMENT_3D('',#1008,#841,#842);
#657=AXIS2_PLACEMENT_3D('',#1010,#843,#844);
#658=AXIS2_PLACEMENT_3D('',#1011,#845,#846);
#659=AXIS2_PLACEMENT_3D('',#1012,#847,#848);
#660=AXIS2_PLACEMENT_3D('',#1014,#849,#850);
#661=AXIS2_PLACEMENT_3D('',#1015,#851,#852);
#662=AXIS2_PLACEMENT_3D('',#1016,#853,#854);
#663=AXIS2_PLACEMENT_3D('',#1018,#855,#856);
#664=DIRECTION('',(0.,0.,1.));
#665=DIRECTION('',(1.,0.,0.));
#666=DIRECTION('',(1.54197642309049E-16,0.,-1.));
#667=DIRECTION('',(-1.,0.,-1.54197642309049E-16));
#668=DIRECTION('',(-1.,0.,-1.54197642309049E-16));
#669=DIRECTION('',(0.,1.,0.));
#670=DIRECTION('',(-1.,0.,-1.54197642309049E-16));
#671=DIRECTION('',(0.,1.,0.));
#672=DIRECTION('',(0.,-1.,0.));
#673=DIRECTION('',(1.54197642309049E-16,0.,-1.));
#674=DIRECTION('',(-1.,0.,-1.54197642309049E-16));
#675=DIRECTION('',(1.,0.,1.54197642309049E-16));
#676=DIRECTION('',(1.54197642309049E-16,0.,-1.));
#677=DIRECTION('',(-1.,0.,-1.54197642309049E-16));
#678=DIRECTION('',(0.,-1.,0.));
#679=DIRECTION('',(1.54197642309049E-16,0.,-1.));
#680=DIRECTION('',(-1.,0.,-1.54197642309049E-16));
#681=DIRECTION('',(1.,0.,1.54197642309049E-16));
#682=DIRECTION('',(1.54197642309049E-16,0.,-1.));
#683=DIRECTION('',(-1.,0.,-1.54197642309049E-16));
#684=DIRECTION('',(1.54197642309049E-16,0.,-1.));
#685=DIRECTION('',(-1.,0.,-1.54197642309049E-16));
#686=DIRECTION('',(1.54197642309049E-16,0.,-1.));
#687=DIRECTION('',(-1.,0.,-1.54197642309049E-16));
#688=DIRECTION('',(1.54197642309049E-16,0.,-1.));
#689=DIRECTION('',(-1.,0.,-1.54197642309049E-16));
#690=DIRECTION('',(1.54197642309049E-16,0.,-1.));
#691=DIRECTION('',(-1.,0.,-1.54197642309049E-16));
#692=DIRECTION('',(1.54197642309049E-16,0.,-1.));
#693=DIRECTION('',(-1.,0.,-1.54197642309049E-16));
#694=DIRECTION('',(-1.,0.,-1.54197642309049E-16));
#695=DIRECTION('',(0.,1.,0.));
#696=DIRECTION('',(-1.,0.,-1.54197642309049E-16));
#697=DIRECTION('',(0.,1.,0.));
#698=DIRECTION('',(-1.,0.,-1.79213527571619E-16));
#699=DIRECTION('',(-1.79213527571619E-16,0.,1.));
#700=DIRECTION('',(0.,1.,0.));
#701=DIRECTION('',(-1.79213527571619E-16,0.,1.));
#702=DIRECTION('',(0.,1.,0.));
#703=DIRECTION('',(-1.79213527571619E-16,0.,1.));
#704=DIRECTION('',(-1.,0.,0.));
#705=DIRECTION('',(0.,0.,1.));
#706=DIRECTION('',(0.,1.,0.));
#707=DIRECTION('',(0.,0.,1.));
#708=DIRECTION('',(0.,1.,0.));
#709=DIRECTION('',(0.,0.,1.));
#710=DIRECTION('',(0.,-1.,0.));
#711=DIRECTION('',(1.,0.,0.));
#712=DIRECTION('',(0.,0.,1.));
#713=DIRECTION('',(-1.,0.,-1.54197642309049E-16));
#714=DIRECTION('',(-1.79213527571619E-16,0.,1.));
#715=DIRECTION('',(-1.,0.,-1.54197642309049E-16));
#716=DIRECTION('',(0.,-1.,0.));
#717=DIRECTION('',(1.,0.,0.));
#718=DIRECTION('',(-1.,0.,-1.54197642309049E-16));
#719=DIRECTION('',(-1.79213527571619E-16,0.,1.));
#720=DIRECTION('',(0.,0.,1.));
#721=DIRECTION('',(0.,0.,1.));
#722=DIRECTION('',(1.,0.,0.));
#723=DIRECTION('',(0.,0.,1.));
#724=DIRECTION('',(1.,0.,0.));
#725=DIRECTION('',(0.,0.,-1.));
#726=DIRECTION('',(-1.,0.,0.));
#727=DIRECTION('',(0.,-1.,0.));
#728=DIRECTION('',(0.,0.,-1.));
#729=DIRECTION('',(0.,-1.,0.));
#730=DIRECTION('',(0.,0.,-1.));
#731=DIRECTION('',(-1.,0.,0.));
#732=DIRECTION('',(0.,0.,1.));
#733=DIRECTION('',(0.,1.,0.));
#734=DIRECTION('',(0.,0.,1.));
#735=DIRECTION('',(0.,-1.,0.));
#736=DIRECTION('',(0.,0.,-1.));
#737=DIRECTION('',(0.,0.707106781186548,0.707106781186548));
#738=DIRECTION('',(0.,0.707106781186548,-0.707106781186548));
#739=DIRECTION('',(-1.,0.,0.));
#740=DIRECTION('',(0.,0.,1.));
#741=DIRECTION('',(-1.,0.,0.));
#742=DIRECTION('',(0.,0.,1.));
#743=DIRECTION('',(1.,0.,1.54197642309049E-16));
#744=DIRECTION('',(1.54197642309049E-16,0.,-1.));
#745=DIRECTION('',(1.,-1.63305906981044E-16,1.63305906981043E-16));
#746=DIRECTION('',(1.63305906981044E-16,1.,0.));
#747=DIRECTION('',(0.,-1.,0.));
#748=DIRECTION('',(0.,0.,-1.));
#749=DIRECTION('',(0.,1.,-2.12297679075357E-15));
#750=DIRECTION('',(0.,2.12297679075357E-15,1.));
#751=DIRECTION('',(0.,0.,-1.));
#752=DIRECTION('',(-1.,0.,0.));
#753=DIRECTION('',(0.,0.,1.));
#754=DIRECTION('',(1.,0.,0.));
#755=DIRECTION('',(-1.,0.,-1.54197642309049E-16));
#756=DIRECTION('',(-1.54197642309049E-16,0.,1.));
#757=DIRECTION('',(1.,0.,8.16529534905217E-16));
#758=DIRECTION('',(8.16529534905217E-16,0.,-1.));
#759=DIRECTION('',(1.79213527571619E-16,0.,-1.));
#760=DIRECTION('',(-1.,0.,-1.79213527571619E-16));
#761=DIRECTION('',(0.,0.,1.));
#762=DIRECTION('',(1.,0.,0.));
#763=DIRECTION('',(0.,0.,-1.));
#764=DIRECTION('',(-1.,0.,0.));
#765=DIRECTION('',(-4.89917720943131E-16,-1.,0.));
#766=DIRECTION('',(1.,-4.89917720943131E-16,0.));
#767=DIRECTION('',(0.,-1.,0.));
#768=DIRECTION('',(0.,0.,-1.));
#769=DIRECTION('',(-1.,0.,0.));
#770=DIRECTION('',(0.,0.,1.));
#771=DIRECTION('',(-1.,0.,0.));
#772=DIRECTION('',(0.,0.,1.));
#773=DIRECTION('',(-6.53223627924175E-16,-1.,0.));
#774=DIRECTION('',(1.,-6.53223627924175E-16,0.));
#775=DIRECTION('',(0.,-1.,0.));
#776=DIRECTION('',(0.,0.,-1.));
#777=DIRECTION('',(0.,1.,0.));
#778=DIRECTION('',(0.,0.,1.));
#779=DIRECTION('',(0.,1.,0.));
#780=DIRECTION('',(0.,0.,1.));
#781=DIRECTION('',(-1.,0.,-1.54197642309049E-16));
#782=DIRECTION('',(-1.54197642309049E-16,0.,1.));
#783=DIRECTION('',(1.,0.,6.53223627924174E-16));
#784=DIRECTION('',(6.53223627924174E-16,0.,-1.));
#785=DIRECTION('',(0.,-1.,0.));
#786=DIRECTION('',(0.,0.,-1.));
#787=DIRECTION('',(1.26723100626254E-16,-0.707106781186548,-0.707106781186548));
#788=DIRECTION('',(-1.26723100626254E-16,-0.707106781186548,0.707106781186548));
#789=DIRECTION('',(-4.8991772094313E-16,2.12297679075357E-15,1.));
#790=DIRECTION('',(0.,-1.,2.12297679075357E-15));
#791=DIRECTION('',(0.,0.,1.));
#792=DIRECTION('',(1.,0.,0.));
#793=DIRECTION('',(-1.79213527571619E-16,0.,1.));
#794=DIRECTION('',(1.,0.,1.79213527571619E-16));
#795=DIRECTION('',(0.,-1.,0.));
#796=DIRECTION('',(0.,0.,-1.));
#797=DIRECTION('',(-1.54197642309049E-16,0.,1.));
#798=DIRECTION('',(1.,0.,1.54197642309049E-16));
#799=DIRECTION('',(-1.54197642309049E-16,0.,1.));
#800=DIRECTION('',(-1.,0.,-1.54197642309049E-16));
#801=DIRECTION('',(-1.54197642309049E-16,0.,1.));
#802=DIRECTION('',(-1.54197642309049E-16,0.,1.));
#803=DIRECTION('',(0.,-1.,0.));
#804=DIRECTION('',(-1.54197642309049E-16,0.,1.));
#805=DIRECTION('',(0.,-1.,0.));
#806=DIRECTION('',(0.,0.,-1.));
#807=DIRECTION('',(1.,0.,1.54197642309049E-16));
#808=DIRECTION('',(-1.54197642309049E-16,0.,1.));
#809=DIRECTION('',(-1.54197642309049E-16,0.,1.));
#810=DIRECTION('',(-1.,0.,-1.54197642309049E-16));
#811=DIRECTION('',(-1.54197642309049E-16,0.,1.));
#812=DIRECTION('',(0.,-1.,0.));
#813=DIRECTION('',(-1.54197642309049E-16,0.,1.));
#814=DIRECTION('',(-1.54197642309049E-16,0.,1.));
#815=DIRECTION('',(-1.54197642309049E-16,0.,1.));
#816=DIRECTION('',(1.,0.,1.54197642309049E-16));
#817=DIRECTION('',(-1.54197642309049E-16,0.,1.));
#818=DIRECTION('',(1.,0.,1.54197642309049E-16));
#819=DIRECTION('',(-1.54197642309049E-16,0.,1.));
#820=DIRECTION('',(1.,0.,1.54197642309049E-16));
#821=DIRECTION('',(-1.54197642309049E-16,0.,1.));
#822=DIRECTION('',(1.,0.,1.54197642309049E-16));
#823=DIRECTION('',(-1.54197642309049E-16,0.,1.));
#824=DIRECTION('',(1.,0.,1.54197642309049E-16));
#825=DIRECTION('',(1.54197642309049E-16,0.,-1.));
#826=DIRECTION('',(-1.,0.,-1.54197642309049E-16));
#827=DIRECTION('',(-1.54197642309049E-16,0.,1.));
#828=DIRECTION('',(1.,0.,1.54197642309049E-16));
#829=DIRECTION('',(-1.54197642309049E-16,0.,1.));
#830=DIRECTION('',(1.,0.,1.54197642309049E-16));
#831=DIRECTION('',(1.54197642309049E-16,0.,-1.));
#832=DIRECTION('',(-1.,0.,-1.54197642309049E-16));
#833=DIRECTION('',(-1.54197642309049E-16,0.,1.));
#834=DIRECTION('',(-1.,0.,-1.54197642309049E-16));
#835=DIRECTION('',(1.54197642309049E-16,0.,-1.));
#836=DIRECTION('',(-1.,0.,-1.54197642309049E-16));
#837=DIRECTION('',(1.54197642309049E-16,0.,-1.));
#838=DIRECTION('',(1.,0.,1.54197642309049E-16));
#839=DIRECTION('',(-1.54197642309049E-16,0.,1.));
#840=DIRECTION('',(-1.,0.,-1.54197642309049E-16));
#841=DIRECTION('',(1.54197642309049E-16,0.,-1.));
#842=DIRECTION('',(-1.,0.,-1.54197642309049E-16));
#843=DIRECTION('',(1.54197642309049E-16,0.,-1.));
#844=DIRECTION('',(1.,0.,1.54197642309049E-16));
#845=DIRECTION('',(-1.54197642309049E-16,0.,1.));
#846=DIRECTION('',(-1.,0.,-1.54197642309049E-16));
#847=DIRECTION('',(1.54197642309049E-16,0.,-1.));
#848=DIRECTION('',(-1.,0.,-1.54197642309049E-16));
#849=DIRECTION('',(1.54197642309049E-16,0.,-1.));
#850=DIRECTION('',(1.,0.,1.54197642309049E-16));
#851=DIRECTION('',(-1.54197642309049E-16,0.,1.));
#852=DIRECTION('',(-1.,0.,-1.54197642309049E-16));
#853=DIRECTION('',(1.54197642309049E-16,0.,-1.));
#854=DIRECTION('',(-1.,0.,-1.54197642309049E-16));
#855=DIRECTION('',(1.54197642309049E-16,0.,-1.));
#856=DIRECTION('',(1.,0.,1.54197642309049E-16));
#857=CARTESIAN_POINT('',(0.,0.,0.));
#858=CARTESIAN_POINT('',(-0.0231132231858365,-0.075,0.0177222094796279));
#859=CARTESIAN_POINT('',(-0.0231132231858365,-0.0026556349186104,0.0177222094796279));
#860=CARTESIAN_POINT('',(-0.00326885810444697,-0.0026556349186104,0.0177222094796279));
#861=CARTESIAN_POINT('',(-0.0429575882672261,-0.0026556349186104,0.0177222094796279));
#862=CARTESIAN_POINT('',(-0.0429575882672261,-0.075,0.0177222094796279));
#863=CARTESIAN_POINT('',(-0.0429575882672261,-0.0723443650813896,0.0177222094796279));
#864=CARTESIAN_POINT('',(-0.000613223185836565,-0.0723443650813896,0.0177222094796279));
#865=CARTESIAN_POINT('',(-0.00326885810444697,-0.0723443650813896,0.0177222094796279));
#866=CARTESIAN_POINT('',(-0.00326885810444697,-0.075,0.0177222094796279));
#867=CARTESIAN_POINT('',(-0.0413425862789154,-0.0375945260748267,0.0177222094796279));
#868=CARTESIAN_POINT('',(-0.0413425862789154,-0.00754061651170254,0.0177222094796279));
#869=CARTESIAN_POINT('',(-0.0413425862789154,-0.0676484356379509,0.0177222094796279));
#870=CARTESIAN_POINT('',(-0.0382025862789154,-0.00754061651170254,0.0177222094796279));
#871=CARTESIAN_POINT('',(-0.0382025862789154,-0.00440061651170254,0.0177222094796279));
#872=CARTESIAN_POINT('',(-0.0230733915232122,-0.00440061651170254,0.0177222094796279));
#873=CARTESIAN_POINT('',(-0.00794419676750898,-0.00440061651170254,0.0177222094796279));
#874=CARTESIAN_POINT('',(-0.00794419676750898,-0.00754061651170254,0.0177222094796279));
#875=CARTESIAN_POINT('',(-0.00480419676750898,-0.00754061651170254,0.0177222094796279));
#876=CARTESIAN_POINT('',(-0.00480419676750898,-0.0375945260748267,0.0177222094796279));
#877=CARTESIAN_POINT('',(-0.00480419676750898,-0.0676484356379509,0.0177222094796279));
#878=CARTESIAN_POINT('',(-0.00794419676750898,-0.0676484356379509,0.0177222094796279));
#879=CARTESIAN_POINT('',(-0.00794419676750898,-0.0707884356379509,0.0177222094796279));
#880=CARTESIAN_POINT('',(-0.0230733915232122,-0.0707884356379509,0.0177222094796279));
#881=CARTESIAN_POINT('',(-0.0382025862789154,-0.0707884356379509,0.0177222094796279));
#882=CARTESIAN_POINT('',(-0.0382025862789154,-0.0676484356379509,0.0177222094796279));
#883=CARTESIAN_POINT('',(-0.0231132231858365,-0.075,0.00925251937281874));
#884=CARTESIAN_POINT('',(-0.00638007173240185,-0.0689255371689796,0.00925251937281874));
#885=CARTESIAN_POINT('',(-0.00793324272670236,-0.0689255371689796,0.00925251937281874));
#886=CARTESIAN_POINT('',(-0.0402827039361,-0.00391958858966828,0.00925251937281873));
#887=CARTESIAN_POINT('',(-0.0418358749304005,-0.00391958858966828,0.00925251937281873));
#888=CARTESIAN_POINT('',(-0.00638007173240185,-0.00391958858966828,0.00925251937281874));
#889=CARTESIAN_POINT('',(-0.00793324272670236,-0.00391958858966828,0.00925251937281874));
#890=CARTESIAN_POINT('',(-0.0402827039361,-0.0689255371689796,0.00925251937281873));
#891=CARTESIAN_POINT('',(-0.0418358749304005,-0.0689255371689796,0.00925251937281873));
#892=CARTESIAN_POINT('',(-0.0231132231858365,0.,0.00925251937281874));
#893=CARTESIAN_POINT('',(-0.00326885810444697,0.,0.00925251937281874));
#894=CARTESIAN_POINT('',(-0.0429575882672261,0.,0.00925251937281873));
#895=CARTESIAN_POINT('',(-0.00326885810444697,-0.075,0.00925251937281874));
#896=CARTESIAN_POINT('',(-0.00326885810444697,-0.0723443650813896,0.00925251937281874));
#897=CARTESIAN_POINT('',(-0.0231132231858365,-0.0723443650813896,0.00925251937281874));
#898=CARTESIAN_POINT('',(-0.0429575882672261,-0.0723443650813896,0.00925251937281873));
#899=CARTESIAN_POINT('',(-0.0429575882672261,-0.075,0.00925251937281873));
#900=CARTESIAN_POINT('',(-0.000613223185836564,-0.075,0.0134873644262233));
#901=CARTESIAN_POINT('',(-0.000613223185836564,0.,0.0119081542914291));
#902=CARTESIAN_POINT('',(-0.000613223185836564,-0.0723443650813896,0.0119081542914291));
#903=CARTESIAN_POINT('',(-0.000613223185836564,-0.0026556349186104,0.0119081542914291));
#904=CARTESIAN_POINT('',(-0.000613223185836564,-0.0026556349186104,0.0134873644262233));
#905=CARTESIAN_POINT('',(-0.000613223185836565,-0.0026556349186104,0.0150665745610175));
#906=CARTESIAN_POINT('',(-0.000613223185836565,-0.075,0.0150665745610175));
#907=CARTESIAN_POINT('',(-0.000613223185836565,-0.0723443650813896,0.0150665745610175));
#908=CARTESIAN_POINT('',(-0.000613223185836564,-0.0723443650813896,0.00925251937281874));
#909=CARTESIAN_POINT('',(-0.0456132231858366,-0.075,0.0134873644262233));
#910=CARTESIAN_POINT('',(-0.0456132231858366,0.,0.0150665745610175));
#911=CARTESIAN_POINT('',(-0.0456132231858366,-0.0723443650813896,0.0150665745610175));
#912=CARTESIAN_POINT('',(-0.0456132231858366,-0.0026556349186104,0.0150665745610175));
#913=CARTESIAN_POINT('',(-0.0456132231858366,-0.0026556349186104,0.00925251937281873));
#914=CARTESIAN_POINT('',(-0.0456132231858366,-0.0026556349186104,0.0119081542914291));
#915=CARTESIAN_POINT('',(-0.0456132231858366,-0.075,0.0119081542914291));
#916=CARTESIAN_POINT('',(-0.0456132231858366,-0.0723443650813896,0.0119081542914291));
#917=CARTESIAN_POINT('',(-0.0456132231858366,-0.0723443650813896,0.0134873644262233));
#918=CARTESIAN_POINT('',(-0.0231132231858365,-0.075,0.0134873644262233));
#919=CARTESIAN_POINT('',(-0.0429575882672261,-0.075,0.0134873644262233));
#920=CARTESIAN_POINT('',(-0.0429575882672261,-0.075,0.0150665745610175));
#921=CARTESIAN_POINT('',(-0.0429575882672261,-0.075,0.0119081542914291));
#922=CARTESIAN_POINT('',(-0.0231132231858365,-0.075,0.0119081542914291));
#923=CARTESIAN_POINT('',(-0.00326885810444697,-0.075,0.0119081542914291));
#924=CARTESIAN_POINT('',(-0.00326885810444697,-0.075,0.0177222094796279));
#925=CARTESIAN_POINT('',(-0.00326885810444697,-0.075,0.0150665745610175));
#926=CARTESIAN_POINT('',(-0.0456132231858366,-0.075,0.0150665745610175));
#927=CARTESIAN_POINT('',(-0.0231132231858365,0.,0.0134873644262233));
#928=CARTESIAN_POINT('',(-0.0231132231858365,0.,0.0150665745610175));
#929=CARTESIAN_POINT('',(-0.0429575882672261,0.,0.0150665745610175));
#930=CARTESIAN_POINT('',(-0.00326885810444697,0.,0.0150665745610175));
#931=CARTESIAN_POINT('',(-0.00326885810444697,0.,0.0134873644262233));
#932=CARTESIAN_POINT('',(-0.0429575882672261,0.,0.0177222094796279));
#933=CARTESIAN_POINT('',(-0.0429575882672261,-0.0723443650813896,0.0134873644262233));
#934=CARTESIAN_POINT('',(-0.0429575882672261,-0.0723443650813896,0.0150665745610175));
#935=CARTESIAN_POINT('',(-0.0429575882672261,-0.0723443650813896,0.0119081542914291));
#936=CARTESIAN_POINT('',(-0.0429575882672261,-0.0723443650813896,0.0150665745610175));
#937=CARTESIAN_POINT('',(-0.0429575882672261,-0.0723443650813896,0.0150665745610175));
#938=CARTESIAN_POINT('',(-0.0429575882672261,-0.0723443650813896,0.0150665745610175));
#939=CARTESIAN_POINT('',(-0.0429575882672261,-0.075,0.0119081542914291));
#940=CARTESIAN_POINT('',(-0.0429575882672261,-0.0723443650813896,0.0119081542914291));
#941=CARTESIAN_POINT('',(-0.0429575882672261,-0.0026556349186104,0.0119081542914291));
#942=CARTESIAN_POINT('',(-0.0429575882672261,-0.0723443650813896,0.0119081542914291));
#943=CARTESIAN_POINT('',(-0.0429575882672261,-0.0723443650813896,0.0119081542914291));
#944=CARTESIAN_POINT('',(-0.0231132231858365,-0.0723443650813896,0.0150665745610175));
#945=CARTESIAN_POINT('',(-0.00326885810444697,-0.0723443650813896,0.0150665745610175));
#946=CARTESIAN_POINT('',(-0.0429575882672261,-0.075,0.0150665745610175));
#947=CARTESIAN_POINT('',(-0.0429575882672261,-0.0026556349186104,0.0150665745610175));
#948=CARTESIAN_POINT('',(-0.0429575882672261,-0.0026556349186104,0.0134873644262233));
#949=CARTESIAN_POINT('',(-0.0429575882672261,-0.0026556349186104,0.0150665745610175));
#950=CARTESIAN_POINT('',(-0.0231132231858365,-0.0723443650813896,0.0119081542914291));
#951=CARTESIAN_POINT('',(-0.00326885810444697,-0.0723443650813896,0.0119081542914291));
#952=CARTESIAN_POINT('',(-0.00326885810444697,-0.0723443650813896,0.0134873644262233));
#953=CARTESIAN_POINT('',(-0.00326885810444697,-0.0723443650813896,0.0150665745610175));
#954=CARTESIAN_POINT('',(-0.00326885810444697,-0.0723443650813896,0.0119081542914291));
#955=CARTESIAN_POINT('',(-0.00326885810444697,-0.0723443650813896,0.0150665745610175));
#956=CARTESIAN_POINT('',(-0.00326885810444697,-0.0723443650813896,0.0150665745610175));
#957=CARTESIAN_POINT('',(-0.0429575882672261,-0.0026556349186104,0.0150665745610175));
#958=CARTESIAN_POINT('',(-0.0429575882672261,-0.0026556349186104,0.0150665745610175));
#959=CARTESIAN_POINT('',(-0.00326885810444697,-0.0723443650813896,0.0119081542914291));
#960=CARTESIAN_POINT('',(-0.00326885810444697,-0.0723443650813896,0.0119081542914291));
#961=CARTESIAN_POINT('',(-0.00326885810444697,-0.075,0.0150665745610175));
#962=CARTESIAN_POINT('',(-0.00326885810444697,-0.0026556349186104,0.0150665745610175));
#963=CARTESIAN_POINT('',(-0.0231132231858365,-0.0026556349186104,0.0150665745610175));
#964=CARTESIAN_POINT('',(-0.00326885810444697,-0.0026556349186104,0.0150665745610175));
#965=CARTESIAN_POINT('',(-0.00326885810444697,-0.075,0.0119081542914291));
#966=CARTESIAN_POINT('',(-0.00326885810444697,-0.0026556349186104,0.0119081542914291));
#967=CARTESIAN_POINT('',(-0.00326885810444697,-0.0026556349186104,0.0150665745610175));
#968=CARTESIAN_POINT('',(-0.00326885810444697,-0.0026556349186104,0.0150665745610175));
#969=CARTESIAN_POINT('',(-0.00326885810444697,-0.0026556349186104,0.0134873644262233));
#970=CARTESIAN_POINT('',(-0.0230733915232122,-0.00440061651170254,0.0141222094796279));
#971=CARTESIAN_POINT('',(-0.0382025862789154,-0.00440061651170254,0.0141222094796279));
#972=CARTESIAN_POINT('',(-0.0382025862789154,-0.00440061651170254,0.0141222094796279));
#973=CARTESIAN_POINT('',(-0.0230733915232122,-0.00440061651170254,0.0141222094796279));
#974=CARTESIAN_POINT('',(-0.00794419676750898,-0.00440061651170254,0.0141222094796279));
#975=CARTESIAN_POINT('',(-0.00794419676750898,-0.00440061651170254,0.0177222094796279));
#976=CARTESIAN_POINT('',(-0.0413425862789154,-0.0375945260748267,0.0141222094796279));
#977=CARTESIAN_POINT('',(-0.0413425862789154,-0.0676484356379509,0.0141222094796279));
#978=CARTESIAN_POINT('',(-0.0413425862789154,-0.0676484356379509,0.0141222094796279));
#979=CARTESIAN_POINT('',(-0.0413425862789154,-0.0375945260748267,0.0141222094796279));
#980=CARTESIAN_POINT('',(-0.0413425862789154,-0.00754061651170254,0.0141222094796279));
#981=CARTESIAN_POINT('',(-0.0413425862789154,-0.00754061651170254,0.0141222094796279));
#982=CARTESIAN_POINT('',(-0.0230733915232122,-0.0707884356379509,0.0141222094796279));
#983=CARTESIAN_POINT('',(-0.0230733915232122,-0.0707884356379509,0.0141222094796279));
#984=CARTESIAN_POINT('',(-0.0382025862789154,-0.0707884356379509,0.0141222094796279));
#985=CARTESIAN_POINT('',(-0.00794419676750898,-0.0707884356379509,0.0141222094796279));
#986=CARTESIAN_POINT('',(-0.0382025862789154,-0.0707884356379509,0.0177222094796279));
#987=CARTESIAN_POINT('',(-0.00794419676750898,-0.0707884356379509,0.0141222094796279));
#988=CARTESIAN_POINT('',(-0.00480419676750898,-0.0375945260748267,0.0141222094796279));
#989=CARTESIAN_POINT('',(-0.00480419676750898,-0.0375945260748267,0.0141222094796279));
#990=CARTESIAN_POINT('',(-0.00480419676750898,-0.00754061651170254,0.0141222094796279));
#991=CARTESIAN_POINT('',(-0.00480419676750898,-0.0676484356379509,0.0141222094796279));
#992=CARTESIAN_POINT('',(-0.00480419676750898,-0.0676484356379509,0.0141222094796279));
#993=CARTESIAN_POINT('',(-0.00480419676750898,-0.00754061651170254,0.0141222094796279));
#994=CARTESIAN_POINT('',(-0.0231132231858365,-0.0375,0.0141222094796279));
#995=CARTESIAN_POINT('',(-0.0382025862789154,-0.0676484356379509,0.0141222094796279));
#996=CARTESIAN_POINT('',(-0.00794419676750898,-0.0676484356379509,0.0141222094796279));
#997=CARTESIAN_POINT('',(-0.00794419676750898,-0.00754061651170254,0.0141222094796279));
#998=CARTESIAN_POINT('',(-0.0382025862789154,-0.00754061651170254,0.0141222094796279));
#999=CARTESIAN_POINT('',(-0.0382025862789154,-0.0676484356379509,0.0141222094796279));
#1000=CARTESIAN_POINT('',(-0.00794419676750898,-0.0676484356379509,0.0141222094796279));
#1001=CARTESIAN_POINT('',(-0.0382025862789154,-0.00754061651170254,0.0141222094796279));
#1002=CARTESIAN_POINT('',(-0.00794419676750898,-0.00754061651170254,0.0141222094796279));
#1003=CARTESIAN_POINT('',(-0.0402827039361,-0.0689255371689796,0.00925251937281873));
#1004=CARTESIAN_POINT('',(-0.0402827039361,-0.0689255371689796,0.00615251937281874));
#1005=CARTESIAN_POINT('',(-0.0411412472807139,-0.0689255371689796,0.00615251937281874));
#1006=CARTESIAN_POINT('',(-0.0231132231858365,-0.0361721825406948,0.00615251937281874));
#1007=CARTESIAN_POINT('',(-0.00638007173240185,-0.00391958858966828,0.00925251937281874));
#1008=CARTESIAN_POINT('',(-0.00638007173240185,-0.00391958858966828,0.00615251937281874));
#1009=CARTESIAN_POINT('',(-0.00723861507701572,-0.00391958858966828,0.00615251937281874));
#1010=CARTESIAN_POINT('',(-0.0231132231858365,-0.0361721825406948,0.00615251937281874));
#1011=CARTESIAN_POINT('',(-0.0402827039361,-0.00391958858966828,0.00925251937281873));
#1012=CARTESIAN_POINT('',(-0.0402827039361,-0.00391958858966828,0.00615251937281874));
#1013=CARTESIAN_POINT('',(-0.0411412472807139,-0.00391958858966828,0.00615251937281874));
#1014=CARTESIAN_POINT('',(-0.0231132231858365,-0.0361721825406948,0.00615251937281874));
#1015=CARTESIAN_POINT('',(-0.00638007173240185,-0.0689255371689796,0.00925251937281874));
#1016=CARTESIAN_POINT('',(-0.00638007173240185,-0.0689255371689796,0.00615251937281874));
#1017=CARTESIAN_POINT('',(-0.00723861507701572,-0.0689255371689796,0.00615251937281874));
#1018=CARTESIAN_POINT('',(-0.0231132231858365,-0.0361721825406948,0.00615251937281874));
#1019=MECHANICAL_DESIGN_GEOMETRIC_PRESENTATION_REPRESENTATION('',(#576),
#1020);
#1020=(
GEOMETRIC_REPRESENTATION_CONTEXT(3)
GLOBAL_UNCERTAINTY_ASSIGNED_CONTEXT((#1021))
GLOBAL_UNIT_ASSIGNED_CONTEXT((#1024,#1023,#1022))
REPRESENTATION_CONTEXT('Part 1','TOP_LEVEL_ASSEMBLY_PART')
);
#1021=UNCERTAINTY_MEASURE_WITH_UNIT(LENGTH_MEASURE(1.E-8),#1024,
'DISTANCE_ACCURACY_VALUE','Maximum Tolerance applied to model');
#1022=(
NAMED_UNIT(*)
SI_UNIT($,.STERADIAN.)
SOLID_ANGLE_UNIT()
);
#1023=(
NAMED_UNIT(*)
PLANE_ANGLE_UNIT()
SI_UNIT($,.RADIAN.)
);
#1024=(
LENGTH_UNIT()
NAMED_UNIT(*)
SI_UNIT($,.METRE.)
);
#1025=PRODUCT_DEFINITION_SHAPE('','',#1026);
#1026=PRODUCT_DEFINITION('','',#1028,#1027);
#1027=PRODUCT_DEFINITION_CONTEXT('',#1034,'design');
#1028=PRODUCT_DEFINITION_FORMATION_WITH_SPECIFIED_SOURCE('','',#1030,
 .NOT_KNOWN.);
#1029=PRODUCT_RELATED_PRODUCT_CATEGORY('','',(#1030));
#1030=PRODUCT('Part 1','Part 1','Part 1',(#1032));
#1031=PRODUCT_CATEGORY('','');
#1032=PRODUCT_CONTEXT('',#1034,'mechanical');
#1033=APPLICATION_PROTOCOL_DEFINITION('international standard',
'ap242_managed_model_based_3d_engineering',2020,#1034);
#1034=APPLICATION_CONTEXT('managed model based 3d engineering');
ENDSEC;
END-ISO-10303-21;
