ISO-10303-21;
HEADER;
/* Generated by software containing ST-Developer
 * from STEP Tools, Inc. (www.steptools.com) 
 */
/* OPTION: using custom renumber hook */

FILE_DESCRIPTION(
/* description */ ('STEP AP242 Edition 2',
'CAx-IF Rec.Pracs.---Representation and Presentation of Product Manufa
cturing Information (PMI)---4.0---2014-10-13',
'CAx-IF Rec.Pracs.---3D Tessellated Geometry---0.4---2014-09-14','2;1',
'CAx-IF Rec.Pracs.---User Defined Attributes---1.5---2016-08-15'),
/* implementation_level */ '2;1');

FILE_NAME(
/* name */ 'bed_back',
/* time_stamp */ '2026-09-05T01:50:14Z',
/* author */ (''),
/* organization */ (''),
/* preprocessor_version */ 'ST-DEVELOPER v20',
/* originating_system */ 'ONSHAPE BY PTC INC, 1.220',
/* authorisation */ '  ');

FILE_SCHEMA (('AP242_MANAGED_MODEL_BASED_3D_ENGINEERING_MIM_LF { 1 0 10303 442 3 1 4 }'));
ENDSEC;

DATA;
#10=SHAPE_REPRESENTATION_RELATIONSHIP('','',#111,#11);
#11=ADVANCED_BREP_SHAPE_REPRESENTATION('',(#109),#181);
#12=ELLIPSE('',#119,0.00707106781186547,0.005);
#13=ELLIPSE('',#121,0.00707106781186547,0.005);
#14=CYLINDRICAL_SURFACE('',#118,0.005);
#15=CYLINDRICAL_SURFACE('',#120,0.005);
#16=CYLINDRICAL_SURFACE('',#122,0.005);
#17=CIRCLE('',#114,0.005);
#18=CIRCLE('',#115,0.005);
#19=ORIENTED_EDGE('',*,*,#43,.T.);
#20=ORIENTED_EDGE('',*,*,#44,.T.);
#21=ORIENTED_EDGE('',*,*,#45,.F.);
#22=ORIENTED_EDGE('',*,*,#46,.T.);
#23=ORIENTED_EDGE('',*,*,#45,.T.);
#24=ORIENTED_EDGE('',*,*,#47,.T.);
#25=ORIENTED_EDGE('',*,*,#48,.T.);
#26=ORIENTED_EDGE('',*,*,#49,.T.);
#27=ORIENTED_EDGE('',*,*,#50,.T.);
#28=ORIENTED_EDGE('',*,*,#51,.T.);
#29=ORIENTED_EDGE('',*,*,#43,.F.);
#30=ORIENTED_EDGE('',*,*,#52,.T.);
#31=ORIENTED_EDGE('',*,*,#46,.F.);
#32=ORIENTED_EDGE('',*,*,#49,.F.);
#33=ORIENTED_EDGE('',*,*,#53,.F.);
#34=ORIENTED_EDGE('',*,*,#52,.F.);
#35=ORIENTED_EDGE('',*,*,#53,.T.);
#36=ORIENTED_EDGE('',*,*,#48,.F.);
#37=ORIENTED_EDGE('',*,*,#54,.F.);
#38=ORIENTED_EDGE('',*,*,#50,.F.);
#39=ORIENTED_EDGE('',*,*,#54,.T.);
#40=ORIENTED_EDGE('',*,*,#47,.F.);
#41=ORIENTED_EDGE('',*,*,#44,.F.);
#42=ORIENTED_EDGE('',*,*,#51,.F.);
#43=EDGE_CURVE('',#55,#56,#63,.T.);
#44=EDGE_CURVE('',#56,#57,#17,.F.);
#45=EDGE_CURVE('',#58,#57,#64,.T.);
#46=EDGE_CURVE('',#58,#55,#18,.F.);
#47=EDGE_CURVE('',#57,#59,#65,.F.);
#48=EDGE_CURVE('',#59,#60,#66,.F.);
#49=EDGE_CURVE('',#60,#58,#67,.T.);
#50=EDGE_CURVE('',#61,#62,#68,.T.);
#51=EDGE_CURVE('',#62,#56,#69,.T.);
#52=EDGE_CURVE('',#55,#61,#70,.T.);
#53=EDGE_CURVE('',#61,#60,#12,.T.);
#54=EDGE_CURVE('',#62,#59,#13,.T.);
#55=VERTEX_POINT('',#156);
#56=VERTEX_POINT('',#157);
#57=VERTEX_POINT('',#159);
#58=VERTEX_POINT('',#161);
#59=VERTEX_POINT('',#165);
#60=VERTEX_POINT('',#167);
#61=VERTEX_POINT('',#171);
#62=VERTEX_POINT('',#172);
#63=LINE('',#155,#71);
#64=LINE('',#160,#72);
#65=LINE('',#164,#73);
#66=LINE('',#166,#74);
#67=LINE('',#168,#75);
#68=LINE('',#170,#76);
#69=LINE('',#173,#77);
#70=LINE('',#174,#78);
#71=VECTOR('',#127,1.);
#72=VECTOR('',#130,1.);
#73=VECTOR('',#135,1.);
#74=VECTOR('',#136,1.);
#75=VECTOR('',#137,1.);
#76=VECTOR('',#140,1.);
#77=VECTOR('',#141,1.);
#78=VECTOR('',#142,1.);
#79=EDGE_LOOP('',(#19,#20,#21,#22));
#80=EDGE_LOOP('',(#23,#24,#25,#26));
#81=EDGE_LOOP('',(#27,#28,#29,#30));
#82=EDGE_LOOP('',(#31,#32,#33,#34));
#83=EDGE_LOOP('',(#35,#36,#37,#38));
#84=EDGE_LOOP('',(#39,#40,#41,#42));
#85=FACE_BOUND('',#79,.T.);
#86=FACE_BOUND('',#80,.T.);
#87=FACE_BOUND('',#81,.T.);
#88=FACE_BOUND('',#82,.T.);
#89=FACE_BOUND('',#83,.T.);
#90=FACE_BOUND('',#84,.T.);
#91=PLANE('',#113);
#92=PLANE('',#116);
#93=PLANE('',#117);
#94=ADVANCED_FACE('',(#85),#91,.F.);
#95=ADVANCED_FACE('',(#86),#92,.T.);
#96=ADVANCED_FACE('',(#87),#93,.F.);
#97=ADVANCED_FACE('',(#88),#14,.T.);
#98=ADVANCED_FACE('',(#89),#15,.T.);
#99=ADVANCED_FACE('',(#90),#16,.T.);
#100=CLOSED_SHELL('',(#94,#95,#96,#97,#98,#99));
#101=STYLED_ITEM('',(#102),#109);
#102=PRESENTATION_STYLE_ASSIGNMENT((#103));
#103=SURFACE_STYLE_USAGE(.BOTH.,#104);
#104=SURFACE_SIDE_STYLE('',(#105));
#105=SURFACE_STYLE_FILL_AREA(#106);
#106=FILL_AREA_STYLE('',(#107));
#107=FILL_AREA_STYLE_COLOUR('',#108);
#108=COLOUR_RGB('',0.615686274509804,0.811764705882353,0.929411764705882);
#109=MANIFOLD_SOLID_BREP('Part 1',#100);
#110=SHAPE_DEFINITION_REPRESENTATION(#186,#111);
#111=SHAPE_REPRESENTATION('Part 1',(#112),#181);
#112=AXIS2_PLACEMENT_3D('',#153,#123,#124);
#113=AXIS2_PLACEMENT_3D('',#154,#125,#126);
#114=AXIS2_PLACEMENT_3D('',#158,#128,#129);
#115=AXIS2_PLACEMENT_3D('',#162,#131,#132);
#116=AXIS2_PLACEMENT_3D('',#163,#133,#134);
#117=AXIS2_PLACEMENT_3D('',#169,#138,#139);
#118=AXIS2_PLACEMENT_3D('',#175,#143,#144);
#119=AXIS2_PLACEMENT_3D('',#176,#145,#146);
#120=AXIS2_PLACEMENT_3D('',#177,#147,#148);
#121=AXIS2_PLACEMENT_3D('',#178,#149,#150);
#122=AXIS2_PLACEMENT_3D('',#179,#151,#152);
#123=DIRECTION('',(0.,0.,1.));
#124=DIRECTION('',(1.,0.,0.));
#125=DIRECTION('',(0.,0.,1.));
#126=DIRECTION('',(1.,0.,0.));
#127=DIRECTION('',(1.,0.,0.));
#128=DIRECTION('',(0.,0.,1.));
#129=DIRECTION('',(1.,0.,0.));
#130=DIRECTION('',(1.,0.,0.));
#131=DIRECTION('',(0.,0.,1.));
#132=DIRECTION('',(1.,0.,0.));
#133=DIRECTION('',(0.,-1.,0.));
#134=DIRECTION('',(1.,0.,0.));
#135=DIRECTION('',(0.,0.,-1.));
#136=DIRECTION('',(1.,0.,0.));
#137=DIRECTION('',(0.,0.,-1.));
#138=DIRECTION('',(0.,-1.,0.));
#139=DIRECTION('',(1.,0.,0.));
#140=DIRECTION('',(1.,0.,0.));
#141=DIRECTION('',(0.,0.,-1.));
#142=DIRECTION('',(0.,0.,1.));
#143=DIRECTION('',(0.,0.,1.));
#144=DIRECTION('',(1.,0.,0.));
#145=DIRECTION('',(0.707106781186548,0.,0.707106781186548));
#146=DIRECTION('',(-0.707106781186548,0.,0.707106781186548));
#147=DIRECTION('',(1.,0.,0.));
#148=DIRECTION('',(0.,0.,-1.));
#149=DIRECTION('',(0.707106781186548,0.,-0.707106781186548));
#150=DIRECTION('',(0.707106781186548,0.,0.707106781186548));
#151=DIRECTION('',(0.,0.,-1.));
#152=DIRECTION('',(-1.,0.,0.));
#153=CARTESIAN_POINT('',(0.,0.,0.));
#154=CARTESIAN_POINT('',(-0.0108806823939085,-0.003,0.0114346602931619));
#155=CARTESIAN_POINT('',(-0.0108806823939085,0.,0.0114346602931619));
#156=CARTESIAN_POINT('',(-0.0379632580888644,0.,0.0114346602931619));
#157=CARTESIAN_POINT('',(0.0162018933010473,0.,0.0114346602931619));
#158=CARTESIAN_POINT('',(0.0116193176060915,0.002,0.0114346602931619));
#159=CARTESIAN_POINT('',(0.0116193176060915,-0.003,0.0114346602931619));
#160=CARTESIAN_POINT('',(-0.0108806823939085,-0.003,0.0114346602931619));
#161=CARTESIAN_POINT('',(-0.0333806823939085,-0.003,0.0114346602931619));
#162=CARTESIAN_POINT('',(-0.0333806823939085,0.002,0.0114346602931619));
#163=CARTESIAN_POINT('',(-0.0108806823939085,-0.003,0.0239346602931618));
#164=CARTESIAN_POINT('',(0.0116193176060915,-0.003,0.0239346602931618));
#165=CARTESIAN_POINT('',(0.0116193176060915,-0.003,0.0314346602931619));
#166=CARTESIAN_POINT('',(-0.0108806823939085,-0.003,0.0314346602931619));
#167=CARTESIAN_POINT('',(-0.0333806823939085,-0.003,0.0314346602931619));
#168=CARTESIAN_POINT('',(-0.0333806823939085,-0.003,0.0114346602931619));
#169=CARTESIAN_POINT('',(-0.0108806823939085,0.,0.0239346602931618));
#170=CARTESIAN_POINT('',(-0.0108806823939085,0.,0.0360172359881177));
#171=CARTESIAN_POINT('',(-0.0379632580888644,0.,0.0360172359881177));
#172=CARTESIAN_POINT('',(0.0162018933010473,0.,0.0360172359881177));
#173=CARTESIAN_POINT('',(0.0162018933010473,0.,0.0239346602931618));
#174=CARTESIAN_POINT('',(-0.0379632580888644,0.,0.0239346602931618));
#175=CARTESIAN_POINT('',(-0.0333806823939085,0.002,0.0239346602931618));
#176=CARTESIAN_POINT('',(-0.0333806823939085,0.002,0.0314346602931619));
#177=CARTESIAN_POINT('',(-0.0108806823939085,0.002,0.0314346602931619));
#178=CARTESIAN_POINT('',(0.0116193176060915,0.002,0.0314346602931619));
#179=CARTESIAN_POINT('',(0.0116193176060915,0.002,0.0239346602931618));
#180=MECHANICAL_DESIGN_GEOMETRIC_PRESENTATION_REPRESENTATION('',(#101),
#181);
#181=(
GEOMETRIC_REPRESENTATION_CONTEXT(3)
GLOBAL_UNCERTAINTY_ASSIGNED_CONTEXT((#182))
GLOBAL_UNIT_ASSIGNED_CONTEXT((#185,#184,#183))
REPRESENTATION_CONTEXT('Part 1','TOP_LEVEL_ASSEMBLY_PART')
);
#182=UNCERTAINTY_MEASURE_WITH_UNIT(LENGTH_MEASURE(1.E-8),#185,
'DISTANCE_ACCURACY_VALUE','Maximum Tolerance applied to model');
#183=(
NAMED_UNIT(*)
SI_UNIT($,.STERADIAN.)
SOLID_ANGLE_UNIT()
);
#184=(
NAMED_UNIT(*)
PLANE_ANGLE_UNIT()
SI_UNIT($,.RADIAN.)
);
#185=(
LENGTH_UNIT()
NAMED_UNIT(*)
SI_UNIT($,.METRE.)
);
#186=PRODUCT_DEFINITION_SHAPE('','',#187);
#187=PRODUCT_DEFINITION('','',#189,#188);
#188=PRODUCT_DEFINITION_CONTEXT('',#195,'design');
#189=PRODUCT_DEFINITION_FORMATION_WITH_SPECIFIED_SOURCE('','',#191,
 .NOT_KNOWN.);
#190=PRODUCT_RELATED_PRODUCT_CATEGORY('','',(#191));
#191=PRODUCT('Part 1','Part 1','Part 1',(#193));
#192=PRODUCT_CATEGORY('','');
#193=PRODUCT_CONTEXT('',#195,'mechanical');
#194=APPLICATION_PROTOCOL_DEFINITION('international standard',
'ap242_managed_model_based_3d_engineering',2020,#195);
#195=APPLICATION_CONTEXT('managed model based 3d engineering');
ENDSEC;
END-ISO-10303-21;
