ISO-10303-21;
HEADER;
/* Generated by software containing ST-Developer
 * from STEP Tools, Inc. (www.steptools.com) 
 */
/* OPTION: using custom renumber hook */

FILE_DESCRIPTION(
/* description */ ('STEP AP242 Edition 2',
'CAx-IF Rec.Pracs.---Representation and Presentation of Product Manufa
cturing Information (PMI)---4.0---2014-10-13',
'CAx-IF Rec.Pracs.---3D Tessellated Geometry---0.4---2014-09-14','2;1',
'CAx-IF Rec.Pracs.---User Defined Attributes---1.5---2016-08-15'),
/* implementation_level */ '2;1');

FILE_NAME(
/* name */ 'bedside cabinet',
/* time_stamp */ '2026-09-05T01:50:40Z',
/* author */ (''),
/* organization */ (''),
/* preprocessor_version */ 'ST-DEVELOPER v20',
/* originating_system */ 'ONSHAPE BY PTC INC, 1.220',
/* authorisation */ '  ');

FILE_SCHEMA (('AP242_MANAGED_MODEL_BASED_3D_ENGINEERING_MIM_LF { 1 0 10303 442 3 1 4 }'));
ENDSEC;

DATA;
#10=SHAPE_REPRESENTATION_RELATIONSHIP('','',#647,#11);
#11=ADVANCED_BREP_SHAPE_REPRESENTATION('',(#645),#1017);
#12=ORIENTED_CLOSED_SHELL('',*,#636,.F.);
#13=ORIENTED_EDGE('',*,*,#181,.T.);
#14=ORIENTED_EDGE('',*,*,#182,.F.);
#15=ORIENTED_EDGE('',*,*,#183,.T.);
#16=ORIENTED_EDGE('',*,*,#184,.F.);
#17=ORIENTED_EDGE('',*,*,#185,.F.);
#18=ORIENTED_EDGE('',*,*,#186,.F.);
#19=ORIENTED_EDGE('',*,*,#187,.F.);
#20=ORIENTED_EDGE('',*,*,#188,.T.);
#21=ORIENTED_EDGE('',*,*,#184,.T.);
#22=ORIENTED_EDGE('',*,*,#189,.F.);
#23=ORIENTED_EDGE('',*,*,#190,.F.);
#24=ORIENTED_EDGE('',*,*,#191,.T.);
#25=ORIENTED_EDGE('',*,*,#192,.F.);
#26=ORIENTED_EDGE('',*,*,#193,.T.);
#27=ORIENTED_EDGE('',*,*,#194,.T.);
#28=ORIENTED_EDGE('',*,*,#195,.F.);
#29=ORIENTED_EDGE('',*,*,#196,.F.);
#30=ORIENTED_EDGE('',*,*,#197,.F.);
#31=ORIENTED_EDGE('',*,*,#192,.T.);
#32=ORIENTED_EDGE('',*,*,#198,.T.);
#33=ORIENTED_EDGE('',*,*,#199,.F.);
#34=ORIENTED_EDGE('',*,*,#200,.F.);
#35=ORIENTED_EDGE('',*,*,#201,.T.);
#36=ORIENTED_EDGE('',*,*,#202,.F.);
#37=ORIENTED_EDGE('',*,*,#203,.F.);
#38=ORIENTED_EDGE('',*,*,#199,.T.);
#39=ORIENTED_EDGE('',*,*,#204,.T.);
#40=ORIENTED_EDGE('',*,*,#205,.F.);
#41=ORIENTED_EDGE('',*,*,#194,.F.);
#42=ORIENTED_EDGE('',*,*,#206,.T.);
#43=ORIENTED_EDGE('',*,*,#207,.T.);
#44=ORIENTED_EDGE('',*,*,#208,.T.);
#45=ORIENTED_EDGE('',*,*,#209,.F.);
#46=ORIENTED_EDGE('',*,*,#210,.T.);
#47=ORIENTED_EDGE('',*,*,#205,.T.);
#48=ORIENTED_EDGE('',*,*,#211,.F.);
#49=ORIENTED_EDGE('',*,*,#212,.F.);
#50=ORIENTED_EDGE('',*,*,#213,.T.);
#51=ORIENTED_EDGE('',*,*,#214,.T.);
#52=ORIENTED_EDGE('',*,*,#215,.T.);
#53=ORIENTED_EDGE('',*,*,#190,.T.);
#54=ORIENTED_EDGE('',*,*,#216,.F.);
#55=ORIENTED_EDGE('',*,*,#217,.T.);
#56=ORIENTED_EDGE('',*,*,#218,.F.);
#57=ORIENTED_EDGE('',*,*,#198,.F.);
#58=ORIENTED_EDGE('',*,*,#195,.T.);
#59=ORIENTED_EDGE('',*,*,#211,.T.);
#60=ORIENTED_EDGE('',*,*,#204,.F.);
#61=ORIENTED_EDGE('',*,*,#219,.T.);
#62=ORIENTED_EDGE('',*,*,#188,.F.);
#63=ORIENTED_EDGE('',*,*,#220,.F.);
#64=ORIENTED_EDGE('',*,*,#212,.T.);
#65=ORIENTED_EDGE('',*,*,#187,.T.);
#66=ORIENTED_EDGE('',*,*,#221,.F.);
#67=ORIENTED_EDGE('',*,*,#213,.F.);
#68=ORIENTED_EDGE('',*,*,#220,.T.);
#69=ORIENTED_EDGE('',*,*,#181,.F.);
#70=ORIENTED_EDGE('',*,*,#219,.F.);
#71=ORIENTED_EDGE('',*,*,#218,.T.);
#72=ORIENTED_EDGE('',*,*,#222,.T.);
#73=ORIENTED_EDGE('',*,*,#223,.F.);
#74=ORIENTED_EDGE('',*,*,#202,.T.);
#75=ORIENTED_EDGE('',*,*,#224,.F.);
#76=ORIENTED_EDGE('',*,*,#208,.F.);
#77=ORIENTED_EDGE('',*,*,#224,.T.);
#78=ORIENTED_EDGE('',*,*,#201,.F.);
#79=ORIENTED_EDGE('',*,*,#225,.F.);
#80=ORIENTED_EDGE('',*,*,#209,.T.);
#81=ORIENTED_EDGE('',*,*,#226,.T.);
#82=ORIENTED_EDGE('',*,*,#227,.T.);
#83=ORIENTED_EDGE('',*,*,#228,.F.);
#84=ORIENTED_EDGE('',*,*,#229,.F.);
#85=ORIENTED_EDGE('',*,*,#210,.F.);
#86=ORIENTED_EDGE('',*,*,#225,.T.);
#87=ORIENTED_EDGE('',*,*,#200,.T.);
#88=ORIENTED_EDGE('',*,*,#203,.T.);
#89=ORIENTED_EDGE('',*,*,#223,.T.);
#90=ORIENTED_EDGE('',*,*,#207,.F.);
#91=ORIENTED_EDGE('',*,*,#230,.F.);
#92=ORIENTED_EDGE('',*,*,#196,.T.);
#93=ORIENTED_EDGE('',*,*,#231,.T.);
#94=ORIENTED_EDGE('',*,*,#232,.T.);
#95=ORIENTED_EDGE('',*,*,#233,.F.);
#96=ORIENTED_EDGE('',*,*,#234,.F.);
#97=ORIENTED_EDGE('',*,*,#197,.T.);
#98=ORIENTED_EDGE('',*,*,#230,.T.);
#99=ORIENTED_EDGE('',*,*,#206,.F.);
#100=ORIENTED_EDGE('',*,*,#193,.F.);
#101=ORIENTED_EDGE('',*,*,#231,.F.);
#102=ORIENTED_EDGE('',*,*,#235,.F.);
#103=ORIENTED_EDGE('',*,*,#236,.T.);
#104=ORIENTED_EDGE('',*,*,#237,.T.);
#105=ORIENTED_EDGE('',*,*,#234,.T.);
#106=ORIENTED_EDGE('',*,*,#238,.F.);
#107=ORIENTED_EDGE('',*,*,#239,.F.);
#108=ORIENTED_EDGE('',*,*,#235,.T.);
#109=ORIENTED_EDGE('',*,*,#233,.T.);
#110=ORIENTED_EDGE('',*,*,#240,.F.);
#111=ORIENTED_EDGE('',*,*,#241,.F.);
#112=ORIENTED_EDGE('',*,*,#238,.T.);
#113=ORIENTED_EDGE('',*,*,#232,.F.);
#114=ORIENTED_EDGE('',*,*,#237,.F.);
#115=ORIENTED_EDGE('',*,*,#242,.T.);
#116=ORIENTED_EDGE('',*,*,#240,.T.);
#117=ORIENTED_EDGE('',*,*,#236,.F.);
#118=ORIENTED_EDGE('',*,*,#239,.T.);
#119=ORIENTED_EDGE('',*,*,#241,.T.);
#120=ORIENTED_EDGE('',*,*,#242,.F.);
#121=ORIENTED_EDGE('',*,*,#226,.F.);
#122=ORIENTED_EDGE('',*,*,#243,.F.);
#123=ORIENTED_EDGE('',*,*,#244,.T.);
#124=ORIENTED_EDGE('',*,*,#245,.T.);
#125=ORIENTED_EDGE('',*,*,#229,.T.);
#126=ORIENTED_EDGE('',*,*,#246,.F.);
#127=ORIENTED_EDGE('',*,*,#247,.F.);
#128=ORIENTED_EDGE('',*,*,#243,.T.);
#129=ORIENTED_EDGE('',*,*,#228,.T.);
#130=ORIENTED_EDGE('',*,*,#248,.F.);
#131=ORIENTED_EDGE('',*,*,#249,.F.);
#132=ORIENTED_EDGE('',*,*,#246,.T.);
#133=ORIENTED_EDGE('',*,*,#227,.F.);
#134=ORIENTED_EDGE('',*,*,#245,.F.);
#135=ORIENTED_EDGE('',*,*,#250,.T.);
#136=ORIENTED_EDGE('',*,*,#248,.T.);
#137=ORIENTED_EDGE('',*,*,#244,.F.);
#138=ORIENTED_EDGE('',*,*,#247,.T.);
#139=ORIENTED_EDGE('',*,*,#249,.T.);
#140=ORIENTED_EDGE('',*,*,#250,.F.);
#141=ORIENTED_EDGE('',*,*,#189,.T.);
#142=ORIENTED_EDGE('',*,*,#183,.F.);
#143=ORIENTED_EDGE('',*,*,#251,.F.);
#144=ORIENTED_EDGE('',*,*,#216,.T.);
#145=ORIENTED_EDGE('',*,*,#217,.F.);
#146=ORIENTED_EDGE('',*,*,#251,.T.);
#147=ORIENTED_EDGE('',*,*,#182,.T.);
#148=ORIENTED_EDGE('',*,*,#222,.F.);
#149=ORIENTED_EDGE('',*,*,#191,.F.);
#150=ORIENTED_EDGE('',*,*,#215,.F.);
#151=ORIENTED_EDGE('',*,*,#252,.T.);
#152=ORIENTED_EDGE('',*,*,#185,.T.);
#153=ORIENTED_EDGE('',*,*,#252,.F.);
#154=ORIENTED_EDGE('',*,*,#214,.F.);
#155=ORIENTED_EDGE('',*,*,#221,.T.);
#156=ORIENTED_EDGE('',*,*,#186,.T.);
#157=ORIENTED_EDGE('',*,*,#253,.F.);
#158=ORIENTED_EDGE('',*,*,#254,.T.);
#159=ORIENTED_EDGE('',*,*,#255,.T.);
#160=ORIENTED_EDGE('',*,*,#256,.F.);
#161=ORIENTED_EDGE('',*,*,#257,.T.);
#162=ORIENTED_EDGE('',*,*,#258,.T.);
#163=ORIENTED_EDGE('',*,*,#259,.F.);
#164=ORIENTED_EDGE('',*,*,#256,.T.);
#165=ORIENTED_EDGE('',*,*,#260,.F.);
#166=ORIENTED_EDGE('',*,*,#257,.F.);
#167=ORIENTED_EDGE('',*,*,#255,.F.);
#168=ORIENTED_EDGE('',*,*,#261,.T.);
#169=ORIENTED_EDGE('',*,*,#262,.F.);
#170=ORIENTED_EDGE('',*,*,#261,.F.);
#171=ORIENTED_EDGE('',*,*,#254,.F.);
#172=ORIENTED_EDGE('',*,*,#263,.T.);
#173=ORIENTED_EDGE('',*,*,#259,.T.);
#174=ORIENTED_EDGE('',*,*,#264,.T.);
#175=ORIENTED_EDGE('',*,*,#263,.F.);
#176=ORIENTED_EDGE('',*,*,#253,.T.);
#177=ORIENTED_EDGE('',*,*,#264,.F.);
#178=ORIENTED_EDGE('',*,*,#258,.F.);
#179=ORIENTED_EDGE('',*,*,#260,.T.);
#180=ORIENTED_EDGE('',*,*,#262,.T.);
#181=EDGE_CURVE('',#265,#266,#321,.T.);
#182=EDGE_CURVE('',#267,#266,#322,.T.);
#183=EDGE_CURVE('',#267,#268,#323,.T.);
#184=EDGE_CURVE('',#269,#268,#324,.T.);
#185=EDGE_CURVE('',#270,#269,#325,.T.);
#186=EDGE_CURVE('',#271,#270,#326,.T.);
#187=EDGE_CURVE('',#272,#271,#327,.T.);
#188=EDGE_CURVE('',#272,#265,#328,.T.);
#189=EDGE_CURVE('',#273,#268,#329,.T.);
#190=EDGE_CURVE('',#274,#273,#330,.T.);
#191=EDGE_CURVE('',#274,#269,#331,.T.);
#192=EDGE_CURVE('',#275,#276,#332,.T.);
#193=EDGE_CURVE('',#275,#277,#333,.T.);
#194=EDGE_CURVE('',#277,#278,#334,.T.);
#195=EDGE_CURVE('',#276,#278,#335,.T.);
#196=EDGE_CURVE('',#279,#280,#336,.T.);
#197=EDGE_CURVE('',#275,#279,#337,.T.);
#198=EDGE_CURVE('',#276,#281,#338,.T.);
#199=EDGE_CURVE('',#282,#281,#339,.T.);
#200=EDGE_CURVE('',#283,#282,#340,.T.);
#201=EDGE_CURVE('',#283,#284,#341,.T.);
#202=EDGE_CURVE('',#280,#284,#342,.T.);
#203=EDGE_CURVE('',#282,#285,#343,.T.);
#204=EDGE_CURVE('',#281,#286,#344,.T.);
#205=EDGE_CURVE('',#285,#286,#345,.T.);
#206=EDGE_CURVE('',#277,#287,#346,.T.);
#207=EDGE_CURVE('',#287,#288,#347,.T.);
#208=EDGE_CURVE('',#288,#289,#348,.T.);
#209=EDGE_CURVE('',#290,#289,#349,.T.);
#210=EDGE_CURVE('',#290,#285,#350,.T.);
#211=EDGE_CURVE('',#278,#286,#351,.T.);
#212=EDGE_CURVE('',#291,#292,#352,.T.);
#213=EDGE_CURVE('',#291,#293,#353,.T.);
#214=EDGE_CURVE('',#293,#294,#354,.T.);
#215=EDGE_CURVE('',#294,#274,#355,.T.);
#216=EDGE_CURVE('',#295,#273,#356,.T.);
#217=EDGE_CURVE('',#295,#296,#357,.T.);
#218=EDGE_CURVE('',#292,#296,#358,.T.);
#219=EDGE_CURVE('',#292,#265,#359,.T.);
#220=EDGE_CURVE('',#291,#272,#360,.T.);
#221=EDGE_CURVE('',#293,#271,#361,.T.);
#222=EDGE_CURVE('',#296,#266,#362,.T.);
#223=EDGE_CURVE('',#280,#288,#363,.T.);
#224=EDGE_CURVE('',#289,#284,#364,.T.);
#225=EDGE_CURVE('',#290,#283,#365,.T.);
#226=EDGE_CURVE('',#297,#298,#366,.T.);
#227=EDGE_CURVE('',#298,#299,#367,.T.);
#228=EDGE_CURVE('',#300,#299,#368,.T.);
#229=EDGE_CURVE('',#297,#300,#369,.T.);
#230=EDGE_CURVE('',#279,#287,#370,.T.);
#231=EDGE_CURVE('',#301,#302,#371,.T.);
#232=EDGE_CURVE('',#302,#303,#372,.T.);
#233=EDGE_CURVE('',#304,#303,#373,.T.);
#234=EDGE_CURVE('',#301,#304,#374,.T.);
#235=EDGE_CURVE('',#305,#301,#375,.T.);
#236=EDGE_CURVE('',#305,#306,#376,.T.);
#237=EDGE_CURVE('',#306,#302,#377,.T.);
#238=EDGE_CURVE('',#307,#304,#378,.T.);
#239=EDGE_CURVE('',#305,#307,#379,.T.);
#240=EDGE_CURVE('',#308,#303,#380,.T.);
#241=EDGE_CURVE('',#307,#308,#381,.T.);
#242=EDGE_CURVE('',#306,#308,#382,.T.);
#243=EDGE_CURVE('',#309,#297,#383,.T.);
#244=EDGE_CURVE('',#309,#310,#384,.T.);
#245=EDGE_CURVE('',#310,#298,#385,.T.);
#246=EDGE_CURVE('',#311,#300,#386,.T.);
#247=EDGE_CURVE('',#309,#311,#387,.T.);
#248=EDGE_CURVE('',#312,#299,#388,.T.);
#249=EDGE_CURVE('',#311,#312,#389,.T.);
#250=EDGE_CURVE('',#310,#312,#390,.T.);
#251=EDGE_CURVE('',#295,#267,#391,.T.);
#252=EDGE_CURVE('',#294,#270,#392,.T.);
#253=EDGE_CURVE('',#313,#314,#393,.T.);
#254=EDGE_CURVE('',#313,#315,#394,.T.);
#255=EDGE_CURVE('',#315,#316,#395,.T.);
#256=EDGE_CURVE('',#314,#316,#396,.T.);
#257=EDGE_CURVE('',#316,#317,#397,.T.);
#258=EDGE_CURVE('',#317,#318,#398,.T.);
#259=EDGE_CURVE('',#314,#318,#399,.T.);
#260=EDGE_CURVE('',#317,#319,#400,.T.);
#261=EDGE_CURVE('',#315,#319,#401,.T.);
#262=EDGE_CURVE('',#319,#320,#402,.T.);
#263=EDGE_CURVE('',#313,#320,#403,.T.);
#264=EDGE_CURVE('',#318,#320,#404,.T.);
#265=VERTEX_POINT('',#843);
#266=VERTEX_POINT('',#844);
#267=VERTEX_POINT('',#846);
#268=VERTEX_POINT('',#848);
#269=VERTEX_POINT('',#850);
#270=VERTEX_POINT('',#852);
#271=VERTEX_POINT('',#854);
#272=VERTEX_POINT('',#856);
#273=VERTEX_POINT('',#860);
#274=VERTEX_POINT('',#862);
#275=VERTEX_POINT('',#866);
#276=VERTEX_POINT('',#867);
#277=VERTEX_POINT('',#869);
#278=VERTEX_POINT('',#871);
#279=VERTEX_POINT('',#875);
#280=VERTEX_POINT('',#876);
#281=VERTEX_POINT('',#879);
#282=VERTEX_POINT('',#881);
#283=VERTEX_POINT('',#883);
#284=VERTEX_POINT('',#885);
#285=VERTEX_POINT('',#889);
#286=VERTEX_POINT('',#891);
#287=VERTEX_POINT('',#895);
#288=VERTEX_POINT('',#897);
#289=VERTEX_POINT('',#899);
#290=VERTEX_POINT('',#901);
#291=VERTEX_POINT('',#906);
#292=VERTEX_POINT('',#907);
#293=VERTEX_POINT('',#909);
#294=VERTEX_POINT('',#911);
#295=VERTEX_POINT('',#914);
#296=VERTEX_POINT('',#916);
#297=VERTEX_POINT('',#932);
#298=VERTEX_POINT('',#933);
#299=VERTEX_POINT('',#935);
#300=VERTEX_POINT('',#937);
#301=VERTEX_POINT('',#943);
#302=VERTEX_POINT('',#944);
#303=VERTEX_POINT('',#946);
#304=VERTEX_POINT('',#948);
#305=VERTEX_POINT('',#952);
#306=VERTEX_POINT('',#954);
#307=VERTEX_POINT('',#958);
#308=VERTEX_POINT('',#962);
#309=VERTEX_POINT('',#969);
#310=VERTEX_POINT('',#971);
#311=VERTEX_POINT('',#975);
#312=VERTEX_POINT('',#979);
#313=VERTEX_POINT('',#992);
#314=VERTEX_POINT('',#993);
#315=VERTEX_POINT('',#995);
#316=VERTEX_POINT('',#997);
#317=VERTEX_POINT('',#1001);
#318=VERTEX_POINT('',#1003);
#319=VERTEX_POINT('',#1007);
#320=VERTEX_POINT('',#1011);
#321=LINE('',#842,#405);
#322=LINE('',#845,#406);
#323=LINE('',#847,#407);
#324=LINE('',#849,#408);
#325=LINE('',#851,#409);
#326=LINE('',#853,#410);
#327=LINE('',#855,#411);
#328=LINE('',#857,#412);
#329=LINE('',#859,#413);
#330=LINE('',#861,#414);
#331=LINE('',#863,#415);
#332=LINE('',#865,#416);
#333=LINE('',#868,#417);
#334=LINE('',#870,#418);
#335=LINE('',#872,#419);
#336=LINE('',#874,#420);
#337=LINE('',#877,#421);
#338=LINE('',#878,#422);
#339=LINE('',#880,#423);
#340=LINE('',#882,#424);
#341=LINE('',#884,#425);
#342=LINE('',#886,#426);
#343=LINE('',#888,#427);
#344=LINE('',#890,#428);
#345=LINE('',#892,#429);
#346=LINE('',#894,#430);
#347=LINE('',#896,#431);
#348=LINE('',#898,#432);
#349=LINE('',#900,#433);
#350=LINE('',#902,#434);
#351=LINE('',#903,#435);
#352=LINE('',#905,#436);
#353=LINE('',#908,#437);
#354=LINE('',#910,#438);
#355=LINE('',#912,#439);
#356=LINE('',#913,#440);
#357=LINE('',#915,#441);
#358=LINE('',#917,#442);
#359=LINE('',#919,#443);
#360=LINE('',#920,#444);
#361=LINE('',#922,#445);
#362=LINE('',#924,#446);
#363=LINE('',#926,#447);
#364=LINE('',#927,#448);
#365=LINE('',#929,#449);
#366=LINE('',#931,#450);
#367=LINE('',#934,#451);
#368=LINE('',#936,#452);
#369=LINE('',#938,#453);
#370=LINE('',#940,#454);
#371=LINE('',#942,#455);
#372=LINE('',#945,#456);
#373=LINE('',#947,#457);
#374=LINE('',#949,#458);
#375=LINE('',#951,#459);
#376=LINE('',#953,#460);
#377=LINE('',#955,#461);
#378=LINE('',#957,#462);
#379=LINE('',#959,#463);
#380=LINE('',#961,#464);
#381=LINE('',#963,#465);
#382=LINE('',#965,#466);
#383=LINE('',#968,#467);
#384=LINE('',#970,#468);
#385=LINE('',#972,#469);
#386=LINE('',#974,#470);
#387=LINE('',#976,#471);
#388=LINE('',#978,#472);
#389=LINE('',#980,#473);
#390=LINE('',#982,#474);
#391=LINE('',#985,#475);
#392=LINE('',#988,#476);
#393=LINE('',#991,#477);
#394=LINE('',#994,#478);
#395=LINE('',#996,#479);
#396=LINE('',#998,#480);
#397=LINE('',#1000,#481);
#398=LINE('',#1002,#482);
#399=LINE('',#1004,#483);
#400=LINE('',#1006,#484);
#401=LINE('',#1008,#485);
#402=LINE('',#1010,#486);
#403=LINE('',#1012,#487);
#404=LINE('',#1014,#488);
#405=VECTOR('',#688,1.);
#406=VECTOR('',#689,1.);
#407=VECTOR('',#690,1.);
#408=VECTOR('',#691,1.);
#409=VECTOR('',#692,1.);
#410=VECTOR('',#693,1.);
#411=VECTOR('',#694,1.);
#412=VECTOR('',#695,1.);
#413=VECTOR('',#698,1.);
#414=VECTOR('',#699,1.);
#415=VECTOR('',#700,1.);
#416=VECTOR('',#703,1.);
#417=VECTOR('',#704,1.);
#418=VECTOR('',#705,1.);
#419=VECTOR('',#706,1.);
#420=VECTOR('',#709,1.);
#421=VECTOR('',#710,1.);
#422=VECTOR('',#711,1.);
#423=VECTOR('',#712,1.);
#424=VECTOR('',#713,1.);
#425=VECTOR('',#714,1.);
#426=VECTOR('',#715,1.);
#427=VECTOR('',#718,1.);
#428=VECTOR('',#719,1.);
#429=VECTOR('',#720,1.);
#430=VECTOR('',#723,1.);
#431=VECTOR('',#724,1.);
#432=VECTOR('',#725,1.);
#433=VECTOR('',#726,1.);
#434=VECTOR('',#727,1.);
#435=VECTOR('',#728,1.);
#436=VECTOR('',#731,1.);
#437=VECTOR('',#732,1.);
#438=VECTOR('',#733,1.);
#439=VECTOR('',#734,1.);
#440=VECTOR('',#735,1.);
#441=VECTOR('',#736,1.);
#442=VECTOR('',#737,1.);
#443=VECTOR('',#740,1.);
#444=VECTOR('',#741,1.);
#445=VECTOR('',#744,1.);
#446=VECTOR('',#747,1.);
#447=VECTOR('',#750,1.);
#448=VECTOR('',#751,1.);
#449=VECTOR('',#754,1.);
#450=VECTOR('',#757,1.);
#451=VECTOR('',#758,1.);
#452=VECTOR('',#759,1.);
#453=VECTOR('',#760,1.);
#454=VECTOR('',#763,1.);
#455=VECTOR('',#766,1.);
#456=VECTOR('',#767,1.);
#457=VECTOR('',#768,1.);
#458=VECTOR('',#769,1.);
#459=VECTOR('',#772,1.);
#460=VECTOR('',#773,1.);
#461=VECTOR('',#774,1.);
#462=VECTOR('',#777,1.);
#463=VECTOR('',#778,1.);
#464=VECTOR('',#781,1.);
#465=VECTOR('',#782,1.);
#466=VECTOR('',#785,1.);
#467=VECTOR('',#790,1.);
#468=VECTOR('',#791,1.);
#469=VECTOR('',#792,1.);
#470=VECTOR('',#795,1.);
#471=VECTOR('',#796,1.);
#472=VECTOR('',#799,1.);
#473=VECTOR('',#800,1.);
#474=VECTOR('',#803,1.);
#475=VECTOR('',#808,1.);
#476=VECTOR('',#813,1.);
#477=VECTOR('',#818,1.);
#478=VECTOR('',#819,1.);
#479=VECTOR('',#820,1.);
#480=VECTOR('',#821,1.);
#481=VECTOR('',#824,1.);
#482=VECTOR('',#825,1.);
#483=VECTOR('',#826,1.);
#484=VECTOR('',#829,1.);
#485=VECTOR('',#830,1.);
#486=VECTOR('',#833,1.);
#487=VECTOR('',#834,1.);
#488=VECTOR('',#837,1.);
#489=EDGE_LOOP('',(#13,#14,#15,#16,#17,#18,#19,#20));
#490=EDGE_LOOP('',(#21,#22,#23,#24));
#491=EDGE_LOOP('',(#25,#26,#27,#28));
#492=EDGE_LOOP('',(#29,#30,#31,#32,#33,#34,#35,#36));
#493=EDGE_LOOP('',(#37,#38,#39,#40));
#494=EDGE_LOOP('',(#41,#42,#43,#44,#45,#46,#47,#48));
#495=EDGE_LOOP('',(#49,#50,#51,#52,#53,#54,#55,#56));
#496=EDGE_LOOP('',(#57,#58,#59,#60));
#497=EDGE_LOOP('',(#61,#62,#63,#64));
#498=EDGE_LOOP('',(#65,#66,#67,#68));
#499=EDGE_LOOP('',(#69,#70,#71,#72));
#500=EDGE_LOOP('',(#73,#74,#75,#76));
#501=EDGE_LOOP('',(#77,#78,#79,#80));
#502=EDGE_LOOP('',(#81,#82,#83,#84));
#503=EDGE_LOOP('',(#85,#86,#87,#88));
#504=EDGE_LOOP('',(#89,#90,#91,#92));
#505=EDGE_LOOP('',(#93,#94,#95,#96));
#506=EDGE_LOOP('',(#97,#98,#99,#100));
#507=EDGE_LOOP('',(#101,#102,#103,#104));
#508=EDGE_LOOP('',(#105,#106,#107,#108));
#509=EDGE_LOOP('',(#109,#110,#111,#112));
#510=EDGE_LOOP('',(#113,#114,#115,#116));
#511=EDGE_LOOP('',(#117,#118,#119,#120));
#512=EDGE_LOOP('',(#121,#122,#123,#124));
#513=EDGE_LOOP('',(#125,#126,#127,#128));
#514=EDGE_LOOP('',(#129,#130,#131,#132));
#515=EDGE_LOOP('',(#133,#134,#135,#136));
#516=EDGE_LOOP('',(#137,#138,#139,#140));
#517=EDGE_LOOP('',(#141,#142,#143,#144));
#518=EDGE_LOOP('',(#145,#146,#147,#148));
#519=EDGE_LOOP('',(#149,#150,#151,#152));
#520=EDGE_LOOP('',(#153,#154,#155,#156));
#521=EDGE_LOOP('',(#157,#158,#159,#160));
#522=EDGE_LOOP('',(#161,#162,#163,#164));
#523=EDGE_LOOP('',(#165,#166,#167,#168));
#524=EDGE_LOOP('',(#169,#170,#171,#172));
#525=EDGE_LOOP('',(#173,#174,#175,#176));
#526=EDGE_LOOP('',(#177,#178,#179,#180));
#527=FACE_BOUND('',#489,.T.);
#528=FACE_BOUND('',#490,.T.);
#529=FACE_BOUND('',#491,.T.);
#530=FACE_BOUND('',#492,.T.);
#531=FACE_BOUND('',#493,.T.);
#532=FACE_BOUND('',#494,.T.);
#533=FACE_BOUND('',#495,.T.);
#534=FACE_BOUND('',#496,.T.);
#535=FACE_BOUND('',#497,.T.);
#536=FACE_BOUND('',#498,.T.);
#537=FACE_BOUND('',#499,.T.);
#538=FACE_BOUND('',#500,.T.);
#539=FACE_BOUND('',#501,.T.);
#540=FACE_BOUND('',#502,.T.);
#541=FACE_BOUND('',#503,.T.);
#542=FACE_BOUND('',#504,.T.);
#543=FACE_BOUND('',#505,.T.);
#544=FACE_BOUND('',#506,.T.);
#545=FACE_BOUND('',#507,.T.);
#546=FACE_BOUND('',#508,.T.);
#547=FACE_BOUND('',#509,.T.);
#548=FACE_BOUND('',#510,.T.);
#549=FACE_BOUND('',#511,.T.);
#550=FACE_BOUND('',#512,.T.);
#551=FACE_BOUND('',#513,.T.);
#552=FACE_BOUND('',#514,.T.);
#553=FACE_BOUND('',#515,.T.);
#554=FACE_BOUND('',#516,.T.);
#555=FACE_BOUND('',#517,.T.);
#556=FACE_BOUND('',#518,.T.);
#557=FACE_BOUND('',#519,.T.);
#558=FACE_BOUND('',#520,.T.);
#559=FACE_BOUND('',#521,.T.);
#560=FACE_BOUND('',#522,.T.);
#561=FACE_BOUND('',#523,.T.);
#562=FACE_BOUND('',#524,.T.);
#563=FACE_BOUND('',#525,.T.);
#564=FACE_BOUND('',#526,.T.);
#565=PLANE('',#649);
#566=PLANE('',#650);
#567=PLANE('',#651);
#568=PLANE('',#652);
#569=PLANE('',#653);
#570=PLANE('',#654);
#571=PLANE('',#655);
#572=PLANE('',#656);
#573=PLANE('',#657);
#574=PLANE('',#658);
#575=PLANE('',#659);
#576=PLANE('',#660);
#577=PLANE('',#661);
#578=PLANE('',#662);
#579=PLANE('',#663);
#580=PLANE('',#664);
#581=PLANE('',#665);
#582=PLANE('',#666);
#583=PLANE('',#667);
#584=PLANE('',#668);
#585=PLANE('',#669);
#586=PLANE('',#670);
#587=PLANE('',#671);
#588=PLANE('',#672);
#589=PLANE('',#673);
#590=PLANE('',#674);
#591=PLANE('',#675);
#592=PLANE('',#676);
#593=PLANE('',#677);
#594=PLANE('',#678);
#595=PLANE('',#679);
#596=PLANE('',#680);
#597=PLANE('',#681);
#598=PLANE('',#682);
#599=PLANE('',#683);
#600=ADVANCED_FACE('',(#527),#565,.F.);
#601=ADVANCED_FACE('',(#528),#566,.F.);
#602=ADVANCED_FACE('',(#529),#567,.T.);
#603=ADVANCED_FACE('',(#530),#568,.F.);
#604=ADVANCED_FACE('',(#531),#569,.F.);
#605=ADVANCED_FACE('',(#532),#570,.T.);
#606=ADVANCED_FACE('',(#533,#534),#571,.T.);
#607=ADVANCED_FACE('',(#535),#572,.T.);
#608=ADVANCED_FACE('',(#536),#573,.F.);
#609=ADVANCED_FACE('',(#537),#574,.T.);
#610=ADVANCED_FACE('',(#538),#575,.T.);
#611=ADVANCED_FACE('',(#539),#576,.F.);
#612=ADVANCED_FACE('',(#540,#541),#577,.T.);
#613=ADVANCED_FACE('',(#542),#578,.F.);
#614=ADVANCED_FACE('',(#543,#544),#579,.T.);
#615=ADVANCED_FACE('',(#545),#580,.T.);
#616=ADVANCED_FACE('',(#546),#581,.F.);
#617=ADVANCED_FACE('',(#547),#582,.F.);
#618=ADVANCED_FACE('',(#548),#583,.T.);
#619=ADVANCED_FACE('',(#549),#584,.T.);
#620=ADVANCED_FACE('',(#550),#585,.T.);
#621=ADVANCED_FACE('',(#551),#586,.F.);
#622=ADVANCED_FACE('',(#552),#587,.F.);
#623=ADVANCED_FACE('',(#553),#588,.T.);
#624=ADVANCED_FACE('',(#554),#589,.T.);
#625=ADVANCED_FACE('',(#555),#590,.F.);
#626=ADVANCED_FACE('',(#556),#591,.T.);
#627=ADVANCED_FACE('',(#557),#592,.T.);
#628=ADVANCED_FACE('',(#558),#593,.T.);
#629=ADVANCED_FACE('',(#559),#594,.T.);
#630=ADVANCED_FACE('',(#560),#595,.T.);
#631=ADVANCED_FACE('',(#561),#596,.F.);
#632=ADVANCED_FACE('',(#562),#597,.F.);
#633=ADVANCED_FACE('',(#563),#598,.T.);
#634=ADVANCED_FACE('',(#564),#599,.F.);
#635=CLOSED_SHELL('',(#600,#601,#602,#603,#604,#605,#606,#607,#608,#609,
#610,#611,#612,#613,#614,#615,#616,#617,#618,#619,#620,#621,#622,#623,#624,
#625,#626,#627,#628));
#636=CLOSED_SHELL('',(#629,#630,#631,#632,#633,#634));
#637=STYLED_ITEM('',(#638),#645);
#638=PRESENTATION_STYLE_ASSIGNMENT((#639));
#639=SURFACE_STYLE_USAGE(.BOTH.,#640);
#640=SURFACE_SIDE_STYLE('',(#641));
#641=SURFACE_STYLE_FILL_AREA(#642);
#642=FILL_AREA_STYLE('',(#643));
#643=FILL_AREA_STYLE_COLOUR('',#644);
#644=COLOUR_RGB('',0.615686274509804,0.811764705882353,0.929411764705882);
#645=BREP_WITH_VOIDS('Part 1',#635,(#12));
#646=SHAPE_DEFINITION_REPRESENTATION(#1022,#647);
#647=SHAPE_REPRESENTATION('Part 1',(#648),#1017);
#648=AXIS2_PLACEMENT_3D('',#840,#684,#685);
#649=AXIS2_PLACEMENT_3D('',#841,#686,#687);
#650=AXIS2_PLACEMENT_3D('',#858,#696,#697);
#651=AXIS2_PLACEMENT_3D('',#864,#701,#702);
#652=AXIS2_PLACEMENT_3D('',#873,#707,#708);
#653=AXIS2_PLACEMENT_3D('',#887,#716,#717);
#654=AXIS2_PLACEMENT_3D('',#893,#721,#722);
#655=AXIS2_PLACEMENT_3D('',#904,#729,#730);
#656=AXIS2_PLACEMENT_3D('',#918,#738,#739);
#657=AXIS2_PLACEMENT_3D('',#921,#742,#743);
#658=AXIS2_PLACEMENT_3D('',#923,#745,#746);
#659=AXIS2_PLACEMENT_3D('',#925,#748,#749);
#660=AXIS2_PLACEMENT_3D('',#928,#752,#753);
#661=AXIS2_PLACEMENT_3D('',#930,#755,#756);
#662=AXIS2_PLACEMENT_3D('',#939,#761,#762);
#663=AXIS2_PLACEMENT_3D('',#941,#764,#765);
#664=AXIS2_PLACEMENT_3D('',#950,#770,#771);
#665=AXIS2_PLACEMENT_3D('',#956,#775,#776);
#666=AXIS2_PLACEMENT_3D('',#960,#779,#780);
#667=AXIS2_PLACEMENT_3D('',#964,#783,#784);
#668=AXIS2_PLACEMENT_3D('',#966,#786,#787);
#669=AXIS2_PLACEMENT_3D('',#967,#788,#789);
#670=AXIS2_PLACEMENT_3D('',#973,#793,#794);
#671=AXIS2_PLACEMENT_3D('',#977,#797,#798);
#672=AXIS2_PLACEMENT_3D('',#981,#801,#802);
#673=AXIS2_PLACEMENT_3D('',#983,#804,#805);
#674=AXIS2_PLACEMENT_3D('',#984,#806,#807);
#675=AXIS2_PLACEMENT_3D('',#986,#809,#810);
#676=AXIS2_PLACEMENT_3D('',#987,#811,#812);
#677=AXIS2_PLACEMENT_3D('',#989,#814,#815);
#678=AXIS2_PLACEMENT_3D('',#990,#816,#817);
#679=AXIS2_PLACEMENT_3D('',#999,#822,#823);
#680=AXIS2_PLACEMENT_3D('',#1005,#827,#828);
#681=AXIS2_PLACEMENT_3D('',#1009,#831,#832);
#682=AXIS2_PLACEMENT_3D('',#1013,#835,#836);
#683=AXIS2_PLACEMENT_3D('',#1015,#838,#839);
#684=DIRECTION('',(0.,0.,1.));
#685=DIRECTION('',(1.,0.,0.));
#686=DIRECTION('',(0.,-1.,0.));
#687=DIRECTION('',(1.,0.,0.));
#688=DIRECTION('',(0.,0.,-1.));
#689=DIRECTION('',(1.,0.,0.));
#690=DIRECTION('',(0.,0.,1.));
#691=DIRECTION('',(1.,0.,0.));
#692=DIRECTION('',(0.,0.,1.));
#693=DIRECTION('',(1.,0.,0.));
#694=DIRECTION('',(0.,0.,-1.));
#695=DIRECTION('',(1.,0.,0.));
#696=DIRECTION('',(0.,0.,1.));
#697=DIRECTION('',(1.,0.,0.));
#698=DIRECTION('',(0.,1.,0.));
#699=DIRECTION('',(1.,0.,0.));
#700=DIRECTION('',(0.,1.,0.));
#701=DIRECTION('',(0.,0.,-1.));
#702=DIRECTION('',(-1.,0.,0.));
#703=DIRECTION('',(0.,-1.,0.));
#704=DIRECTION('',(1.,0.,0.));
#705=DIRECTION('',(0.,-1.,0.));
#706=DIRECTION('',(1.,0.,0.));
#707=DIRECTION('',(-1.,0.,0.));
#708=DIRECTION('',(0.,0.,1.));
#709=DIRECTION('',(0.,1.,0.));
#710=DIRECTION('',(0.,0.,-1.));
#711=DIRECTION('',(0.,0.,-1.));
#712=DIRECTION('',(0.,-1.,0.));
#713=DIRECTION('',(0.,0.,-1.));
#714=DIRECTION('',(0.,1.,0.));
#715=DIRECTION('',(0.,0.,-1.));
#716=DIRECTION('',(0.,0.,-1.));
#717=DIRECTION('',(-1.,0.,0.));
#718=DIRECTION('',(1.,0.,0.));
#719=DIRECTION('',(1.,0.,0.));
#720=DIRECTION('',(0.,-1.,0.));
#721=DIRECTION('',(-1.,0.,0.));
#722=DIRECTION('',(0.,0.,1.));
#723=DIRECTION('',(0.,0.,-1.));
#724=DIRECTION('',(0.,1.,0.));
#725=DIRECTION('',(0.,0.,-1.));
#726=DIRECTION('',(0.,1.,0.));
#727=DIRECTION('',(0.,0.,-1.));
#728=DIRECTION('',(0.,0.,-1.));
#729=DIRECTION('',(0.,-1.,0.));
#730=DIRECTION('',(1.,0.,0.));
#731=DIRECTION('',(1.,0.,0.));
#732=DIRECTION('',(0.,0.,-1.));
#733=DIRECTION('',(1.,0.,0.));
#734=DIRECTION('',(0.,0.,1.));
#735=DIRECTION('',(0.,0.,1.));
#736=DIRECTION('',(1.,0.,0.));
#737=DIRECTION('',(0.,0.,-1.));
#738=DIRECTION('',(0.,0.,1.));
#739=DIRECTION('',(1.,0.,0.));
#740=DIRECTION('',(0.,1.,0.));
#741=DIRECTION('',(0.,1.,0.));
#742=DIRECTION('',(1.,0.,0.));
#743=DIRECTION('',(0.,0.,-1.));
#744=DIRECTION('',(0.,1.,0.));
#745=DIRECTION('',(1.,0.,0.));
#746=DIRECTION('',(0.,0.,-1.));
#747=DIRECTION('',(0.,1.,0.));
#748=DIRECTION('',(0.,-1.,0.));
#749=DIRECTION('',(1.,0.,0.));
#750=DIRECTION('',(1.,0.,0.));
#751=DIRECTION('',(-1.,0.,0.));
#752=DIRECTION('',(0.,0.,-1.));
#753=DIRECTION('',(-1.,0.,0.));
#754=DIRECTION('',(-1.,0.,0.));
#755=DIRECTION('',(0.,-1.,0.));
#756=DIRECTION('',(1.,0.,0.));
#757=DIRECTION('',(1.,0.,0.));
#758=DIRECTION('',(0.,0.,-1.));
#759=DIRECTION('',(1.,0.,0.));
#760=DIRECTION('',(0.,0.,-1.));
#761=DIRECTION('',(0.,0.,1.));
#762=DIRECTION('',(1.,0.,0.));
#763=DIRECTION('',(1.,0.,0.));
#764=DIRECTION('',(0.,-1.,0.));
#765=DIRECTION('',(1.,0.,0.));
#766=DIRECTION('',(1.,0.,0.));
#767=DIRECTION('',(0.,0.,-1.));
#768=DIRECTION('',(1.,0.,0.));
#769=DIRECTION('',(0.,0.,-1.));
#770=DIRECTION('',(0.,0.,1.));
#771=DIRECTION('',(1.,0.,0.));
#772=DIRECTION('',(0.,1.,0.));
#773=DIRECTION('',(1.,0.,0.));
#774=DIRECTION('',(0.,1.,0.));
#775=DIRECTION('',(1.,0.,0.));
#776=DIRECTION('',(0.,0.,-1.));
#777=DIRECTION('',(0.,1.,0.));
#778=DIRECTION('',(0.,0.,-1.));
#779=DIRECTION('',(0.,0.,1.));
#780=DIRECTION('',(1.,0.,0.));
#781=DIRECTION('',(0.,1.,0.));
#782=DIRECTION('',(1.,0.,0.));
#783=DIRECTION('',(1.,0.,0.));
#784=DIRECTION('',(0.,0.,-1.));
#785=DIRECTION('',(0.,0.,-1.));
#786=DIRECTION('',(0.,-1.,0.));
#787=DIRECTION('',(1.,0.,0.));
#788=DIRECTION('',(0.,0.,1.));
#789=DIRECTION('',(1.,0.,0.));
#790=DIRECTION('',(0.,1.,0.));
#791=DIRECTION('',(1.,0.,0.));
#792=DIRECTION('',(0.,1.,0.));
#793=DIRECTION('',(1.,0.,0.));
#794=DIRECTION('',(0.,0.,-1.));
#795=DIRECTION('',(0.,1.,0.));
#796=DIRECTION('',(0.,0.,-1.));
#797=DIRECTION('',(0.,0.,1.));
#798=DIRECTION('',(1.,0.,0.));
#799=DIRECTION('',(0.,1.,0.));
#800=DIRECTION('',(1.,0.,0.));
#801=DIRECTION('',(1.,0.,0.));
#802=DIRECTION('',(0.,0.,-1.));
#803=DIRECTION('',(0.,0.,-1.));
#804=DIRECTION('',(0.,-1.,0.));
#805=DIRECTION('',(1.,0.,0.));
#806=DIRECTION('',(1.,0.,0.));
#807=DIRECTION('',(0.,0.,-1.));
#808=DIRECTION('',(0.,1.,0.));
#809=DIRECTION('',(0.,0.,-1.));
#810=DIRECTION('',(1.,0.,0.));
#811=DIRECTION('',(1.,0.,0.));
#812=DIRECTION('',(0.,0.,-1.));
#813=DIRECTION('',(0.,1.,0.));
#814=DIRECTION('',(0.,0.,-1.));
#815=DIRECTION('',(1.,0.,0.));
#816=DIRECTION('',(0.,1.,0.));
#817=DIRECTION('',(-1.,0.,0.));
#818=DIRECTION('',(-1.,0.,0.));
#819=DIRECTION('',(0.,0.,-1.));
#820=DIRECTION('',(-1.,0.,0.));
#821=DIRECTION('',(0.,0.,-1.));
#822=DIRECTION('',(1.,0.,0.));
#823=DIRECTION('',(0.,0.,-1.));
#824=DIRECTION('',(0.,1.,0.));
#825=DIRECTION('',(0.,0.,1.));
#826=DIRECTION('',(0.,1.,0.));
#827=DIRECTION('',(0.,0.,-1.));
#828=DIRECTION('',(-1.,0.,0.));
#829=DIRECTION('',(1.,0.,0.));
#830=DIRECTION('',(0.,1.,0.));
#831=DIRECTION('',(1.,0.,0.));
#832=DIRECTION('',(0.,0.,-1.));
#833=DIRECTION('',(0.,0.,1.));
#834=DIRECTION('',(0.,1.,0.));
#835=DIRECTION('',(0.,0.,-1.));
#836=DIRECTION('',(-1.,0.,0.));
#837=DIRECTION('',(1.,0.,0.));
#838=DIRECTION('',(0.,1.,0.));
#839=DIRECTION('',(-1.,0.,0.));
#840=CARTESIAN_POINT('',(0.,0.,0.));
#841=CARTESIAN_POINT('',(0.0369318181276321,0.,-0.00379261430352926));
#842=CARTESIAN_POINT('',(0.0469318181276321,0.,-0.00379261430352926));
#843=CARTESIAN_POINT('',(0.0469318181276321,0.,0.00245738569647074));
#844=CARTESIAN_POINT('',(0.0469318181276321,0.,-0.0120426143035293));
#845=CARTESIAN_POINT('',(0.0369318181276321,0.,-0.0120426143035293));
#846=CARTESIAN_POINT('',(0.0444318181276321,0.,-0.0120426143035293));
#847=CARTESIAN_POINT('',(0.0444318181276321,0.,-0.0120426143035293));
#848=CARTESIAN_POINT('',(0.0444318181276321,0.,-0.0100426143035293));
#849=CARTESIAN_POINT('',(0.0369318181276321,0.,-0.0100426143035293));
#850=CARTESIAN_POINT('',(0.0294318181276321,0.,-0.0100426143035293));
#851=CARTESIAN_POINT('',(0.0294318181276321,0.,-0.0120426143035293));
#852=CARTESIAN_POINT('',(0.0294318181276321,0.,-0.0120426143035293));
#853=CARTESIAN_POINT('',(0.0369318181276321,0.,-0.0120426143035293));
#854=CARTESIAN_POINT('',(0.0269318181276322,0.,-0.0120426143035293));
#855=CARTESIAN_POINT('',(0.0269318181276322,0.,-0.00379261430352926));
#856=CARTESIAN_POINT('',(0.0269318181276322,0.,0.00245738569647074));
#857=CARTESIAN_POINT('',(0.0369318181276321,0.,0.00245738569647074));
#858=CARTESIAN_POINT('',(0.0369318181276321,-0.013,-0.0100426143035293));
#859=CARTESIAN_POINT('',(0.0444318181276321,-0.0065,-0.0100426143035293));
#860=CARTESIAN_POINT('',(0.0444318181276321,-0.013,-0.0100426143035293));
#861=CARTESIAN_POINT('',(0.0369318181276321,-0.013,-0.0100426143035293));
#862=CARTESIAN_POINT('',(0.0294318181276321,-0.013,-0.0100426143035293));
#863=CARTESIAN_POINT('',(0.0294318181276321,-0.0065,-0.0100426143035293));
#864=CARTESIAN_POINT('',(0.0368972579017282,-0.01,0.00156732660252601));
#865=CARTESIAN_POINT('',(0.0277417581528425,-0.01,0.00156732660252601));
#866=CARTESIAN_POINT('',(0.0277417581528425,-0.01271,0.00156732660252601));
#867=CARTESIAN_POINT('',(0.0277417581528425,-0.013,0.00156732660252601));
#868=CARTESIAN_POINT('',(0.0368972579017282,-0.01271,0.00156732660252601));
#869=CARTESIAN_POINT('',(0.0460527576506138,-0.01271,0.00156732660252601));
#870=CARTESIAN_POINT('',(0.0460527576506138,-0.01,0.00156732660252601));
#871=CARTESIAN_POINT('',(0.0460527576506138,-0.013,0.00156732660252601));
#872=CARTESIAN_POINT('',(0.0368972579017282,-0.013,0.00156732660252601));
#873=CARTESIAN_POINT('',(0.0277417581528425,-0.01,-0.00401376554509625));
#874=CARTESIAN_POINT('',(0.0277417581528425,-0.01271,-0.00347994198091328));
#875=CARTESIAN_POINT('',(0.0277417581528425,-0.01271,-0.00347994198091328));
#876=CARTESIAN_POINT('',(0.0277417581528425,-0.01,-0.00347994198091328));
#877=CARTESIAN_POINT('',(0.0277417581528425,-0.01271,-0.00401376554509625));
#878=CARTESIAN_POINT('',(0.0277417581528425,-0.013,-0.00401376554509625));
#879=CARTESIAN_POINT('',(0.0277417581528425,-0.013,-0.00959485769271851));
#880=CARTESIAN_POINT('',(0.0277417581528425,-0.01,-0.00959485769271851));
#881=CARTESIAN_POINT('',(0.0277417581528425,-0.01271,-0.00959485769271851));
#882=CARTESIAN_POINT('',(0.0277417581528425,-0.01271,-0.00401376554509625));
#883=CARTESIAN_POINT('',(0.0277417581528425,-0.01271,-0.00379348639398814));
#884=CARTESIAN_POINT('',(0.0277417581528425,-0.01271,-0.00379348639398814));
#885=CARTESIAN_POINT('',(0.0277417581528425,-0.01,-0.00379348639398814));
#886=CARTESIAN_POINT('',(0.0277417581528425,-0.01,-0.00401376554509625));
#887=CARTESIAN_POINT('',(0.0368972579017282,-0.01,-0.00959485769271851));
#888=CARTESIAN_POINT('',(0.0368972579017282,-0.01271,-0.00959485769271851));
#889=CARTESIAN_POINT('',(0.0460527576506138,-0.01271,-0.00959485769271851));
#890=CARTESIAN_POINT('',(0.0368972579017282,-0.013,-0.00959485769271851));
#891=CARTESIAN_POINT('',(0.0460527576506138,-0.013,-0.00959485769271851));
#892=CARTESIAN_POINT('',(0.0460527576506138,-0.01,-0.00959485769271851));
#893=CARTESIAN_POINT('',(0.0460527576506138,-0.01,-0.00401376554509625));
#894=CARTESIAN_POINT('',(0.0460527576506138,-0.01271,-0.00401376554509625));
#895=CARTESIAN_POINT('',(0.0460527576506138,-0.01271,-0.00347994198091328));
#896=CARTESIAN_POINT('',(0.0460527576506138,-0.01271,-0.00347994198091328));
#897=CARTESIAN_POINT('',(0.0460527576506138,-0.01,-0.00347994198091328));
#898=CARTESIAN_POINT('',(0.0460527576506138,-0.01,-0.00401376554509625));
#899=CARTESIAN_POINT('',(0.0460527576506138,-0.01,-0.00379348639398814));
#900=CARTESIAN_POINT('',(0.0460527576506138,-0.01271,-0.00379348639398814));
#901=CARTESIAN_POINT('',(0.0460527576506138,-0.01271,-0.00379348639398814));
#902=CARTESIAN_POINT('',(0.0460527576506138,-0.01271,-0.00401376554509625));
#903=CARTESIAN_POINT('',(0.0460527576506138,-0.013,-0.00401376554509625));
#904=CARTESIAN_POINT('',(0.0369318181276321,-0.013,-0.00379261430352926));
#905=CARTESIAN_POINT('',(0.0369318181276321,-0.013,0.00245738569647074));
#906=CARTESIAN_POINT('',(0.0269318181276322,-0.013,0.00245738569647074));
#907=CARTESIAN_POINT('',(0.0469318181276321,-0.013,0.00245738569647074));
#908=CARTESIAN_POINT('',(0.0269318181276322,-0.013,-0.00379261430352926));
#909=CARTESIAN_POINT('',(0.0269318181276322,-0.013,-0.0120426143035293));
#910=CARTESIAN_POINT('',(0.0369318181276321,-0.013,-0.0120426143035293));
#911=CARTESIAN_POINT('',(0.0294318181276321,-0.013,-0.0120426143035293));
#912=CARTESIAN_POINT('',(0.0294318181276321,-0.013,-0.0120426143035293));
#913=CARTESIAN_POINT('',(0.0444318181276321,-0.013,-0.0120426143035293));
#914=CARTESIAN_POINT('',(0.0444318181276321,-0.013,-0.0120426143035293));
#915=CARTESIAN_POINT('',(0.0369318181276321,-0.013,-0.0120426143035293));
#916=CARTESIAN_POINT('',(0.0469318181276321,-0.013,-0.0120426143035293));
#917=CARTESIAN_POINT('',(0.0469318181276321,-0.013,-0.00379261430352926));
#918=CARTESIAN_POINT('',(0.0369318181276321,-0.013,0.00245738569647074));
#919=CARTESIAN_POINT('',(0.0469318181276321,-0.013,0.00245738569647074));
#920=CARTESIAN_POINT('',(0.0269318181276322,-0.013,0.00245738569647074));
#921=CARTESIAN_POINT('',(0.0269318181276322,-0.013,-0.00379261430352926));
#922=CARTESIAN_POINT('',(0.0269318181276322,-0.013,-0.0120426143035293));
#923=CARTESIAN_POINT('',(0.0469318181276321,-0.013,-0.00379261430352926));
#924=CARTESIAN_POINT('',(0.0469318181276321,-0.013,-0.0120426143035293));
#925=CARTESIAN_POINT('',(0.0369318181276321,-0.01,-0.00379261430352926));
#926=CARTESIAN_POINT('',(0.0368972579017282,-0.01,-0.00347994198091328));
#927=CARTESIAN_POINT('',(0.0368972579017282,-0.01,-0.00379348639398814));
#928=CARTESIAN_POINT('',(0.0368972579017282,-0.01271,-0.00379348639398814));
#929=CARTESIAN_POINT('',(0.0368972579017282,-0.01271,-0.00379348639398814));
#930=CARTESIAN_POINT('',(0.0368972579017282,-0.01271,-0.00401376554509625));
#931=CARTESIAN_POINT('',(0.0372568900585174,-0.01271,-0.00629925392260775));
#932=CARTESIAN_POINT('',(0.0357013056874275,-0.01271,-0.00629925392260775));
#933=CARTESIAN_POINT('',(0.0388124744296074,-0.01271,-0.00629925392260775));
#934=CARTESIAN_POINT('',(0.0388124744296074,-0.01271,-0.00647502621561289));
#935=CARTESIAN_POINT('',(0.0388124744296074,-0.01271,-0.00665079850861803));
#936=CARTESIAN_POINT('',(0.0372568900585174,-0.01271,-0.00665079850861803));
#937=CARTESIAN_POINT('',(0.0357013056874275,-0.01271,-0.00665079850861803));
#938=CARTESIAN_POINT('',(0.0357013056874275,-0.01271,-0.00647502621561289));
#939=CARTESIAN_POINT('',(0.0368972579017282,-0.01271,-0.00347994198091328));
#940=CARTESIAN_POINT('',(0.0368972579017282,-0.01271,-0.00347994198091328));
#941=CARTESIAN_POINT('',(0.0368972579017282,-0.01271,-0.00401376554509625));
#942=CARTESIAN_POINT('',(0.0372568900585174,-0.01271,-0.000834660138934851));
#943=CARTESIAN_POINT('',(0.0357013056874275,-0.01271,-0.000834660138934851));
#944=CARTESIAN_POINT('',(0.0388124744296074,-0.01271,-0.000834660138934851));
#945=CARTESIAN_POINT('',(0.0388124744296074,-0.01271,-0.00101043243193999));
#946=CARTESIAN_POINT('',(0.0388124744296074,-0.01271,-0.00118620472494513));
#947=CARTESIAN_POINT('',(0.0372568900585174,-0.01271,-0.00118620472494513));
#948=CARTESIAN_POINT('',(0.0357013056874275,-0.01271,-0.00118620472494513));
#949=CARTESIAN_POINT('',(0.0357013056874275,-0.01271,-0.00101043243193999));
#950=CARTESIAN_POINT('',(0.0372568900585174,-0.01321,-0.000834660138934851));
#951=CARTESIAN_POINT('',(0.0357013056874275,-0.01321,-0.000834660138934851));
#952=CARTESIAN_POINT('',(0.0357013056874275,-0.01321,-0.000834660138934851));
#953=CARTESIAN_POINT('',(0.0372568900585174,-0.01321,-0.000834660138934851));
#954=CARTESIAN_POINT('',(0.0388124744296074,-0.01321,-0.000834660138934851));
#955=CARTESIAN_POINT('',(0.0388124744296074,-0.01321,-0.000834660138934851));
#956=CARTESIAN_POINT('',(0.0357013056874275,-0.01321,-0.00101043243193999));
#957=CARTESIAN_POINT('',(0.0357013056874275,-0.01321,-0.00118620472494513));
#958=CARTESIAN_POINT('',(0.0357013056874275,-0.01321,-0.00118620472494513));
#959=CARTESIAN_POINT('',(0.0357013056874275,-0.01321,-0.00101043243193999));
#960=CARTESIAN_POINT('',(0.0372568900585174,-0.01321,-0.00118620472494513));
#961=CARTESIAN_POINT('',(0.0388124744296074,-0.01321,-0.00118620472494513));
#962=CARTESIAN_POINT('',(0.0388124744296074,-0.01321,-0.00118620472494513));
#963=CARTESIAN_POINT('',(0.0372568900585174,-0.01321,-0.00118620472494513));
#964=CARTESIAN_POINT('',(0.0388124744296074,-0.01321,-0.00101043243193999));
#965=CARTESIAN_POINT('',(0.0388124744296074,-0.01321,-0.00101043243193999));
#966=CARTESIAN_POINT('',(0.0368972579017282,-0.01321,-0.000956307689193636));
#967=CARTESIAN_POINT('',(0.0372568900585174,-0.01321,-0.00629925392260775));
#968=CARTESIAN_POINT('',(0.0357013056874275,-0.01321,-0.00629925392260775));
#969=CARTESIAN_POINT('',(0.0357013056874275,-0.01321,-0.00629925392260775));
#970=CARTESIAN_POINT('',(0.0372568900585174,-0.01321,-0.00629925392260775));
#971=CARTESIAN_POINT('',(0.0388124744296074,-0.01321,-0.00629925392260775));
#972=CARTESIAN_POINT('',(0.0388124744296074,-0.01321,-0.00629925392260775));
#973=CARTESIAN_POINT('',(0.0357013056874275,-0.01321,-0.00647502621561289));
#974=CARTESIAN_POINT('',(0.0357013056874275,-0.01321,-0.00665079850861803));
#975=CARTESIAN_POINT('',(0.0357013056874275,-0.01321,-0.00665079850861803));
#976=CARTESIAN_POINT('',(0.0357013056874275,-0.01321,-0.00647502621561289));
#977=CARTESIAN_POINT('',(0.0372568900585174,-0.01321,-0.00665079850861803));
#978=CARTESIAN_POINT('',(0.0388124744296074,-0.01321,-0.00665079850861803));
#979=CARTESIAN_POINT('',(0.0388124744296074,-0.01321,-0.00665079850861803));
#980=CARTESIAN_POINT('',(0.0372568900585174,-0.01321,-0.00665079850861803));
#981=CARTESIAN_POINT('',(0.0388124744296074,-0.01321,-0.00647502621561289));
#982=CARTESIAN_POINT('',(0.0388124744296074,-0.01321,-0.00647502621561289));
#983=CARTESIAN_POINT('',(0.0368972579017282,-0.01321,-0.00669417204335332));
#984=CARTESIAN_POINT('',(0.0444318181276321,-0.0065,-0.0120426143035293));
#985=CARTESIAN_POINT('',(0.0444318181276321,-0.0065,-0.0120426143035293));
#986=CARTESIAN_POINT('',(0.0369318181276321,-0.0065,-0.0120426143035293));
#987=CARTESIAN_POINT('',(0.0294318181276321,-0.0065,-0.0120426143035293));
#988=CARTESIAN_POINT('',(0.0294318181276321,-0.0065,-0.0120426143035293));
#989=CARTESIAN_POINT('',(0.0369318181276321,-0.0065,-0.0120426143035293));
#990=CARTESIAN_POINT('',(0.0369318181276321,-0.0099,-0.00479261430352926));
#991=CARTESIAN_POINT('',(0.0369318181276321,-0.0099,0.));
#992=CARTESIAN_POINT('',(0.0444318181276321,-0.0099,0.));
#993=CARTESIAN_POINT('',(0.0294318181276321,-0.0099,0.));
#994=CARTESIAN_POINT('',(0.0444318181276321,-0.0099,-0.00373333459720015));
#995=CARTESIAN_POINT('',(0.0444318181276321,-0.0099,-0.00746666919440031));
#996=CARTESIAN_POINT('',(0.0369318181276321,-0.0099,-0.00746666919440031));
#997=CARTESIAN_POINT('',(0.0294318181276321,-0.0099,-0.00746666919440031));
#998=CARTESIAN_POINT('',(0.0294318181276321,-0.0099,-0.00373333459720015));
#999=CARTESIAN_POINT('',(0.0294318181276321,-0.0099,-0.00373333459720015));
#1000=CARTESIAN_POINT('',(0.0294318181276321,-0.0099,-0.00746666919440031));
#1001=CARTESIAN_POINT('',(0.0294318181276321,-0.0011,-0.00746666919440031));
#1002=CARTESIAN_POINT('',(0.0294318181276321,-0.0011,-0.00373333459720015));
#1003=CARTESIAN_POINT('',(0.0294318181276321,-0.0011,0.));
#1004=CARTESIAN_POINT('',(0.0294318181276321,-0.0099,0.));
#1005=CARTESIAN_POINT('',(0.0369318181276321,-0.0099,-0.00746666919440031));
#1006=CARTESIAN_POINT('',(0.0369318181276321,-0.0011,-0.00746666919440031));
#1007=CARTESIAN_POINT('',(0.0444318181276321,-0.0011,-0.00746666919440031));
#1008=CARTESIAN_POINT('',(0.0444318181276321,-0.0099,-0.00746666919440031));
#1009=CARTESIAN_POINT('',(0.0444318181276321,-0.0099,-0.00373333459720015));
#1010=CARTESIAN_POINT('',(0.0444318181276321,-0.0011,-0.00373333459720015));
#1011=CARTESIAN_POINT('',(0.0444318181276321,-0.0011,0.));
#1012=CARTESIAN_POINT('',(0.0444318181276321,-0.0099,0.));
#1013=CARTESIAN_POINT('',(0.0369318181276321,-0.0099,0.));
#1014=CARTESIAN_POINT('',(0.0369318181276321,-0.0011,0.));
#1015=CARTESIAN_POINT('',(0.0369318181276321,-0.0011,-0.00479261430352926));
#1016=MECHANICAL_DESIGN_GEOMETRIC_PRESENTATION_REPRESENTATION('',(#637),
#1017);
#1017=(
GEOMETRIC_REPRESENTATION_CONTEXT(3)
GLOBAL_UNCERTAINTY_ASSIGNED_CONTEXT((#1018))
GLOBAL_UNIT_ASSIGNED_CONTEXT((#1021,#1020,#1019))
REPRESENTATION_CONTEXT('Part 1','TOP_LEVEL_ASSEMBLY_PART')
);
#1018=UNCERTAINTY_MEASURE_WITH_UNIT(LENGTH_MEASURE(2.E-5),#1021,
'DISTANCE_ACCURACY_VALUE','Maximum Tolerance applied to model');
#1019=(
NAMED_UNIT(*)
SI_UNIT($,.STERADIAN.)
SOLID_ANGLE_UNIT()
);
#1020=(
NAMED_UNIT(*)
PLANE_ANGLE_UNIT()
SI_UNIT($,.RADIAN.)
);
#1021=(
LENGTH_UNIT()
NAMED_UNIT(*)
SI_UNIT($,.METRE.)
);
#1022=PRODUCT_DEFINITION_SHAPE('','',#1023);
#1023=PRODUCT_DEFINITION('','',#1025,#1024);
#1024=PRODUCT_DEFINITION_CONTEXT('',#1031,'design');
#1025=PRODUCT_DEFINITION_FORMATION_WITH_SPECIFIED_SOURCE('','',#1027,
 .NOT_KNOWN.);
#1026=PRODUCT_RELATED_PRODUCT_CATEGORY('','',(#1027));
#1027=PRODUCT('Part 1','Part 1','Part 1',(#1029));
#1028=PRODUCT_CATEGORY('','');
#1029=PRODUCT_CONTEXT('',#1031,'mechanical');
#1030=APPLICATION_PROTOCOL_DEFINITION('international standard',
'ap242_managed_model_based_3d_engineering',2020,#1031);
#1031=APPLICATION_CONTEXT('managed model based 3d engineering');
ENDSEC;
END-ISO-10303-21;
