ISO-10303-21;
HEADER;
/* Generated by software containing ST-Developer
 * from STEP Tools, Inc. (www.steptools.com) 
 */
/* OPTION: using custom renumber hook */

FILE_DESCRIPTION(
/* description */ ('STEP AP242 Edition 2',
'CAx-IF Rec.Pracs.---Representation and Presentation of Product Manufa
cturing Information (PMI)---4.0---2014-10-13',
'CAx-IF Rec.Pracs.---3D Tessellated Geometry---0.4---2014-09-14','2;1',
'CAx-IF Rec.Pracs.---User Defined Attributes---1.5---2016-08-15'),
/* implementation_level */ '2;1');

FILE_NAME(
/* name */ 'mattress',
/* time_stamp */ '2026-09-05T01:50:26Z',
/* author */ (''),
/* organization */ (''),
/* preprocessor_version */ 'ST-DEVELOPER v20',
/* originating_system */ 'ONSHAPE BY PTC INC, 1.220',
/* authorisation */ '  ');

FILE_SCHEMA (('AP242_MANAGED_MODEL_BASED_3D_ENGINEERING_MIM_LF { 1 0 10303 442 3 1 4 }'));
ENDSEC;

DATA;
#10=SHAPE_REPRESENTATION_RELATIONSHIP('','',#271,#11);
#11=ADVANCED_BREP_SHAPE_REPRESENTATION('',(#269),#489);
#12=DEGENERATE_TOROIDAL_SURFACE('',#302,0.000967123195861757,0.00217279220613578,
 .T.);
#13=DEGENERATE_TOROIDAL_SURFACE('',#304,0.000967123195861757,0.00217279220613578,
 .T.);
#14=DEGENERATE_TOROIDAL_SURFACE('',#310,0.000967123195861757,0.00217279220613578,
 .T.);
#15=DEGENERATE_TOROIDAL_SURFACE('',#312,0.000967123195861757,0.00217279220613578,
 .T.);
#16=SPHERICAL_SURFACE('',#282,0.00314);
#17=SPHERICAL_SURFACE('',#285,0.00314);
#18=SPHERICAL_SURFACE('',#292,0.00314);
#19=SPHERICAL_SURFACE('',#295,0.00314);
#20=CYLINDRICAL_SURFACE('',#279,0.00314);
#21=CYLINDRICAL_SURFACE('',#288,0.00314);
#22=CYLINDRICAL_SURFACE('',#290,0.00314);
#23=CYLINDRICAL_SURFACE('',#298,0.00314);
#24=CYLINDRICAL_SURFACE('',#299,0.00217279220613578);
#25=CYLINDRICAL_SURFACE('',#306,0.00217279220613578);
#26=CYLINDRICAL_SURFACE('',#308,0.00217279220613578);
#27=CYLINDRICAL_SURFACE('',#314,0.00217279220613578);
#28=LINE('',#418,#40);
#29=LINE('',#422,#41);
#30=LINE('',#426,#42);
#31=LINE('',#430,#43);
#32=LINE('',#432,#44);
#33=LINE('',#435,#45);
#34=LINE('',#437,#46);
#35=LINE('',#439,#47);
#36=LINE('',#443,#48);
#37=LINE('',#455,#49);
#38=LINE('',#461,#50);
#39=LINE('',#471,#51);
#40=VECTOR('',#321,1.);
#41=VECTOR('',#324,1.);
#42=VECTOR('',#327,1.);
#43=VECTOR('',#330,1.);
#44=VECTOR('',#333,1.);
#45=VECTOR('',#334,1.);
#46=VECTOR('',#335,1.);
#47=VECTOR('',#336,1.);
#48=VECTOR('',#341,1.);
#49=VECTOR('',#358,1.);
#50=VECTOR('',#365,1.);
#51=VECTOR('',#380,1.);
#52=ORIENTED_EDGE('',*,*,#124,.T.);
#53=ORIENTED_EDGE('',*,*,#125,.T.);
#54=ORIENTED_EDGE('',*,*,#126,.T.);
#55=ORIENTED_EDGE('',*,*,#127,.T.);
#56=ORIENTED_EDGE('',*,*,#128,.T.);
#57=ORIENTED_EDGE('',*,*,#129,.T.);
#58=ORIENTED_EDGE('',*,*,#130,.T.);
#59=ORIENTED_EDGE('',*,*,#131,.T.);
#60=ORIENTED_EDGE('',*,*,#132,.T.);
#61=ORIENTED_EDGE('',*,*,#133,.T.);
#62=ORIENTED_EDGE('',*,*,#134,.T.);
#63=ORIENTED_EDGE('',*,*,#135,.T.);
#64=ORIENTED_EDGE('',*,*,#136,.F.);
#65=ORIENTED_EDGE('',*,*,#137,.T.);
#66=ORIENTED_EDGE('',*,*,#138,.F.);
#67=ORIENTED_EDGE('',*,*,#134,.F.);
#68=ORIENTED_EDGE('',*,*,#138,.T.);
#69=ORIENTED_EDGE('',*,*,#139,.T.);
#70=ORIENTED_EDGE('',*,*,#140,.F.);
#71=ORIENTED_EDGE('',*,*,#141,.F.);
#72=ORIENTED_EDGE('',*,*,#142,.T.);
#73=ORIENTED_EDGE('',*,*,#136,.T.);
#74=ORIENTED_EDGE('',*,*,#140,.T.);
#75=ORIENTED_EDGE('',*,*,#143,.T.);
#76=ORIENTED_EDGE('',*,*,#144,.F.);
#77=ORIENTED_EDGE('',*,*,#135,.F.);
#78=ORIENTED_EDGE('',*,*,#145,.F.);
#79=ORIENTED_EDGE('',*,*,#146,.T.);
#80=ORIENTED_EDGE('',*,*,#141,.T.);
#81=ORIENTED_EDGE('',*,*,#133,.F.);
#82=ORIENTED_EDGE('',*,*,#144,.T.);
#83=ORIENTED_EDGE('',*,*,#147,.T.);
#84=ORIENTED_EDGE('',*,*,#148,.F.);
#85=ORIENTED_EDGE('',*,*,#149,.F.);
#86=ORIENTED_EDGE('',*,*,#150,.T.);
#87=ORIENTED_EDGE('',*,*,#145,.T.);
#88=ORIENTED_EDGE('',*,*,#148,.T.);
#89=ORIENTED_EDGE('',*,*,#151,.T.);
#90=ORIENTED_EDGE('',*,*,#149,.T.);
#91=ORIENTED_EDGE('',*,*,#132,.F.);
#92=ORIENTED_EDGE('',*,*,#152,.F.);
#93=ORIENTED_EDGE('',*,*,#129,.F.);
#94=ORIENTED_EDGE('',*,*,#153,.F.);
#95=ORIENTED_EDGE('',*,*,#146,.F.);
#96=ORIENTED_EDGE('',*,*,#153,.T.);
#97=ORIENTED_EDGE('',*,*,#128,.F.);
#98=ORIENTED_EDGE('',*,*,#154,.F.);
#99=ORIENTED_EDGE('',*,*,#142,.F.);
#100=ORIENTED_EDGE('',*,*,#152,.T.);
#101=ORIENTED_EDGE('',*,*,#150,.F.);
#102=ORIENTED_EDGE('',*,*,#155,.F.);
#103=ORIENTED_EDGE('',*,*,#130,.F.);
#104=ORIENTED_EDGE('',*,*,#154,.T.);
#105=ORIENTED_EDGE('',*,*,#127,.F.);
#106=ORIENTED_EDGE('',*,*,#156,.F.);
#107=ORIENTED_EDGE('',*,*,#137,.F.);
#108=ORIENTED_EDGE('',*,*,#155,.T.);
#109=ORIENTED_EDGE('',*,*,#151,.F.);
#110=ORIENTED_EDGE('',*,*,#157,.F.);
#111=ORIENTED_EDGE('',*,*,#131,.F.);
#112=ORIENTED_EDGE('',*,*,#156,.T.);
#113=ORIENTED_EDGE('',*,*,#126,.F.);
#114=ORIENTED_EDGE('',*,*,#158,.F.);
#115=ORIENTED_EDGE('',*,*,#139,.F.);
#116=ORIENTED_EDGE('',*,*,#157,.T.);
#117=ORIENTED_EDGE('',*,*,#147,.F.);
#118=ORIENTED_EDGE('',*,*,#159,.F.);
#119=ORIENTED_EDGE('',*,*,#124,.F.);
#120=ORIENTED_EDGE('',*,*,#158,.T.);
#121=ORIENTED_EDGE('',*,*,#125,.F.);
#122=ORIENTED_EDGE('',*,*,#159,.T.);
#123=ORIENTED_EDGE('',*,*,#143,.F.);
#124=EDGE_CURVE('',#160,#161,#180,.T.);
#125=EDGE_CURVE('',#161,#162,#28,.T.);
#126=EDGE_CURVE('',#162,#163,#181,.T.);
#127=EDGE_CURVE('',#163,#164,#29,.T.);
#128=EDGE_CURVE('',#164,#165,#182,.T.);
#129=EDGE_CURVE('',#165,#166,#30,.T.);
#130=EDGE_CURVE('',#166,#167,#183,.T.);
#131=EDGE_CURVE('',#167,#160,#31,.T.);
#132=EDGE_CURVE('',#168,#169,#32,.T.);
#133=EDGE_CURVE('',#169,#170,#33,.F.);
#134=EDGE_CURVE('',#170,#171,#34,.F.);
#135=EDGE_CURVE('',#171,#168,#35,.T.);
#136=EDGE_CURVE('',#172,#170,#184,.T.);
#137=EDGE_CURVE('',#172,#173,#36,.F.);
#138=EDGE_CURVE('',#171,#173,#185,.T.);
#139=EDGE_CURVE('',#173,#174,#186,.F.);
#140=EDGE_CURVE('',#171,#174,#187,.F.);
#141=EDGE_CURVE('',#175,#170,#188,.F.);
#142=EDGE_CURVE('',#175,#172,#189,.F.);
#143=EDGE_CURVE('',#174,#176,#37,.F.);
#144=EDGE_CURVE('',#168,#176,#190,.T.);
#145=EDGE_CURVE('',#177,#169,#191,.T.);
#146=EDGE_CURVE('',#177,#175,#38,.F.);
#147=EDGE_CURVE('',#176,#178,#192,.F.);
#148=EDGE_CURVE('',#168,#178,#193,.F.);
#149=EDGE_CURVE('',#179,#169,#194,.F.);
#150=EDGE_CURVE('',#179,#177,#195,.F.);
#151=EDGE_CURVE('',#178,#179,#39,.F.);
#152=EDGE_CURVE('',#166,#177,#196,.T.);
#153=EDGE_CURVE('',#175,#165,#197,.T.);
#154=EDGE_CURVE('',#172,#164,#198,.T.);
#155=EDGE_CURVE('',#167,#179,#199,.T.);
#156=EDGE_CURVE('',#173,#163,#200,.T.);
#157=EDGE_CURVE('',#160,#178,#201,.T.);
#158=EDGE_CURVE('',#174,#162,#202,.T.);
#159=EDGE_CURVE('',#161,#176,#203,.T.);
#160=VERTEX_POINT('',#416);
#161=VERTEX_POINT('',#417);
#162=VERTEX_POINT('',#419);
#163=VERTEX_POINT('',#421);
#164=VERTEX_POINT('',#423);
#165=VERTEX_POINT('',#425);
#166=VERTEX_POINT('',#427);
#167=VERTEX_POINT('',#429);
#168=VERTEX_POINT('',#433);
#169=VERTEX_POINT('',#434);
#170=VERTEX_POINT('',#436);
#171=VERTEX_POINT('',#438);
#172=VERTEX_POINT('',#442);
#173=VERTEX_POINT('',#444);
#174=VERTEX_POINT('',#448);
#175=VERTEX_POINT('',#452);
#176=VERTEX_POINT('',#456);
#177=VERTEX_POINT('',#460);
#178=VERTEX_POINT('',#464);
#179=VERTEX_POINT('',#468);
#180=CIRCLE('',#274,0.000967123195861757);
#181=CIRCLE('',#275,0.000967123195861757);
#182=CIRCLE('',#276,0.000967123195861757);
#183=CIRCLE('',#277,0.000967123195861757);
#184=CIRCLE('',#280,0.00314);
#185=CIRCLE('',#281,0.00314);
#186=CIRCLE('',#283,0.00313972535609266);
#187=CIRCLE('',#284,0.00314);
#188=CIRCLE('',#286,0.00314);
#189=CIRCLE('',#287,0.00313972535609266);
#190=CIRCLE('',#289,0.00314);
#191=CIRCLE('',#291,0.00314);
#192=CIRCLE('',#293,0.00313972535609266);
#193=CIRCLE('',#294,0.00314);
#194=CIRCLE('',#296,0.00314);
#195=CIRCLE('',#297,0.00313972535609266);
#196=CIRCLE('',#300,0.00217279220613578);
#197=CIRCLE('',#301,0.00217279220613578);
#198=CIRCLE('',#303,0.00217279220613578);
#199=CIRCLE('',#305,0.00217279220613578);
#200=CIRCLE('',#307,0.00217279220613578);
#201=CIRCLE('',#309,0.00217279220613578);
#202=CIRCLE('',#311,0.00217279220613578);
#203=CIRCLE('',#313,0.00217279220613578);
#204=EDGE_LOOP('',(#52,#53,#54,#55,#56,#57,#58,#59));
#205=EDGE_LOOP('',(#60,#61,#62,#63));
#206=EDGE_LOOP('',(#64,#65,#66,#67));
#207=EDGE_LOOP('',(#68,#69,#70));
#208=EDGE_LOOP('',(#71,#72,#73));
#209=EDGE_LOOP('',(#74,#75,#76,#77));
#210=EDGE_LOOP('',(#78,#79,#80,#81));
#211=EDGE_LOOP('',(#82,#83,#84));
#212=EDGE_LOOP('',(#85,#86,#87));
#213=EDGE_LOOP('',(#88,#89,#90,#91));
#214=EDGE_LOOP('',(#92,#93,#94,#95));
#215=EDGE_LOOP('',(#96,#97,#98,#99));
#216=EDGE_LOOP('',(#100,#101,#102,#103));
#217=EDGE_LOOP('',(#104,#105,#106,#107));
#218=EDGE_LOOP('',(#108,#109,#110,#111));
#219=EDGE_LOOP('',(#112,#113,#114,#115));
#220=EDGE_LOOP('',(#116,#117,#118,#119));
#221=EDGE_LOOP('',(#120,#121,#122,#123));
#222=FACE_BOUND('',#204,.T.);
#223=FACE_BOUND('',#205,.T.);
#224=FACE_BOUND('',#206,.T.);
#225=FACE_BOUND('',#207,.T.);
#226=FACE_BOUND('',#208,.T.);
#227=FACE_BOUND('',#209,.T.);
#228=FACE_BOUND('',#210,.T.);
#229=FACE_BOUND('',#211,.T.);
#230=FACE_BOUND('',#212,.T.);
#231=FACE_BOUND('',#213,.T.);
#232=FACE_BOUND('',#214,.T.);
#233=FACE_BOUND('',#215,.T.);
#234=FACE_BOUND('',#216,.T.);
#235=FACE_BOUND('',#217,.T.);
#236=FACE_BOUND('',#218,.T.);
#237=FACE_BOUND('',#219,.T.);
#238=FACE_BOUND('',#220,.T.);
#239=FACE_BOUND('',#221,.T.);
#240=PLANE('',#273);
#241=PLANE('',#278);
#242=ADVANCED_FACE('',(#222),#240,.T.);
#243=ADVANCED_FACE('',(#223),#241,.F.);
#244=ADVANCED_FACE('',(#224),#20,.T.);
#245=ADVANCED_FACE('',(#225),#16,.T.);
#246=ADVANCED_FACE('',(#226),#17,.T.);
#247=ADVANCED_FACE('',(#227),#21,.T.);
#248=ADVANCED_FACE('',(#228),#22,.T.);
#249=ADVANCED_FACE('',(#229),#18,.T.);
#250=ADVANCED_FACE('',(#230),#19,.T.);
#251=ADVANCED_FACE('',(#231),#23,.T.);
#252=ADVANCED_FACE('',(#232),#24,.T.);
#253=ADVANCED_FACE('',(#233),#12,.T.);
#254=ADVANCED_FACE('',(#234),#13,.T.);
#255=ADVANCED_FACE('',(#235),#25,.T.);
#256=ADVANCED_FACE('',(#236),#26,.T.);
#257=ADVANCED_FACE('',(#237),#14,.T.);
#258=ADVANCED_FACE('',(#238),#15,.T.);
#259=ADVANCED_FACE('',(#239),#27,.T.);
#260=CLOSED_SHELL('',(#242,#243,#244,#245,#246,#247,#248,#249,#250,#251,
#252,#253,#254,#255,#256,#257,#258,#259));
#261=STYLED_ITEM('',(#262),#269);
#262=PRESENTATION_STYLE_ASSIGNMENT((#263));
#263=SURFACE_STYLE_USAGE(.BOTH.,#264);
#264=SURFACE_SIDE_STYLE('',(#265));
#265=SURFACE_STYLE_FILL_AREA(#266);
#266=FILL_AREA_STYLE('',(#267));
#267=FILL_AREA_STYLE_COLOUR('',#268);
#268=COLOUR_RGB('',0.615686274509804,0.811764705882353,0.929411764705882);
#269=MANIFOLD_SOLID_BREP('Part 1',#260);
#270=SHAPE_DEFINITION_REPRESENTATION(#494,#271);
#271=SHAPE_REPRESENTATION('Part 1',(#272),#489);
#272=AXIS2_PLACEMENT_3D('',#413,#315,#316);
#273=AXIS2_PLACEMENT_3D('',#414,#317,#318);
#274=AXIS2_PLACEMENT_3D('',#415,#319,#320);
#275=AXIS2_PLACEMENT_3D('',#420,#322,#323);
#276=AXIS2_PLACEMENT_3D('',#424,#325,#326);
#277=AXIS2_PLACEMENT_3D('',#428,#328,#329);
#278=AXIS2_PLACEMENT_3D('',#431,#331,#332);
#279=AXIS2_PLACEMENT_3D('',#440,#337,#338);
#280=AXIS2_PLACEMENT_3D('',#441,#339,#340);
#281=AXIS2_PLACEMENT_3D('',#445,#342,#343);
#282=AXIS2_PLACEMENT_3D('',#446,#344,#345);
#283=AXIS2_PLACEMENT_3D('',#447,#346,#347);
#284=AXIS2_PLACEMENT_3D('',#449,#348,#349);
#285=AXIS2_PLACEMENT_3D('',#450,#350,#351);
#286=AXIS2_PLACEMENT_3D('',#451,#352,#353);
#287=AXIS2_PLACEMENT_3D('',#453,#354,#355);
#288=AXIS2_PLACEMENT_3D('',#454,#356,#357);
#289=AXIS2_PLACEMENT_3D('',#457,#359,#360);
#290=AXIS2_PLACEMENT_3D('',#458,#361,#362);
#291=AXIS2_PLACEMENT_3D('',#459,#363,#364);
#292=AXIS2_PLACEMENT_3D('',#462,#366,#367);
#293=AXIS2_PLACEMENT_3D('',#463,#368,#369);
#294=AXIS2_PLACEMENT_3D('',#465,#370,#371);
#295=AXIS2_PLACEMENT_3D('',#466,#372,#373);
#296=AXIS2_PLACEMENT_3D('',#467,#374,#375);
#297=AXIS2_PLACEMENT_3D('',#469,#376,#377);
#298=AXIS2_PLACEMENT_3D('',#470,#378,#379);
#299=AXIS2_PLACEMENT_3D('',#472,#381,#382);
#300=AXIS2_PLACEMENT_3D('',#473,#383,#384);
#301=AXIS2_PLACEMENT_3D('',#474,#385,#386);
#302=AXIS2_PLACEMENT_3D('',#475,#387,#388);
#303=AXIS2_PLACEMENT_3D('',#476,#389,#390);
#304=AXIS2_PLACEMENT_3D('',#477,#391,#392);
#305=AXIS2_PLACEMENT_3D('',#478,#393,#394);
#306=AXIS2_PLACEMENT_3D('',#479,#395,#396);
#307=AXIS2_PLACEMENT_3D('',#480,#397,#398);
#308=AXIS2_PLACEMENT_3D('',#481,#399,#400);
#309=AXIS2_PLACEMENT_3D('',#482,#401,#402);
#310=AXIS2_PLACEMENT_3D('',#483,#403,#404);
#311=AXIS2_PLACEMENT_3D('',#484,#405,#406);
#312=AXIS2_PLACEMENT_3D('',#485,#407,#408);
#313=AXIS2_PLACEMENT_3D('',#486,#409,#410);
#314=AXIS2_PLACEMENT_3D('',#487,#411,#412);
#315=DIRECTION('',(0.,0.,1.));
#316=DIRECTION('',(1.,0.,0.));
#317=DIRECTION('',(0.,0.,1.));
#318=DIRECTION('',(1.,0.,0.));
#319=DIRECTION('',(0.,0.,1.));
#320=DIRECTION('',(1.,0.,0.));
#321=DIRECTION('',(-1.,0.,0.));
#322=DIRECTION('',(0.,0.,1.));
#323=DIRECTION('',(1.,0.,0.));
#324=DIRECTION('',(0.,-1.,0.));
#325=DIRECTION('',(0.,0.,1.));
#326=DIRECTION('',(1.,0.,0.));
#327=DIRECTION('',(1.,0.,0.));
#328=DIRECTION('',(0.,0.,1.));
#329=DIRECTION('',(1.,0.,0.));
#330=DIRECTION('',(-1.05614823499349E-16,1.,0.));
#331=DIRECTION('',(0.,0.,1.));
#332=DIRECTION('',(1.,0.,0.));
#333=DIRECTION('',(1.05614823499349E-16,-1.,0.));
#334=DIRECTION('',(1.,0.,0.));
#335=DIRECTION('',(0.,-1.,0.));
#336=DIRECTION('',(1.,0.,0.));
#337=DIRECTION('',(0.,-1.,0.));
#338=DIRECTION('',(0.,0.,-1.));
#339=DIRECTION('',(0.,-1.,0.));
#340=DIRECTION('',(0.,0.,-1.));
#341=DIRECTION('',(0.,-1.,0.));
#342=DIRECTION('',(0.,1.,0.));
#343=DIRECTION('',(0.,0.,1.));
#344=DIRECTION('',(-1.,0.,0.));
#345=DIRECTION('',(0.,0.,1.));
#346=DIRECTION('',(0.,0.,1.));
#347=DIRECTION('',(1.,0.,0.));
#348=DIRECTION('',(-1.,0.,0.));
#349=DIRECTION('',(0.,0.,1.));
#350=DIRECTION('',(-1.,0.,0.));
#351=DIRECTION('',(0.,0.,1.));
#352=DIRECTION('',(-1.,0.,0.));
#353=DIRECTION('',(0.,0.,1.));
#354=DIRECTION('',(0.,0.,1.));
#355=DIRECTION('',(1.,0.,0.));
#356=DIRECTION('',(-1.,0.,0.));
#357=DIRECTION('',(0.,0.,1.));
#358=DIRECTION('',(-1.,0.,0.));
#359=DIRECTION('',(1.,0.,0.));
#360=DIRECTION('',(0.,0.,-1.));
#361=DIRECTION('',(1.,0.,0.));
#362=DIRECTION('',(0.,0.,-1.));
#363=DIRECTION('',(1.,0.,2.20983882290039E-15));
#364=DIRECTION('',(2.20983882290039E-15,0.,-1.));
#365=DIRECTION('',(1.,0.,0.));
#366=DIRECTION('',(0.,1.,0.));
#367=DIRECTION('',(0.,0.,1.));
#368=DIRECTION('',(0.,0.,1.));
#369=DIRECTION('',(1.,0.,0.));
#370=DIRECTION('',(0.,1.,0.));
#371=DIRECTION('',(0.,0.,1.));
#372=DIRECTION('',(0.,-1.,0.));
#373=DIRECTION('',(0.,0.,-1.));
#374=DIRECTION('',(0.,-1.,0.));
#375=DIRECTION('',(0.,0.,-1.));
#376=DIRECTION('',(0.,0.,1.));
#377=DIRECTION('',(1.,0.,0.));
#378=DIRECTION('',(-1.05614823499349E-16,1.,0.));
#379=DIRECTION('',(-1.,-1.05614823499349E-16,0.));
#380=DIRECTION('',(-1.05614823499349E-16,1.,0.));
#381=DIRECTION('',(1.,0.,0.));
#382=DIRECTION('',(0.,0.,-1.));
#383=DIRECTION('',(1.,0.,0.));
#384=DIRECTION('',(0.,0.,-1.));
#385=DIRECTION('',(-1.,0.,0.));
#386=DIRECTION('',(0.,0.,1.));
#387=DIRECTION('',(0.,0.,1.));
#388=DIRECTION('',(1.,0.,0.));
#389=DIRECTION('',(0.,1.,0.));
#390=DIRECTION('',(0.,0.,1.));
#391=DIRECTION('',(0.,0.,1.));
#392=DIRECTION('',(1.,0.,0.));
#393=DIRECTION('',(0.,1.,0.));
#394=DIRECTION('',(0.,0.,1.));
#395=DIRECTION('',(0.,-1.,0.));
#396=DIRECTION('',(0.,0.,-1.));
#397=DIRECTION('',(0.,1.,0.));
#398=DIRECTION('',(0.,0.,1.));
#399=DIRECTION('',(-1.05614823499349E-16,1.,0.));
#400=DIRECTION('',(-1.,-1.05614823499349E-16,0.));
#401=DIRECTION('',(0.,1.,0.));
#402=DIRECTION('',(0.,0.,1.));
#403=DIRECTION('',(0.,0.,1.));
#404=DIRECTION('',(1.,0.,0.));
#405=DIRECTION('',(1.,0.,0.));
#406=DIRECTION('',(0.,0.,-1.));
#407=DIRECTION('',(0.,0.,1.));
#408=DIRECTION('',(1.,0.,0.));
#409=DIRECTION('',(-1.,0.,0.));
#410=DIRECTION('',(0.,0.,1.));
#411=DIRECTION('',(-1.,0.,0.));
#412=DIRECTION('',(0.,0.,1.));
#413=CARTESIAN_POINT('',(0.,0.,0.));
#414=CARTESIAN_POINT('',(-0.0471686788610447,0.00395,0.0053));
#415=CARTESIAN_POINT('',(-0.0324586788610446,0.03366,0.0053));
#416=CARTESIAN_POINT('',(-0.0314915556651829,0.03366,0.0053));
#417=CARTESIAN_POINT('',(-0.0324586788610446,0.0346271231958618,0.0053));
#418=CARTESIAN_POINT('',(-0.0471686788610447,0.0346271231958618,0.0053));
#419=CARTESIAN_POINT('',(-0.0618786788610447,0.0346271231958618,0.0053));
#420=CARTESIAN_POINT('',(-0.0618786788610447,0.03366,0.0053));
#421=CARTESIAN_POINT('',(-0.0628458020569064,0.03366,0.0053));
#422=CARTESIAN_POINT('',(-0.0628458020569064,0.00395,0.0053));
#423=CARTESIAN_POINT('',(-0.0628458020569064,-0.02576,0.0053));
#424=CARTESIAN_POINT('',(-0.0618786788610447,-0.02576,0.0053));
#425=CARTESIAN_POINT('',(-0.0618786788610447,-0.0267271231958617,0.0053));
#426=CARTESIAN_POINT('',(-0.0471686788610447,-0.0267271231958617,0.0053));
#427=CARTESIAN_POINT('',(-0.0324586788610446,-0.0267271231958617,0.0053));
#428=CARTESIAN_POINT('',(-0.0324586788610446,-0.02576,0.0053));
#429=CARTESIAN_POINT('',(-0.0314915556651829,-0.02576,0.0053));
#430=CARTESIAN_POINT('',(-0.0314915556651829,0.00395,0.0053));
#431=CARTESIAN_POINT('',(-0.0471686788610447,0.00395,0.));
#432=CARTESIAN_POINT('',(-0.0324586788610446,-0.0289,0.));
#433=CARTESIAN_POINT('',(-0.0324586788610446,0.03366,0.));
#434=CARTESIAN_POINT('',(-0.0324586788610446,-0.02576,0.));
#435=CARTESIAN_POINT('',(-0.0471686788610447,-0.02576,0.));
#436=CARTESIAN_POINT('',(-0.0618786788610447,-0.02576,0.));
#437=CARTESIAN_POINT('',(-0.0618786788610447,0.00395,0.));
#438=CARTESIAN_POINT('',(-0.0618786788610447,0.03366,0.));
#439=CARTESIAN_POINT('',(-0.0293186788610446,0.03366,0.));
#440=CARTESIAN_POINT('',(-0.0618786788610447,0.00395,0.00314));
#441=CARTESIAN_POINT('',(-0.0618786788610447,-0.02576,0.00314));
#442=CARTESIAN_POINT('',(-0.0650184042171373,-0.02576,0.00309847063317605));
#443=CARTESIAN_POINT('',(-0.0650184042171373,0.00395,0.00309847063317605));
#444=CARTESIAN_POINT('',(-0.0650184042171373,0.03366,0.00309847063317605));
#445=CARTESIAN_POINT('',(-0.0618786788610447,0.03366,0.00314));
#446=CARTESIAN_POINT('',(-0.0618786788610447,0.03366,0.00314));
#447=CARTESIAN_POINT('',(-0.0618786788610447,0.03366,0.00309847063317605));
#448=CARTESIAN_POINT('',(-0.0618786788610447,0.0367997253560927,0.00309847063317605));
#449=CARTESIAN_POINT('',(-0.0618786788610447,0.03366,0.00314));
#450=CARTESIAN_POINT('',(-0.0618786788610447,-0.02576,0.00314));
#451=CARTESIAN_POINT('',(-0.0618786788610447,-0.02576,0.00314));
#452=CARTESIAN_POINT('',(-0.0618786788610447,-0.0288997253560927,0.00309847063317605));
#453=CARTESIAN_POINT('',(-0.0618786788610447,-0.02576,0.00309847063317605));
#454=CARTESIAN_POINT('',(-0.0471686788610447,0.03366,0.00314));
#455=CARTESIAN_POINT('',(-0.0471686788610447,0.0367997253560927,0.00309847063317605));
#456=CARTESIAN_POINT('',(-0.0324586788610446,0.0367997253560927,0.00309847063317605));
#457=CARTESIAN_POINT('',(-0.0324586788610446,0.03366,0.00314));
#458=CARTESIAN_POINT('',(-0.0471686788610447,-0.02576,0.00314));
#459=CARTESIAN_POINT('',(-0.0324586788610446,-0.02576,0.00314));
#460=CARTESIAN_POINT('',(-0.0324586788610446,-0.0288997253560927,0.00309847063317605));
#461=CARTESIAN_POINT('',(-0.0471686788610447,-0.0288997253560927,0.00309847063317605));
#462=CARTESIAN_POINT('',(-0.0324586788610446,0.03366,0.00314));
#463=CARTESIAN_POINT('',(-0.0324586788610446,0.03366,0.00309847063317605));
#464=CARTESIAN_POINT('',(-0.029318953504952,0.03366,0.00309847063317605));
#465=CARTESIAN_POINT('',(-0.0324586788610446,0.03366,0.00314));
#466=CARTESIAN_POINT('',(-0.0324586788610446,-0.02576,0.00314));
#467=CARTESIAN_POINT('',(-0.0324586788610446,-0.02576,0.00314));
#468=CARTESIAN_POINT('',(-0.029318953504952,-0.02576,0.00309847063317605));
#469=CARTESIAN_POINT('',(-0.0324586788610446,-0.02576,0.00309847063317605));
#470=CARTESIAN_POINT('',(-0.0324586788610446,0.00395,0.00314));
#471=CARTESIAN_POINT('',(-0.029318953504952,0.00395,0.00309847063317605));
#472=CARTESIAN_POINT('',(-0.0471686788610447,-0.0267271231958617,0.00312720779386422));
#473=CARTESIAN_POINT('',(-0.0324586788610446,-0.0267271231958617,0.00312720779386422));
#474=CARTESIAN_POINT('',(-0.0618786788610447,-0.0267271231958617,0.00312720779386422));
#475=CARTESIAN_POINT('',(-0.0618786788610447,-0.02576,0.00312720779386422));
#476=CARTESIAN_POINT('',(-0.0628458020569064,-0.02576,0.00312720779386422));
#477=CARTESIAN_POINT('',(-0.0324586788610446,-0.02576,0.00312720779386422));
#478=CARTESIAN_POINT('',(-0.0314915556651829,-0.02576,0.00312720779386422));
#479=CARTESIAN_POINT('',(-0.0628458020569064,0.00395,0.00312720779386422));
#480=CARTESIAN_POINT('',(-0.0628458020569064,0.03366,0.00312720779386422));
#481=CARTESIAN_POINT('',(-0.0314915556651829,0.00395,0.00312720779386422));
#482=CARTESIAN_POINT('',(-0.0314915556651829,0.03366,0.00312720779386422));
#483=CARTESIAN_POINT('',(-0.0618786788610447,0.03366,0.00312720779386422));
#484=CARTESIAN_POINT('',(-0.0618786788610447,0.0346271231958618,0.00312720779386422));
#485=CARTESIAN_POINT('',(-0.0324586788610446,0.03366,0.00312720779386422));
#486=CARTESIAN_POINT('',(-0.0324586788610446,0.0346271231958618,0.00312720779386422));
#487=CARTESIAN_POINT('',(-0.0471686788610447,0.0346271231958618,0.00312720779386422));
#488=MECHANICAL_DESIGN_GEOMETRIC_PRESENTATION_REPRESENTATION('',(#261),
#489);
#489=(
GEOMETRIC_REPRESENTATION_CONTEXT(3)
GLOBAL_UNCERTAINTY_ASSIGNED_CONTEXT((#490))
GLOBAL_UNIT_ASSIGNED_CONTEXT((#493,#492,#491))
REPRESENTATION_CONTEXT('Part 1','TOP_LEVEL_ASSEMBLY_PART')
);
#490=UNCERTAINTY_MEASURE_WITH_UNIT(LENGTH_MEASURE(1.E-8),#493,
'DISTANCE_ACCURACY_VALUE','Maximum Tolerance applied to model');
#491=(
NAMED_UNIT(*)
SI_UNIT($,.STERADIAN.)
SOLID_ANGLE_UNIT()
);
#492=(
NAMED_UNIT(*)
PLANE_ANGLE_UNIT()
SI_UNIT($,.RADIAN.)
);
#493=(
LENGTH_UNIT()
NAMED_UNIT(*)
SI_UNIT($,.METRE.)
);
#494=PRODUCT_DEFINITION_SHAPE('','',#495);
#495=PRODUCT_DEFINITION('','',#497,#496);
#496=PRODUCT_DEFINITION_CONTEXT('',#503,'design');
#497=PRODUCT_DEFINITION_FORMATION_WITH_SPECIFIED_SOURCE('','',#499,
 .NOT_KNOWN.);
#498=PRODUCT_RELATED_PRODUCT_CATEGORY('','',(#499));
#499=PRODUCT('Part 1','Part 1','Part 1',(#501));
#500=PRODUCT_CATEGORY('','');
#501=PRODUCT_CONTEXT('',#503,'mechanical');
#502=APPLICATION_PROTOCOL_DEFINITION('international standard',
'ap242_managed_model_based_3d_engineering',2020,#503);
#503=APPLICATION_CONTEXT('managed model based 3d engineering');
ENDSEC;
END-ISO-10303-21;
