ISO-10303-21;
HEADER;
/* Generated by software containing ST-Developer
 * from STEP Tools, Inc. (www.steptools.com) 
 */
/* OPTION: using custom renumber hook */

FILE_DESCRIPTION(
/* description */ ('STEP AP242 Edition 2',
'CAx-IF Rec.Pracs.---Representation and Presentation of Product Manufa
cturing Information (PMI)---4.0---2014-10-13',
'CAx-IF Rec.Pracs.---3D Tessellated Geometry---0.4---2014-09-14','2;1',
'CAx-IF Rec.Pracs.---User Defined Attributes---1.5---2016-08-15'),
/* implementation_level */ '2;1');

FILE_NAME(
/* name */ 'pillow',
/* time_stamp */ '2026-09-05T01:50:33Z',
/* author */ (''),
/* organization */ (''),
/* preprocessor_version */ 'ST-DEVELOPER v20',
/* originating_system */ 'ONSHAPE BY PTC INC, 1.220',
/* authorisation */ '  ');

FILE_SCHEMA (('AP242_MANAGED_MODEL_BASED_3D_ENGINEERING_MIM_LF { 1 0 10303 442 3 1 4 }'));
ENDSEC;

DATA;
#10=SHAPE_REPRESENTATION_RELATIONSHIP('','',#235,#11);
#11=ADVANCED_BREP_SHAPE_REPRESENTATION('',(#233),#399);
#12=SPHERICAL_SURFACE('',#254,0.00265563);
#13=SPHERICAL_SURFACE('',#256,0.00265563);
#14=CIRCLE('',#248,0.00265563);
#15=CIRCLE('',#250,0.00265563);
#16=CIRCLE('',#251,0.00265563);
#17=CIRCLE('',#253,0.00265563);
#18=CIRCLE('',#255,0.00265563);
#19=CIRCLE('',#257,0.00265563);
#20=CYLINDRICAL_SURFACE('',#247,0.00265563);
#21=CYLINDRICAL_SURFACE('',#249,0.00265563);
#22=CYLINDRICAL_SURFACE('',#252,0.00265563);
#23=CYLINDRICAL_SURFACE('',#258,0.00265563);
#24=CYLINDRICAL_SURFACE('',#260,0.00265563);
#25=CYLINDRICAL_SURFACE('',#262,0.00265563);
#26=ELLIPSE('',#239,0.00287853680457001,0.00265563);
#27=ELLIPSE('',#242,0.00287853680457001,0.00265563);
#28=ELLIPSE('',#245,0.00308538126876214,0.00265563);
#29=ELLIPSE('',#246,0.00308538126876214,0.00265563);
#30=ELLIPSE('',#259,0.00375562796264486,0.00265563);
#31=ELLIPSE('',#261,0.00375562796264486,0.00265563);
#32=ORIENTED_EDGE('',*,*,#92,.F.);
#33=ORIENTED_EDGE('',*,*,#93,.T.);
#34=ORIENTED_EDGE('',*,*,#94,.T.);
#35=ORIENTED_EDGE('',*,*,#95,.T.);
#36=ORIENTED_EDGE('',*,*,#96,.F.);
#37=ORIENTED_EDGE('',*,*,#97,.T.);
#38=ORIENTED_EDGE('',*,*,#98,.T.);
#39=ORIENTED_EDGE('',*,*,#99,.T.);
#40=ORIENTED_EDGE('',*,*,#100,.T.);
#41=ORIENTED_EDGE('',*,*,#101,.F.);
#42=ORIENTED_EDGE('',*,*,#102,.T.);
#43=ORIENTED_EDGE('',*,*,#96,.T.);
#44=ORIENTED_EDGE('',*,*,#103,.T.);
#45=ORIENTED_EDGE('',*,*,#104,.T.);
#46=ORIENTED_EDGE('',*,*,#105,.T.);
#47=ORIENTED_EDGE('',*,*,#101,.T.);
#48=ORIENTED_EDGE('',*,*,#106,.F.);
#49=ORIENTED_EDGE('',*,*,#107,.T.);
#50=ORIENTED_EDGE('',*,*,#108,.T.);
#51=ORIENTED_EDGE('',*,*,#109,.T.);
#52=ORIENTED_EDGE('',*,*,#110,.T.);
#53=ORIENTED_EDGE('',*,*,#111,.T.);
#54=ORIENTED_EDGE('',*,*,#100,.F.);
#55=ORIENTED_EDGE('',*,*,#112,.T.);
#56=ORIENTED_EDGE('',*,*,#92,.T.);
#57=ORIENTED_EDGE('',*,*,#113,.T.);
#58=ORIENTED_EDGE('',*,*,#106,.T.);
#59=ORIENTED_EDGE('',*,*,#103,.F.);
#60=ORIENTED_EDGE('',*,*,#112,.F.);
#61=ORIENTED_EDGE('',*,*,#99,.F.);
#62=ORIENTED_EDGE('',*,*,#114,.F.);
#63=ORIENTED_EDGE('',*,*,#93,.F.);
#64=ORIENTED_EDGE('',*,*,#115,.F.);
#65=ORIENTED_EDGE('',*,*,#94,.F.);
#66=ORIENTED_EDGE('',*,*,#116,.F.);
#67=ORIENTED_EDGE('',*,*,#111,.F.);
#68=ORIENTED_EDGE('',*,*,#113,.F.);
#69=ORIENTED_EDGE('',*,*,#95,.F.);
#70=ORIENTED_EDGE('',*,*,#117,.F.);
#71=ORIENTED_EDGE('',*,*,#107,.F.);
#72=ORIENTED_EDGE('',*,*,#116,.T.);
#73=ORIENTED_EDGE('',*,*,#114,.T.);
#74=ORIENTED_EDGE('',*,*,#118,.F.);
#75=ORIENTED_EDGE('',*,*,#117,.T.);
#76=ORIENTED_EDGE('',*,*,#115,.T.);
#77=ORIENTED_EDGE('',*,*,#119,.F.);
#78=ORIENTED_EDGE('',*,*,#118,.T.);
#79=ORIENTED_EDGE('',*,*,#98,.F.);
#80=ORIENTED_EDGE('',*,*,#120,.F.);
#81=ORIENTED_EDGE('',*,*,#108,.F.);
#82=ORIENTED_EDGE('',*,*,#119,.T.);
#83=ORIENTED_EDGE('',*,*,#110,.F.);
#84=ORIENTED_EDGE('',*,*,#121,.F.);
#85=ORIENTED_EDGE('',*,*,#104,.F.);
#86=ORIENTED_EDGE('',*,*,#97,.F.);
#87=ORIENTED_EDGE('',*,*,#102,.F.);
#88=ORIENTED_EDGE('',*,*,#105,.F.);
#89=ORIENTED_EDGE('',*,*,#121,.T.);
#90=ORIENTED_EDGE('',*,*,#109,.F.);
#91=ORIENTED_EDGE('',*,*,#120,.T.);
#92=EDGE_CURVE('',#122,#123,#140,.T.);
#93=EDGE_CURVE('',#122,#124,#141,.T.);
#94=EDGE_CURVE('',#124,#125,#142,.T.);
#95=EDGE_CURVE('',#125,#123,#143,.T.);
#96=EDGE_CURVE('',#126,#127,#144,.F.);
#97=EDGE_CURVE('',#126,#128,#26,.T.);
#98=EDGE_CURVE('',#128,#129,#145,.F.);
#99=EDGE_CURVE('',#129,#130,#146,.T.);
#100=EDGE_CURVE('',#130,#127,#147,.F.);
#101=EDGE_CURVE('',#131,#132,#148,.T.);
#102=EDGE_CURVE('',#131,#126,#149,.F.);
#103=EDGE_CURVE('',#127,#132,#150,.T.);
#104=EDGE_CURVE('',#133,#134,#151,.T.);
#105=EDGE_CURVE('',#134,#131,#27,.T.);
#106=EDGE_CURVE('',#135,#132,#152,.T.);
#107=EDGE_CURVE('',#135,#133,#153,.F.);
#108=EDGE_CURVE('',#136,#137,#154,.F.);
#109=EDGE_CURVE('',#137,#138,#155,.T.);
#110=EDGE_CURVE('',#138,#139,#156,.F.);
#111=EDGE_CURVE('',#139,#136,#157,.F.);
#112=EDGE_CURVE('',#130,#122,#28,.F.);
#113=EDGE_CURVE('',#123,#135,#29,.F.);
#114=EDGE_CURVE('',#124,#129,#14,.T.);
#115=EDGE_CURVE('',#125,#139,#15,.T.);
#116=EDGE_CURVE('',#136,#124,#16,.T.);
#117=EDGE_CURVE('',#133,#125,#17,.T.);
#118=EDGE_CURVE('',#136,#129,#18,.F.);
#119=EDGE_CURVE('',#133,#139,#19,.F.);
#120=EDGE_CURVE('',#137,#128,#30,.T.);
#121=EDGE_CURVE('',#134,#138,#31,.T.);
#122=VERTEX_POINT('',#338);
#123=VERTEX_POINT('',#339);
#124=VERTEX_POINT('',#341);
#125=VERTEX_POINT('',#343);
#126=VERTEX_POINT('',#347);
#127=VERTEX_POINT('',#348);
#128=VERTEX_POINT('',#350);
#129=VERTEX_POINT('',#352);
#130=VERTEX_POINT('',#354);
#131=VERTEX_POINT('',#358);
#132=VERTEX_POINT('',#359);
#133=VERTEX_POINT('',#364);
#134=VERTEX_POINT('',#365);
#135=VERTEX_POINT('',#368);
#136=VERTEX_POINT('',#372);
#137=VERTEX_POINT('',#373);
#138=VERTEX_POINT('',#375);
#139=VERTEX_POINT('',#377);
#140=LINE('',#337,#158);
#141=LINE('',#340,#159);
#142=LINE('',#342,#160);
#143=LINE('',#344,#161);
#144=LINE('',#346,#162);
#145=LINE('',#351,#163);
#146=LINE('',#353,#164);
#147=LINE('',#355,#165);
#148=LINE('',#357,#166);
#149=LINE('',#360,#167);
#150=LINE('',#361,#168);
#151=LINE('',#363,#169);
#152=LINE('',#367,#170);
#153=LINE('',#369,#171);
#154=LINE('',#371,#172);
#155=LINE('',#374,#173);
#156=LINE('',#376,#174);
#157=LINE('',#378,#175);
#158=VECTOR('',#267,1.);
#159=VECTOR('',#268,1.);
#160=VECTOR('',#269,1.);
#161=VECTOR('',#270,1.);
#162=VECTOR('',#273,1.);
#163=VECTOR('',#276,1.);
#164=VECTOR('',#277,1.);
#165=VECTOR('',#278,1.);
#166=VECTOR('',#281,1.);
#167=VECTOR('',#282,1.);
#168=VECTOR('',#283,1.);
#169=VECTOR('',#286,1.);
#170=VECTOR('',#289,1.);
#171=VECTOR('',#290,1.);
#172=VECTOR('',#293,1.);
#173=VECTOR('',#294,1.);
#174=VECTOR('',#295,1.);
#175=VECTOR('',#296,1.);
#176=EDGE_LOOP('',(#32,#33,#34,#35));
#177=EDGE_LOOP('',(#36,#37,#38,#39,#40));
#178=EDGE_LOOP('',(#41,#42,#43,#44));
#179=EDGE_LOOP('',(#45,#46,#47,#48,#49));
#180=EDGE_LOOP('',(#50,#51,#52,#53));
#181=EDGE_LOOP('',(#54,#55,#56,#57,#58,#59));
#182=EDGE_LOOP('',(#60,#61,#62,#63));
#183=EDGE_LOOP('',(#64,#65,#66,#67));
#184=EDGE_LOOP('',(#68,#69,#70,#71));
#185=EDGE_LOOP('',(#72,#73,#74));
#186=EDGE_LOOP('',(#75,#76,#77));
#187=EDGE_LOOP('',(#78,#79,#80,#81));
#188=EDGE_LOOP('',(#82,#83,#84,#85));
#189=EDGE_LOOP('',(#86,#87,#88,#89,#90,#91));
#190=FACE_BOUND('',#176,.T.);
#191=FACE_BOUND('',#177,.T.);
#192=FACE_BOUND('',#178,.T.);
#193=FACE_BOUND('',#179,.T.);
#194=FACE_BOUND('',#180,.T.);
#195=FACE_BOUND('',#181,.T.);
#196=FACE_BOUND('',#182,.T.);
#197=FACE_BOUND('',#183,.T.);
#198=FACE_BOUND('',#184,.T.);
#199=FACE_BOUND('',#185,.T.);
#200=FACE_BOUND('',#186,.T.);
#201=FACE_BOUND('',#187,.T.);
#202=FACE_BOUND('',#188,.T.);
#203=FACE_BOUND('',#189,.T.);
#204=PLANE('',#237);
#205=PLANE('',#238);
#206=PLANE('',#240);
#207=PLANE('',#241);
#208=PLANE('',#243);
#209=PLANE('',#244);
#210=ADVANCED_FACE('',(#190),#204,.T.);
#211=ADVANCED_FACE('',(#191),#205,.T.);
#212=ADVANCED_FACE('',(#192),#206,.F.);
#213=ADVANCED_FACE('',(#193),#207,.T.);
#214=ADVANCED_FACE('',(#194),#208,.T.);
#215=ADVANCED_FACE('',(#195),#209,.F.);
#216=ADVANCED_FACE('',(#196),#20,.T.);
#217=ADVANCED_FACE('',(#197),#21,.T.);
#218=ADVANCED_FACE('',(#198),#22,.T.);
#219=ADVANCED_FACE('',(#199),#12,.T.);
#220=ADVANCED_FACE('',(#200),#13,.T.);
#221=ADVANCED_FACE('',(#201),#23,.T.);
#222=ADVANCED_FACE('',(#202),#24,.T.);
#223=ADVANCED_FACE('',(#203),#25,.T.);
#224=CLOSED_SHELL('',(#210,#211,#212,#213,#214,#215,#216,#217,#218,#219,
#220,#221,#222,#223));
#225=STYLED_ITEM('',(#226),#233);
#226=PRESENTATION_STYLE_ASSIGNMENT((#227));
#227=SURFACE_STYLE_USAGE(.BOTH.,#228);
#228=SURFACE_SIDE_STYLE('',(#229));
#229=SURFACE_STYLE_FILL_AREA(#230);
#230=FILL_AREA_STYLE('',(#231));
#231=FILL_AREA_STYLE_COLOUR('',#232);
#232=COLOUR_RGB('',0.615686274509804,0.811764705882353,0.929411764705882);
#233=MANIFOLD_SOLID_BREP('Part 1',#224);
#234=SHAPE_DEFINITION_REPRESENTATION(#404,#235);
#235=SHAPE_REPRESENTATION('Part 1',(#236),#399);
#236=AXIS2_PLACEMENT_3D('',#335,#263,#264);
#237=AXIS2_PLACEMENT_3D('',#336,#265,#266);
#238=AXIS2_PLACEMENT_3D('',#345,#271,#272);
#239=AXIS2_PLACEMENT_3D('',#349,#274,#275);
#240=AXIS2_PLACEMENT_3D('',#356,#279,#280);
#241=AXIS2_PLACEMENT_3D('',#362,#284,#285);
#242=AXIS2_PLACEMENT_3D('',#366,#287,#288);
#243=AXIS2_PLACEMENT_3D('',#370,#291,#292);
#244=AXIS2_PLACEMENT_3D('',#379,#297,#298);
#245=AXIS2_PLACEMENT_3D('',#380,#299,#300);
#246=AXIS2_PLACEMENT_3D('',#381,#301,#302);
#247=AXIS2_PLACEMENT_3D('',#382,#303,#304);
#248=AXIS2_PLACEMENT_3D('',#383,#305,#306);
#249=AXIS2_PLACEMENT_3D('',#384,#307,#308);
#250=AXIS2_PLACEMENT_3D('',#385,#309,#310);
#251=AXIS2_PLACEMENT_3D('',#386,#311,#312);
#252=AXIS2_PLACEMENT_3D('',#387,#313,#314);
#253=AXIS2_PLACEMENT_3D('',#388,#315,#316);
#254=AXIS2_PLACEMENT_3D('',#389,#317,#318);
#255=AXIS2_PLACEMENT_3D('',#390,#319,#320);
#256=AXIS2_PLACEMENT_3D('',#391,#321,#322);
#257=AXIS2_PLACEMENT_3D('',#392,#323,#324);
#258=AXIS2_PLACEMENT_3D('',#393,#325,#326);
#259=AXIS2_PLACEMENT_3D('',#394,#327,#328);
#260=AXIS2_PLACEMENT_3D('',#395,#329,#330);
#261=AXIS2_PLACEMENT_3D('',#396,#331,#332);
#262=AXIS2_PLACEMENT_3D('',#397,#333,#334);
#263=DIRECTION('',(0.,0.,1.));
#264=DIRECTION('',(1.,0.,0.));
#265=DIRECTION('',(0.,-0.385847773861887,0.922562461519992));
#266=DIRECTION('',(0.,-0.922562461519992,-0.385847773861887));
#267=DIRECTION('',(1.,0.,0.));
#268=DIRECTION('',(0.359980476081796,-0.860713723417867,-0.359980476081796));
#269=DIRECTION('',(1.,0.,0.));
#270=DIRECTION('',(0.359980476081796,0.860713723417867,0.359980476081796));
#271=DIRECTION('',(-0.922562461519992,-0.385847773861887,0.));
#272=DIRECTION('',(0.385847773861887,-0.922562461519992,0.));
#273=DIRECTION('',(0.385847773861887,-0.922562461519992,0.));
#274=DIRECTION('',(-0.922562461519992,-0.385847773861887,0.));
#275=DIRECTION('',(-0.385847773861887,0.922562461519992,0.));
#276=DIRECTION('',(0.,0.,-1.));
#277=DIRECTION('',(-0.359980476081796,0.860713723417867,0.359980476081796));
#278=DIRECTION('',(0.,0.,1.));
#279=DIRECTION('',(0.,0.,1.));
#280=DIRECTION('',(1.,0.,0.));
#281=DIRECTION('',(0.385847773861887,0.922562461519992,0.));
#282=DIRECTION('',(1.,0.,0.));
#283=DIRECTION('',(1.,0.,0.));
#284=DIRECTION('',(0.922562461519992,-0.385847773861887,0.));
#285=DIRECTION('',(-0.385847773861887,-0.922562461519992,0.));
#286=DIRECTION('',(0.,0.,-1.));
#287=DIRECTION('',(0.922562461519992,-0.385847773861887,0.));
#288=DIRECTION('',(-0.385847773861887,-0.922562461519992,0.));
#289=DIRECTION('',(0.,0.,-1.));
#290=DIRECTION('',(0.359980476081796,0.860713723417867,0.359980476081796));
#291=DIRECTION('',(0.,-1.,0.));
#292=DIRECTION('',(1.,0.,0.));
#293=DIRECTION('',(0.,0.,1.));
#294=DIRECTION('',(1.,0.,0.));
#295=DIRECTION('',(0.,0.,-1.));
#296=DIRECTION('',(1.,0.,0.));
#297=DIRECTION('',(0.,-1.,0.));
#298=DIRECTION('',(1.,0.,0.));
#299=DIRECTION('',(0.,-1.,0.));
#300=DIRECTION('',(-0.707106781186548,0.,0.707106781186548));
#301=DIRECTION('',(0.,-1.,0.));
#302=DIRECTION('',(0.707106781186548,0.,0.707106781186548));
#303=DIRECTION('',(-0.359980476081796,0.860713723417867,0.359980476081796));
#304=DIRECTION('',(0.,-0.385847773861887,0.922562461519992));
#305=DIRECTION('',(0.359980476081795,-0.860713723417867,-0.359980476081795));
#306=DIRECTION('',(0.922562461519992,0.385847773861887,0.));
#307=DIRECTION('',(1.,0.,0.));
#308=DIRECTION('',(0.,0.,-1.));
#309=DIRECTION('',(1.,0.,0.));
#310=DIRECTION('',(0.,0.,-1.));
#311=DIRECTION('',(-1.,0.,-7.080548635292E-16));
#312=DIRECTION('',(-7.080548635292E-16,0.,1.));
#313=DIRECTION('',(0.359980476081796,0.860713723417867,0.359980476081796));
#314=DIRECTION('',(0.,-0.385847773861887,0.922562461519992));
#315=DIRECTION('',(-0.359980476081796,-0.860713723417867,-0.359980476081795));
#316=DIRECTION('',(0.922562461519992,-0.385847773861887,0.));
#317=DIRECTION('',(0.,-1.,0.));
#318=DIRECTION('',(0.,0.,-1.));
#319=DIRECTION('',(2.73201392864824E-16,-6.53224837788701E-16,1.));
#320=DIRECTION('',(0.,-1.,-6.53224837788701E-16));
#321=DIRECTION('',(0.,-1.,0.));
#322=DIRECTION('',(0.,0.,-1.));
#323=DIRECTION('',(0.,0.,1.));
#324=DIRECTION('',(1.,0.,0.));
#325=DIRECTION('',(0.,0.,-1.));
#326=DIRECTION('',(-1.,0.,0.));
#327=DIRECTION('',(0.707106781186548,0.,-0.707106781186548));
#328=DIRECTION('',(-0.707106781186548,0.,-0.707106781186548));
#329=DIRECTION('',(0.,0.,-1.));
#330=DIRECTION('',(-1.,0.,0.));
#331=DIRECTION('',(-0.707106781186548,0.,-0.707106781186548));
#332=DIRECTION('',(0.707106781186548,0.,-0.707106781186548));
#333=DIRECTION('',(-1.,0.,0.));
#334=DIRECTION('',(0.,0.,1.));
#335=CARTESIAN_POINT('',(0.,0.,0.));
#336=CARTESIAN_POINT('',(-0.00136363580822944,-0.004,0.0166392046436667));
#337=CARTESIAN_POINT('',(-0.00136363580822944,0.,0.0183121440486634));
#338=CARTESIAN_POINT('',(-0.0130865906635398,0.,0.0183121440486634));
#339=CARTESIAN_POINT('',(0.0103593190470809,0.,0.0183121440486634));
#340=CARTESIAN_POINT('',(-0.0117311348171418,-0.00324089645410835,0.0169566882022655));
#341=CARTESIAN_POINT('',(-0.0120957760216823,-0.00236903892370084,0.0173213294068059));
#342=CARTESIAN_POINT('',(-0.00136363580822944,-0.00236903892370084,0.0173213294068059));
#343=CARTESIAN_POINT('',(0.00936850440522339,-0.00236903892370084,0.0173213294068059));
#344=CARTESIAN_POINT('',(0.00738403891118199,-0.00711389815318457,0.0153368639127645));
#345=CARTESIAN_POINT('',(-0.0138636358082294,-0.004,0.0136392046436667));
#346=CARTESIAN_POINT('',(-0.0120026545008023,-0.00844960840032539,0.0106392046436667));
#347=CARTESIAN_POINT('',(-0.0149743128262523,-0.00134437,0.0106392046436667));
#348=CARTESIAN_POINT('',(-0.0155365752132262,0.,0.0106392046436667));
#349=CARTESIAN_POINT('',(-0.0149743128262523,-0.00134437,0.0132948346436667));
#350=CARTESIAN_POINT('',(-0.0145457605713686,-0.00236903892370084,0.0108448500939804));
#351=CARTESIAN_POINT('',(-0.0145457605713686,-0.00236903892370084,0.0166392046436667));
#352=CARTESIAN_POINT('',(-0.0145457605713686,-0.00236903892370084,0.0148713448571196));
#353=CARTESIAN_POINT('',(-0.0158540587718248,0.000759103545891655,0.0161796430575759));
#354=CARTESIAN_POINT('',(-0.0155365752132262,0.,0.0158621594989771));
#355=CARTESIAN_POINT('',(-0.0155365752132262,0.,0.0136392046436667));
#356=CARTESIAN_POINT('',(-0.00136363580822944,-0.004,0.0106392046436667));
#357=CARTESIAN_POINT('',(0.00927538288434338,-0.00844960840032539,0.0106392046436667));
#358=CARTESIAN_POINT('',(0.0122470412097934,-0.00134437,0.0106392046436667));
#359=CARTESIAN_POINT('',(0.0128093035967673,0.,0.0106392046436667));
#360=CARTESIAN_POINT('',(-0.0138636358082294,-0.00134437,0.0106392046436667));
#361=CARTESIAN_POINT('',(-0.00136363580822944,0.,0.0106392046436667));
#362=CARTESIAN_POINT('',(0.0111363641917705,-0.004,0.0136392046436667));
#363=CARTESIAN_POINT('',(0.0118184889549097,-0.00236903892370084,0.0136392046436667));
#364=CARTESIAN_POINT('',(0.0118184889549097,-0.00236903892370084,0.0148713448571196));
#365=CARTESIAN_POINT('',(0.0118184889549097,-0.00236903892370084,0.0108448500939804));
#366=CARTESIAN_POINT('',(0.0122470412097934,-0.00134437,0.0132948346436667));
#367=CARTESIAN_POINT('',(0.0128093035967673,0.,0.0136392046436667));
#368=CARTESIAN_POINT('',(0.0128093035967673,0.,0.0158621594989771));
#369=CARTESIAN_POINT('',(0.011065089920889,-0.00417041686188664,0.0141179458230989));
#370=CARTESIAN_POINT('',(-0.00136363580822944,-0.004,0.0136392046436667));
#371=CARTESIAN_POINT('',(-0.0120957760216823,-0.004,0.0106392046436667));
#372=CARTESIAN_POINT('',(-0.0120957760216823,-0.004,0.0148713448571196));
#373=CARTESIAN_POINT('',(-0.0120957760216823,-0.004,0.0132948346436667));
#374=CARTESIAN_POINT('',(0.0111363641917705,-0.004,0.0132948346436667));
#375=CARTESIAN_POINT('',(0.00936850440522339,-0.004,0.0132948346436667));
#376=CARTESIAN_POINT('',(0.00936850440522339,-0.004,0.0136392046436667));
#377=CARTESIAN_POINT('',(0.00936850440522339,-0.004,0.0148713448571196));
#378=CARTESIAN_POINT('',(-0.00136363580822944,-0.004,0.0148713448571196));
#379=CARTESIAN_POINT('',(-0.00136363580822944,0.,0.0136392046436667));
#380=CARTESIAN_POINT('',(-0.0126580384086561,0.,0.0154336072440934));
#381=CARTESIAN_POINT('',(0.00993076679219725,0.,0.0154336072440934));
#382=CARTESIAN_POINT('',(-0.0113423769876616,-0.0031457479381858,0.0141179458230989));
#383=CARTESIAN_POINT('',(-0.0120957760216823,-0.00134437,0.0148713448571196));
#384=CARTESIAN_POINT('',(-0.00136363580822944,-0.00134437,0.0148713448571196));
#385=CARTESIAN_POINT('',(0.00936850440522339,-0.00134437,0.0148713448571196));
#386=CARTESIAN_POINT('',(-0.0120957760216823,-0.00134437,0.0148713448571196));
#387=CARTESIAN_POINT('',(0.00738403891118199,-0.00608922922948373,0.0128868793630782));
#388=CARTESIAN_POINT('',(0.00936850440522339,-0.00134437,0.0148713448571196));
#389=CARTESIAN_POINT('',(-0.0120957760216823,-0.00134437,0.0148713448571196));
#390=CARTESIAN_POINT('',(-0.0120957760216823,-0.00134437,0.0148713448571196));
#391=CARTESIAN_POINT('',(0.00936850440522339,-0.00134437,0.0148713448571196));
#392=CARTESIAN_POINT('',(0.00936850440522339,-0.00134437,0.0148713448571196));
#393=CARTESIAN_POINT('',(-0.0120957760216823,-0.00134437,0.0136392046436667));
#394=CARTESIAN_POINT('',(-0.0120957760216823,-0.00134437,0.0132948346436667));
#395=CARTESIAN_POINT('',(0.00936850440522339,-0.00134437,0.0136392046436667));
#396=CARTESIAN_POINT('',(0.00936850440522339,-0.00134437,0.0132948346436667));
#397=CARTESIAN_POINT('',(-0.00136363580822944,-0.00134437,0.0132948346436667));
#398=MECHANICAL_DESIGN_GEOMETRIC_PRESENTATION_REPRESENTATION('',(#225),
#399);
#399=(
GEOMETRIC_REPRESENTATION_CONTEXT(3)
GLOBAL_UNCERTAINTY_ASSIGNED_CONTEXT((#400))
GLOBAL_UNIT_ASSIGNED_CONTEXT((#403,#402,#401))
REPRESENTATION_CONTEXT('Part 1','TOP_LEVEL_ASSEMBLY_PART')
);
#400=UNCERTAINTY_MEASURE_WITH_UNIT(LENGTH_MEASURE(1.E-8),#403,
'DISTANCE_ACCURACY_VALUE','Maximum Tolerance applied to model');
#401=(
NAMED_UNIT(*)
SI_UNIT($,.STERADIAN.)
SOLID_ANGLE_UNIT()
);
#402=(
NAMED_UNIT(*)
PLANE_ANGLE_UNIT()
SI_UNIT($,.RADIAN.)
);
#403=(
LENGTH_UNIT()
NAMED_UNIT(*)
SI_UNIT($,.METRE.)
);
#404=PRODUCT_DEFINITION_SHAPE('','',#405);
#405=PRODUCT_DEFINITION('','',#407,#406);
#406=PRODUCT_DEFINITION_CONTEXT('',#413,'design');
#407=PRODUCT_DEFINITION_FORMATION_WITH_SPECIFIED_SOURCE('','',#409,
 .NOT_KNOWN.);
#408=PRODUCT_RELATED_PRODUCT_CATEGORY('','',(#409));
#409=PRODUCT('Part 1','Part 1','Part 1',(#411));
#410=PRODUCT_CATEGORY('','');
#411=PRODUCT_CONTEXT('',#413,'mechanical');
#412=APPLICATION_PROTOCOL_DEFINITION('international standard',
'ap242_managed_model_based_3d_engineering',2020,#413);
#413=APPLICATION_CONTEXT('managed model based 3d engineering');
ENDSEC;
END-ISO-10303-21;
