ISO-10303-21;
HEADER;
/* Generated by software containing ST-Developer
 * from STEP Tools, Inc. (www.steptools.com) 
 */
/* OPTION: using custom renumber hook */

FILE_DESCRIPTION(
/* description */ ('STEP AP242 Edition 2',
'CAx-IF Rec.Pracs.---Representation and Presentation of Product Manufa
cturing Information (PMI)---4.0---2014-10-13',
'CAx-IF Rec.Pracs.---3D Tessellated Geometry---0.4---2014-09-14','2;1',
'CAx-IF Rec.Pracs.---User Defined Attributes---1.5---2016-08-15'),
/* implementation_level */ '2;1');

FILE_NAME(
/* name */ 'almirah',
/* time_stamp */ '2026-09-05T01:48:31Z',
/* author */ (''),
/* organization */ (''),
/* preprocessor_version */ 'ST-DEVELOPER v20',
/* originating_system */ 'ONSHAPE BY PTC INC, 1.220',
/* authorisation */ '  ');

FILE_SCHEMA (('AP242_MANAGED_MODEL_BASED_3D_ENGINEERING_MIM_LF { 1 0 10303 442 3 1 4 }'));
ENDSEC;

DATA;
#10=SHAPE_REPRESENTATION_RELATIONSHIP('','',#571,#11);
#11=ADVANCED_BREP_SHAPE_REPRESENTATION('',(#569),#919);
#12=CYLINDRICAL_SURFACE('',#609,0.000465929507323879);
#13=CYLINDRICAL_SURFACE('',#610,0.005);
#14=CYLINDRICAL_SURFACE('',#611,0.005);
#15=CYLINDRICAL_SURFACE('',#612,0.005);
#16=CYLINDRICAL_SURFACE('',#613,0.005);
#17=CIRCLE('',#575,0.000465929507323879);
#18=CIRCLE('',#579,0.000465929507323879);
#19=CIRCLE('',#583,0.005);
#20=CIRCLE('',#584,0.005);
#21=CIRCLE('',#591,0.005);
#22=CIRCLE('',#592,0.005);
#23=CIRCLE('',#598,0.005);
#24=CIRCLE('',#599,0.005);
#25=CIRCLE('',#600,0.005);
#26=CIRCLE('',#601,0.005);
#27=ORIENTED_EDGE('',*,*,#175,.F.);
#28=ORIENTED_EDGE('',*,*,#176,.T.);
#29=ORIENTED_EDGE('',*,*,#177,.T.);
#30=ORIENTED_EDGE('',*,*,#178,.F.);
#31=ORIENTED_EDGE('',*,*,#179,.F.);
#32=ORIENTED_EDGE('',*,*,#180,.F.);
#33=ORIENTED_EDGE('',*,*,#181,.T.);
#34=ORIENTED_EDGE('',*,*,#182,.T.);
#35=ORIENTED_EDGE('',*,*,#183,.F.);
#36=ORIENTED_EDGE('',*,*,#184,.F.);
#37=ORIENTED_EDGE('',*,*,#185,.T.);
#38=ORIENTED_EDGE('',*,*,#186,.F.);
#39=ORIENTED_EDGE('',*,*,#187,.F.);
#40=ORIENTED_EDGE('',*,*,#188,.F.);
#41=ORIENTED_EDGE('',*,*,#189,.T.);
#42=ORIENTED_EDGE('',*,*,#190,.T.);
#43=ORIENTED_EDGE('',*,*,#191,.F.);
#44=ORIENTED_EDGE('',*,*,#192,.T.);
#45=ORIENTED_EDGE('',*,*,#193,.F.);
#46=ORIENTED_EDGE('',*,*,#194,.T.);
#47=ORIENTED_EDGE('',*,*,#195,.T.);
#48=ORIENTED_EDGE('',*,*,#196,.T.);
#49=ORIENTED_EDGE('',*,*,#197,.F.);
#50=ORIENTED_EDGE('',*,*,#198,.T.);
#51=ORIENTED_EDGE('',*,*,#199,.T.);
#52=ORIENTED_EDGE('',*,*,#200,.T.);
#53=ORIENTED_EDGE('',*,*,#189,.F.);
#54=ORIENTED_EDGE('',*,*,#201,.T.);
#55=ORIENTED_EDGE('',*,*,#175,.T.);
#56=ORIENTED_EDGE('',*,*,#202,.F.);
#57=ORIENTED_EDGE('',*,*,#195,.F.);
#58=ORIENTED_EDGE('',*,*,#203,.T.);
#59=ORIENTED_EDGE('',*,*,#204,.F.);
#60=ORIENTED_EDGE('',*,*,#205,.T.);
#61=ORIENTED_EDGE('',*,*,#180,.T.);
#62=ORIENTED_EDGE('',*,*,#206,.F.);
#63=ORIENTED_EDGE('',*,*,#207,.F.);
#64=ORIENTED_EDGE('',*,*,#187,.T.);
#65=ORIENTED_EDGE('',*,*,#208,.F.);
#66=ORIENTED_EDGE('',*,*,#199,.F.);
#67=ORIENTED_EDGE('',*,*,#209,.F.);
#68=ORIENTED_EDGE('',*,*,#210,.T.);
#69=ORIENTED_EDGE('',*,*,#211,.T.);
#70=ORIENTED_EDGE('',*,*,#212,.T.);
#71=ORIENTED_EDGE('',*,*,#213,.F.);
#72=ORIENTED_EDGE('',*,*,#214,.T.);
#73=ORIENTED_EDGE('',*,*,#215,.T.);
#74=ORIENTED_EDGE('',*,*,#216,.F.);
#75=ORIENTED_EDGE('',*,*,#217,.T.);
#76=ORIENTED_EDGE('',*,*,#218,.F.);
#77=ORIENTED_EDGE('',*,*,#219,.F.);
#78=ORIENTED_EDGE('',*,*,#216,.T.);
#79=ORIENTED_EDGE('',*,*,#220,.F.);
#80=ORIENTED_EDGE('',*,*,#221,.T.);
#81=ORIENTED_EDGE('',*,*,#222,.T.);
#82=ORIENTED_EDGE('',*,*,#218,.T.);
#83=ORIENTED_EDGE('',*,*,#215,.F.);
#84=ORIENTED_EDGE('',*,*,#223,.T.);
#85=ORIENTED_EDGE('',*,*,#209,.T.);
#86=ORIENTED_EDGE('',*,*,#224,.T.);
#87=ORIENTED_EDGE('',*,*,#220,.T.);
#88=ORIENTED_EDGE('',*,*,#217,.F.);
#89=ORIENTED_EDGE('',*,*,#225,.F.);
#90=ORIENTED_EDGE('',*,*,#226,.T.);
#91=ORIENTED_EDGE('',*,*,#227,.T.);
#92=ORIENTED_EDGE('',*,*,#228,.F.);
#93=ORIENTED_EDGE('',*,*,#204,.T.);
#94=ORIENTED_EDGE('',*,*,#229,.T.);
#95=ORIENTED_EDGE('',*,*,#230,.F.);
#96=ORIENTED_EDGE('',*,*,#231,.T.);
#97=ORIENTED_EDGE('',*,*,#232,.F.);
#98=ORIENTED_EDGE('',*,*,#233,.T.);
#99=ORIENTED_EDGE('',*,*,#234,.T.);
#100=ORIENTED_EDGE('',*,*,#235,.F.);
#101=ORIENTED_EDGE('',*,*,#236,.F.);
#102=ORIENTED_EDGE('',*,*,#227,.F.);
#103=ORIENTED_EDGE('',*,*,#237,.T.);
#104=ORIENTED_EDGE('',*,*,#235,.T.);
#105=ORIENTED_EDGE('',*,*,#177,.F.);
#106=ORIENTED_EDGE('',*,*,#238,.F.);
#107=ORIENTED_EDGE('',*,*,#191,.T.);
#108=ORIENTED_EDGE('',*,*,#239,.T.);
#109=ORIENTED_EDGE('',*,*,#230,.T.);
#110=ORIENTED_EDGE('',*,*,#240,.T.);
#111=ORIENTED_EDGE('',*,*,#193,.T.);
#112=ORIENTED_EDGE('',*,*,#241,.T.);
#113=ORIENTED_EDGE('',*,*,#182,.F.);
#114=ORIENTED_EDGE('',*,*,#242,.T.);
#115=ORIENTED_EDGE('',*,*,#211,.F.);
#116=ORIENTED_EDGE('',*,*,#243,.T.);
#117=ORIENTED_EDGE('',*,*,#213,.T.);
#118=ORIENTED_EDGE('',*,*,#219,.T.);
#119=ORIENTED_EDGE('',*,*,#222,.F.);
#120=ORIENTED_EDGE('',*,*,#244,.T.);
#121=ORIENTED_EDGE('',*,*,#185,.F.);
#122=ORIENTED_EDGE('',*,*,#245,.F.);
#123=ORIENTED_EDGE('',*,*,#197,.T.);
#124=ORIENTED_EDGE('',*,*,#246,.T.);
#125=ORIENTED_EDGE('',*,*,#226,.F.);
#126=ORIENTED_EDGE('',*,*,#247,.F.);
#127=ORIENTED_EDGE('',*,*,#232,.T.);
#128=ORIENTED_EDGE('',*,*,#237,.F.);
#129=ORIENTED_EDGE('',*,*,#248,.F.);
#130=ORIENTED_EDGE('',*,*,#228,.T.);
#131=ORIENTED_EDGE('',*,*,#236,.T.);
#132=ORIENTED_EDGE('',*,*,#234,.F.);
#133=ORIENTED_EDGE('',*,*,#208,.T.);
#134=ORIENTED_EDGE('',*,*,#186,.T.);
#135=ORIENTED_EDGE('',*,*,#246,.F.);
#136=ORIENTED_EDGE('',*,*,#200,.F.);
#137=ORIENTED_EDGE('',*,*,#247,.T.);
#138=ORIENTED_EDGE('',*,*,#225,.T.);
#139=ORIENTED_EDGE('',*,*,#248,.T.);
#140=ORIENTED_EDGE('',*,*,#233,.F.);
#141=ORIENTED_EDGE('',*,*,#202,.T.);
#142=ORIENTED_EDGE('',*,*,#178,.T.);
#143=ORIENTED_EDGE('',*,*,#239,.F.);
#144=ORIENTED_EDGE('',*,*,#190,.F.);
#145=ORIENTED_EDGE('',*,*,#245,.T.);
#146=ORIENTED_EDGE('',*,*,#184,.T.);
#147=ORIENTED_EDGE('',*,*,#207,.T.);
#148=ORIENTED_EDGE('',*,*,#198,.F.);
#149=ORIENTED_EDGE('',*,*,#206,.T.);
#150=ORIENTED_EDGE('',*,*,#183,.T.);
#151=ORIENTED_EDGE('',*,*,#241,.F.);
#152=ORIENTED_EDGE('',*,*,#196,.F.);
#153=ORIENTED_EDGE('',*,*,#176,.F.);
#154=ORIENTED_EDGE('',*,*,#201,.F.);
#155=ORIENTED_EDGE('',*,*,#188,.T.);
#156=ORIENTED_EDGE('',*,*,#238,.T.);
#157=ORIENTED_EDGE('',*,*,#179,.T.);
#158=ORIENTED_EDGE('',*,*,#192,.F.);
#159=ORIENTED_EDGE('',*,*,#243,.F.);
#160=ORIENTED_EDGE('',*,*,#210,.F.);
#161=ORIENTED_EDGE('',*,*,#223,.F.);
#162=ORIENTED_EDGE('',*,*,#214,.F.);
#163=ORIENTED_EDGE('',*,*,#244,.F.);
#164=ORIENTED_EDGE('',*,*,#221,.F.);
#165=ORIENTED_EDGE('',*,*,#224,.F.);
#166=ORIENTED_EDGE('',*,*,#212,.F.);
#167=ORIENTED_EDGE('',*,*,#240,.F.);
#168=ORIENTED_EDGE('',*,*,#229,.F.);
#169=ORIENTED_EDGE('',*,*,#203,.F.);
#170=ORIENTED_EDGE('',*,*,#194,.F.);
#171=ORIENTED_EDGE('',*,*,#242,.F.);
#172=ORIENTED_EDGE('',*,*,#181,.F.);
#173=ORIENTED_EDGE('',*,*,#205,.F.);
#174=ORIENTED_EDGE('',*,*,#231,.F.);
#175=EDGE_CURVE('',#249,#250,#299,.T.);
#176=EDGE_CURVE('',#249,#251,#300,.T.);
#177=EDGE_CURVE('',#251,#252,#301,.T.);
#178=EDGE_CURVE('',#250,#252,#302,.T.);
#179=EDGE_CURVE('',#253,#253,#17,.T.);
#180=EDGE_CURVE('',#254,#255,#303,.T.);
#181=EDGE_CURVE('',#254,#256,#304,.F.);
#182=EDGE_CURVE('',#256,#257,#305,.T.);
#183=EDGE_CURVE('',#255,#257,#306,.T.);
#184=EDGE_CURVE('',#258,#259,#307,.T.);
#185=EDGE_CURVE('',#258,#260,#308,.T.);
#186=EDGE_CURVE('',#261,#260,#309,.T.);
#187=EDGE_CURVE('',#259,#261,#310,.T.);
#188=EDGE_CURVE('',#262,#263,#311,.T.);
#189=EDGE_CURVE('',#262,#264,#312,.T.);
#190=EDGE_CURVE('',#264,#265,#313,.T.);
#191=EDGE_CURVE('',#263,#265,#314,.T.);
#192=EDGE_CURVE('',#266,#266,#18,.T.);
#193=EDGE_CURVE('',#267,#268,#315,.T.);
#194=EDGE_CURVE('',#267,#269,#316,.T.);
#195=EDGE_CURVE('',#269,#270,#317,.T.);
#196=EDGE_CURVE('',#270,#268,#318,.T.);
#197=EDGE_CURVE('',#271,#272,#319,.T.);
#198=EDGE_CURVE('',#271,#273,#320,.T.);
#199=EDGE_CURVE('',#273,#274,#321,.T.);
#200=EDGE_CURVE('',#274,#272,#322,.T.);
#201=EDGE_CURVE('',#262,#249,#323,.T.);
#202=EDGE_CURVE('',#264,#250,#324,.T.);
#203=EDGE_CURVE('',#269,#275,#19,.T.);
#204=EDGE_CURVE('',#276,#275,#325,.T.);
#205=EDGE_CURVE('',#276,#254,#20,.T.);
#206=EDGE_CURVE('',#270,#255,#326,.T.);
#207=EDGE_CURVE('',#259,#273,#327,.T.);
#208=EDGE_CURVE('',#274,#261,#328,.T.);
#209=EDGE_CURVE('',#277,#278,#329,.T.);
#210=EDGE_CURVE('',#277,#279,#330,.F.);
#211=EDGE_CURVE('',#279,#280,#331,.T.);
#212=EDGE_CURVE('',#280,#278,#332,.T.);
#213=EDGE_CURVE('',#281,#282,#333,.T.);
#214=EDGE_CURVE('',#281,#283,#334,.T.);
#215=EDGE_CURVE('',#283,#284,#335,.T.);
#216=EDGE_CURVE('',#282,#284,#336,.T.);
#217=EDGE_CURVE('',#284,#285,#337,.T.);
#218=EDGE_CURVE('',#286,#285,#338,.T.);
#219=EDGE_CURVE('',#282,#286,#339,.T.);
#220=EDGE_CURVE('',#287,#285,#340,.T.);
#221=EDGE_CURVE('',#287,#288,#341,.F.);
#222=EDGE_CURVE('',#288,#286,#342,.T.);
#223=EDGE_CURVE('',#283,#277,#21,.F.);
#224=EDGE_CURVE('',#278,#287,#22,.F.);
#225=EDGE_CURVE('',#289,#290,#343,.T.);
#226=EDGE_CURVE('',#289,#291,#344,.T.);
#227=EDGE_CURVE('',#291,#292,#345,.T.);
#228=EDGE_CURVE('',#290,#292,#346,.T.);
#229=EDGE_CURVE('',#275,#293,#347,.F.);
#230=EDGE_CURVE('',#294,#293,#348,.T.);
#231=EDGE_CURVE('',#294,#276,#349,.T.);
#232=EDGE_CURVE('',#295,#296,#350,.T.);
#233=EDGE_CURVE('',#295,#297,#351,.T.);
#234=EDGE_CURVE('',#297,#298,#352,.T.);
#235=EDGE_CURVE('',#296,#298,#353,.T.);
#236=EDGE_CURVE('',#292,#298,#354,.T.);
#237=EDGE_CURVE('',#291,#296,#355,.T.);
#238=EDGE_CURVE('',#263,#251,#356,.T.);
#239=EDGE_CURVE('',#265,#252,#357,.T.);
#240=EDGE_CURVE('',#293,#267,#23,.F.);
#241=EDGE_CURVE('',#268,#257,#358,.T.);
#242=EDGE_CURVE('',#256,#294,#24,.F.);
#243=EDGE_CURVE('',#279,#281,#25,.T.);
#244=EDGE_CURVE('',#288,#280,#26,.T.);
#245=EDGE_CURVE('',#271,#258,#359,.T.);
#246=EDGE_CURVE('',#272,#260,#360,.T.);
#247=EDGE_CURVE('',#295,#289,#361,.T.);
#248=EDGE_CURVE('',#290,#297,#362,.T.);
#249=VERTEX_POINT('',#765);
#250=VERTEX_POINT('',#766);
#251=VERTEX_POINT('',#768);
#252=VERTEX_POINT('',#770);
#253=VERTEX_POINT('',#774);
#254=VERTEX_POINT('',#776);
#255=VERTEX_POINT('',#777);
#256=VERTEX_POINT('',#779);
#257=VERTEX_POINT('',#781);
#258=VERTEX_POINT('',#785);
#259=VERTEX_POINT('',#786);
#260=VERTEX_POINT('',#788);
#261=VERTEX_POINT('',#790);
#262=VERTEX_POINT('',#794);
#263=VERTEX_POINT('',#795);
#264=VERTEX_POINT('',#797);
#265=VERTEX_POINT('',#799);
#266=VERTEX_POINT('',#803);
#267=VERTEX_POINT('',#805);
#268=VERTEX_POINT('',#806);
#269=VERTEX_POINT('',#808);
#270=VERTEX_POINT('',#810);
#271=VERTEX_POINT('',#814);
#272=VERTEX_POINT('',#815);
#273=VERTEX_POINT('',#817);
#274=VERTEX_POINT('',#819);
#275=VERTEX_POINT('',#826);
#276=VERTEX_POINT('',#828);
#277=VERTEX_POINT('',#836);
#278=VERTEX_POINT('',#837);
#279=VERTEX_POINT('',#839);
#280=VERTEX_POINT('',#841);
#281=VERTEX_POINT('',#845);
#282=VERTEX_POINT('',#846);
#283=VERTEX_POINT('',#848);
#284=VERTEX_POINT('',#850);
#285=VERTEX_POINT('',#854);
#286=VERTEX_POINT('',#856);
#287=VERTEX_POINT('',#860);
#288=VERTEX_POINT('',#862);
#289=VERTEX_POINT('',#869);
#290=VERTEX_POINT('',#870);
#291=VERTEX_POINT('',#872);
#292=VERTEX_POINT('',#874);
#293=VERTEX_POINT('',#878);
#294=VERTEX_POINT('',#880);
#295=VERTEX_POINT('',#884);
#296=VERTEX_POINT('',#885);
#297=VERTEX_POINT('',#887);
#298=VERTEX_POINT('',#889);
#299=LINE('',#764,#363);
#300=LINE('',#767,#364);
#301=LINE('',#769,#365);
#302=LINE('',#771,#366);
#303=LINE('',#775,#367);
#304=LINE('',#778,#368);
#305=LINE('',#780,#369);
#306=LINE('',#782,#370);
#307=LINE('',#784,#371);
#308=LINE('',#787,#372);
#309=LINE('',#789,#373);
#310=LINE('',#791,#374);
#311=LINE('',#793,#375);
#312=LINE('',#796,#376);
#313=LINE('',#798,#377);
#314=LINE('',#800,#378);
#315=LINE('',#804,#379);
#316=LINE('',#807,#380);
#317=LINE('',#809,#381);
#318=LINE('',#811,#382);
#319=LINE('',#813,#383);
#320=LINE('',#816,#384);
#321=LINE('',#818,#385);
#322=LINE('',#820,#386);
#323=LINE('',#822,#387);
#324=LINE('',#823,#388);
#325=LINE('',#827,#389);
#326=LINE('',#830,#390);
#327=LINE('',#832,#391);
#328=LINE('',#833,#392);
#329=LINE('',#835,#393);
#330=LINE('',#838,#394);
#331=LINE('',#840,#395);
#332=LINE('',#842,#396);
#333=LINE('',#844,#397);
#334=LINE('',#847,#398);
#335=LINE('',#849,#399);
#336=LINE('',#851,#400);
#337=LINE('',#853,#401);
#338=LINE('',#855,#402);
#339=LINE('',#857,#403);
#340=LINE('',#859,#404);
#341=LINE('',#861,#405);
#342=LINE('',#863,#406);
#343=LINE('',#868,#407);
#344=LINE('',#871,#408);
#345=LINE('',#873,#409);
#346=LINE('',#875,#410);
#347=LINE('',#877,#411);
#348=LINE('',#879,#412);
#349=LINE('',#881,#413);
#350=LINE('',#883,#414);
#351=LINE('',#886,#415);
#352=LINE('',#888,#416);
#353=LINE('',#890,#417);
#354=LINE('',#892,#418);
#355=LINE('',#893,#419);
#356=LINE('',#895,#420);
#357=LINE('',#896,#421);
#358=LINE('',#898,#422);
#359=LINE('',#902,#423);
#360=LINE('',#903,#424);
#361=LINE('',#904,#425);
#362=LINE('',#906,#426);
#363=VECTOR('',#618,1.);
#364=VECTOR('',#619,1.);
#365=VECTOR('',#620,1.);
#366=VECTOR('',#621,1.);
#367=VECTOR('',#626,1.);
#368=VECTOR('',#627,1.);
#369=VECTOR('',#628,1.);
#370=VECTOR('',#629,1.);
#371=VECTOR('',#632,1.);
#372=VECTOR('',#633,1.);
#373=VECTOR('',#634,1.);
#374=VECTOR('',#635,1.);
#375=VECTOR('',#638,1.);
#376=VECTOR('',#639,1.);
#377=VECTOR('',#640,1.);
#378=VECTOR('',#641,1.);
#379=VECTOR('',#646,1.);
#380=VECTOR('',#647,1.);
#381=VECTOR('',#648,1.);
#382=VECTOR('',#649,1.);
#383=VECTOR('',#652,1.);
#384=VECTOR('',#653,1.);
#385=VECTOR('',#654,1.);
#386=VECTOR('',#655,1.);
#387=VECTOR('',#658,1.);
#388=VECTOR('',#659,1.);
#389=VECTOR('',#664,1.);
#390=VECTOR('',#667,1.);
#391=VECTOR('',#670,1.);
#392=VECTOR('',#671,1.);
#393=VECTOR('',#674,1.);
#394=VECTOR('',#675,1.);
#395=VECTOR('',#676,1.);
#396=VECTOR('',#677,1.);
#397=VECTOR('',#680,1.);
#398=VECTOR('',#681,1.);
#399=VECTOR('',#682,1.);
#400=VECTOR('',#683,1.);
#401=VECTOR('',#686,1.);
#402=VECTOR('',#687,1.);
#403=VECTOR('',#688,1.);
#404=VECTOR('',#691,1.);
#405=VECTOR('',#692,1.);
#406=VECTOR('',#693,1.);
#407=VECTOR('',#702,1.);
#408=VECTOR('',#703,1.);
#409=VECTOR('',#704,1.);
#410=VECTOR('',#705,1.);
#411=VECTOR('',#708,1.);
#412=VECTOR('',#709,1.);
#413=VECTOR('',#710,1.);
#414=VECTOR('',#713,1.);
#415=VECTOR('',#714,1.);
#416=VECTOR('',#715,1.);
#417=VECTOR('',#716,1.);
#418=VECTOR('',#719,1.);
#419=VECTOR('',#720,1.);
#420=VECTOR('',#723,1.);
#421=VECTOR('',#724,1.);
#422=VECTOR('',#727,1.);
#423=VECTOR('',#734,1.);
#424=VECTOR('',#735,1.);
#425=VECTOR('',#736,1.);
#426=VECTOR('',#739,1.);
#427=EDGE_LOOP('',(#27,#28,#29,#30));
#428=EDGE_LOOP('',(#31));
#429=EDGE_LOOP('',(#32,#33,#34,#35));
#430=EDGE_LOOP('',(#36,#37,#38,#39));
#431=EDGE_LOOP('',(#40,#41,#42,#43));
#432=EDGE_LOOP('',(#44));
#433=EDGE_LOOP('',(#45,#46,#47,#48));
#434=EDGE_LOOP('',(#49,#50,#51,#52));
#435=EDGE_LOOP('',(#53,#54,#55,#56));
#436=EDGE_LOOP('',(#57,#58,#59,#60,#61,#62));
#437=EDGE_LOOP('',(#63,#64,#65,#66));
#438=EDGE_LOOP('',(#67,#68,#69,#70));
#439=EDGE_LOOP('',(#71,#72,#73,#74));
#440=EDGE_LOOP('',(#75,#76,#77,#78));
#441=EDGE_LOOP('',(#79,#80,#81,#82));
#442=EDGE_LOOP('',(#83,#84,#85,#86,#87,#88));
#443=EDGE_LOOP('',(#89,#90,#91,#92));
#444=EDGE_LOOP('',(#93,#94,#95,#96));
#445=EDGE_LOOP('',(#97,#98,#99,#100));
#446=EDGE_LOOP('',(#101,#102,#103,#104));
#447=EDGE_LOOP('',(#105,#106,#107,#108));
#448=EDGE_LOOP('',(#109,#110,#111,#112,#113,#114));
#449=EDGE_LOOP('',(#115,#116,#117,#118,#119,#120));
#450=EDGE_LOOP('',(#121,#122,#123,#124));
#451=EDGE_LOOP('',(#125,#126,#127,#128));
#452=EDGE_LOOP('',(#129,#130,#131,#132));
#453=EDGE_LOOP('',(#133,#134,#135,#136));
#454=EDGE_LOOP('',(#137,#138,#139,#140));
#455=EDGE_LOOP('',(#141,#142,#143,#144));
#456=EDGE_LOOP('',(#145,#146,#147,#148));
#457=EDGE_LOOP('',(#149,#150,#151,#152));
#458=EDGE_LOOP('',(#153,#154,#155,#156));
#459=EDGE_LOOP('',(#157));
#460=EDGE_LOOP('',(#158));
#461=EDGE_LOOP('',(#159,#160,#161,#162));
#462=EDGE_LOOP('',(#163,#164,#165,#166));
#463=EDGE_LOOP('',(#167,#168,#169,#170));
#464=EDGE_LOOP('',(#171,#172,#173,#174));
#465=FACE_BOUND('',#427,.T.);
#466=FACE_BOUND('',#428,.T.);
#467=FACE_BOUND('',#429,.T.);
#468=FACE_BOUND('',#430,.T.);
#469=FACE_BOUND('',#431,.T.);
#470=FACE_BOUND('',#432,.T.);
#471=FACE_BOUND('',#433,.T.);
#472=FACE_BOUND('',#434,.T.);
#473=FACE_BOUND('',#435,.T.);
#474=FACE_BOUND('',#436,.T.);
#475=FACE_BOUND('',#437,.T.);
#476=FACE_BOUND('',#438,.T.);
#477=FACE_BOUND('',#439,.T.);
#478=FACE_BOUND('',#440,.T.);
#479=FACE_BOUND('',#441,.T.);
#480=FACE_BOUND('',#442,.T.);
#481=FACE_BOUND('',#443,.T.);
#482=FACE_BOUND('',#444,.T.);
#483=FACE_BOUND('',#445,.T.);
#484=FACE_BOUND('',#446,.T.);
#485=FACE_BOUND('',#447,.T.);
#486=FACE_BOUND('',#448,.T.);
#487=FACE_BOUND('',#449,.T.);
#488=FACE_BOUND('',#450,.T.);
#489=FACE_BOUND('',#451,.T.);
#490=FACE_BOUND('',#452,.T.);
#491=FACE_BOUND('',#453,.T.);
#492=FACE_BOUND('',#454,.T.);
#493=FACE_BOUND('',#455,.T.);
#494=FACE_BOUND('',#456,.T.);
#495=FACE_BOUND('',#457,.T.);
#496=FACE_BOUND('',#458,.T.);
#497=FACE_BOUND('',#459,.T.);
#498=FACE_BOUND('',#460,.T.);
#499=FACE_BOUND('',#461,.T.);
#500=FACE_BOUND('',#462,.T.);
#501=FACE_BOUND('',#463,.T.);
#502=FACE_BOUND('',#464,.T.);
#503=PLANE('',#573);
#504=PLANE('',#574);
#505=PLANE('',#576);
#506=PLANE('',#577);
#507=PLANE('',#578);
#508=PLANE('',#580);
#509=PLANE('',#581);
#510=PLANE('',#582);
#511=PLANE('',#585);
#512=PLANE('',#586);
#513=PLANE('',#587);
#514=PLANE('',#588);
#515=PLANE('',#589);
#516=PLANE('',#590);
#517=PLANE('',#593);
#518=PLANE('',#594);
#519=PLANE('',#595);
#520=PLANE('',#596);
#521=PLANE('',#597);
#522=PLANE('',#602);
#523=PLANE('',#603);
#524=PLANE('',#604);
#525=PLANE('',#605);
#526=PLANE('',#606);
#527=PLANE('',#607);
#528=PLANE('',#608);
#529=ADVANCED_FACE('',(#465),#503,.T.);
#530=ADVANCED_FACE('',(#466,#467),#504,.T.);
#531=ADVANCED_FACE('',(#468),#505,.T.);
#532=ADVANCED_FACE('',(#469),#506,.F.);
#533=ADVANCED_FACE('',(#470,#471),#507,.F.);
#534=ADVANCED_FACE('',(#472),#508,.F.);
#535=ADVANCED_FACE('',(#473),#509,.T.);
#536=ADVANCED_FACE('',(#474),#510,.T.);
#537=ADVANCED_FACE('',(#475),#511,.T.);
#538=ADVANCED_FACE('',(#476),#512,.T.);
#539=ADVANCED_FACE('',(#477),#513,.F.);
#540=ADVANCED_FACE('',(#478),#514,.F.);
#541=ADVANCED_FACE('',(#479),#515,.T.);
#542=ADVANCED_FACE('',(#480),#516,.F.);
#543=ADVANCED_FACE('',(#481),#517,.T.);
#544=ADVANCED_FACE('',(#482),#518,.F.);
#545=ADVANCED_FACE('',(#483),#519,.F.);
#546=ADVANCED_FACE('',(#484),#520,.T.);
#547=ADVANCED_FACE('',(#485,#486,#487,#488,#489),#521,.T.);
#548=ADVANCED_FACE('',(#490),#522,.T.);
#549=ADVANCED_FACE('',(#491),#523,.T.);
#550=ADVANCED_FACE('',(#492),#524,.T.);
#551=ADVANCED_FACE('',(#493),#525,.T.);
#552=ADVANCED_FACE('',(#494),#526,.T.);
#553=ADVANCED_FACE('',(#495),#527,.T.);
#554=ADVANCED_FACE('',(#496),#528,.F.);
#555=ADVANCED_FACE('',(#497,#498),#12,.T.);
#556=ADVANCED_FACE('',(#499),#13,.T.);
#557=ADVANCED_FACE('',(#500),#14,.T.);
#558=ADVANCED_FACE('',(#501),#15,.F.);
#559=ADVANCED_FACE('',(#502),#16,.F.);
#560=CLOSED_SHELL('',(#529,#530,#531,#532,#533,#534,#535,#536,#537,#538,
#539,#540,#541,#542,#543,#544,#545,#546,#547,#548,#549,#550,#551,#552,#553,
#554,#555,#556,#557,#558,#559));
#561=STYLED_ITEM('',(#562),#569);
#562=PRESENTATION_STYLE_ASSIGNMENT((#563));
#563=SURFACE_STYLE_USAGE(.BOTH.,#564);
#564=SURFACE_SIDE_STYLE('',(#565));
#565=SURFACE_STYLE_FILL_AREA(#566);
#566=FILL_AREA_STYLE('',(#567));
#567=FILL_AREA_STYLE_COLOUR('',#568);
#568=COLOUR_RGB('',0.615686274509804,0.811764705882353,0.929411764705882);
#569=MANIFOLD_SOLID_BREP('Part 1',#560);
#570=SHAPE_DEFINITION_REPRESENTATION(#924,#571);
#571=SHAPE_REPRESENTATION('Part 1',(#572),#919);
#572=AXIS2_PLACEMENT_3D('',#762,#614,#615);
#573=AXIS2_PLACEMENT_3D('',#763,#616,#617);
#574=AXIS2_PLACEMENT_3D('',#772,#622,#623);
#575=AXIS2_PLACEMENT_3D('',#773,#624,#625);
#576=AXIS2_PLACEMENT_3D('',#783,#630,#631);
#577=AXIS2_PLACEMENT_3D('',#792,#636,#637);
#578=AXIS2_PLACEMENT_3D('',#801,#642,#643);
#579=AXIS2_PLACEMENT_3D('',#802,#644,#645);
#580=AXIS2_PLACEMENT_3D('',#812,#650,#651);
#581=AXIS2_PLACEMENT_3D('',#821,#656,#657);
#582=AXIS2_PLACEMENT_3D('',#824,#660,#661);
#583=AXIS2_PLACEMENT_3D('',#825,#662,#663);
#584=AXIS2_PLACEMENT_3D('',#829,#665,#666);
#585=AXIS2_PLACEMENT_3D('',#831,#668,#669);
#586=AXIS2_PLACEMENT_3D('',#834,#672,#673);
#587=AXIS2_PLACEMENT_3D('',#843,#678,#679);
#588=AXIS2_PLACEMENT_3D('',#852,#684,#685);
#589=AXIS2_PLACEMENT_3D('',#858,#689,#690);
#590=AXIS2_PLACEMENT_3D('',#864,#694,#695);
#591=AXIS2_PLACEMENT_3D('',#865,#696,#697);
#592=AXIS2_PLACEMENT_3D('',#866,#698,#699);
#593=AXIS2_PLACEMENT_3D('',#867,#700,#701);
#594=AXIS2_PLACEMENT_3D('',#876,#706,#707);
#595=AXIS2_PLACEMENT_3D('',#882,#711,#712);
#596=AXIS2_PLACEMENT_3D('',#891,#717,#718);
#597=AXIS2_PLACEMENT_3D('',#894,#721,#722);
#598=AXIS2_PLACEMENT_3D('',#897,#725,#726);
#599=AXIS2_PLACEMENT_3D('',#899,#728,#729);
#600=AXIS2_PLACEMENT_3D('',#900,#730,#731);
#601=AXIS2_PLACEMENT_3D('',#901,#732,#733);
#602=AXIS2_PLACEMENT_3D('',#905,#737,#738);
#603=AXIS2_PLACEMENT_3D('',#907,#740,#741);
#604=AXIS2_PLACEMENT_3D('',#908,#742,#743);
#605=AXIS2_PLACEMENT_3D('',#909,#744,#745);
#606=AXIS2_PLACEMENT_3D('',#910,#746,#747);
#607=AXIS2_PLACEMENT_3D('',#911,#748,#749);
#608=AXIS2_PLACEMENT_3D('',#912,#750,#751);
#609=AXIS2_PLACEMENT_3D('',#913,#752,#753);
#610=AXIS2_PLACEMENT_3D('',#914,#754,#755);
#611=AXIS2_PLACEMENT_3D('',#915,#756,#757);
#612=AXIS2_PLACEMENT_3D('',#916,#758,#759);
#613=AXIS2_PLACEMENT_3D('',#917,#760,#761);
#614=DIRECTION('',(0.,0.,1.));
#615=DIRECTION('',(1.,0.,0.));
#616=DIRECTION('',(0.,1.,6.10818125343946E-17));
#617=DIRECTION('',(0.,-6.10818125343946E-17,1.));
#618=DIRECTION('',(0.,6.10818125343946E-17,-1.));
#619=DIRECTION('',(1.,0.,0.));
#620=DIRECTION('',(0.,6.10818125343946E-17,-1.));
#621=DIRECTION('',(1.,0.,0.));
#622=DIRECTION('',(0.,1.,6.10818125343946E-17));
#623=DIRECTION('',(0.,-6.10818125343946E-17,1.));
#624=DIRECTION('',(0.,1.,6.10818125343946E-17));
#625=DIRECTION('',(0.,-6.10818125343946E-17,1.));
#626=DIRECTION('',(0.,6.10818125343946E-17,-1.));
#627=DIRECTION('',(-1.,0.,0.));
#628=DIRECTION('',(0.,6.10818125343946E-17,-1.));
#629=DIRECTION('',(1.,0.,0.));
#630=DIRECTION('',(0.,1.,6.10818125343946E-17));
#631=DIRECTION('',(0.,-6.10818125343946E-17,1.));
#632=DIRECTION('',(-1.,0.,0.));
#633=DIRECTION('',(0.,6.10818125343946E-17,-1.));
#634=DIRECTION('',(1.,0.,0.));
#635=DIRECTION('',(0.,6.10818125343946E-17,-1.));
#636=DIRECTION('',(0.,1.,0.));
#637=DIRECTION('',(0.,0.,1.));
#638=DIRECTION('',(1.,0.,0.));
#639=DIRECTION('',(0.,0.,-1.));
#640=DIRECTION('',(1.,0.,0.));
#641=DIRECTION('',(0.,0.,-1.));
#642=DIRECTION('',(0.,1.,0.));
#643=DIRECTION('',(0.,0.,1.));
#644=DIRECTION('',(0.,1.,0.));
#645=DIRECTION('',(0.,0.,1.));
#646=DIRECTION('',(0.,0.,-1.));
#647=DIRECTION('',(-1.,0.,0.));
#648=DIRECTION('',(0.,0.,-1.));
#649=DIRECTION('',(1.,0.,0.));
#650=DIRECTION('',(0.,1.,0.));
#651=DIRECTION('',(0.,0.,1.));
#652=DIRECTION('',(0.,0.,-1.));
#653=DIRECTION('',(-1.,0.,0.));
#654=DIRECTION('',(0.,0.,-1.));
#655=DIRECTION('',(1.,0.,0.));
#656=DIRECTION('',(1.,0.,0.));
#657=DIRECTION('',(0.,1.,0.));
#658=DIRECTION('',(0.,-1.,-6.33580644546217E-17));
#659=DIRECTION('',(0.,-1.,-6.33580644546217E-17));
#660=DIRECTION('',(1.,0.,0.));
#661=DIRECTION('',(0.,1.,0.));
#662=DIRECTION('',(1.,0.,0.));
#663=DIRECTION('',(0.,0.,-1.));
#664=DIRECTION('',(0.,1.,0.));
#665=DIRECTION('',(1.,0.,0.));
#666=DIRECTION('',(0.,0.,-1.));
#667=DIRECTION('',(0.,-1.,-6.33580644546217E-17));
#668=DIRECTION('',(1.,0.,0.));
#669=DIRECTION('',(0.,1.,0.));
#670=DIRECTION('',(0.,1.,6.33580644546217E-17));
#671=DIRECTION('',(0.,-1.,-6.33580644546217E-17));
#672=DIRECTION('',(0.,0.,1.));
#673=DIRECTION('',(1.,0.,0.));
#674=DIRECTION('',(0.,1.,0.));
#675=DIRECTION('',(-1.,0.,0.));
#676=DIRECTION('',(0.,1.,0.));
#677=DIRECTION('',(-1.,0.,0.));
#678=DIRECTION('',(0.,1.,6.33580644546217E-17));
#679=DIRECTION('',(0.,-6.33580644546217E-17,1.));
#680=DIRECTION('',(0.,6.33580644546217E-17,-1.));
#681=DIRECTION('',(-1.,0.,0.));
#682=DIRECTION('',(0.,6.33580644546217E-17,-1.));
#683=DIRECTION('',(-1.,0.,0.));
#684=DIRECTION('',(0.,0.,1.));
#685=DIRECTION('',(1.,0.,0.));
#686=DIRECTION('',(0.,1.,0.));
#687=DIRECTION('',(-1.,0.,0.));
#688=DIRECTION('',(0.,1.,0.));
#689=DIRECTION('',(0.,1.,9.21571846612679E-17));
#690=DIRECTION('',(0.,-9.21571846612679E-17,1.));
#691=DIRECTION('',(0.,9.21571846612679E-17,-1.));
#692=DIRECTION('',(-1.,0.,0.));
#693=DIRECTION('',(0.,9.21571846612679E-17,-1.));
#694=DIRECTION('',(1.,0.,0.));
#695=DIRECTION('',(0.,1.,0.));
#696=DIRECTION('',(1.,0.,0.));
#697=DIRECTION('',(0.,0.,-1.));
#698=DIRECTION('',(1.,0.,0.));
#699=DIRECTION('',(0.,0.,-1.));
#700=DIRECTION('',(0.,1.,6.10818125343946E-17));
#701=DIRECTION('',(0.,-6.10818125343946E-17,1.));
#702=DIRECTION('',(-1.,0.,0.));
#703=DIRECTION('',(0.,6.10818125343946E-17,-1.));
#704=DIRECTION('',(-1.,0.,0.));
#705=DIRECTION('',(0.,6.10818125343946E-17,-1.));
#706=DIRECTION('',(0.,0.,1.));
#707=DIRECTION('',(1.,0.,0.));
#708=DIRECTION('',(-1.,0.,0.));
#709=DIRECTION('',(0.,1.,0.));
#710=DIRECTION('',(-1.,0.,0.));
#711=DIRECTION('',(0.,1.,0.));
#712=DIRECTION('',(0.,0.,1.));
#713=DIRECTION('',(0.,0.,-1.));
#714=DIRECTION('',(-1.,0.,0.));
#715=DIRECTION('',(0.,0.,-1.));
#716=DIRECTION('',(-1.,0.,0.));
#717=DIRECTION('',(0.,0.,1.));
#718=DIRECTION('',(1.,0.,0.));
#719=DIRECTION('',(0.,1.,0.));
#720=DIRECTION('',(0.,1.,0.));
#721=DIRECTION('',(1.,0.,0.));
#722=DIRECTION('',(0.,1.,0.));
#723=DIRECTION('',(0.,-1.,-6.33580644546216E-17));
#724=DIRECTION('',(0.,-1.,-6.33580644546216E-17));
#725=DIRECTION('',(1.,0.,0.));
#726=DIRECTION('',(0.,0.,-1.));
#727=DIRECTION('',(0.,-1.,-6.33580644546216E-17));
#728=DIRECTION('',(1.,0.,0.));
#729=DIRECTION('',(0.,0.,-1.));
#730=DIRECTION('',(1.,0.,0.));
#731=DIRECTION('',(0.,0.,-1.));
#732=DIRECTION('',(1.,0.,0.));
#733=DIRECTION('',(0.,0.,-1.));
#734=DIRECTION('',(0.,-1.,-6.33580644546216E-17));
#735=DIRECTION('',(0.,-1.,-6.33580644546216E-17));
#736=DIRECTION('',(0.,-1.,-6.33580644546216E-17));
#737=DIRECTION('',(1.,0.,0.));
#738=DIRECTION('',(0.,1.,0.));
#739=DIRECTION('',(0.,1.,6.33580644546217E-17));
#740=DIRECTION('',(0.,-6.33580644546216E-17,1.));
#741=DIRECTION('',(0.,-1.,-6.33580644546217E-17));
#742=DIRECTION('',(0.,6.33580644546216E-17,-1.));
#743=DIRECTION('',(0.,1.,6.33580644546217E-17));
#744=DIRECTION('',(0.,-6.33580644546216E-17,1.));
#745=DIRECTION('',(0.,-1.,-6.33580644546217E-17));
#746=DIRECTION('',(0.,6.33580644546216E-17,-1.));
#747=DIRECTION('',(0.,1.,6.33580644546217E-17));
#748=DIRECTION('',(0.,-6.33580644546216E-17,1.));
#749=DIRECTION('',(0.,-1.,-6.33580644546217E-17));
#750=DIRECTION('',(0.,-6.33580644546216E-17,1.));
#751=DIRECTION('',(0.,-1.,-6.33580644546217E-17));
#752=DIRECTION('',(0.,-1.,-6.33580644546216E-17));
#753=DIRECTION('',(0.,6.33580644546217E-17,-1.));
#754=DIRECTION('',(1.,0.,0.));
#755=DIRECTION('',(0.,0.,-1.));
#756=DIRECTION('',(-1.,0.,0.));
#757=DIRECTION('',(0.,0.,1.));
#758=DIRECTION('',(1.,0.,0.));
#759=DIRECTION('',(0.,0.,-1.));
#760=DIRECTION('',(-1.,0.,0.));
#761=DIRECTION('',(0.,0.,1.));
#762=CARTESIAN_POINT('',(0.,0.,0.));
#763=CARTESIAN_POINT('',(0.0138,0.00269772883057594,-0.00763887206158216));
#764=CARTESIAN_POINT('',(0.0008,0.00269772883057594,-0.00763887206158216));
#765=CARTESIAN_POINT('',(0.0008,0.00269772883057594,-0.00746695654541255));
#766=CARTESIAN_POINT('',(0.0008,0.00269772883057594,-0.0135820140510798));
#767=CARTESIAN_POINT('',(0.0138,0.00269772883057594,-0.00746695654541255));
#768=CARTESIAN_POINT('',(0.0138,0.00269772883057596,-0.00746695654541255));
#769=CARTESIAN_POINT('',(0.0138,0.00269772883057594,-0.00763887206158216));
#770=CARTESIAN_POINT('',(0.0138,0.00269772883057594,-0.0135820140510798));
#771=CARTESIAN_POINT('',(0.0138,0.00269772883057594,-0.0135820140510798));
#772=CARTESIAN_POINT('',(0.0138,0.00269772883057594,-0.00763887206158216));
#773=CARTESIAN_POINT('',(0.00942136403399005,0.00269772883057594,0.0033));
#774=CARTESIAN_POINT('',(0.00942136403399005,0.00269772883057594,0.00376592950732388));
#775=CARTESIAN_POINT('',(0.0008,0.00269772883057594,-0.00763887206158216));
#776=CARTESIAN_POINT('',(0.0008,0.00269772883057594,0.00511112793841783));
#777=CARTESIAN_POINT('',(0.0008,0.00269772883057594,-0.00667150229290129));
#778=CARTESIAN_POINT('',(0.0138,0.00269772883057594,0.00511112793841783));
#779=CARTESIAN_POINT('',(0.0138,0.00269772883057594,0.00511112793841783));
#780=CARTESIAN_POINT('',(0.0138,0.00269772883057594,-0.00763887206158216));
#781=CARTESIAN_POINT('',(0.0138,0.00269772883057596,-0.00667150229290129));
#782=CARTESIAN_POINT('',(0.0138,0.00269772883057594,-0.00667150229290129));
#783=CARTESIAN_POINT('',(0.0138,0.00269772883057594,-0.00763887206158216));
#784=CARTESIAN_POINT('',(0.0138,0.00269772883057594,-0.0142283202528954));
#785=CARTESIAN_POINT('',(0.0138,0.00269772883057594,-0.0142283202528954));
#786=CARTESIAN_POINT('',(0.0008,0.00269772883057594,-0.0142283202528954));
#787=CARTESIAN_POINT('',(0.0138,0.00269772883057594,-0.00763887206158216));
#788=CARTESIAN_POINT('',(0.0138,0.00269772883057594,-0.0196373971675309));
#789=CARTESIAN_POINT('',(0.0138,0.00269772883057594,-0.0196373971675309));
#790=CARTESIAN_POINT('',(0.0008,0.00269772883057594,-0.0196373971675309));
#791=CARTESIAN_POINT('',(0.0008,0.00269772883057594,-0.00763887206158216));
#792=CARTESIAN_POINT('',(0.0138,0.0203977288305759,-0.00763887206158216));
#793=CARTESIAN_POINT('',(0.0138,0.0203977288305759,-0.00746695654541255));
#794=CARTESIAN_POINT('',(0.0008,0.0203977288305759,-0.00746695654541255));
#795=CARTESIAN_POINT('',(0.0138,0.0203977288305759,-0.00746695654541255));
#796=CARTESIAN_POINT('',(0.0008,0.0203977288305759,-0.00763887206158216));
#797=CARTESIAN_POINT('',(0.0008,0.0203977288305759,-0.0135820140510798));
#798=CARTESIAN_POINT('',(0.0138,0.0203977288305759,-0.0135820140510798));
#799=CARTESIAN_POINT('',(0.0138,0.0203977288305759,-0.0135820140510798));
#800=CARTESIAN_POINT('',(0.0138,0.0203977288305759,-0.00763887206158216));
#801=CARTESIAN_POINT('',(0.0138,0.0203977288305759,-0.00763887206158216));
#802=CARTESIAN_POINT('',(0.00942136403399005,0.0203977288305759,0.0033));
#803=CARTESIAN_POINT('',(0.00942136403399005,0.0203977288305759,0.00376592950732388));
#804=CARTESIAN_POINT('',(0.0138,0.0203977288305759,-0.00763887206158216));
#805=CARTESIAN_POINT('',(0.0138,0.0203977288305759,0.00511112793841783));
#806=CARTESIAN_POINT('',(0.0138,0.0203977288305759,-0.00667150229290129));
#807=CARTESIAN_POINT('',(0.0008,0.0203977288305759,0.00511112793841783));
#808=CARTESIAN_POINT('',(0.0008,0.0203977288305759,0.00511112793841783));
#809=CARTESIAN_POINT('',(0.0008,0.0203977288305759,-0.00763887206158216));
#810=CARTESIAN_POINT('',(0.0008,0.0203977288305759,-0.00667150229290129));
#811=CARTESIAN_POINT('',(0.0138,0.0203977288305759,-0.00667150229290129));
#812=CARTESIAN_POINT('',(0.0138,0.0203977288305759,-0.00763887206158216));
#813=CARTESIAN_POINT('',(0.0138,0.0203977288305759,-0.00763887206158216));
#814=CARTESIAN_POINT('',(0.0138,0.0203977288305759,-0.0142283202528954));
#815=CARTESIAN_POINT('',(0.0138,0.0203977288305759,-0.0196373971675309));
#816=CARTESIAN_POINT('',(0.0138,0.0203977288305759,-0.0142283202528954));
#817=CARTESIAN_POINT('',(0.0008,0.0203977288305759,-0.0142283202528954));
#818=CARTESIAN_POINT('',(0.0008,0.0203977288305759,-0.00763887206158216));
#819=CARTESIAN_POINT('',(0.0008,0.0203977288305759,-0.0196373971675309));
#820=CARTESIAN_POINT('',(0.0138,0.0203977288305759,-0.0196373971675309));
#821=CARTESIAN_POINT('',(0.0008,0.0113977288305759,-0.00756534264981747));
#822=CARTESIAN_POINT('',(0.0008,0.0113977288305759,-0.00746695654541255));
#823=CARTESIAN_POINT('',(0.0008,0.0113977288305759,-0.0135820140510798));
#824=CARTESIAN_POINT('',(0.0008,0.0113977288305759,-0.00756534264981747));
#825=CARTESIAN_POINT('',(0.0008,0.015397728830576,0.00511112793841783));
#826=CARTESIAN_POINT('',(0.0008,0.015397728830576,0.0101111279384178));
#827=CARTESIAN_POINT('',(0.0008,0.0115477288305759,0.0101111279384178));
#828=CARTESIAN_POINT('',(0.0008,0.00769772883057594,0.0101111279384178));
#829=CARTESIAN_POINT('',(0.0008,0.00769772883057594,0.00511112793841783));
#830=CARTESIAN_POINT('',(0.0008,0.0113977288305759,-0.00667150229290129));
#831=CARTESIAN_POINT('',(0.0008,0.0113977288305759,-0.00756534264981747));
#832=CARTESIAN_POINT('',(0.0008,0.0113977288305759,-0.0142283202528954));
#833=CARTESIAN_POINT('',(0.0008,0.0113977288305759,-0.0196373971675309));
#834=CARTESIAN_POINT('',(0.0008,0.0113977288305759,0.0112581867619472));
#835=CARTESIAN_POINT('',(0.,0.0113977288305759,0.0112581867619472));
#836=CARTESIAN_POINT('',(0.,0.00639772883057594,0.0112581867619472));
#837=CARTESIAN_POINT('',(0.,0.0163977288305759,0.0112581867619472));
#838=CARTESIAN_POINT('',(0.0138,0.00639772883057594,0.0112581867619472));
#839=CARTESIAN_POINT('',(0.0138,0.00639772883057594,0.0112581867619472));
#840=CARTESIAN_POINT('',(0.0138,0.0113977288305759,0.0112581867619472));
#841=CARTESIAN_POINT('',(0.0138,0.0163977288305759,0.0112581867619472));
#842=CARTESIAN_POINT('',(0.0008,0.0163977288305759,0.0112581867619472));
#843=CARTESIAN_POINT('',(0.0008,0.00139772883057594,-0.00756534264981747));
#844=CARTESIAN_POINT('',(0.0138,0.00139772883057594,-0.00756534264981747));
#845=CARTESIAN_POINT('',(0.0138,0.00139772883057594,0.00625818676194724));
#846=CARTESIAN_POINT('',(0.0138,0.00139772883057595,-0.0263888720615821));
#847=CARTESIAN_POINT('',(0.,0.00139772883057594,0.00625818676194724));
#848=CARTESIAN_POINT('',(0.,0.00139772883057594,0.00625818676194724));
#849=CARTESIAN_POINT('',(0.,0.00139772883057594,-0.00756534264981747));
#850=CARTESIAN_POINT('',(0.,0.00139772883057595,-0.0263888720615821));
#851=CARTESIAN_POINT('',(0.0008,0.00139772883057595,-0.0263888720615821));
#852=CARTESIAN_POINT('',(0.0008,0.0113977288305759,-0.0263888720615821));
#853=CARTESIAN_POINT('',(0.,0.0113977288305759,-0.0263888720615821));
#854=CARTESIAN_POINT('',(0.,0.0213977288305759,-0.0263888720615821));
#855=CARTESIAN_POINT('',(0.0008,0.0213977288305759,-0.0263888720615821));
#856=CARTESIAN_POINT('',(0.0138,0.0213977288305759,-0.0263888720615821));
#857=CARTESIAN_POINT('',(0.0138,0.0113977288305759,-0.0263888720615821));
#858=CARTESIAN_POINT('',(0.0008,0.0213977288305759,-0.00756534264981746));
#859=CARTESIAN_POINT('',(0.,0.0213977288305759,-0.00756534264981746));
#860=CARTESIAN_POINT('',(0.,0.0213977288305759,0.00625818676194724));
#861=CARTESIAN_POINT('',(0.0008,0.0213977288305759,0.00625818676194724));
#862=CARTESIAN_POINT('',(0.0138,0.0213977288305759,0.00625818676194724));
#863=CARTESIAN_POINT('',(0.0138,0.0213977288305759,-0.00756534264981746));
#864=CARTESIAN_POINT('',(0.,0.0113977288305759,-0.00756534264981747));
#865=CARTESIAN_POINT('',(0.,0.00639772883057594,0.00625818676194724));
#866=CARTESIAN_POINT('',(0.,0.0163977288305759,0.00625818676194724));
#867=CARTESIAN_POINT('',(0.0138,0.00269772883057594,-0.00763887206158216));
#868=CARTESIAN_POINT('',(0.0138,0.00269772883057594,-0.0202837033693465));
#869=CARTESIAN_POINT('',(0.0138,0.00269772883057594,-0.0202837033693465));
#870=CARTESIAN_POINT('',(0.0008,0.00269772883057594,-0.0202837033693465));
#871=CARTESIAN_POINT('',(0.0138,0.00269772883057594,-0.00763887206158216));
#872=CARTESIAN_POINT('',(0.0138,0.00269772883057595,-0.0253888720615821));
#873=CARTESIAN_POINT('',(0.0138,0.00269772883057595,-0.0253888720615821));
#874=CARTESIAN_POINT('',(0.0008,0.00269772883057595,-0.0253888720615821));
#875=CARTESIAN_POINT('',(0.0008,0.00269772883057594,-0.00763887206158216));
#876=CARTESIAN_POINT('',(0.0138,0.0115477288305759,0.0101111279384178));
#877=CARTESIAN_POINT('',(0.0138,0.015397728830576,0.0101111279384178));
#878=CARTESIAN_POINT('',(0.0138,0.015397728830576,0.0101111279384178));
#879=CARTESIAN_POINT('',(0.0138,0.0115477288305759,0.0101111279384178));
#880=CARTESIAN_POINT('',(0.0138,0.00769772883057594,0.0101111279384178));
#881=CARTESIAN_POINT('',(0.0138,0.00769772883057594,0.0101111279384178));
#882=CARTESIAN_POINT('',(0.0138,0.0203977288305759,-0.00763887206158216));
#883=CARTESIAN_POINT('',(0.0138,0.0203977288305759,-0.00763887206158216));
#884=CARTESIAN_POINT('',(0.0138,0.0203977288305759,-0.0202837033693465));
#885=CARTESIAN_POINT('',(0.0138,0.0203977288305759,-0.0253888720615821));
#886=CARTESIAN_POINT('',(0.0138,0.0203977288305759,-0.0202837033693465));
#887=CARTESIAN_POINT('',(0.0008,0.0203977288305759,-0.0202837033693465));
#888=CARTESIAN_POINT('',(0.0008,0.0203977288305759,-0.00763887206158216));
#889=CARTESIAN_POINT('',(0.0008,0.0203977288305759,-0.0253888720615821));
#890=CARTESIAN_POINT('',(0.0138,0.0203977288305759,-0.0253888720615821));
#891=CARTESIAN_POINT('',(0.0138,0.0115477288305759,-0.0253888720615821));
#892=CARTESIAN_POINT('',(0.0008,0.0115477288305759,-0.0253888720615821));
#893=CARTESIAN_POINT('',(0.0138,0.0115477288305759,-0.0253888720615821));
#894=CARTESIAN_POINT('',(0.0138,0.0113977288305759,-0.00756534264981747));
#895=CARTESIAN_POINT('',(0.0138,0.0211977288305759,-0.00746695654541255));
#896=CARTESIAN_POINT('',(0.0138,0.0211977288305759,-0.0135820140510798));
#897=CARTESIAN_POINT('',(0.0138,0.015397728830576,0.00511112793841783));
#898=CARTESIAN_POINT('',(0.0138,0.0211977288305759,-0.00667150229290129));
#899=CARTESIAN_POINT('',(0.0138,0.00769772883057594,0.00511112793841783));
#900=CARTESIAN_POINT('',(0.0138,0.00639772883057594,0.00625818676194724));
#901=CARTESIAN_POINT('',(0.0138,0.0163977288305759,0.00625818676194724));
#902=CARTESIAN_POINT('',(0.0138,0.0211977288305759,-0.0142283202528954));
#903=CARTESIAN_POINT('',(0.0138,0.0211977288305759,-0.0196373971675309));
#904=CARTESIAN_POINT('',(0.0138,0.0211977288305759,-0.0202837033693465));
#905=CARTESIAN_POINT('',(0.0008,0.0113977288305759,-0.00756534264981747));
#906=CARTESIAN_POINT('',(0.0008,0.0113977288305759,-0.0202837033693465));
#907=CARTESIAN_POINT('',(0.0069,0.0211977288305759,-0.0196373971675309));
#908=CARTESIAN_POINT('',(0.0069,0.0211977288305759,-0.0202837033693465));
#909=CARTESIAN_POINT('',(0.0069,0.0211977288305759,-0.0135820140510798));
#910=CARTESIAN_POINT('',(0.0069,0.0211977288305759,-0.0142283202528954));
#911=CARTESIAN_POINT('',(0.0069,0.0211977288305759,-0.00667150229290129));
#912=CARTESIAN_POINT('',(0.0069,0.0211977288305759,-0.00746695654541255));
#913=CARTESIAN_POINT('',(0.00942136403399005,0.0211977288305759,0.0033));
#914=CARTESIAN_POINT('',(0.0008,0.00639772883057594,0.00625818676194724));
#915=CARTESIAN_POINT('',(0.0008,0.0163977288305759,0.00625818676194724));
#916=CARTESIAN_POINT('',(0.0138,0.015397728830576,0.00511112793841783));
#917=CARTESIAN_POINT('',(0.0138,0.00769772883057594,0.00511112793841783));
#918=MECHANICAL_DESIGN_GEOMETRIC_PRESENTATION_REPRESENTATION('',(#561),
#919);
#919=(
GEOMETRIC_REPRESENTATION_CONTEXT(3)
GLOBAL_UNCERTAINTY_ASSIGNED_CONTEXT((#920))
GLOBAL_UNIT_ASSIGNED_CONTEXT((#923,#922,#921))
REPRESENTATION_CONTEXT('Part 1','TOP_LEVEL_ASSEMBLY_PART')
);
#920=UNCERTAINTY_MEASURE_WITH_UNIT(LENGTH_MEASURE(1.E-8),#923,
'DISTANCE_ACCURACY_VALUE','Maximum Tolerance applied to model');
#921=(
NAMED_UNIT(*)
SI_UNIT($,.STERADIAN.)
SOLID_ANGLE_UNIT()
);
#922=(
NAMED_UNIT(*)
PLANE_ANGLE_UNIT()
SI_UNIT($,.RADIAN.)
);
#923=(
LENGTH_UNIT()
NAMED_UNIT(*)
SI_UNIT($,.METRE.)
);
#924=PRODUCT_DEFINITION_SHAPE('','',#925);
#925=PRODUCT_DEFINITION('','',#927,#926);
#926=PRODUCT_DEFINITION_CONTEXT('',#933,'design');
#927=PRODUCT_DEFINITION_FORMATION_WITH_SPECIFIED_SOURCE('','',#929,
 .NOT_KNOWN.);
#928=PRODUCT_RELATED_PRODUCT_CATEGORY('','',(#929));
#929=PRODUCT('Part 1','Part 1','Part 1',(#931));
#930=PRODUCT_CATEGORY('','');
#931=PRODUCT_CONTEXT('',#933,'mechanical');
#932=APPLICATION_PROTOCOL_DEFINITION('international standard',
'ap242_managed_model_based_3d_engineering',2020,#933);
#933=APPLICATION_CONTEXT('managed model based 3d engineering');
ENDSEC;
END-ISO-10303-21;
