ISO-10303-21;
HEADER;
/* Generated by software containing ST-Developer
 * from STEP Tools, Inc. (www.steptools.com) 
 */
/* OPTION: using custom renumber hook */

FILE_DESCRIPTION(
/* description */ ('STEP AP242 Edition 2',
'CAx-IF Rec.Pracs.---Representation and Presentation of Product Manufa
cturing Information (PMI)---4.0---2014-10-13',
'CAx-IF Rec.Pracs.---3D Tessellated Geometry---0.4---2014-09-14','2;1',
'CAx-IF Rec.Pracs.---User Defined Attributes---1.5---2016-08-15'),
/* implementation_level */ '2;1');

FILE_NAME(
/* name */ 'book shelf',
/* time_stamp */ '2026-09-05T01:48:17Z',
/* author */ (''),
/* organization */ (''),
/* preprocessor_version */ 'ST-DEVELOPER v20',
/* originating_system */ 'ONSHAPE BY PTC INC, 1.220',
/* authorisation */ '  ');

FILE_SCHEMA (('AP242_MANAGED_MODEL_BASED_3D_ENGINEERING_MIM_LF { 1 0 10303 442 3 1 4 }'));
ENDSEC;

DATA;
#10=SHAPE_REPRESENTATION_RELATIONSHIP('','',#509,#11);
#11=ADVANCED_BREP_SHAPE_REPRESENTATION('',(#507),#801);
#12=CYLINDRICAL_SURFACE('',#527,0.0031944162011225);
#13=CYLINDRICAL_SURFACE('',#530,0.000934983458487867);
#14=CIRCLE('',#512,0.000934983458487867);
#15=CIRCLE('',#514,0.000934983458487867);
#16=CIRCLE('',#515,0.0031944162011225);
#17=CIRCLE('',#521,0.0031944162011225);
#18=CIRCLE('',#522,0.000934983458487867);
#19=ORIENTED_EDGE('',*,*,#157,.F.);
#20=ORIENTED_EDGE('',*,*,#158,.T.);
#21=ORIENTED_EDGE('',*,*,#159,.T.);
#22=ORIENTED_EDGE('',*,*,#160,.F.);
#23=ORIENTED_EDGE('',*,*,#161,.F.);
#24=ORIENTED_EDGE('',*,*,#162,.T.);
#25=ORIENTED_EDGE('',*,*,#163,.F.);
#26=ORIENTED_EDGE('',*,*,#164,.F.);
#27=ORIENTED_EDGE('',*,*,#165,.F.);
#28=ORIENTED_EDGE('',*,*,#166,.F.);
#29=ORIENTED_EDGE('',*,*,#167,.F.);
#30=ORIENTED_EDGE('',*,*,#168,.F.);
#31=ORIENTED_EDGE('',*,*,#169,.F.);
#32=ORIENTED_EDGE('',*,*,#170,.T.);
#33=ORIENTED_EDGE('',*,*,#171,.T.);
#34=ORIENTED_EDGE('',*,*,#172,.F.);
#35=ORIENTED_EDGE('',*,*,#173,.F.);
#36=ORIENTED_EDGE('',*,*,#174,.F.);
#37=ORIENTED_EDGE('',*,*,#175,.T.);
#38=ORIENTED_EDGE('',*,*,#176,.T.);
#39=ORIENTED_EDGE('',*,*,#177,.T.);
#40=ORIENTED_EDGE('',*,*,#178,.F.);
#41=ORIENTED_EDGE('',*,*,#179,.F.);
#42=ORIENTED_EDGE('',*,*,#180,.T.);
#43=ORIENTED_EDGE('',*,*,#181,.T.);
#44=ORIENTED_EDGE('',*,*,#182,.T.);
#45=ORIENTED_EDGE('',*,*,#183,.T.);
#46=ORIENTED_EDGE('',*,*,#184,.F.);
#47=ORIENTED_EDGE('',*,*,#185,.T.);
#48=ORIENTED_EDGE('',*,*,#186,.T.);
#49=ORIENTED_EDGE('',*,*,#187,.F.);
#50=ORIENTED_EDGE('',*,*,#188,.F.);
#51=ORIENTED_EDGE('',*,*,#189,.F.);
#52=ORIENTED_EDGE('',*,*,#190,.T.);
#53=ORIENTED_EDGE('',*,*,#161,.T.);
#54=ORIENTED_EDGE('',*,*,#191,.F.);
#55=ORIENTED_EDGE('',*,*,#192,.F.);
#56=ORIENTED_EDGE('',*,*,#193,.T.);
#57=ORIENTED_EDGE('',*,*,#168,.T.);
#58=ORIENTED_EDGE('',*,*,#194,.F.);
#59=ORIENTED_EDGE('',*,*,#163,.T.);
#60=ORIENTED_EDGE('',*,*,#195,.T.);
#61=ORIENTED_EDGE('',*,*,#196,.F.);
#62=ORIENTED_EDGE('',*,*,#197,.F.);
#63=ORIENTED_EDGE('',*,*,#198,.T.);
#64=ORIENTED_EDGE('',*,*,#157,.T.);
#65=ORIENTED_EDGE('',*,*,#199,.F.);
#66=ORIENTED_EDGE('',*,*,#200,.F.);
#67=ORIENTED_EDGE('',*,*,#201,.T.);
#68=ORIENTED_EDGE('',*,*,#197,.T.);
#69=ORIENTED_EDGE('',*,*,#202,.T.);
#70=ORIENTED_EDGE('',*,*,#203,.T.);
#71=ORIENTED_EDGE('',*,*,#204,.T.);
#72=ORIENTED_EDGE('',*,*,#205,.F.);
#73=ORIENTED_EDGE('',*,*,#206,.F.);
#74=ORIENTED_EDGE('',*,*,#192,.T.);
#75=ORIENTED_EDGE('',*,*,#207,.F.);
#76=ORIENTED_EDGE('',*,*,#208,.F.);
#77=ORIENTED_EDGE('',*,*,#196,.T.);
#78=ORIENTED_EDGE('',*,*,#209,.T.);
#79=ORIENTED_EDGE('',*,*,#189,.T.);
#80=ORIENTED_EDGE('',*,*,#210,.F.);
#81=ORIENTED_EDGE('',*,*,#211,.F.);
#82=ORIENTED_EDGE('',*,*,#170,.F.);
#83=ORIENTED_EDGE('',*,*,#212,.T.);
#84=ORIENTED_EDGE('',*,*,#174,.T.);
#85=ORIENTED_EDGE('',*,*,#212,.F.);
#86=ORIENTED_EDGE('',*,*,#169,.T.);
#87=ORIENTED_EDGE('',*,*,#213,.T.);
#88=ORIENTED_EDGE('',*,*,#175,.F.);
#89=ORIENTED_EDGE('',*,*,#211,.T.);
#90=ORIENTED_EDGE('',*,*,#173,.T.);
#91=ORIENTED_EDGE('',*,*,#214,.F.);
#92=ORIENTED_EDGE('',*,*,#202,.F.);
#93=ORIENTED_EDGE('',*,*,#199,.T.);
#94=ORIENTED_EDGE('',*,*,#171,.F.);
#95=ORIENTED_EDGE('',*,*,#176,.F.);
#96=ORIENTED_EDGE('',*,*,#213,.F.);
#97=ORIENTED_EDGE('',*,*,#193,.F.);
#98=ORIENTED_EDGE('',*,*,#206,.T.);
#99=ORIENTED_EDGE('',*,*,#215,.T.);
#100=ORIENTED_EDGE('',*,*,#177,.F.);
#101=ORIENTED_EDGE('',*,*,#215,.F.);
#102=ORIENTED_EDGE('',*,*,#205,.T.);
#103=ORIENTED_EDGE('',*,*,#216,.T.);
#104=ORIENTED_EDGE('',*,*,#178,.T.);
#105=ORIENTED_EDGE('',*,*,#216,.F.);
#106=ORIENTED_EDGE('',*,*,#204,.F.);
#107=ORIENTED_EDGE('',*,*,#217,.T.);
#108=ORIENTED_EDGE('',*,*,#179,.T.);
#109=ORIENTED_EDGE('',*,*,#217,.F.);
#110=ORIENTED_EDGE('',*,*,#203,.F.);
#111=ORIENTED_EDGE('',*,*,#214,.T.);
#112=ORIENTED_EDGE('',*,*,#172,.T.);
#113=ORIENTED_EDGE('',*,*,#190,.F.);
#114=ORIENTED_EDGE('',*,*,#209,.F.);
#115=ORIENTED_EDGE('',*,*,#195,.F.);
#116=ORIENTED_EDGE('',*,*,#162,.F.);
#117=ORIENTED_EDGE('',*,*,#165,.T.);
#118=ORIENTED_EDGE('',*,*,#218,.T.);
#119=ORIENTED_EDGE('',*,*,#183,.F.);
#120=ORIENTED_EDGE('',*,*,#219,.F.);
#121=ORIENTED_EDGE('',*,*,#166,.T.);
#122=ORIENTED_EDGE('',*,*,#219,.T.);
#123=ORIENTED_EDGE('',*,*,#182,.F.);
#124=ORIENTED_EDGE('',*,*,#220,.F.);
#125=ORIENTED_EDGE('',*,*,#167,.T.);
#126=ORIENTED_EDGE('',*,*,#220,.T.);
#127=ORIENTED_EDGE('',*,*,#181,.F.);
#128=ORIENTED_EDGE('',*,*,#221,.F.);
#129=ORIENTED_EDGE('',*,*,#207,.T.);
#130=ORIENTED_EDGE('',*,*,#191,.T.);
#131=ORIENTED_EDGE('',*,*,#164,.T.);
#132=ORIENTED_EDGE('',*,*,#194,.T.);
#133=ORIENTED_EDGE('',*,*,#208,.T.);
#134=ORIENTED_EDGE('',*,*,#221,.T.);
#135=ORIENTED_EDGE('',*,*,#180,.F.);
#136=ORIENTED_EDGE('',*,*,#218,.F.);
#137=ORIENTED_EDGE('',*,*,#222,.T.);
#138=ORIENTED_EDGE('',*,*,#187,.T.);
#139=ORIENTED_EDGE('',*,*,#223,.F.);
#140=ORIENTED_EDGE('',*,*,#159,.F.);
#141=ORIENTED_EDGE('',*,*,#200,.T.);
#142=ORIENTED_EDGE('',*,*,#224,.T.);
#143=ORIENTED_EDGE('',*,*,#185,.F.);
#144=ORIENTED_EDGE('',*,*,#225,.F.);
#145=ORIENTED_EDGE('',*,*,#198,.F.);
#146=ORIENTED_EDGE('',*,*,#201,.F.);
#147=ORIENTED_EDGE('',*,*,#225,.T.);
#148=ORIENTED_EDGE('',*,*,#184,.T.);
#149=ORIENTED_EDGE('',*,*,#222,.F.);
#150=ORIENTED_EDGE('',*,*,#158,.F.);
#151=ORIENTED_EDGE('',*,*,#160,.T.);
#152=ORIENTED_EDGE('',*,*,#223,.T.);
#153=ORIENTED_EDGE('',*,*,#186,.F.);
#154=ORIENTED_EDGE('',*,*,#224,.F.);
#155=ORIENTED_EDGE('',*,*,#210,.T.);
#156=ORIENTED_EDGE('',*,*,#188,.T.);
#157=EDGE_CURVE('',#226,#227,#272,.T.);
#158=EDGE_CURVE('',#226,#228,#273,.T.);
#159=EDGE_CURVE('',#228,#229,#274,.T.);
#160=EDGE_CURVE('',#230,#229,#275,.T.);
#161=EDGE_CURVE('',#231,#230,#276,.T.);
#162=EDGE_CURVE('',#231,#232,#14,.T.);
#163=EDGE_CURVE('',#233,#232,#277,.T.);
#164=EDGE_CURVE('',#234,#233,#278,.T.);
#165=EDGE_CURVE('',#235,#234,#279,.T.);
#166=EDGE_CURVE('',#236,#235,#280,.T.);
#167=EDGE_CURVE('',#237,#236,#281,.T.);
#168=EDGE_CURVE('',#238,#237,#282,.T.);
#169=EDGE_CURVE('',#239,#238,#283,.T.);
#170=EDGE_CURVE('',#239,#240,#284,.T.);
#171=EDGE_CURVE('',#240,#227,#285,.T.);
#172=EDGE_CURVE('',#241,#241,#15,.T.);
#173=EDGE_CURVE('',#242,#243,#286,.T.);
#174=EDGE_CURVE('',#244,#242,#287,.T.);
#175=EDGE_CURVE('',#244,#245,#288,.T.);
#176=EDGE_CURVE('',#245,#246,#289,.T.);
#177=EDGE_CURVE('',#246,#247,#16,.T.);
#178=EDGE_CURVE('',#248,#247,#290,.T.);
#179=EDGE_CURVE('',#243,#248,#291,.T.);
#180=EDGE_CURVE('',#249,#250,#292,.T.);
#181=EDGE_CURVE('',#250,#251,#293,.T.);
#182=EDGE_CURVE('',#251,#252,#294,.T.);
#183=EDGE_CURVE('',#252,#249,#295,.T.);
#184=EDGE_CURVE('',#253,#254,#296,.T.);
#185=EDGE_CURVE('',#253,#255,#297,.T.);
#186=EDGE_CURVE('',#255,#256,#298,.T.);
#187=EDGE_CURVE('',#254,#256,#299,.T.);
#188=EDGE_CURVE('',#257,#230,#300,.T.);
#189=EDGE_CURVE('',#258,#257,#301,.T.);
#190=EDGE_CURVE('',#258,#231,#302,.T.);
#191=EDGE_CURVE('',#259,#237,#303,.T.);
#192=EDGE_CURVE('',#260,#259,#304,.T.);
#193=EDGE_CURVE('',#260,#238,#305,.T.);
#194=EDGE_CURVE('',#233,#261,#306,.T.);
#195=EDGE_CURVE('',#232,#262,#307,.F.);
#196=EDGE_CURVE('',#261,#262,#308,.T.);
#197=EDGE_CURVE('',#263,#264,#309,.T.);
#198=EDGE_CURVE('',#263,#226,#310,.T.);
#199=EDGE_CURVE('',#264,#227,#311,.T.);
#200=EDGE_CURVE('',#265,#266,#312,.T.);
#201=EDGE_CURVE('',#265,#263,#313,.T.);
#202=EDGE_CURVE('',#264,#267,#314,.T.);
#203=EDGE_CURVE('',#267,#268,#315,.T.);
#204=EDGE_CURVE('',#268,#269,#316,.T.);
#205=EDGE_CURVE('',#270,#269,#17,.T.);
#206=EDGE_CURVE('',#260,#270,#317,.T.);
#207=EDGE_CURVE('',#271,#259,#318,.T.);
#208=EDGE_CURVE('',#261,#271,#319,.T.);
#209=EDGE_CURVE('',#262,#258,#18,.T.);
#210=EDGE_CURVE('',#266,#257,#320,.T.);
#211=EDGE_CURVE('',#240,#242,#321,.T.);
#212=EDGE_CURVE('',#239,#244,#322,.T.);
#213=EDGE_CURVE('',#238,#245,#323,.T.);
#214=EDGE_CURVE('',#267,#243,#324,.T.);
#215=EDGE_CURVE('',#270,#246,#325,.T.);
#216=EDGE_CURVE('',#269,#247,#326,.T.);
#217=EDGE_CURVE('',#268,#248,#327,.T.);
#218=EDGE_CURVE('',#234,#249,#328,.T.);
#219=EDGE_CURVE('',#235,#252,#329,.T.);
#220=EDGE_CURVE('',#236,#251,#330,.T.);
#221=EDGE_CURVE('',#271,#250,#331,.T.);
#222=EDGE_CURVE('',#228,#254,#332,.T.);
#223=EDGE_CURVE('',#229,#256,#333,.T.);
#224=EDGE_CURVE('',#266,#255,#334,.T.);
#225=EDGE_CURVE('',#265,#253,#335,.T.);
#226=VERTEX_POINT('',#664);
#227=VERTEX_POINT('',#665);
#228=VERTEX_POINT('',#667);
#229=VERTEX_POINT('',#669);
#230=VERTEX_POINT('',#671);
#231=VERTEX_POINT('',#673);
#232=VERTEX_POINT('',#675);
#233=VERTEX_POINT('',#677);
#234=VERTEX_POINT('',#679);
#235=VERTEX_POINT('',#681);
#236=VERTEX_POINT('',#683);
#237=VERTEX_POINT('',#685);
#238=VERTEX_POINT('',#687);
#239=VERTEX_POINT('',#689);
#240=VERTEX_POINT('',#691);
#241=VERTEX_POINT('',#695);
#242=VERTEX_POINT('',#697);
#243=VERTEX_POINT('',#698);
#244=VERTEX_POINT('',#700);
#245=VERTEX_POINT('',#702);
#246=VERTEX_POINT('',#704);
#247=VERTEX_POINT('',#706);
#248=VERTEX_POINT('',#708);
#249=VERTEX_POINT('',#711);
#250=VERTEX_POINT('',#712);
#251=VERTEX_POINT('',#714);
#252=VERTEX_POINT('',#716);
#253=VERTEX_POINT('',#719);
#254=VERTEX_POINT('',#720);
#255=VERTEX_POINT('',#722);
#256=VERTEX_POINT('',#724);
#257=VERTEX_POINT('',#728);
#258=VERTEX_POINT('',#730);
#259=VERTEX_POINT('',#734);
#260=VERTEX_POINT('',#736);
#261=VERTEX_POINT('',#740);
#262=VERTEX_POINT('',#742);
#263=VERTEX_POINT('',#746);
#264=VERTEX_POINT('',#747);
#265=VERTEX_POINT('',#752);
#266=VERTEX_POINT('',#753);
#267=VERTEX_POINT('',#756);
#268=VERTEX_POINT('',#758);
#269=VERTEX_POINT('',#760);
#270=VERTEX_POINT('',#762);
#271=VERTEX_POINT('',#765);
#272=LINE('',#663,#336);
#273=LINE('',#666,#337);
#274=LINE('',#668,#338);
#275=LINE('',#670,#339);
#276=LINE('',#672,#340);
#277=LINE('',#676,#341);
#278=LINE('',#678,#342);
#279=LINE('',#680,#343);
#280=LINE('',#682,#344);
#281=LINE('',#684,#345);
#282=LINE('',#686,#346);
#283=LINE('',#688,#347);
#284=LINE('',#690,#348);
#285=LINE('',#692,#349);
#286=LINE('',#696,#350);
#287=LINE('',#699,#351);
#288=LINE('',#701,#352);
#289=LINE('',#703,#353);
#290=LINE('',#707,#354);
#291=LINE('',#709,#355);
#292=LINE('',#710,#356);
#293=LINE('',#713,#357);
#294=LINE('',#715,#358);
#295=LINE('',#717,#359);
#296=LINE('',#718,#360);
#297=LINE('',#721,#361);
#298=LINE('',#723,#362);
#299=LINE('',#725,#363);
#300=LINE('',#727,#364);
#301=LINE('',#729,#365);
#302=LINE('',#731,#366);
#303=LINE('',#733,#367);
#304=LINE('',#735,#368);
#305=LINE('',#737,#369);
#306=LINE('',#739,#370);
#307=LINE('',#741,#371);
#308=LINE('',#743,#372);
#309=LINE('',#745,#373);
#310=LINE('',#748,#374);
#311=LINE('',#749,#375);
#312=LINE('',#751,#376);
#313=LINE('',#754,#377);
#314=LINE('',#755,#378);
#315=LINE('',#757,#379);
#316=LINE('',#759,#380);
#317=LINE('',#763,#381);
#318=LINE('',#764,#382);
#319=LINE('',#766,#383);
#320=LINE('',#768,#384);
#321=LINE('',#770,#385);
#322=LINE('',#771,#386);
#323=LINE('',#773,#387);
#324=LINE('',#775,#388);
#325=LINE('',#777,#389);
#326=LINE('',#779,#390);
#327=LINE('',#781,#391);
#328=LINE('',#785,#392);
#329=LINE('',#786,#393);
#330=LINE('',#788,#394);
#331=LINE('',#790,#395);
#332=LINE('',#793,#396);
#333=LINE('',#794,#397);
#334=LINE('',#796,#398);
#335=LINE('',#797,#399);
#336=VECTOR('',#543,1.);
#337=VECTOR('',#544,1.);
#338=VECTOR('',#545,1.);
#339=VECTOR('',#546,1.);
#340=VECTOR('',#547,1.);
#341=VECTOR('',#550,1.);
#342=VECTOR('',#551,1.);
#343=VECTOR('',#552,1.);
#344=VECTOR('',#553,1.);
#345=VECTOR('',#554,1.);
#346=VECTOR('',#555,1.);
#347=VECTOR('',#556,1.);
#348=VECTOR('',#557,1.);
#349=VECTOR('',#558,1.);
#350=VECTOR('',#563,1.);
#351=VECTOR('',#564,1.);
#352=VECTOR('',#565,1.);
#353=VECTOR('',#566,1.);
#354=VECTOR('',#569,1.);
#355=VECTOR('',#570,1.);
#356=VECTOR('',#571,1.);
#357=VECTOR('',#572,1.);
#358=VECTOR('',#573,1.);
#359=VECTOR('',#574,1.);
#360=VECTOR('',#575,1.);
#361=VECTOR('',#576,1.);
#362=VECTOR('',#577,1.);
#363=VECTOR('',#578,1.);
#364=VECTOR('',#581,1.);
#365=VECTOR('',#582,1.);
#366=VECTOR('',#583,1.);
#367=VECTOR('',#586,1.);
#368=VECTOR('',#587,1.);
#369=VECTOR('',#588,1.);
#370=VECTOR('',#591,1.);
#371=VECTOR('',#592,1.);
#372=VECTOR('',#593,1.);
#373=VECTOR('',#596,1.);
#374=VECTOR('',#597,1.);
#375=VECTOR('',#598,1.);
#376=VECTOR('',#601,1.);
#377=VECTOR('',#602,1.);
#378=VECTOR('',#603,1.);
#379=VECTOR('',#604,1.);
#380=VECTOR('',#605,1.);
#381=VECTOR('',#608,1.);
#382=VECTOR('',#609,1.);
#383=VECTOR('',#610,1.);
#384=VECTOR('',#613,1.);
#385=VECTOR('',#616,1.);
#386=VECTOR('',#617,1.);
#387=VECTOR('',#620,1.);
#388=VECTOR('',#623,1.);
#389=VECTOR('',#626,1.);
#390=VECTOR('',#629,1.);
#391=VECTOR('',#632,1.);
#392=VECTOR('',#639,1.);
#393=VECTOR('',#640,1.);
#394=VECTOR('',#643,1.);
#395=VECTOR('',#646,1.);
#396=VECTOR('',#651,1.);
#397=VECTOR('',#652,1.);
#398=VECTOR('',#655,1.);
#399=VECTOR('',#656,1.);
#400=EDGE_LOOP('',(#19,#20,#21,#22,#23,#24,#25,#26,#27,#28,#29,#30,#31,
#32,#33));
#401=EDGE_LOOP('',(#34));
#402=EDGE_LOOP('',(#35,#36,#37,#38,#39,#40,#41));
#403=EDGE_LOOP('',(#42,#43,#44,#45));
#404=EDGE_LOOP('',(#46,#47,#48,#49));
#405=EDGE_LOOP('',(#50,#51,#52,#53));
#406=EDGE_LOOP('',(#54,#55,#56,#57));
#407=EDGE_LOOP('',(#58,#59,#60,#61));
#408=EDGE_LOOP('',(#62,#63,#64,#65));
#409=EDGE_LOOP('',(#66,#67,#68,#69,#70,#71,#72,#73,#74,#75,#76,#77,#78,
#79,#80));
#410=EDGE_LOOP('',(#81,#82,#83,#84));
#411=EDGE_LOOP('',(#85,#86,#87,#88));
#412=EDGE_LOOP('',(#89,#90,#91,#92,#93,#94));
#413=EDGE_LOOP('',(#95,#96,#97,#98,#99));
#414=EDGE_LOOP('',(#100,#101,#102,#103));
#415=EDGE_LOOP('',(#104,#105,#106,#107));
#416=EDGE_LOOP('',(#108,#109,#110,#111));
#417=EDGE_LOOP('',(#112));
#418=EDGE_LOOP('',(#113,#114,#115,#116));
#419=EDGE_LOOP('',(#117,#118,#119,#120));
#420=EDGE_LOOP('',(#121,#122,#123,#124));
#421=EDGE_LOOP('',(#125,#126,#127,#128,#129,#130));
#422=EDGE_LOOP('',(#131,#132,#133,#134,#135,#136));
#423=EDGE_LOOP('',(#137,#138,#139,#140));
#424=EDGE_LOOP('',(#141,#142,#143,#144));
#425=EDGE_LOOP('',(#145,#146,#147,#148,#149,#150));
#426=EDGE_LOOP('',(#151,#152,#153,#154,#155,#156));
#427=FACE_BOUND('',#400,.T.);
#428=FACE_BOUND('',#401,.T.);
#429=FACE_BOUND('',#402,.T.);
#430=FACE_BOUND('',#403,.T.);
#431=FACE_BOUND('',#404,.T.);
#432=FACE_BOUND('',#405,.T.);
#433=FACE_BOUND('',#406,.T.);
#434=FACE_BOUND('',#407,.T.);
#435=FACE_BOUND('',#408,.T.);
#436=FACE_BOUND('',#409,.T.);
#437=FACE_BOUND('',#410,.T.);
#438=FACE_BOUND('',#411,.T.);
#439=FACE_BOUND('',#412,.T.);
#440=FACE_BOUND('',#413,.T.);
#441=FACE_BOUND('',#414,.T.);
#442=FACE_BOUND('',#415,.T.);
#443=FACE_BOUND('',#416,.T.);
#444=FACE_BOUND('',#417,.T.);
#445=FACE_BOUND('',#418,.T.);
#446=FACE_BOUND('',#419,.T.);
#447=FACE_BOUND('',#420,.T.);
#448=FACE_BOUND('',#421,.T.);
#449=FACE_BOUND('',#422,.T.);
#450=FACE_BOUND('',#423,.T.);
#451=FACE_BOUND('',#424,.T.);
#452=FACE_BOUND('',#425,.T.);
#453=FACE_BOUND('',#426,.T.);
#454=PLANE('',#511);
#455=PLANE('',#513);
#456=PLANE('',#516);
#457=PLANE('',#517);
#458=PLANE('',#518);
#459=PLANE('',#519);
#460=PLANE('',#520);
#461=PLANE('',#523);
#462=PLANE('',#524);
#463=PLANE('',#525);
#464=PLANE('',#526);
#465=PLANE('',#528);
#466=PLANE('',#529);
#467=PLANE('',#531);
#468=PLANE('',#532);
#469=PLANE('',#533);
#470=PLANE('',#534);
#471=PLANE('',#535);
#472=PLANE('',#536);
#473=PLANE('',#537);
#474=PLANE('',#538);
#475=ADVANCED_FACE('',(#427),#454,.F.);
#476=ADVANCED_FACE('',(#428,#429,#430,#431),#455,.T.);
#477=ADVANCED_FACE('',(#432),#456,.F.);
#478=ADVANCED_FACE('',(#433),#457,.F.);
#479=ADVANCED_FACE('',(#434),#458,.F.);
#480=ADVANCED_FACE('',(#435),#459,.F.);
#481=ADVANCED_FACE('',(#436),#460,.F.);
#482=ADVANCED_FACE('',(#437),#461,.T.);
#483=ADVANCED_FACE('',(#438),#462,.T.);
#484=ADVANCED_FACE('',(#439),#463,.F.);
#485=ADVANCED_FACE('',(#440),#464,.T.);
#486=ADVANCED_FACE('',(#441),#12,.T.);
#487=ADVANCED_FACE('',(#442),#465,.F.);
#488=ADVANCED_FACE('',(#443),#466,.F.);
#489=ADVANCED_FACE('',(#444,#445),#13,.F.);
#490=ADVANCED_FACE('',(#446),#467,.T.);
#491=ADVANCED_FACE('',(#447),#468,.T.);
#492=ADVANCED_FACE('',(#448),#469,.T.);
#493=ADVANCED_FACE('',(#449),#470,.T.);
#494=ADVANCED_FACE('',(#450),#471,.F.);
#495=ADVANCED_FACE('',(#451),#472,.T.);
#496=ADVANCED_FACE('',(#452),#473,.F.);
#497=ADVANCED_FACE('',(#453),#474,.T.);
#498=CLOSED_SHELL('',(#475,#476,#477,#478,#479,#480,#481,#482,#483,#484,
#485,#486,#487,#488,#489,#490,#491,#492,#493,#494,#495,#496,#497));
#499=STYLED_ITEM('',(#500),#507);
#500=PRESENTATION_STYLE_ASSIGNMENT((#501));
#501=SURFACE_STYLE_USAGE(.BOTH.,#502);
#502=SURFACE_SIDE_STYLE('',(#503));
#503=SURFACE_STYLE_FILL_AREA(#504);
#504=FILL_AREA_STYLE('',(#505));
#505=FILL_AREA_STYLE_COLOUR('',#506);
#506=COLOUR_RGB('',0.615686274509804,0.811764705882353,0.929411764705882);
#507=MANIFOLD_SOLID_BREP('Part 1',#498);
#508=SHAPE_DEFINITION_REPRESENTATION(#806,#509);
#509=SHAPE_REPRESENTATION('Part 1',(#510),#801);
#510=AXIS2_PLACEMENT_3D('',#661,#539,#540);
#511=AXIS2_PLACEMENT_3D('',#662,#541,#542);
#512=AXIS2_PLACEMENT_3D('',#674,#548,#549);
#513=AXIS2_PLACEMENT_3D('',#693,#559,#560);
#514=AXIS2_PLACEMENT_3D('',#694,#561,#562);
#515=AXIS2_PLACEMENT_3D('',#705,#567,#568);
#516=AXIS2_PLACEMENT_3D('',#726,#579,#580);
#517=AXIS2_PLACEMENT_3D('',#732,#584,#585);
#518=AXIS2_PLACEMENT_3D('',#738,#589,#590);
#519=AXIS2_PLACEMENT_3D('',#744,#594,#595);
#520=AXIS2_PLACEMENT_3D('',#750,#599,#600);
#521=AXIS2_PLACEMENT_3D('',#761,#606,#607);
#522=AXIS2_PLACEMENT_3D('',#767,#611,#612);
#523=AXIS2_PLACEMENT_3D('',#769,#614,#615);
#524=AXIS2_PLACEMENT_3D('',#772,#618,#619);
#525=AXIS2_PLACEMENT_3D('',#774,#621,#622);
#526=AXIS2_PLACEMENT_3D('',#776,#624,#625);
#527=AXIS2_PLACEMENT_3D('',#778,#627,#628);
#528=AXIS2_PLACEMENT_3D('',#780,#630,#631);
#529=AXIS2_PLACEMENT_3D('',#782,#633,#634);
#530=AXIS2_PLACEMENT_3D('',#783,#635,#636);
#531=AXIS2_PLACEMENT_3D('',#784,#637,#638);
#532=AXIS2_PLACEMENT_3D('',#787,#641,#642);
#533=AXIS2_PLACEMENT_3D('',#789,#644,#645);
#534=AXIS2_PLACEMENT_3D('',#791,#647,#648);
#535=AXIS2_PLACEMENT_3D('',#792,#649,#650);
#536=AXIS2_PLACEMENT_3D('',#795,#653,#654);
#537=AXIS2_PLACEMENT_3D('',#798,#657,#658);
#538=AXIS2_PLACEMENT_3D('',#799,#659,#660);
#539=DIRECTION('',(0.,0.,1.));
#540=DIRECTION('',(1.,0.,0.));
#541=DIRECTION('',(1.,0.,0.));
#542=DIRECTION('',(0.,0.,-1.));
#543=DIRECTION('',(0.,1.,0.));
#544=DIRECTION('',(0.,0.,1.));
#545=DIRECTION('',(0.,-1.,0.));
#546=DIRECTION('',(0.,0.,1.));
#547=DIRECTION('',(0.,1.,0.));
#548=DIRECTION('',(1.,0.,0.));
#549=DIRECTION('',(0.,0.,-1.));
#550=DIRECTION('',(0.,1.,0.));
#551=DIRECTION('',(0.,-0.0104514926546473,-0.999945381659063));
#552=DIRECTION('',(0.,1.,0.));
#553=DIRECTION('',(0.,0.,1.));
#554=DIRECTION('',(0.,-0.966194278850475,0.257815080079909));
#555=DIRECTION('',(0.,1.,0.));
#556=DIRECTION('',(0.,0.,-1.));
#557=DIRECTION('',(0.,1.,0.));
#558=DIRECTION('',(0.,0.,-1.));
#559=DIRECTION('',(1.,0.,0.));
#560=DIRECTION('',(0.,0.,-1.));
#561=DIRECTION('',(1.,0.,0.));
#562=DIRECTION('',(0.,0.,-1.));
#563=DIRECTION('',(0.,0.,-1.));
#564=DIRECTION('',(0.,1.,0.));
#565=DIRECTION('',(0.,0.,-1.));
#566=DIRECTION('',(0.,0.959136799306715,-0.2829427507742));
#567=DIRECTION('',(1.,0.,0.));
#568=DIRECTION('',(0.,0.,-1.));
#569=DIRECTION('',(0.,0.,1.));
#570=DIRECTION('',(0.,-1.,0.));
#571=DIRECTION('',(0.,-0.0104514926546474,-0.999945381659063));
#572=DIRECTION('',(0.,-0.966194278850475,0.257815080079909));
#573=DIRECTION('',(0.,0.,1.));
#574=DIRECTION('',(0.,1.,0.));
#575=DIRECTION('',(0.,0.,1.));
#576=DIRECTION('',(0.,-1.,0.));
#577=DIRECTION('',(0.,0.,1.));
#578=DIRECTION('',(0.,-1.,0.));
#579=DIRECTION('',(0.,0.,-1.));
#580=DIRECTION('',(-1.,0.,0.));
#581=DIRECTION('',(1.,0.,0.));
#582=DIRECTION('',(0.,1.,0.));
#583=DIRECTION('',(1.,0.,0.));
#584=DIRECTION('',(0.,0.,-1.));
#585=DIRECTION('',(-1.,0.,0.));
#586=DIRECTION('',(1.,0.,0.));
#587=DIRECTION('',(0.,1.,0.));
#588=DIRECTION('',(1.,0.,0.));
#589=DIRECTION('',(0.,0.,-1.));
#590=DIRECTION('',(-1.,0.,0.));
#591=DIRECTION('',(-1.,0.,0.));
#592=DIRECTION('',(1.,0.,0.));
#593=DIRECTION('',(0.,1.,0.));
#594=DIRECTION('',(0.,0.,-1.));
#595=DIRECTION('',(-1.,0.,0.));
#596=DIRECTION('',(0.,1.,0.));
#597=DIRECTION('',(1.,0.,0.));
#598=DIRECTION('',(1.,0.,0.));
#599=DIRECTION('',(1.,0.,0.));
#600=DIRECTION('',(0.,1.,0.));
#601=DIRECTION('',(0.,-1.,0.));
#602=DIRECTION('',(0.,0.,1.));
#603=DIRECTION('',(0.,0.,-1.));
#604=DIRECTION('',(0.,-1.,0.));
#605=DIRECTION('',(0.,0.,1.));
#606=DIRECTION('',(1.,0.,0.));
#607=DIRECTION('',(0.,0.,-1.));
#608=DIRECTION('',(0.,0.959136799306715,-0.2829427507742));
#609=DIRECTION('',(0.,-0.966194278850475,0.257815080079909));
#610=DIRECTION('',(0.,-0.0104514926546473,-0.999945381659063));
#611=DIRECTION('',(1.,0.,0.));
#612=DIRECTION('',(0.,0.,-1.));
#613=DIRECTION('',(0.,0.,1.));
#614=DIRECTION('',(0.,0.,1.));
#615=DIRECTION('',(1.,0.,0.));
#616=DIRECTION('',(1.,0.,0.));
#617=DIRECTION('',(1.,0.,0.));
#618=DIRECTION('',(0.,-1.,0.));
#619=DIRECTION('',(1.,0.,0.));
#620=DIRECTION('',(1.,0.,0.));
#621=DIRECTION('',(0.,-1.,0.));
#622=DIRECTION('',(1.,0.,0.));
#623=DIRECTION('',(1.,0.,0.));
#624=DIRECTION('',(0.,-0.2829427507742,-0.959136799306714));
#625=DIRECTION('',(0.,0.959136799306715,-0.2829427507742));
#626=DIRECTION('',(1.,0.,0.));
#627=DIRECTION('',(1.,0.,0.));
#628=DIRECTION('',(0.,0.,-1.));
#629=DIRECTION('',(1.,0.,0.));
#630=DIRECTION('',(0.,1.,0.));
#631=DIRECTION('',(0.,0.,1.));
#632=DIRECTION('',(1.,0.,0.));
#633=DIRECTION('',(0.,0.,1.));
#634=DIRECTION('',(1.,0.,0.));
#635=DIRECTION('',(1.,0.,0.));
#636=DIRECTION('',(0.,0.,-1.));
#637=DIRECTION('',(0.,0.,-1.));
#638=DIRECTION('',(-1.,0.,0.));
#639=DIRECTION('',(1.,0.,0.));
#640=DIRECTION('',(1.,0.,0.));
#641=DIRECTION('',(0.,1.,0.));
#642=DIRECTION('',(0.,0.,1.));
#643=DIRECTION('',(1.,0.,0.));
#644=DIRECTION('',(0.,0.257815080079909,0.966194278850475));
#645=DIRECTION('',(0.,-0.966194278850475,0.257815080079909));
#646=DIRECTION('',(1.,0.,0.));
#647=DIRECTION('',(0.,-0.999945381659063,0.0104514926546473));
#648=DIRECTION('',(0.,-0.0104514926546473,-0.999945381659063));
#649=DIRECTION('',(0.,0.,1.));
#650=DIRECTION('',(1.,0.,0.));
#651=DIRECTION('',(1.,0.,0.));
#652=DIRECTION('',(1.,0.,0.));
#653=DIRECTION('',(0.,0.,1.));
#654=DIRECTION('',(1.,0.,0.));
#655=DIRECTION('',(1.,0.,0.));
#656=DIRECTION('',(1.,0.,0.));
#657=DIRECTION('',(0.,1.,0.));
#658=DIRECTION('',(0.,0.,1.));
#659=DIRECTION('',(0.,1.,0.));
#660=DIRECTION('',(0.,0.,1.));
#661=CARTESIAN_POINT('',(0.,0.,0.));
#662=CARTESIAN_POINT('',(-0.0351988635957241,-0.0075,0.0313210226595402));
#663=CARTESIAN_POINT('',(-0.0351988635957241,-0.0075,0.0305255688726902));
#664=CARTESIAN_POINT('',(-0.0351988635957241,-0.000397108951974621,0.0305255688726902));
#665=CARTESIAN_POINT('',(-0.0351988635957241,0.,0.0305255688726902));
#666=CARTESIAN_POINT('',(-0.0351988635957241,-0.000397108951974621,0.0313210226595402));
#667=CARTESIAN_POINT('',(-0.0351988635957241,-0.000397108951974621,0.0316332829410168));
#668=CARTESIAN_POINT('',(-0.0351988635957241,-0.0075,0.0316332829410168));
#669=CARTESIAN_POINT('',(-0.0351988635957241,-0.000987058701229519,0.0316332829410168));
#670=CARTESIAN_POINT('',(-0.0351988635957241,-0.000987058701229519,0.0313210226595402));
#671=CARTESIAN_POINT('',(-0.0351988635957241,-0.000987058701229519,0.0305255688726902));
#672=CARTESIAN_POINT('',(-0.0351988635957241,-0.0075,0.0305255688726902));
#673=CARTESIAN_POINT('',(-0.0351988635957241,-0.00180943432477445,0.0305255688726902));
#674=CARTESIAN_POINT('',(-0.0351988635957241,-0.00267219018408755,0.0301652268200973));
#675=CARTESIAN_POINT('',(-0.0351988635957241,-0.00353494604340064,0.0305255688726902));
#676=CARTESIAN_POINT('',(-0.0351988635957241,-0.0075,0.0305255688726902));
#677=CARTESIAN_POINT('',(-0.0351988635957241,-0.00451941910458494,0.0305255688726902));
#678=CARTESIAN_POINT('',(-0.0351988635957241,-0.00451143145912945,0.0312897859512902));
#679=CARTESIAN_POINT('',(-0.0351988635957241,-0.00450881025425997,0.0315405694317199));
#680=CARTESIAN_POINT('',(-0.0351988635957241,-0.0075,0.0315405694317199));
#681=CARTESIAN_POINT('',(-0.0351988635957241,-0.00691254994852336,0.0315405694317199));
#682=CARTESIAN_POINT('',(-0.0351988635957241,-0.00691254994852336,0.0313210226595402));
#683=CARTESIAN_POINT('',(-0.0351988635957241,-0.00691254994852336,0.0308027944605528));
#684=CARTESIAN_POINT('',(-0.0351988635957241,-0.00759004337052071,0.0309835738593437));
#685=CARTESIAN_POINT('',(-0.0351988635957241,-0.00587361236248018,0.0305255688726902));
#686=CARTESIAN_POINT('',(-0.0351988635957241,-0.0075,0.0305255688726902));
#687=CARTESIAN_POINT('',(-0.0351988635957241,-0.0075,0.0305255688726902));
#688=CARTESIAN_POINT('',(-0.0351988635957241,-0.0075,0.0313210226595402));
#689=CARTESIAN_POINT('',(-0.0351988635957241,-0.0075,0.0321164764463902));
#690=CARTESIAN_POINT('',(-0.0351988635957241,-0.0075,0.0321164764463902));
#691=CARTESIAN_POINT('',(-0.0351988635957241,0.,0.0321164764463902));
#692=CARTESIAN_POINT('',(-0.0351988635957241,0.,0.0313210226595402));
#693=CARTESIAN_POINT('',(-0.0258522741496563,-0.0075,0.0313210226595402));
#694=CARTESIAN_POINT('',(-0.0258522741496563,-0.00267219018408755,0.0301652268200973));
#695=CARTESIAN_POINT('',(-0.0258522741496563,-0.00267219018408755,0.0292302433616094));
#696=CARTESIAN_POINT('',(-0.0258522741496563,0.,0.0313210226595402));
#697=CARTESIAN_POINT('',(-0.0258522741496563,0.,0.0321164764463902));
#698=CARTESIAN_POINT('',(-0.0258522741496563,0.,0.0284340269863605));
#699=CARTESIAN_POINT('',(-0.0258522741496563,-0.0075,0.0321164764463902));
#700=CARTESIAN_POINT('',(-0.0258522741496563,-0.0075,0.0321164764463902));
#701=CARTESIAN_POINT('',(-0.0258522741496563,-0.0075,0.0313210226595402));
#702=CARTESIAN_POINT('',(-0.0258522741496563,-0.0075,0.0305255688726902));
#703=CARTESIAN_POINT('',(-0.0258522741496563,-0.00592126426286995,0.0300598461180925));
#704=CARTESIAN_POINT('',(-0.0258522741496563,-0.00434252852573991,0.0295941233634949));
#705=CARTESIAN_POINT('',(-0.0258522741496563,-0.00248694509587544,0.0321943358549668));
#706=CARTESIAN_POINT('',(-0.0258522741496563,-0.00135439948644489,0.0292074251919985));
#707=CARTESIAN_POINT('',(-0.0258522741496563,-0.00135439948644489,0.0288207260891795));
#708=CARTESIAN_POINT('',(-0.0258522741496563,-0.00135439948644489,0.0284340269863605));
#709=CARTESIAN_POINT('',(-0.0258522741496563,-0.000677199743222445,0.0284340269863605));
#710=CARTESIAN_POINT('',(-0.0258522741496563,-0.00451599783843539,0.0308528981259086));
#711=CARTESIAN_POINT('',(-0.0258522741496563,-0.00450881025425997,0.0315405694317199));
#712=CARTESIAN_POINT('',(-0.0258522741496563,-0.00452318542261081,0.0301652268200973));
#713=CARTESIAN_POINT('',(-0.0258522741496563,-0.00571786768556708,0.030484010640325));
#714=CARTESIAN_POINT('',(-0.0258522741496563,-0.00691254994852336,0.0308027944605528));
#715=CARTESIAN_POINT('',(-0.0258522741496563,-0.00691254994852336,0.0311716819461363));
#716=CARTESIAN_POINT('',(-0.0258522741496563,-0.00691254994852336,0.0315405694317199));
#717=CARTESIAN_POINT('',(-0.0258522741496563,-0.00571068010139166,0.0315405694317199));
#718=CARTESIAN_POINT('',(-0.0258522741496563,-0.000397108951974621,0.0302730691667508));
#719=CARTESIAN_POINT('',(-0.0258522741496563,-0.000397108951974621,0.0289128553924848));
#720=CARTESIAN_POINT('',(-0.0258522741496563,-0.000397108951974621,0.0316332829410168));
#721=CARTESIAN_POINT('',(-0.0258522741496563,-0.00069208382660207,0.0289128553924848));
#722=CARTESIAN_POINT('',(-0.0258522741496563,-0.000987058701229519,0.0289128553924848));
#723=CARTESIAN_POINT('',(-0.0258522741496563,-0.000987058701229519,0.0302730691667508));
#724=CARTESIAN_POINT('',(-0.0258522741496563,-0.000987058701229519,0.0316332829410168));
#725=CARTESIAN_POINT('',(-0.0258522741496563,-0.00069208382660207,0.0316332829410168));
#726=CARTESIAN_POINT('',(-0.0352122741496563,-0.0075,0.0305255688726902));
#727=CARTESIAN_POINT('',(-0.0352122741496563,-0.000987058701229519,0.0305255688726902));
#728=CARTESIAN_POINT('',(-0.0352122741496563,-0.000987058701229519,0.0305255688726902));
#729=CARTESIAN_POINT('',(-0.0352122741496563,-0.0075,0.0305255688726902));
#730=CARTESIAN_POINT('',(-0.0352122741496563,-0.00180943432477445,0.0305255688726902));
#731=CARTESIAN_POINT('',(-0.0508522741496563,-0.00180943432477445,0.0305255688726902));
#732=CARTESIAN_POINT('',(-0.0352122741496563,-0.0075,0.0305255688726902));
#733=CARTESIAN_POINT('',(-0.0352122741496563,-0.00587361236248018,0.0305255688726902));
#734=CARTESIAN_POINT('',(-0.0352122741496563,-0.00587361236248018,0.0305255688726902));
#735=CARTESIAN_POINT('',(-0.0352122741496563,-0.0075,0.0305255688726902));
#736=CARTESIAN_POINT('',(-0.0352122741496563,-0.0075,0.0305255688726902));
#737=CARTESIAN_POINT('',(-0.0352122741496563,-0.0075,0.0305255688726902));
#738=CARTESIAN_POINT('',(-0.0352122741496563,-0.0075,0.0305255688726902));
#739=CARTESIAN_POINT('',(-0.0352122741496563,-0.00451941910458494,0.0305255688726902));
#740=CARTESIAN_POINT('',(-0.0352122741496563,-0.00451941910458494,0.0305255688726902));
#741=CARTESIAN_POINT('',(-0.0508522741496563,-0.00353494604340064,0.0305255688726902));
#742=CARTESIAN_POINT('',(-0.0352122741496563,-0.00353494604340064,0.0305255688726902));
#743=CARTESIAN_POINT('',(-0.0352122741496563,-0.0075,0.0305255688726902));
#744=CARTESIAN_POINT('',(-0.0352122741496563,-0.0075,0.0305255688726902));
#745=CARTESIAN_POINT('',(-0.0352122741496563,-0.0075,0.0305255688726902));
#746=CARTESIAN_POINT('',(-0.0352122741496563,-0.000397108951974621,0.0305255688726902));
#747=CARTESIAN_POINT('',(-0.0352122741496563,0.,0.0305255688726902));
#748=CARTESIAN_POINT('',(-0.0352122741496563,-0.000397108951974621,0.0305255688726902));
#749=CARTESIAN_POINT('',(-0.0352122741496563,0.,0.0305255688726902));
#750=CARTESIAN_POINT('',(-0.0352122741496563,-0.00375,0.0302752517163753));
#751=CARTESIAN_POINT('',(-0.0352122741496563,-0.00375,0.0289128553924848));
#752=CARTESIAN_POINT('',(-0.0352122741496563,-0.000397108951974621,0.0289128553924848));
#753=CARTESIAN_POINT('',(-0.0352122741496563,-0.000987058701229519,0.0289128553924848));
#754=CARTESIAN_POINT('',(-0.0352122741496563,-0.000397108951974621,0.0302752517163753));
#755=CARTESIAN_POINT('',(-0.0352122741496563,0.,0.0294797979295254));
#756=CARTESIAN_POINT('',(-0.0352122741496563,0.,0.0284340269863605));
#757=CARTESIAN_POINT('',(-0.0352122741496563,-0.000677199743222445,0.0284340269863605));
#758=CARTESIAN_POINT('',(-0.0352122741496563,-0.00135439948644489,0.0284340269863605));
#759=CARTESIAN_POINT('',(-0.0352122741496563,-0.00135439948644489,0.0288207260891795));
#760=CARTESIAN_POINT('',(-0.0352122741496563,-0.00135439948644489,0.0292074251919985));
#761=CARTESIAN_POINT('',(-0.0352122741496563,-0.00248694509587544,0.0321943358549668));
#762=CARTESIAN_POINT('',(-0.0352122741496563,-0.00434252852573991,0.0295941233634949));
#763=CARTESIAN_POINT('',(-0.0352122741496563,-0.00592126426286995,0.0300598461180925));
#764=CARTESIAN_POINT('',(-0.0352122741496563,-0.00382879970631907,0.0299799399549493));
#765=CARTESIAN_POINT('',(-0.0352122741496563,-0.00452318542261081,0.0301652268200973));
#766=CARTESIAN_POINT('',(-0.0352122741496563,-0.004521951103119,0.0302833201983464));
#767=CARTESIAN_POINT('',(-0.0352122741496563,-0.00267219018408755,0.0301652268200973));
#768=CARTESIAN_POINT('',(-0.0352122741496563,-0.000987058701229519,0.0302752517163753));
#769=CARTESIAN_POINT('',(-0.0305255688726902,-0.0075,0.0321164764463902));
#770=CARTESIAN_POINT('',(-0.0305255688726902,0.,0.0321164764463902));
#771=CARTESIAN_POINT('',(-0.0305255688726902,-0.0075,0.0321164764463902));
#772=CARTESIAN_POINT('',(-0.0305255688726902,-0.0075,0.0313210226595402));
#773=CARTESIAN_POINT('',(-0.0305255688726902,-0.0075,0.0305255688726902));
#774=CARTESIAN_POINT('',(-0.0305255688726902,0.,0.0313210226595402));
#775=CARTESIAN_POINT('',(-0.0352122741496563,0.,0.0284340269863605));
#776=CARTESIAN_POINT('',(-0.0352122741496563,-0.00592126426286995,0.0300598461180925));
#777=CARTESIAN_POINT('',(-0.0352122741496563,-0.00434252852573991,0.0295941233634949));
#778=CARTESIAN_POINT('',(-0.0352122741496563,-0.00248694509587544,0.0321943358549668));
#779=CARTESIAN_POINT('',(-0.0352122741496563,-0.00135439948644489,0.0292074251919985));
#780=CARTESIAN_POINT('',(-0.0352122741496563,-0.00135439948644489,0.0288207260891795));
#781=CARTESIAN_POINT('',(-0.0352122741496563,-0.00135439948644489,0.0284340269863605));
#782=CARTESIAN_POINT('',(-0.0352122741496563,-0.000677199743222445,0.0284340269863605));
#783=CARTESIAN_POINT('',(-0.0508522741496563,-0.00267219018408755,0.0301652268200973));
#784=CARTESIAN_POINT('',(-0.0508522741496563,-0.00571068010139166,0.0315405694317199));
#785=CARTESIAN_POINT('',(-0.0508522741496563,-0.00450881025425997,0.0315405694317199));
#786=CARTESIAN_POINT('',(-0.0508522741496563,-0.00691254994852336,0.0315405694317199));
#787=CARTESIAN_POINT('',(-0.0508522741496563,-0.00691254994852336,0.0311716819461363));
#788=CARTESIAN_POINT('',(-0.0508522741496563,-0.00691254994852336,0.0308027944605528));
#789=CARTESIAN_POINT('',(-0.0508522741496563,-0.00571786768556708,0.030484010640325));
#790=CARTESIAN_POINT('',(-0.0508522741496563,-0.00452318542261081,0.0301652268200973));
#791=CARTESIAN_POINT('',(-0.0508522741496563,-0.00451599783843539,0.0308528981259086));
#792=CARTESIAN_POINT('',(-0.0508522741496563,-0.00069208382660207,0.0316332829410168));
#793=CARTESIAN_POINT('',(-0.0508522741496563,-0.000397108951974621,0.0316332829410168));
#794=CARTESIAN_POINT('',(-0.0508522741496563,-0.000987058701229519,0.0316332829410168));
#795=CARTESIAN_POINT('',(-0.0508522741496563,-0.00069208382660207,0.0289128553924848));
#796=CARTESIAN_POINT('',(-0.0508522741496563,-0.000987058701229519,0.0289128553924848));
#797=CARTESIAN_POINT('',(-0.0508522741496563,-0.000397108951974621,0.0289128553924848));
#798=CARTESIAN_POINT('',(-0.0508522741496563,-0.000397108951974621,0.0302730691667508));
#799=CARTESIAN_POINT('',(-0.0508522741496563,-0.000987058701229519,0.0302730691667508));
#800=MECHANICAL_DESIGN_GEOMETRIC_PRESENTATION_REPRESENTATION('',(#499),
#801);
#801=(
GEOMETRIC_REPRESENTATION_CONTEXT(3)
GLOBAL_UNCERTAINTY_ASSIGNED_CONTEXT((#802))
GLOBAL_UNIT_ASSIGNED_CONTEXT((#805,#804,#803))
REPRESENTATION_CONTEXT('Part 1','TOP_LEVEL_ASSEMBLY_PART')
);
#802=UNCERTAINTY_MEASURE_WITH_UNIT(LENGTH_MEASURE(1.E-8),#805,
'DISTANCE_ACCURACY_VALUE','Maximum Tolerance applied to model');
#803=(
NAMED_UNIT(*)
SI_UNIT($,.STERADIAN.)
SOLID_ANGLE_UNIT()
);
#804=(
NAMED_UNIT(*)
PLANE_ANGLE_UNIT()
SI_UNIT($,.RADIAN.)
);
#805=(
LENGTH_UNIT()
NAMED_UNIT(*)
SI_UNIT($,.METRE.)
);
#806=PRODUCT_DEFINITION_SHAPE('','',#807);
#807=PRODUCT_DEFINITION('','',#809,#808);
#808=PRODUCT_DEFINITION_CONTEXT('',#815,'design');
#809=PRODUCT_DEFINITION_FORMATION_WITH_SPECIFIED_SOURCE('','',#811,
 .NOT_KNOWN.);
#810=PRODUCT_RELATED_PRODUCT_CATEGORY('','',(#811));
#811=PRODUCT('Part 1','Part 1','Part 1',(#813));
#812=PRODUCT_CATEGORY('','');
#813=PRODUCT_CONTEXT('',#815,'mechanical');
#814=APPLICATION_PROTOCOL_DEFINITION('international standard',
'ap242_managed_model_based_3d_engineering',2020,#815);
#815=APPLICATION_CONTEXT('managed model based 3d engineering');
ENDSEC;
END-ISO-10303-21;
