ISO-10303-21;
HEADER;
/* Generated by software containing ST-Developer
 * from STEP Tools, Inc. (www.steptools.com) 
 */
/* OPTION: using custom renumber hook */

FILE_DESCRIPTION(
/* description */ ('STEP AP242 Edition 2',
'CAx-IF Rec.Pracs.---Representation and Presentation of Product Manufa
cturing Information (PMI)---4.0---2014-10-13',
'CAx-IF Rec.Pracs.---3D Tessellated Geometry---0.4---2014-09-14','2;1',
'CAx-IF Rec.Pracs.---User Defined Attributes---1.5---2016-08-15'),
/* implementation_level */ '2;1');

FILE_NAME(
/* name */ 'Part Studio 14',
/* time_stamp */ '2026-09-06T10:34:11Z',
/* author */ (''),
/* organization */ (''),
/* preprocessor_version */ 'ST-DEVELOPER v20',
/* originating_system */ 'ONSHAPE BY PTC INC, 1.220',
/* authorisation */ '  ');

FILE_SCHEMA (('AP242_MANAGED_MODEL_BASED_3D_ENGINEERING_MIM_LF { 1 0 10303 442 3 1 4 }'));
ENDSEC;

DATA;
#10=SHAPE_REPRESENTATION_RELATIONSHIP('','',#69,#11);
#11=ADVANCED_BREP_SHAPE_REPRESENTATION('',(#67),#149);
#12=PLANE('',#71);
#13=PLANE('',#72);
#14=ORIENTED_EDGE('',*,*,#18,.F.);
#15=ORIENTED_EDGE('',*,*,#19,.T.);
#16=ORIENTED_EDGE('',*,*,#18,.T.);
#17=ORIENTED_EDGE('',*,*,#19,.F.);
#18=EDGE_CURVE('',#20,#20,#22,.T.);
#19=EDGE_CURVE('',#21,#21,#23,.T.);
#20=VERTEX_POINT('',#128);
#21=VERTEX_POINT('',#145);
#22=B_SPLINE_CURVE_WITH_KNOTS('',3,(#112,#113,#114,#115,#116,#117,#118,
#119,#120,#121,#122,#123,#124,#125,#126,#127),.UNSPECIFIED.,.T.,.F.,(1,
3,1,1,1,1,1,1,1,1,1,1,1,1,3,1),(-0.0523460364751073,0.,0.118050373075379,
0.212131594891285,0.303551655345144,0.352789293150337,0.430218923719665,
0.525881040532461,0.610790997916534,0.657153883916403,0.739961405399969,
0.798515163322741,0.904614575598374,0.947653963524893,1.,1.11805037307538),
 .UNSPECIFIED.);
#23=B_SPLINE_CURVE_WITH_KNOTS('',3,(#129,#130,#131,#132,#133,#134,#135,
#136,#137,#138,#139,#140,#141,#142,#143,#144),.UNSPECIFIED.,.T.,.F.,(1,
3,1,1,1,1,1,1,1,1,1,1,1,1,3,1),(-0.0523460364751073,0.,0.118050373075379,
0.212131594891285,0.303551655345144,0.352789293150337,0.430218923719665,
0.525881040532461,0.610790997916534,0.657153883916403,0.739961405399969,
0.798515163322741,0.904614575598374,0.947653963524893,1.,1.11805037307538),
 .UNSPECIFIED.);
#24=EDGE_LOOP('',(#14));
#25=EDGE_LOOP('',(#15));
#26=EDGE_LOOP('',(#16));
#27=EDGE_LOOP('',(#17));
#28=FACE_BOUND('',#24,.T.);
#29=FACE_BOUND('',#25,.T.);
#30=FACE_BOUND('',#26,.T.);
#31=FACE_BOUND('',#27,.T.);
#32=B_SPLINE_SURFACE_WITH_KNOTS('',3,1,((#80,#81),(#82,#83),(#84,#85),(#86,
#87),(#88,#89),(#90,#91),(#92,#93),(#94,#95),(#96,#97),(#98,#99),(#100,
#101),(#102,#103),(#104,#105),(#106,#107),(#108,#109),(#110,#111)),
 .SURF_OF_LINEAR_EXTRUSION.,.T.,.F.,.F.,(1,3,1,1,1,1,1,1,1,1,1,1,1,1,3,
1),(2,2),(-0.0523460364751073,0.,0.118050373075379,0.212131594891285,0.303551655345144,
0.352789293150337,0.430218923719665,0.525881040532461,0.610790997916534,
0.657153883916403,0.739961405399969,0.798515163322741,0.904614575598374,
0.947653963524893,1.,1.11805037307538),(0.,1.),.UNSPECIFIED.);
#33=OVER_RIDING_STYLED_ITEM('',(#42),#36,#40);
#34=OVER_RIDING_STYLED_ITEM('',(#43),#37,#40);
#35=OVER_RIDING_STYLED_ITEM('',(#44),#38,#40);
#36=ADVANCED_FACE('Face appearance 1',(#28,#29),#32,.F.);
#37=ADVANCED_FACE('Face appearance 1',(#30),#12,.T.);
#38=ADVANCED_FACE('Face appearance 1',(#31),#13,.F.);
#39=CLOSED_SHELL('',(#36,#37,#38));
#40=STYLED_ITEM('',(#41),#67);
#41=PRESENTATION_STYLE_ASSIGNMENT((#45));
#42=PRESENTATION_STYLE_ASSIGNMENT((#46));
#43=PRESENTATION_STYLE_ASSIGNMENT((#47));
#44=PRESENTATION_STYLE_ASSIGNMENT((#48));
#45=SURFACE_STYLE_USAGE(.BOTH.,#49);
#46=SURFACE_STYLE_USAGE(.BOTH.,#50);
#47=SURFACE_STYLE_USAGE(.BOTH.,#51);
#48=SURFACE_STYLE_USAGE(.BOTH.,#52);
#49=SURFACE_SIDE_STYLE('',(#53));
#50=SURFACE_SIDE_STYLE('',(#54));
#51=SURFACE_SIDE_STYLE('',(#55));
#52=SURFACE_SIDE_STYLE('',(#56));
#53=SURFACE_STYLE_FILL_AREA(#57);
#54=SURFACE_STYLE_FILL_AREA(#58);
#55=SURFACE_STYLE_FILL_AREA(#59);
#56=SURFACE_STYLE_FILL_AREA(#60);
#57=FILL_AREA_STYLE('',(#61));
#58=FILL_AREA_STYLE('',(#62));
#59=FILL_AREA_STYLE('',(#63));
#60=FILL_AREA_STYLE('',(#64));
#61=FILL_AREA_STYLE_COLOUR('',#65);
#62=FILL_AREA_STYLE_COLOUR('',#66);
#63=FILL_AREA_STYLE_COLOUR('',#66);
#64=FILL_AREA_STYLE_COLOUR('',#66);
#65=COLOUR_RGB('',0.615686274509804,0.811764705882353,0.929411764705882);
#66=COLOUR_RGB('',0.886274509803922,0.870588235294118,0.662745098039216);
#67=MANIFOLD_SOLID_BREP('Part 1',#39);
#68=SHAPE_DEFINITION_REPRESENTATION(#154,#69);
#69=SHAPE_REPRESENTATION('Part 1',(#70),#149);
#70=AXIS2_PLACEMENT_3D('',#79,#73,#74);
#71=AXIS2_PLACEMENT_3D('',#146,#75,#76);
#72=AXIS2_PLACEMENT_3D('',#147,#77,#78);
#73=DIRECTION('',(0.,0.,1.));
#74=DIRECTION('',(1.,0.,0.));
#75=DIRECTION('',(0.,-1.,0.));
#76=DIRECTION('',(1.,0.,0.));
#77=DIRECTION('',(0.,-1.,0.));
#78=DIRECTION('',(1.,0.,0.));
#79=CARTESIAN_POINT('',(0.,0.,0.));
#80=CARTESIAN_POINT('',(0.0272653792053461,-0.05,0.0261168368160725));
#81=CARTESIAN_POINT('',(0.0272653792053461,-1.38777878078145E-17,0.0261168368160725));
#82=CARTESIAN_POINT('',(0.0211989496114314,-0.05,0.0185393334372746));
#83=CARTESIAN_POINT('',(0.0211989496114314,-1.38777878078145E-17,0.0185393334372746));
#84=CARTESIAN_POINT('',(0.00135876810063942,-0.05,-0.00722828091457071));
#85=CARTESIAN_POINT('',(0.00135876810063942,-1.38777878078145E-17,-0.00722828091457071));
#86=CARTESIAN_POINT('',(-0.0229516327276481,-0.05,0.00275185672261149));
#87=CARTESIAN_POINT('',(-0.0229516327276481,-1.38777878078145E-17,0.00275185672261149));
#88=CARTESIAN_POINT('',(-0.0442363674296149,-0.05,-0.0224150519055809));
#89=CARTESIAN_POINT('',(-0.0442363674296149,-1.38777878078145E-17,-0.0224150519055809));
#90=CARTESIAN_POINT('',(-0.0294718621764043,-0.05,-0.0233561121017334));
#91=CARTESIAN_POINT('',(-0.0294718621764043,-1.38777878078145E-17,-0.0233561121017334));
#92=CARTESIAN_POINT('',(-0.0234658247271606,-0.05,-0.00791130655102714));
#93=CARTESIAN_POINT('',(-0.0234658247271606,-1.38777878078145E-17,-0.00791130655102714));
#94=CARTESIAN_POINT('',(0.00797018596836626,-0.05,0.00137853178768606));
#95=CARTESIAN_POINT('',(0.00797018596836626,-1.38777878078145E-17,0.00137853178768606));
#96=CARTESIAN_POINT('',(0.0110593290724856,-0.05,-0.0267552063701588));
#97=CARTESIAN_POINT('',(0.0110593290724856,-1.38777878078145E-17,-0.0267552063701588));
#98=CARTESIAN_POINT('',(0.0244893969419675,-0.05,-0.0193327497774008));
#99=CARTESIAN_POINT('',(0.0244893969419675,-1.38777878078145E-17,-0.0193327497774008));
#100=CARTESIAN_POINT('',(0.00324059640193294,-0.05,-0.00412082727002492));
#101=CARTESIAN_POINT('',(0.00324059640193294,-1.38777878078145E-17,-0.00412082727002492));
#102=CARTESIAN_POINT('',(0.0149921638449477,-0.05,0.00221696949266332));
#103=CARTESIAN_POINT('',(0.0149921638449477,-1.38777878078145E-17,0.00221696949266332));
#104=CARTESIAN_POINT('',(0.0353103579823901,-0.05,0.0239676490851061));
#105=CARTESIAN_POINT('',(0.0353103579823901,-1.38777878078145E-17,0.0239676490851061));
#106=CARTESIAN_POINT('',(0.0330747577409996,-0.05,0.0331767696254624));
#107=CARTESIAN_POINT('',(0.0330747577409996,-1.38777878078145E-17,0.0331767696254624));
#108=CARTESIAN_POINT('',(0.0299553626126325,-0.05,0.0294768623536752));
#109=CARTESIAN_POINT('',(0.0299553626126325,-1.38777878078145E-17,0.0294768623536752));
#110=CARTESIAN_POINT('',(0.0272653792053461,-0.05,0.0261168368160725));
#111=CARTESIAN_POINT('',(0.0272653792053461,-1.38777878078145E-17,0.0261168368160725));
#112=CARTESIAN_POINT('',(0.0272653792053461,-0.05,0.0261168368160725));
#113=CARTESIAN_POINT('',(0.0211989496114314,-0.05,0.0185393334372746));
#114=CARTESIAN_POINT('',(0.00135876810063942,-0.05,-0.00722828091457071));
#115=CARTESIAN_POINT('',(-0.0229516327276481,-0.05,0.00275185672261149));
#116=CARTESIAN_POINT('',(-0.0442363674296149,-0.05,-0.0224150519055809));
#117=CARTESIAN_POINT('',(-0.0294718621764043,-0.05,-0.0233561121017334));
#118=CARTESIAN_POINT('',(-0.0234658247271606,-0.05,-0.00791130655102714));
#119=CARTESIAN_POINT('',(0.00797018596836626,-0.05,0.00137853178768606));
#120=CARTESIAN_POINT('',(0.0110593290724856,-0.05,-0.0267552063701588));
#121=CARTESIAN_POINT('',(0.0244893969419675,-0.05,-0.0193327497774008));
#122=CARTESIAN_POINT('',(0.00324059640193294,-0.05,-0.00412082727002492));
#123=CARTESIAN_POINT('',(0.0149921638449477,-0.05,0.00221696949266332));
#124=CARTESIAN_POINT('',(0.0353103579823901,-0.05,0.0239676490851061));
#125=CARTESIAN_POINT('',(0.0330747577409996,-0.05,0.0331767696254624));
#126=CARTESIAN_POINT('',(0.0299553626126325,-0.05,0.0294768623536752));
#127=CARTESIAN_POINT('',(0.0272653792053461,-0.05,0.0261168368160725));
#128=CARTESIAN_POINT('',(0.0272653792053461,-0.05,0.0261168368160725));
#129=CARTESIAN_POINT('',(0.0272653792053461,0.,0.0261168368160725));
#130=CARTESIAN_POINT('',(0.0211989496114314,0.,0.0185393334372746));
#131=CARTESIAN_POINT('',(0.00135876810063942,0.,-0.00722828091457071));
#132=CARTESIAN_POINT('',(-0.0229516327276481,0.,0.00275185672261149));
#133=CARTESIAN_POINT('',(-0.0442363674296149,0.,-0.0224150519055809));
#134=CARTESIAN_POINT('',(-0.0294718621764043,0.,-0.0233561121017334));
#135=CARTESIAN_POINT('',(-0.0234658247271606,0.,-0.00791130655102714));
#136=CARTESIAN_POINT('',(0.00797018596836626,0.,0.00137853178768606));
#137=CARTESIAN_POINT('',(0.0110593290724856,0.,-0.0267552063701588));
#138=CARTESIAN_POINT('',(0.0244893969419675,0.,-0.0193327497774008));
#139=CARTESIAN_POINT('',(0.00324059640193294,0.,-0.00412082727002492));
#140=CARTESIAN_POINT('',(0.0149921638449477,0.,0.00221696949266332));
#141=CARTESIAN_POINT('',(0.0353103579823901,0.,0.0239676490851061));
#142=CARTESIAN_POINT('',(0.0330747577409996,0.,0.0331767696254624));
#143=CARTESIAN_POINT('',(0.0299553626126325,0.,0.0294768623536752));
#144=CARTESIAN_POINT('',(0.0272653792053461,0.,0.0261168368160725));
#145=CARTESIAN_POINT('',(0.0272653792053461,0.,0.0261168368160725));
#146=CARTESIAN_POINT('',(-0.00270822992140559,-0.05,0.00399638100647585));
#147=CARTESIAN_POINT('',(-0.00270822992140559,0.,0.00399638100647585));
#148=MECHANICAL_DESIGN_GEOMETRIC_PRESENTATION_REPRESENTATION('',(#40,#33,
#34,#35),#149);
#149=(
GEOMETRIC_REPRESENTATION_CONTEXT(3)
GLOBAL_UNCERTAINTY_ASSIGNED_CONTEXT((#150))
GLOBAL_UNIT_ASSIGNED_CONTEXT((#153,#152,#151))
REPRESENTATION_CONTEXT('Part 1','TOP_LEVEL_ASSEMBLY_PART')
);
#150=UNCERTAINTY_MEASURE_WITH_UNIT(LENGTH_MEASURE(2.E-5),#153,
'DISTANCE_ACCURACY_VALUE','Maximum Tolerance applied to model');
#151=(
NAMED_UNIT(*)
SI_UNIT($,.STERADIAN.)
SOLID_ANGLE_UNIT()
);
#152=(
NAMED_UNIT(*)
PLANE_ANGLE_UNIT()
SI_UNIT($,.RADIAN.)
);
#153=(
LENGTH_UNIT()
NAMED_UNIT(*)
SI_UNIT($,.METRE.)
);
#154=PRODUCT_DEFINITION_SHAPE('','',#155);
#155=PRODUCT_DEFINITION('','',#157,#156);
#156=PRODUCT_DEFINITION_CONTEXT('',#163,'design');
#157=PRODUCT_DEFINITION_FORMATION_WITH_SPECIFIED_SOURCE('','',#159,
 .NOT_KNOWN.);
#158=PRODUCT_RELATED_PRODUCT_CATEGORY('','',(#159));
#159=PRODUCT('Part 1','Part 1','Part 1',(#161));
#160=PRODUCT_CATEGORY('','');
#161=PRODUCT_CONTEXT('',#163,'mechanical');
#162=APPLICATION_PROTOCOL_DEFINITION('international standard',
'ap242_managed_model_based_3d_engineering',2020,#163);
#163=APPLICATION_CONTEXT('managed model based 3d engineering');
ENDSEC;
END-ISO-10303-21;
