ISO-10303-21;
HEADER;
/* Generated by software containing ST-Developer
 * from STEP Tools, Inc. (www.steptools.com) 
 */
/* OPTION: using custom renumber hook */

FILE_DESCRIPTION(
/* description */ ('STEP AP242 Edition 2',
'CAx-IF Rec.Pracs.---Representation and Presentation of Product Manufa
cturing Information (PMI)---4.0---2014-10-13',
'CAx-IF Rec.Pracs.---3D Tessellated Geometry---0.4---2014-09-14','2;1',
'CAx-IF Rec.Pracs.---User Defined Attributes---1.5---2016-08-15'),
/* implementation_level */ '2;1');

FILE_NAME(
/* name */ 'chair_roof',
/* time_stamp */ '2026-09-13T22:01:01Z',
/* author */ (''),
/* organization */ (''),
/* preprocessor_version */ 'ST-DEVELOPER v20',
/* originating_system */ 'ONSHAPE BY PTC INC, 1.220',
/* authorisation */ '  ');

FILE_SCHEMA (('AP242_MANAGED_MODEL_BASED_3D_ENGINEERING_MIM_LF { 1 0 10303 442 3 1 4 }'));
ENDSEC;

DATA;
#10=SHAPE_REPRESENTATION_RELATIONSHIP('','',#69,#11);
#11=ADVANCED_BREP_SHAPE_REPRESENTATION('',(#67),#285);
#12=PLANE('',#71);
#13=PLANE('',#72);
#14=LINE('',#227,#16);
#15=LINE('',#257,#17);
#16=VECTOR('',#75,1.);
#17=VECTOR('',#76,1.);
#18=ORIENTED_EDGE('',*,*,#30,.T.);
#19=ORIENTED_EDGE('',*,*,#31,.F.);
#20=ORIENTED_EDGE('',*,*,#32,.F.);
#21=ORIENTED_EDGE('',*,*,#33,.T.);
#22=ORIENTED_EDGE('',*,*,#34,.T.);
#23=ORIENTED_EDGE('',*,*,#33,.F.);
#24=ORIENTED_EDGE('',*,*,#35,.F.);
#25=ORIENTED_EDGE('',*,*,#31,.T.);
#26=ORIENTED_EDGE('',*,*,#32,.T.);
#27=ORIENTED_EDGE('',*,*,#35,.T.);
#28=ORIENTED_EDGE('',*,*,#30,.F.);
#29=ORIENTED_EDGE('',*,*,#34,.F.);
#30=EDGE_CURVE('',#36,#37,#40,.T.);
#31=EDGE_CURVE('',#38,#37,#14,.T.);
#32=EDGE_CURVE('',#39,#38,#41,.T.);
#33=EDGE_CURVE('',#39,#36,#15,.T.);
#34=EDGE_CURVE('',#37,#36,#42,.T.);
#35=EDGE_CURVE('',#38,#39,#43,.T.);
#36=VERTEX_POINT('',#225);
#37=VERTEX_POINT('',#226);
#38=VERTEX_POINT('',#228);
#39=VERTEX_POINT('',#256);
#40=B_SPLINE_CURVE_WITH_KNOTS('',3,(#198,#199,#200,#201,#202,#203,#204,
#205,#206,#207,#208,#209,#210,#211,#212,#213,#214,#215,#216,#217,#218,#219,
#220,#221,#222,#223,#224),.UNSPECIFIED.,.F.,.F.,(4,1,1,1,1,1,3,1,1,1,1,
1,1,1,1,1,1,1,1,1,1,1,4),(0.732786467371282,0.764944250369887,0.817329775310243,
0.855325469131223,0.916835143020456,0.974460606179513,1.,1.01888913155946,
1.06676385119415,1.1196907349567,1.16844479401439,1.21099382196702,1.26824885636153,
1.31784330223635,1.37071956410472,1.39910686754286,1.43758508417906,1.47990580894025,
1.5286070661526,1.57281156286161,1.6158811799314,1.66478550428754,1.69350385152316),
 .UNSPECIFIED.);
#41=B_SPLINE_CURVE_WITH_KNOTS('',3,(#229,#230,#231,#232,#233,#234,#235,
#236,#237,#238,#239,#240,#241,#242,#243,#244,#245,#246,#247,#248,#249,#250,
#251,#252,#253,#254,#255),.UNSPECIFIED.,.F.,.F.,(4,1,1,1,1,1,3,1,1,1,1,
1,1,1,1,1,1,1,1,1,1,1,4),(0.732786467371282,0.764944250369887,0.817329775310243,
0.855325469131223,0.916835143020456,0.974460606179513,1.,1.01888913155946,
1.06676385119415,1.1196907349567,1.16844479401439,1.21099382196702,1.26824885636153,
1.31784330223635,1.37071956410472,1.39910686754286,1.43758508417906,1.47990580894025,
1.5286070661526,1.57281156286161,1.6158811799314,1.66478550428754,1.69350385152316),
 .UNSPECIFIED.);
#42=B_SPLINE_CURVE_WITH_KNOTS('',3,(#270,#271,#272,#273,#274,#275),
 .UNSPECIFIED.,.F.,.F.,(4,1,1,4),(0.69350385152316,0.701677129490414,0.73081899999886,
0.732786467371282),.UNSPECIFIED.);
#43=B_SPLINE_CURVE_WITH_KNOTS('',3,(#276,#277,#278,#279,#280,#281),
 .UNSPECIFIED.,.F.,.F.,(4,1,1,4),(0.69350385152316,0.701677129490414,0.73081899999886,
0.732786467371282),.UNSPECIFIED.);
#44=EDGE_LOOP('',(#18,#19,#20,#21));
#45=EDGE_LOOP('',(#22,#23,#24,#25));
#46=EDGE_LOOP('',(#26,#27));
#47=EDGE_LOOP('',(#28,#29));
#48=FACE_BOUND('',#44,.T.);
#49=FACE_BOUND('',#45,.T.);
#50=FACE_BOUND('',#46,.T.);
#51=FACE_BOUND('',#47,.T.);
#52=B_SPLINE_SURFACE_WITH_KNOTS('',3,1,((#82,#83),(#84,#85),(#86,#87),(#88,
#89),(#90,#91),(#92,#93),(#94,#95),(#96,#97),(#98,#99),(#100,#101),(#102,
#103),(#104,#105),(#106,#107),(#108,#109),(#110,#111),(#112,#113),(#114,
#115),(#116,#117),(#118,#119),(#120,#121),(#122,#123),(#124,#125),(#126,
#127),(#128,#129),(#130,#131),(#132,#133),(#134,#135),(#136,#137),(#138,
#139),(#140,#141),(#142,#143),(#144,#145),(#146,#147),(#148,#149),(#150,
#151),(#152,#153),(#154,#155),(#156,#157),(#158,#159),(#160,#161),(#162,
#163),(#164,#165),(#166,#167),(#168,#169),(#170,#171),(#172,#173),(#174,
#175),(#176,#177),(#178,#179),(#180,#181),(#182,#183),(#184,#185),(#186,
#187),(#188,#189),(#190,#191),(#192,#193),(#194,#195),(#196,#197)),
 .SURF_OF_LINEAR_EXTRUSION.,.F.,.F.,.F.,(4,1,1,1,1,1,1,1,1,1,1,1,1,1,1,
1,1,1,1,1,1,1,1,1,1,1,1,1,1,1,1,1,1,1,1,1,1,1,1,1,1,1,1,1,1,1,1,1,1,1,1,
1,1,1,1,4),(2,2),(0.732786467371282,0.747797676498655,0.762808885626028,
0.777820094753401,0.792831303880774,0.807842513008147,0.815348117571834,
0.822853722135521,0.837864931262894,0.852876140390267,0.882898558645013,
0.912920976899759,0.942943395154505,0.972965813409252,0.987977022536625,
1.002988231664,1.01799944079137,1.03301064991874,1.06303306817349,1.07804427730086,
1.09305548642824,1.12307790468298,1.15310032293773,1.1681115320651,1.18312274119247,
1.19813395031985,1.21314515944722,1.24316757770197,1.25817878682934,1.27318999595671,
1.28820120508409,1.30321241421146,1.31822362333883,1.33323483246621,1.34824604159358,
1.36325725072095,1.37826845984833,1.3932796689757,1.40829087810307,1.42330208723044,
1.43831329635782,1.45332450548519,1.46833571461256,1.48334692373994,1.49835813286731,
1.51336934199468,1.52838055112206,1.54339176024943,1.57341417850418,1.58842538763155,
1.60343659675892,1.61844780588629,1.63345901501367,1.64847022414104,1.66348143326841,
1.69350385152316),(0.,1.),.UNSPECIFIED.);
#53=B_SPLINE_SURFACE_WITH_KNOTS('',3,1,((#258,#259),(#260,#261),(#262,#263),
(#264,#265),(#266,#267),(#268,#269)),.SURF_OF_LINEAR_EXTRUSION.,.F.,.F.,
 .F.,(4,1,1,4),(2,2),(0.69350385152316,0.70332450548519,0.713145159447221,
0.732786467371282),(0.,1.),.UNSPECIFIED.);
#54=ADVANCED_FACE('',(#48),#52,.F.);
#55=ADVANCED_FACE('',(#49),#53,.F.);
#56=ADVANCED_FACE('',(#50),#12,.T.);
#57=ADVANCED_FACE('',(#51),#13,.F.);
#58=CLOSED_SHELL('',(#54,#55,#56,#57));
#59=STYLED_ITEM('',(#60),#67);
#60=PRESENTATION_STYLE_ASSIGNMENT((#61));
#61=SURFACE_STYLE_USAGE(.BOTH.,#62);
#62=SURFACE_SIDE_STYLE('',(#63));
#63=SURFACE_STYLE_FILL_AREA(#64);
#64=FILL_AREA_STYLE('',(#65));
#65=FILL_AREA_STYLE_COLOUR('',#66);
#66=COLOUR_RGB('',0.615686274509804,0.811764705882353,0.929411764705882);
#67=MANIFOLD_SOLID_BREP('Part 1',#58);
#68=SHAPE_DEFINITION_REPRESENTATION(#290,#69);
#69=SHAPE_REPRESENTATION('Part 1',(#70),#285);
#70=AXIS2_PLACEMENT_3D('',#81,#73,#74);
#71=AXIS2_PLACEMENT_3D('',#282,#77,#78);
#72=AXIS2_PLACEMENT_3D('',#283,#79,#80);
#73=DIRECTION('',(0.,0.,1.));
#74=DIRECTION('',(1.,0.,0.));
#75=DIRECTION('',(-1.,0.,0.));
#76=DIRECTION('',(-1.,0.,0.));
#77=DIRECTION('',(1.,0.,0.));
#78=DIRECTION('',(0.,1.,0.));
#79=DIRECTION('',(1.,0.,0.));
#80=DIRECTION('',(0.,1.,0.));
#81=CARTESIAN_POINT('',(0.,0.,0.));
#82=CARTESIAN_POINT('',(0.03,-0.00385986547725374,0.00358722737825284));
#83=CARTESIAN_POINT('',(2.08166817117217E-17,-0.00385986547725374,0.00358722737825284));
#84=CARTESIAN_POINT('',(0.03,-0.00350411874562958,0.00398782656735693));
#85=CARTESIAN_POINT('',(2.08166817117217E-17,-0.00350411874562958,0.00398782656735693));
#86=CARTESIAN_POINT('',(0.03,-0.00312186203258178,0.00513266469801472));
#87=CARTESIAN_POINT('',(1.73472347597681E-17,-0.00312186203258178,0.00513266469801472));
#88=CARTESIAN_POINT('',(0.03,-0.00364108044342498,0.00739928360349743));
#89=CARTESIAN_POINT('',(2.08166817117217E-17,-0.00364108044342498,0.00739928360349743));
#90=CARTESIAN_POINT('',(0.03,-0.00544439018721907,0.0096899999961224));
#91=CARTESIAN_POINT('',(1.38777878078145E-17,-0.00544439018721907,0.0096899999961224));
#92=CARTESIAN_POINT('',(0.03,-0.00783789446493015,0.0119252556159533));
#93=CARTESIAN_POINT('',(2.77555756156289E-17,-0.00783789446493015,0.0119252556159533));
#94=CARTESIAN_POINT('',(0.03,-0.00963617226895351,0.013728808432719));
#95=CARTESIAN_POINT('',(6.93889390390723E-18,-0.00963617226895351,0.013728808432719));
#96=CARTESIAN_POINT('',(0.03,-0.0105682864095674,0.0151204692959871));
#97=CARTESIAN_POINT('',(2.42861286636753E-17,-0.0105682864095674,0.0151204692959871));
#98=CARTESIAN_POINT('',(0.03,-0.0110104859319904,0.0164717378629641));
#99=CARTESIAN_POINT('',(1.38777878078145E-17,-0.0110104859319904,0.0164717378629641));
#100=CARTESIAN_POINT('',(0.03,-0.0106846372669388,0.0181051781920726));
#101=CARTESIAN_POINT('',(2.77555756156289E-17,-0.0106846372669388,0.0181051781920726));
#102=CARTESIAN_POINT('',(0.03,-0.00880694225609824,0.0207169486108002));
#103=CARTESIAN_POINT('',(1.04083408558608E-17,-0.00880694225609824,0.0207169486108002));
#104=CARTESIAN_POINT('',(0.03,-0.00488711074852916,0.0242203071117524));
#105=CARTESIAN_POINT('',(3.12250225675825E-17,-0.00488711074852916,0.0242203071117524));
#106=CARTESIAN_POINT('',(0.03,0.000675117009178588,0.0291032071371962));
#107=CARTESIAN_POINT('',(1.04083408558608E-17,0.000675117009178588,0.0291032071371962));
#108=CARTESIAN_POINT('',(0.03,0.00549771413108066,0.0351272377267412));
#109=CARTESIAN_POINT('',(2.08166817117217E-17,0.00549771413108066,0.0351272377267412));
#110=CARTESIAN_POINT('',(0.03,0.00770905640307804,0.0397273957948086));
#111=CARTESIAN_POINT('',(1.04083408558608E-17,0.00770905640307804,0.0397273957948086));
#112=CARTESIAN_POINT('',(0.03,0.00764013933782835,0.0422181220929545));
#113=CARTESIAN_POINT('',(2.77555756156289E-17,0.00764013933782835,0.0422181220929545));
#114=CARTESIAN_POINT('',(0.03,0.00696745740050641,0.0430958856391211));
#115=CARTESIAN_POINT('',(2.77555756156289E-17,0.00696745740050641,0.0430958856391211));
#116=CARTESIAN_POINT('',(0.03,0.00595381796295933,0.0426834344611413));
#117=CARTESIAN_POINT('',(2.42861286636753E-17,0.00595381796295933,0.0426834344611413));
#118=CARTESIAN_POINT('',(0.03,0.00400541324801923,0.0407470790558322));
#119=CARTESIAN_POINT('',(1.38777878078145E-17,0.00400541324801923,0.0407470790558322));
#120=CARTESIAN_POINT('',(0.03,0.00145151953513671,0.0374109491360698));
#121=CARTESIAN_POINT('',(1.73472347597681E-17,0.00145151953513671,0.0374109491360698));
#122=CARTESIAN_POINT('',(0.03,-0.00109224043082023,0.0342097335930732));
#123=CARTESIAN_POINT('',(2.77555756156289E-17,-0.00109224043082023,0.0342097335930732));
#124=CARTESIAN_POINT('',(0.03,-0.00361092530076715,0.0312023644236711));
#125=CARTESIAN_POINT('',(6.93889390390723E-18,-0.00361092530076715,0.0312023644236711));
#126=CARTESIAN_POINT('',(0.03,-0.00682918218894943,0.027707959612602));
#127=CARTESIAN_POINT('',(2.08166817117217E-17,-0.00682918218894943,0.027707959612602));
#128=CARTESIAN_POINT('',(0.03,-0.0102849146735085,0.0245213356665147));
#129=CARTESIAN_POINT('',(2.77555756156289E-17,-0.0102849146735085,0.0245213356665147));
#130=CARTESIAN_POINT('',(0.03,-0.0129195704523601,0.0223666247963416));
#131=CARTESIAN_POINT('',(1.04083408558608E-17,-0.0129195704523601,0.0223666247963416));
#132=CARTESIAN_POINT('',(0.03,-0.0147685005543812,0.0209954848975935));
#133=CARTESIAN_POINT('',(1.73472347597681E-17,-0.0147685005543812,0.0209954848975935));
#134=CARTESIAN_POINT('',(0.03,-0.0167506599418079,0.0199181608277526));
#135=CARTESIAN_POINT('',(2.42861286636753E-17,-0.0167506599418079,0.0199181608277526));
#136=CARTESIAN_POINT('',(0.03,-0.0199626983178082,0.0189524172589296));
#137=CARTESIAN_POINT('',(2.42861286636753E-17,-0.0199626983178082,0.0189524172589296));
#138=CARTESIAN_POINT('',(0.03,-0.0244155255737527,0.0187279010047601));
#139=CARTESIAN_POINT('',(1.38777878078145E-17,-0.0244155255737527,0.0187279010047601));
#140=CARTESIAN_POINT('',(0.03,-0.0288798677114978,0.0184505785515152));
#141=CARTESIAN_POINT('',(2.42861286636753E-17,-0.0288798677114978,0.0184505785515152));
#142=CARTESIAN_POINT('',(0.03,-0.0319153022779465,0.01801744246612));
#143=CARTESIAN_POINT('',(1.04083408558608E-17,-0.0319153022779465,0.01801744246612));
#144=CARTESIAN_POINT('',(0.03,-0.0344850592127617,0.0172085304865355));
#145=CARTESIAN_POINT('',(1.73472347597681E-17,-0.0344850592127617,0.0172085304865355));
#146=CARTESIAN_POINT('',(0.03,-0.0368308658253257,0.0159930518058623));
#147=CARTESIAN_POINT('',(1.38777878078145E-17,-0.0368308658253257,0.0159930518058623));
#148=CARTESIAN_POINT('',(0.03,-0.0391306990534951,0.0143182773890883));
#149=CARTESIAN_POINT('',(1.73472347597681E-17,-0.0391306990534951,0.0143182773890883));
#150=CARTESIAN_POINT('',(0.03,-0.0415696862396957,0.0121435435109137));
#151=CARTESIAN_POINT('',(2.42861286636753E-17,-0.0415696862396957,0.0121435435109137));
#152=CARTESIAN_POINT('',(0.03,-0.0437602066975013,0.00972761979193495));
#153=CARTESIAN_POINT('',(1.04083408558608E-17,-0.0437602066975013,0.00972761979193495));
#154=CARTESIAN_POINT('',(0.03,-0.0453447373087712,0.00732720107292092));
#155=CARTESIAN_POINT('',(1.73472347597681E-17,-0.0453447373087712,0.00732720107292092));
#156=CARTESIAN_POINT('',(0.03,-0.0458959297280636,0.00518767248933859));
#157=CARTESIAN_POINT('',(1.73472347597681E-17,-0.0458959297280636,0.00518767248933859));
#158=CARTESIAN_POINT('',(0.03,-0.0452967506200372,0.00362128546873075));
#159=CARTESIAN_POINT('',(1.38777878078145E-17,-0.0452967506200372,0.00362128546873075));
#160=CARTESIAN_POINT('',(0.03,-0.043645447575184,0.00312781595963888));
#161=CARTESIAN_POINT('',(1.73472347597681E-17,-0.043645447575184,0.00312781595963888));
#162=CARTESIAN_POINT('',(0.03,-0.0413660040747552,0.00366997354323173));
#163=CARTESIAN_POINT('',(1.38777878078145E-17,-0.0413660040747552,0.00366997354323173));
#164=CARTESIAN_POINT('',(0.03,-0.0391495712911691,0.00489799715811041));
#165=CARTESIAN_POINT('',(2.08166817117217E-17,-0.0391495712911691,0.00489799715811041));
#166=CARTESIAN_POINT('',(0.03,-0.0375810252681092,0.00653866852908635));
#167=CARTESIAN_POINT('',(1.38777878078145E-17,-0.0375810252681092,0.00653866852908635));
#168=CARTESIAN_POINT('',(0.03,-0.0362383601522961,0.00840847730360354));
#169=CARTESIAN_POINT('',(2.42861286636753E-17,-0.0362383601522961,0.00840847730360354));
#170=CARTESIAN_POINT('',(0.03,-0.0346968915304457,0.0103188835771567));
#171=CARTESIAN_POINT('',(1.38777878078145E-17,-0.0346968915304457,0.0103188835771567));
#172=CARTESIAN_POINT('',(0.03,-0.0326625623301237,0.0121059918137723));
#173=CARTESIAN_POINT('',(3.46944695195361E-17,-0.0326625623301237,0.0121059918137723));
#174=CARTESIAN_POINT('',(0.03,-0.0303598838608732,0.0136982453105267));
#175=CARTESIAN_POINT('',(1.38777878078145E-17,-0.0303598838608732,0.0136982453105267));
#176=CARTESIAN_POINT('',(0.03,-0.0279440408429637,0.0150123828147558));
#177=CARTESIAN_POINT('',(2.08166817117217E-17,-0.0279440408429637,0.0150123828147558));
#178=CARTESIAN_POINT('',(0.03,-0.024807670431251,0.0162847634220422));
#179=CARTESIAN_POINT('',(2.08166817117217E-17,-0.024807670431251,0.0162847634220422));
#180=CARTESIAN_POINT('',(0.03,-0.0216944675678145,0.0168681770089265));
#181=CARTESIAN_POINT('',(1.38777878078145E-17,-0.0216944675678145,0.0168681770089265));
#182=CARTESIAN_POINT('',(0.03,-0.0184081427624469,0.0168116472755105));
#183=CARTESIAN_POINT('',(2.42861286636753E-17,-0.0184081427624469,0.0168116472755105));
#184=CARTESIAN_POINT('',(0.03,-0.0160349591093407,0.0162566108705328));
#185=CARTESIAN_POINT('',(1.38777878078145E-17,-0.0160349591093407,0.0162566108705328));
#186=CARTESIAN_POINT('',(0.03,-0.0139326495712969,0.0149800884700089));
#187=CARTESIAN_POINT('',(2.08166817117217E-17,-0.0139326495712969,0.0149800884700089));
#188=CARTESIAN_POINT('',(0.03,-0.0122420404239521,0.0128677708593803));
#189=CARTESIAN_POINT('',(2.08166817117217E-17,-0.0122420404239521,0.0128677708593803));
#190=CARTESIAN_POINT('',(0.03,-0.0108829005812103,0.0103385675052608));
#191=CARTESIAN_POINT('',(1.73472347597681E-17,-0.0108829005812103,0.0103385675052608));
#192=CARTESIAN_POINT('',(0.03,-0.0094290811377249,0.00688933553138035));
#193=CARTESIAN_POINT('',(1.73472347597681E-17,-0.0094290811377249,0.00688933553138035));
#194=CARTESIAN_POINT('',(0.03,-0.00867272046688246,0.00479571190126772));
#195=CARTESIAN_POINT('',(2.08166817117217E-17,-0.00867272046688246,0.00479571190126772));
#196=CARTESIAN_POINT('',(0.03,-0.00786817641652755,0.00391547183535335));
#197=CARTESIAN_POINT('',(2.08166817117217E-17,-0.00786817641652755,0.00391547183535335));
#198=CARTESIAN_POINT('',(0.,-0.00385986547725374,0.00358722737825284));
#199=CARTESIAN_POINT('',(0.,-0.0030977665616393,0.00444541153139579));
#200=CARTESIAN_POINT('',(0.,-0.00306583706507923,0.00878195353000125));
#201=CARTESIAN_POINT('',(0.,-0.0126097891492108,0.0149106348437096));
#202=CARTESIAN_POINT('',(0.,-0.00893615101684593,0.0212854195840729));
#203=CARTESIAN_POINT('',(0.,0.00161817586666849,0.0290677856064867));
#204=CARTESIAN_POINT('',(0.,0.00834540397606531,0.0396443721186173));
#205=CARTESIAN_POINT('',(0.,0.00750186963246521,0.0425436592306282));
#206=CARTESIAN_POINT('',(0.,0.00706957246992261,0.0428119568771145));
#207=CARTESIAN_POINT('',(0.,0.00674984217274155,0.0430103918743269));
#208=CARTESIAN_POINT('',(0.,0.00528477600002888,0.0425090528099223));
#209=CARTESIAN_POINT('',(0.,6.49627735093735E-5,0.0354864450666612));
#210=CARTESIAN_POINT('',(0.,-0.00609335558982983,0.0282482987079185));
#211=CARTESIAN_POINT('',(0.,-0.0128722273272345,0.0222020045560526));
#212=CARTESIAN_POINT('',(0.,-0.0185818597809577,0.0184420115553462));
#213=CARTESIAN_POINT('',(0.,-0.0314172728713547,0.0189575536005509));
#214=CARTESIAN_POINT('',(0.,-0.0389944734213531,0.0151200827990502));
#215=CARTESIAN_POINT('',(0.,-0.0465927699187246,0.00698594629572316));
#216=CARTESIAN_POINT('',(0.,-0.0450687293128536,0.00239010469045331));
#217=CARTESIAN_POINT('',(0.,-0.0384049788069485,0.00451126311470363));
#218=CARTESIAN_POINT('',(0.,-0.0355213221451888,0.010285368487528));
#219=CARTESIAN_POINT('',(0.,-0.0280558243102601,0.0154301900728584));
#220=CARTESIAN_POINT('',(0.,-0.0211406879393894,0.0172384419350347));
#221=CARTESIAN_POINT('',(0.,-0.0134409696888102,0.0162644983837547));
#222=CARTESIAN_POINT('',(0.,-0.0099666080217713,0.00830403518938159));
#223=CARTESIAN_POINT('',(0.,-0.008637773828981,0.00475747728771698));
#224=CARTESIAN_POINT('',(0.,-0.00786817641652755,0.00391547183535335));
#225=CARTESIAN_POINT('',(0.,-0.00385986547725374,0.00358722737825284));
#226=CARTESIAN_POINT('',(0.,-0.00786817641652755,0.00391547183535335));
#227=CARTESIAN_POINT('',(0.03,-0.00786817641652755,0.00391547183535335));
#228=CARTESIAN_POINT('',(0.03,-0.00786817641652755,0.00391547183535335));
#229=CARTESIAN_POINT('',(0.03,-0.00385986547725374,0.00358722737825284));
#230=CARTESIAN_POINT('',(0.03,-0.0030977665616393,0.00444541153139579));
#231=CARTESIAN_POINT('',(0.03,-0.00306583706507923,0.00878195353000125));
#232=CARTESIAN_POINT('',(0.03,-0.0126097891492108,0.0149106348437096));
#233=CARTESIAN_POINT('',(0.03,-0.00893615101684593,0.0212854195840729));
#234=CARTESIAN_POINT('',(0.03,0.00161817586666849,0.0290677856064867));
#235=CARTESIAN_POINT('',(0.03,0.00834540397606531,0.0396443721186173));
#236=CARTESIAN_POINT('',(0.03,0.00750186963246521,0.0425436592306282));
#237=CARTESIAN_POINT('',(0.03,0.00706957246992261,0.0428119568771145));
#238=CARTESIAN_POINT('',(0.03,0.00674984217274155,0.0430103918743269));
#239=CARTESIAN_POINT('',(0.03,0.00528477600002888,0.0425090528099223));
#240=CARTESIAN_POINT('',(0.03,6.49627735093735E-5,0.0354864450666612));
#241=CARTESIAN_POINT('',(0.03,-0.00609335558982983,0.0282482987079185));
#242=CARTESIAN_POINT('',(0.03,-0.0128722273272345,0.0222020045560526));
#243=CARTESIAN_POINT('',(0.03,-0.0185818597809577,0.0184420115553462));
#244=CARTESIAN_POINT('',(0.03,-0.0314172728713547,0.0189575536005509));
#245=CARTESIAN_POINT('',(0.03,-0.0389944734213531,0.0151200827990502));
#246=CARTESIAN_POINT('',(0.03,-0.0465927699187246,0.00698594629572316));
#247=CARTESIAN_POINT('',(0.03,-0.0450687293128536,0.00239010469045331));
#248=CARTESIAN_POINT('',(0.03,-0.0384049788069485,0.00451126311470363));
#249=CARTESIAN_POINT('',(0.03,-0.0355213221451888,0.010285368487528));
#250=CARTESIAN_POINT('',(0.03,-0.0280558243102601,0.0154301900728584));
#251=CARTESIAN_POINT('',(0.03,-0.0211406879393894,0.0172384419350347));
#252=CARTESIAN_POINT('',(0.03,-0.0134409696888102,0.0162644983837547));
#253=CARTESIAN_POINT('',(0.03,-0.0099666080217713,0.00830403518938159));
#254=CARTESIAN_POINT('',(0.03,-0.008637773828981,0.00475747728771698));
#255=CARTESIAN_POINT('',(0.03,-0.00786817641652755,0.00391547183535335));
#256=CARTESIAN_POINT('',(0.03,-0.00385986547725374,0.00358722737825284));
#257=CARTESIAN_POINT('',(0.03,-0.00385986547725374,0.00358722737825284));
#258=CARTESIAN_POINT('',(0.03,-0.00786817641652756,0.00391547183535336));
#259=CARTESIAN_POINT('',(0.,-0.00786817641652756,0.00391547183535336));
#260=CARTESIAN_POINT('',(0.03,-0.00760500145677902,0.00362753589969654));
#261=CARTESIAN_POINT('',(3.46944695195361E-18,-0.00760500145677902,0.00362753589969654));
#262=CARTESIAN_POINT('',(0.03,-0.00700771964040758,0.00316227696624445));
#263=CARTESIAN_POINT('',(1.38777878078145E-17,-0.00700771964040758,0.00316227696624445));
#264=CARTESIAN_POINT('',(0.03,-0.00547397291508376,0.00274761015289404));
#265=CARTESIAN_POINT('',(-1.04083408558608E-17,-0.00547397291508376,0.00274761015289404));
#266=CARTESIAN_POINT('',(0.03,-0.00432533971317457,0.00306306626900689));
#267=CARTESIAN_POINT('',(0.,-0.00432533971317457,0.00306306626900689));
#268=CARTESIAN_POINT('',(0.03,-0.00385986547725374,0.00358722737825284));
#269=CARTESIAN_POINT('',(0.,-0.00385986547725374,0.00358722737825284));
#270=CARTESIAN_POINT('',(0.,-0.00786817641652756,0.00391547183535336));
#271=CARTESIAN_POINT('',(0.,-0.00764914801899292,0.00367583601802557));
#272=CARTESIAN_POINT('',(0.,-0.00654638263678247,0.00275562877455516));
#273=CARTESIAN_POINT('',(0.,-0.00468813155913767,0.00275135274137937));
#274=CARTESIAN_POINT('',(0.,-0.00390649197358576,0.00353472222511737));
#275=CARTESIAN_POINT('',(0.,-0.00385986547725374,0.00358722737825284));
#276=CARTESIAN_POINT('',(0.03,-0.00786817641652756,0.00391547183535336));
#277=CARTESIAN_POINT('',(0.03,-0.00764914801899292,0.00367583601802557));
#278=CARTESIAN_POINT('',(0.03,-0.00654638263678247,0.00275562877455516));
#279=CARTESIAN_POINT('',(0.03,-0.00468813155913767,0.00275135274137937));
#280=CARTESIAN_POINT('',(0.03,-0.00390649197358576,0.00353472222511737));
#281=CARTESIAN_POINT('',(0.03,-0.00385986547725374,0.00358722737825284));
#282=CARTESIAN_POINT('',(0.03,-0.0191236829713297,0.0227961377163758));
#283=CARTESIAN_POINT('',(0.,-0.0191236829713297,0.0227961377163758));
#284=MECHANICAL_DESIGN_GEOMETRIC_PRESENTATION_REPRESENTATION('',(#59),#285);
#285=(
GEOMETRIC_REPRESENTATION_CONTEXT(3)
GLOBAL_UNCERTAINTY_ASSIGNED_CONTEXT((#286))
GLOBAL_UNIT_ASSIGNED_CONTEXT((#289,#288,#287))
REPRESENTATION_CONTEXT('Part 1','TOP_LEVEL_ASSEMBLY_PART')
);
#286=UNCERTAINTY_MEASURE_WITH_UNIT(LENGTH_MEASURE(2.E-5),#289,
'DISTANCE_ACCURACY_VALUE','Maximum Tolerance applied to model');
#287=(
NAMED_UNIT(*)
SI_UNIT($,.STERADIAN.)
SOLID_ANGLE_UNIT()
);
#288=(
NAMED_UNIT(*)
PLANE_ANGLE_UNIT()
SI_UNIT($,.RADIAN.)
);
#289=(
LENGTH_UNIT()
NAMED_UNIT(*)
SI_UNIT($,.METRE.)
);
#290=PRODUCT_DEFINITION_SHAPE('','',#291);
#291=PRODUCT_DEFINITION('','',#293,#292);
#292=PRODUCT_DEFINITION_CONTEXT('',#299,'design');
#293=PRODUCT_DEFINITION_FORMATION_WITH_SPECIFIED_SOURCE('','',#295,
 .NOT_KNOWN.);
#294=PRODUCT_RELATED_PRODUCT_CATEGORY('','',(#295));
#295=PRODUCT('Part 1','Part 1','Part 1',(#297));
#296=PRODUCT_CATEGORY('','');
#297=PRODUCT_CONTEXT('',#299,'mechanical');
#298=APPLICATION_PROTOCOL_DEFINITION('international standard',
'ap242_managed_model_based_3d_engineering',2020,#299);
#299=APPLICATION_CONTEXT('managed model based 3d engineering');
ENDSEC;
END-ISO-10303-21;
