ISO-10303-21;
HEADER;
/* Generated by software containing ST-Developer
 * from STEP Tools, Inc. (www.steptools.com) 
 */
/* OPTION: using custom renumber hook */

FILE_DESCRIPTION(
/* description */ ('STEP AP242 Edition 2',
'CAx-IF Rec.Pracs.---Representation and Presentation of Product Manufa
cturing Information (PMI)---4.0---2014-10-13',
'CAx-IF Rec.Pracs.---3D Tessellated Geometry---0.4---2014-09-14','2;1',
'CAx-IF Rec.Pracs.---User Defined Attributes---1.5---2016-08-15'),
/* implementation_level */ '2;1');

FILE_NAME(
/* name */ 'dish shelf',
/* time_stamp */ '2026-09-05T01:47:30Z',
/* author */ (''),
/* organization */ (''),
/* preprocessor_version */ 'ST-DEVELOPER v20',
/* originating_system */ 'ONSHAPE BY PTC INC, 1.220',
/* authorisation */ '  ');

FILE_SCHEMA (('AP242_MANAGED_MODEL_BASED_3D_ENGINEERING_MIM_LF { 1 0 10303 442 3 1 4 }'));
ENDSEC;

DATA;
#10=SHAPE_REPRESENTATION_RELATIONSHIP('','',#655,#11);
#11=ADVANCED_BREP_SHAPE_REPRESENTATION('',(#653),#1029);
#12=ORIENTED_EDGE('',*,*,#180,.F.);
#13=ORIENTED_EDGE('',*,*,#181,.T.);
#14=ORIENTED_EDGE('',*,*,#182,.T.);
#15=ORIENTED_EDGE('',*,*,#183,.F.);
#16=ORIENTED_EDGE('',*,*,#184,.T.);
#17=ORIENTED_EDGE('',*,*,#185,.T.);
#18=ORIENTED_EDGE('',*,*,#186,.F.);
#19=ORIENTED_EDGE('',*,*,#187,.F.);
#20=ORIENTED_EDGE('',*,*,#188,.F.);
#21=ORIENTED_EDGE('',*,*,#189,.T.);
#22=ORIENTED_EDGE('',*,*,#190,.T.);
#23=ORIENTED_EDGE('',*,*,#191,.F.);
#24=ORIENTED_EDGE('',*,*,#192,.F.);
#25=ORIENTED_EDGE('',*,*,#193,.T.);
#26=ORIENTED_EDGE('',*,*,#194,.T.);
#27=ORIENTED_EDGE('',*,*,#195,.F.);
#28=ORIENTED_EDGE('',*,*,#196,.F.);
#29=ORIENTED_EDGE('',*,*,#197,.T.);
#30=ORIENTED_EDGE('',*,*,#198,.T.);
#31=ORIENTED_EDGE('',*,*,#199,.F.);
#32=ORIENTED_EDGE('',*,*,#200,.F.);
#33=ORIENTED_EDGE('',*,*,#201,.T.);
#34=ORIENTED_EDGE('',*,*,#202,.T.);
#35=ORIENTED_EDGE('',*,*,#203,.F.);
#36=ORIENTED_EDGE('',*,*,#204,.F.);
#37=ORIENTED_EDGE('',*,*,#205,.T.);
#38=ORIENTED_EDGE('',*,*,#206,.T.);
#39=ORIENTED_EDGE('',*,*,#207,.F.);
#40=ORIENTED_EDGE('',*,*,#208,.T.);
#41=ORIENTED_EDGE('',*,*,#209,.T.);
#42=ORIENTED_EDGE('',*,*,#210,.F.);
#43=ORIENTED_EDGE('',*,*,#211,.F.);
#44=ORIENTED_EDGE('',*,*,#208,.F.);
#45=ORIENTED_EDGE('',*,*,#212,.F.);
#46=ORIENTED_EDGE('',*,*,#180,.T.);
#47=ORIENTED_EDGE('',*,*,#213,.T.);
#48=ORIENTED_EDGE('',*,*,#212,.T.);
#49=ORIENTED_EDGE('',*,*,#211,.T.);
#50=ORIENTED_EDGE('',*,*,#214,.F.);
#51=ORIENTED_EDGE('',*,*,#181,.F.);
#52=ORIENTED_EDGE('',*,*,#210,.T.);
#53=ORIENTED_EDGE('',*,*,#215,.F.);
#54=ORIENTED_EDGE('',*,*,#182,.F.);
#55=ORIENTED_EDGE('',*,*,#214,.T.);
#56=ORIENTED_EDGE('',*,*,#215,.T.);
#57=ORIENTED_EDGE('',*,*,#209,.F.);
#58=ORIENTED_EDGE('',*,*,#213,.F.);
#59=ORIENTED_EDGE('',*,*,#183,.T.);
#60=ORIENTED_EDGE('',*,*,#216,.F.);
#61=ORIENTED_EDGE('',*,*,#217,.T.);
#62=ORIENTED_EDGE('',*,*,#185,.F.);
#63=ORIENTED_EDGE('',*,*,#218,.F.);
#64=ORIENTED_EDGE('',*,*,#219,.F.);
#65=ORIENTED_EDGE('',*,*,#218,.T.);
#66=ORIENTED_EDGE('',*,*,#184,.F.);
#67=ORIENTED_EDGE('',*,*,#220,.F.);
#68=ORIENTED_EDGE('',*,*,#221,.F.);
#69=ORIENTED_EDGE('',*,*,#222,.T.);
#70=ORIENTED_EDGE('',*,*,#220,.T.);
#71=ORIENTED_EDGE('',*,*,#187,.T.);
#72=ORIENTED_EDGE('',*,*,#217,.F.);
#73=ORIENTED_EDGE('',*,*,#223,.T.);
#74=ORIENTED_EDGE('',*,*,#221,.T.);
#75=ORIENTED_EDGE('',*,*,#186,.T.);
#76=ORIENTED_EDGE('',*,*,#224,.F.);
#77=ORIENTED_EDGE('',*,*,#225,.T.);
#78=ORIENTED_EDGE('',*,*,#189,.F.);
#79=ORIENTED_EDGE('',*,*,#226,.F.);
#80=ORIENTED_EDGE('',*,*,#227,.F.);
#81=ORIENTED_EDGE('',*,*,#228,.T.);
#82=ORIENTED_EDGE('',*,*,#226,.T.);
#83=ORIENTED_EDGE('',*,*,#188,.T.);
#84=ORIENTED_EDGE('',*,*,#229,.F.);
#85=ORIENTED_EDGE('',*,*,#230,.T.);
#86=ORIENTED_EDGE('',*,*,#227,.T.);
#87=ORIENTED_EDGE('',*,*,#191,.T.);
#88=ORIENTED_EDGE('',*,*,#231,.F.);
#89=ORIENTED_EDGE('',*,*,#229,.T.);
#90=ORIENTED_EDGE('',*,*,#190,.F.);
#91=ORIENTED_EDGE('',*,*,#225,.F.);
#92=ORIENTED_EDGE('',*,*,#232,.F.);
#93=ORIENTED_EDGE('',*,*,#233,.T.);
#94=ORIENTED_EDGE('',*,*,#193,.F.);
#95=ORIENTED_EDGE('',*,*,#234,.F.);
#96=ORIENTED_EDGE('',*,*,#235,.F.);
#97=ORIENTED_EDGE('',*,*,#236,.T.);
#98=ORIENTED_EDGE('',*,*,#234,.T.);
#99=ORIENTED_EDGE('',*,*,#192,.T.);
#100=ORIENTED_EDGE('',*,*,#237,.F.);
#101=ORIENTED_EDGE('',*,*,#238,.T.);
#102=ORIENTED_EDGE('',*,*,#235,.T.);
#103=ORIENTED_EDGE('',*,*,#195,.T.);
#104=ORIENTED_EDGE('',*,*,#239,.F.);
#105=ORIENTED_EDGE('',*,*,#237,.T.);
#106=ORIENTED_EDGE('',*,*,#194,.F.);
#107=ORIENTED_EDGE('',*,*,#233,.F.);
#108=ORIENTED_EDGE('',*,*,#240,.F.);
#109=ORIENTED_EDGE('',*,*,#241,.T.);
#110=ORIENTED_EDGE('',*,*,#197,.F.);
#111=ORIENTED_EDGE('',*,*,#242,.F.);
#112=ORIENTED_EDGE('',*,*,#243,.F.);
#113=ORIENTED_EDGE('',*,*,#244,.T.);
#114=ORIENTED_EDGE('',*,*,#242,.T.);
#115=ORIENTED_EDGE('',*,*,#196,.T.);
#116=ORIENTED_EDGE('',*,*,#245,.F.);
#117=ORIENTED_EDGE('',*,*,#246,.T.);
#118=ORIENTED_EDGE('',*,*,#243,.T.);
#119=ORIENTED_EDGE('',*,*,#199,.T.);
#120=ORIENTED_EDGE('',*,*,#247,.F.);
#121=ORIENTED_EDGE('',*,*,#245,.T.);
#122=ORIENTED_EDGE('',*,*,#198,.F.);
#123=ORIENTED_EDGE('',*,*,#241,.F.);
#124=ORIENTED_EDGE('',*,*,#248,.F.);
#125=ORIENTED_EDGE('',*,*,#249,.T.);
#126=ORIENTED_EDGE('',*,*,#201,.F.);
#127=ORIENTED_EDGE('',*,*,#250,.F.);
#128=ORIENTED_EDGE('',*,*,#251,.F.);
#129=ORIENTED_EDGE('',*,*,#252,.T.);
#130=ORIENTED_EDGE('',*,*,#250,.T.);
#131=ORIENTED_EDGE('',*,*,#200,.T.);
#132=ORIENTED_EDGE('',*,*,#253,.F.);
#133=ORIENTED_EDGE('',*,*,#254,.T.);
#134=ORIENTED_EDGE('',*,*,#251,.T.);
#135=ORIENTED_EDGE('',*,*,#203,.T.);
#136=ORIENTED_EDGE('',*,*,#255,.F.);
#137=ORIENTED_EDGE('',*,*,#253,.T.);
#138=ORIENTED_EDGE('',*,*,#202,.F.);
#139=ORIENTED_EDGE('',*,*,#249,.F.);
#140=ORIENTED_EDGE('',*,*,#256,.F.);
#141=ORIENTED_EDGE('',*,*,#257,.T.);
#142=ORIENTED_EDGE('',*,*,#205,.F.);
#143=ORIENTED_EDGE('',*,*,#258,.F.);
#144=ORIENTED_EDGE('',*,*,#259,.F.);
#145=ORIENTED_EDGE('',*,*,#260,.T.);
#146=ORIENTED_EDGE('',*,*,#258,.T.);
#147=ORIENTED_EDGE('',*,*,#204,.T.);
#148=ORIENTED_EDGE('',*,*,#261,.F.);
#149=ORIENTED_EDGE('',*,*,#262,.T.);
#150=ORIENTED_EDGE('',*,*,#259,.T.);
#151=ORIENTED_EDGE('',*,*,#207,.T.);
#152=ORIENTED_EDGE('',*,*,#263,.F.);
#153=ORIENTED_EDGE('',*,*,#261,.T.);
#154=ORIENTED_EDGE('',*,*,#206,.F.);
#155=ORIENTED_EDGE('',*,*,#257,.F.);
#156=ORIENTED_EDGE('',*,*,#263,.T.);
#157=ORIENTED_EDGE('',*,*,#256,.T.);
#158=ORIENTED_EDGE('',*,*,#260,.F.);
#159=ORIENTED_EDGE('',*,*,#262,.F.);
#160=ORIENTED_EDGE('',*,*,#255,.T.);
#161=ORIENTED_EDGE('',*,*,#248,.T.);
#162=ORIENTED_EDGE('',*,*,#252,.F.);
#163=ORIENTED_EDGE('',*,*,#254,.F.);
#164=ORIENTED_EDGE('',*,*,#247,.T.);
#165=ORIENTED_EDGE('',*,*,#240,.T.);
#166=ORIENTED_EDGE('',*,*,#244,.F.);
#167=ORIENTED_EDGE('',*,*,#246,.F.);
#168=ORIENTED_EDGE('',*,*,#239,.T.);
#169=ORIENTED_EDGE('',*,*,#232,.T.);
#170=ORIENTED_EDGE('',*,*,#236,.F.);
#171=ORIENTED_EDGE('',*,*,#238,.F.);
#172=ORIENTED_EDGE('',*,*,#231,.T.);
#173=ORIENTED_EDGE('',*,*,#224,.T.);
#174=ORIENTED_EDGE('',*,*,#228,.F.);
#175=ORIENTED_EDGE('',*,*,#230,.F.);
#176=ORIENTED_EDGE('',*,*,#223,.F.);
#177=ORIENTED_EDGE('',*,*,#216,.T.);
#178=ORIENTED_EDGE('',*,*,#219,.T.);
#179=ORIENTED_EDGE('',*,*,#222,.F.);
#180=EDGE_CURVE('',#264,#265,#320,.T.);
#181=EDGE_CURVE('',#264,#266,#321,.T.);
#182=EDGE_CURVE('',#266,#267,#322,.T.);
#183=EDGE_CURVE('',#265,#267,#323,.T.);
#184=EDGE_CURVE('',#268,#269,#324,.T.);
#185=EDGE_CURVE('',#269,#270,#325,.T.);
#186=EDGE_CURVE('',#271,#270,#326,.T.);
#187=EDGE_CURVE('',#268,#271,#327,.T.);
#188=EDGE_CURVE('',#272,#273,#328,.T.);
#189=EDGE_CURVE('',#272,#274,#329,.T.);
#190=EDGE_CURVE('',#274,#275,#330,.T.);
#191=EDGE_CURVE('',#273,#275,#331,.T.);
#192=EDGE_CURVE('',#276,#277,#332,.T.);
#193=EDGE_CURVE('',#276,#278,#333,.T.);
#194=EDGE_CURVE('',#278,#279,#334,.T.);
#195=EDGE_CURVE('',#277,#279,#335,.T.);
#196=EDGE_CURVE('',#280,#281,#336,.T.);
#197=EDGE_CURVE('',#280,#282,#337,.T.);
#198=EDGE_CURVE('',#282,#283,#338,.T.);
#199=EDGE_CURVE('',#281,#283,#339,.T.);
#200=EDGE_CURVE('',#284,#285,#340,.T.);
#201=EDGE_CURVE('',#284,#286,#341,.T.);
#202=EDGE_CURVE('',#286,#287,#342,.T.);
#203=EDGE_CURVE('',#285,#287,#343,.T.);
#204=EDGE_CURVE('',#288,#289,#344,.T.);
#205=EDGE_CURVE('',#288,#290,#345,.T.);
#206=EDGE_CURVE('',#290,#291,#346,.T.);
#207=EDGE_CURVE('',#289,#291,#347,.T.);
#208=EDGE_CURVE('',#292,#293,#348,.T.);
#209=EDGE_CURVE('',#293,#294,#349,.T.);
#210=EDGE_CURVE('',#295,#294,#350,.T.);
#211=EDGE_CURVE('',#292,#295,#351,.T.);
#212=EDGE_CURVE('',#264,#292,#352,.T.);
#213=EDGE_CURVE('',#265,#293,#353,.T.);
#214=EDGE_CURVE('',#266,#295,#354,.T.);
#215=EDGE_CURVE('',#267,#294,#355,.T.);
#216=EDGE_CURVE('',#296,#297,#356,.T.);
#217=EDGE_CURVE('',#296,#270,#357,.T.);
#218=EDGE_CURVE('',#297,#269,#358,.T.);
#219=EDGE_CURVE('',#297,#298,#359,.T.);
#220=EDGE_CURVE('',#298,#268,#360,.T.);
#221=EDGE_CURVE('',#299,#271,#361,.T.);
#222=EDGE_CURVE('',#299,#298,#362,.T.);
#223=EDGE_CURVE('',#296,#299,#363,.T.);
#224=EDGE_CURVE('',#300,#301,#364,.T.);
#225=EDGE_CURVE('',#300,#274,#365,.T.);
#226=EDGE_CURVE('',#301,#272,#366,.T.);
#227=EDGE_CURVE('',#302,#273,#367,.T.);
#228=EDGE_CURVE('',#302,#301,#368,.T.);
#229=EDGE_CURVE('',#303,#275,#369,.T.);
#230=EDGE_CURVE('',#303,#302,#370,.T.);
#231=EDGE_CURVE('',#303,#300,#371,.T.);
#232=EDGE_CURVE('',#304,#305,#372,.T.);
#233=EDGE_CURVE('',#304,#278,#373,.T.);
#234=EDGE_CURVE('',#305,#276,#374,.T.);
#235=EDGE_CURVE('',#306,#277,#375,.T.);
#236=EDGE_CURVE('',#306,#305,#376,.T.);
#237=EDGE_CURVE('',#307,#279,#377,.T.);
#238=EDGE_CURVE('',#307,#306,#378,.T.);
#239=EDGE_CURVE('',#307,#304,#379,.T.);
#240=EDGE_CURVE('',#308,#309,#380,.T.);
#241=EDGE_CURVE('',#308,#282,#381,.T.);
#242=EDGE_CURVE('',#309,#280,#382,.T.);
#243=EDGE_CURVE('',#310,#281,#383,.T.);
#244=EDGE_CURVE('',#310,#309,#384,.T.);
#245=EDGE_CURVE('',#311,#283,#385,.T.);
#246=EDGE_CURVE('',#311,#310,#386,.T.);
#247=EDGE_CURVE('',#311,#308,#387,.T.);
#248=EDGE_CURVE('',#312,#313,#388,.T.);
#249=EDGE_CURVE('',#312,#286,#389,.T.);
#250=EDGE_CURVE('',#313,#284,#390,.T.);
#251=EDGE_CURVE('',#314,#285,#391,.T.);
#252=EDGE_CURVE('',#314,#313,#392,.T.);
#253=EDGE_CURVE('',#315,#287,#393,.T.);
#254=EDGE_CURVE('',#315,#314,#394,.T.);
#255=EDGE_CURVE('',#315,#312,#395,.T.);
#256=EDGE_CURVE('',#316,#317,#396,.T.);
#257=EDGE_CURVE('',#316,#290,#397,.T.);
#258=EDGE_CURVE('',#317,#288,#398,.T.);
#259=EDGE_CURVE('',#318,#289,#399,.T.);
#260=EDGE_CURVE('',#318,#317,#400,.T.);
#261=EDGE_CURVE('',#319,#291,#401,.T.);
#262=EDGE_CURVE('',#319,#318,#402,.T.);
#263=EDGE_CURVE('',#319,#316,#403,.T.);
#264=VERTEX_POINT('',#854);
#265=VERTEX_POINT('',#855);
#266=VERTEX_POINT('',#857);
#267=VERTEX_POINT('',#859);
#268=VERTEX_POINT('',#862);
#269=VERTEX_POINT('',#863);
#270=VERTEX_POINT('',#865);
#271=VERTEX_POINT('',#867);
#272=VERTEX_POINT('',#870);
#273=VERTEX_POINT('',#871);
#274=VERTEX_POINT('',#873);
#275=VERTEX_POINT('',#875);
#276=VERTEX_POINT('',#878);
#277=VERTEX_POINT('',#879);
#278=VERTEX_POINT('',#881);
#279=VERTEX_POINT('',#883);
#280=VERTEX_POINT('',#886);
#281=VERTEX_POINT('',#887);
#282=VERTEX_POINT('',#889);
#283=VERTEX_POINT('',#891);
#284=VERTEX_POINT('',#894);
#285=VERTEX_POINT('',#895);
#286=VERTEX_POINT('',#897);
#287=VERTEX_POINT('',#899);
#288=VERTEX_POINT('',#902);
#289=VERTEX_POINT('',#903);
#290=VERTEX_POINT('',#905);
#291=VERTEX_POINT('',#907);
#292=VERTEX_POINT('',#911);
#293=VERTEX_POINT('',#912);
#294=VERTEX_POINT('',#914);
#295=VERTEX_POINT('',#916);
#296=VERTEX_POINT('',#928);
#297=VERTEX_POINT('',#929);
#298=VERTEX_POINT('',#934);
#299=VERTEX_POINT('',#938);
#300=VERTEX_POINT('',#944);
#301=VERTEX_POINT('',#945);
#302=VERTEX_POINT('',#950);
#303=VERTEX_POINT('',#954);
#304=VERTEX_POINT('',#960);
#305=VERTEX_POINT('',#961);
#306=VERTEX_POINT('',#966);
#307=VERTEX_POINT('',#970);
#308=VERTEX_POINT('',#976);
#309=VERTEX_POINT('',#977);
#310=VERTEX_POINT('',#982);
#311=VERTEX_POINT('',#986);
#312=VERTEX_POINT('',#992);
#313=VERTEX_POINT('',#993);
#314=VERTEX_POINT('',#998);
#315=VERTEX_POINT('',#1002);
#316=VERTEX_POINT('',#1008);
#317=VERTEX_POINT('',#1009);
#318=VERTEX_POINT('',#1014);
#319=VERTEX_POINT('',#1018);
#320=LINE('',#853,#404);
#321=LINE('',#856,#405);
#322=LINE('',#858,#406);
#323=LINE('',#860,#407);
#324=LINE('',#861,#408);
#325=LINE('',#864,#409);
#326=LINE('',#866,#410);
#327=LINE('',#868,#411);
#328=LINE('',#869,#412);
#329=LINE('',#872,#413);
#330=LINE('',#874,#414);
#331=LINE('',#876,#415);
#332=LINE('',#877,#416);
#333=LINE('',#880,#417);
#334=LINE('',#882,#418);
#335=LINE('',#884,#419);
#336=LINE('',#885,#420);
#337=LINE('',#888,#421);
#338=LINE('',#890,#422);
#339=LINE('',#892,#423);
#340=LINE('',#893,#424);
#341=LINE('',#896,#425);
#342=LINE('',#898,#426);
#343=LINE('',#900,#427);
#344=LINE('',#901,#428);
#345=LINE('',#904,#429);
#346=LINE('',#906,#430);
#347=LINE('',#908,#431);
#348=LINE('',#910,#432);
#349=LINE('',#913,#433);
#350=LINE('',#915,#434);
#351=LINE('',#917,#435);
#352=LINE('',#919,#436);
#353=LINE('',#920,#437);
#354=LINE('',#922,#438);
#355=LINE('',#924,#439);
#356=LINE('',#927,#440);
#357=LINE('',#930,#441);
#358=LINE('',#931,#442);
#359=LINE('',#933,#443);
#360=LINE('',#935,#444);
#361=LINE('',#937,#445);
#362=LINE('',#939,#446);
#363=LINE('',#941,#447);
#364=LINE('',#943,#448);
#365=LINE('',#946,#449);
#366=LINE('',#947,#450);
#367=LINE('',#949,#451);
#368=LINE('',#951,#452);
#369=LINE('',#953,#453);
#370=LINE('',#955,#454);
#371=LINE('',#957,#455);
#372=LINE('',#959,#456);
#373=LINE('',#962,#457);
#374=LINE('',#963,#458);
#375=LINE('',#965,#459);
#376=LINE('',#967,#460);
#377=LINE('',#969,#461);
#378=LINE('',#971,#462);
#379=LINE('',#973,#463);
#380=LINE('',#975,#464);
#381=LINE('',#978,#465);
#382=LINE('',#979,#466);
#383=LINE('',#981,#467);
#384=LINE('',#983,#468);
#385=LINE('',#985,#469);
#386=LINE('',#987,#470);
#387=LINE('',#989,#471);
#388=LINE('',#991,#472);
#389=LINE('',#994,#473);
#390=LINE('',#995,#474);
#391=LINE('',#997,#475);
#392=LINE('',#999,#476);
#393=LINE('',#1001,#477);
#394=LINE('',#1003,#478);
#395=LINE('',#1005,#479);
#396=LINE('',#1007,#480);
#397=LINE('',#1010,#481);
#398=LINE('',#1011,#482);
#399=LINE('',#1013,#483);
#400=LINE('',#1015,#484);
#401=LINE('',#1017,#485);
#402=LINE('',#1019,#486);
#403=LINE('',#1021,#487);
#404=VECTOR('',#697,1.);
#405=VECTOR('',#698,1.);
#406=VECTOR('',#699,1.);
#407=VECTOR('',#700,1.);
#408=VECTOR('',#701,1.);
#409=VECTOR('',#702,1.);
#410=VECTOR('',#703,1.);
#411=VECTOR('',#704,1.);
#412=VECTOR('',#705,1.);
#413=VECTOR('',#706,1.);
#414=VECTOR('',#707,1.);
#415=VECTOR('',#708,1.);
#416=VECTOR('',#709,1.);
#417=VECTOR('',#710,1.);
#418=VECTOR('',#711,1.);
#419=VECTOR('',#712,1.);
#420=VECTOR('',#713,1.);
#421=VECTOR('',#714,1.);
#422=VECTOR('',#715,1.);
#423=VECTOR('',#716,1.);
#424=VECTOR('',#717,1.);
#425=VECTOR('',#718,1.);
#426=VECTOR('',#719,1.);
#427=VECTOR('',#720,1.);
#428=VECTOR('',#721,1.);
#429=VECTOR('',#722,1.);
#430=VECTOR('',#723,1.);
#431=VECTOR('',#724,1.);
#432=VECTOR('',#727,1.);
#433=VECTOR('',#728,1.);
#434=VECTOR('',#729,1.);
#435=VECTOR('',#730,1.);
#436=VECTOR('',#733,1.);
#437=VECTOR('',#734,1.);
#438=VECTOR('',#737,1.);
#439=VECTOR('',#740,1.);
#440=VECTOR('',#745,1.);
#441=VECTOR('',#746,1.);
#442=VECTOR('',#747,1.);
#443=VECTOR('',#750,1.);
#444=VECTOR('',#751,1.);
#445=VECTOR('',#754,1.);
#446=VECTOR('',#755,1.);
#447=VECTOR('',#758,1.);
#448=VECTOR('',#761,1.);
#449=VECTOR('',#762,1.);
#450=VECTOR('',#763,1.);
#451=VECTOR('',#766,1.);
#452=VECTOR('',#767,1.);
#453=VECTOR('',#770,1.);
#454=VECTOR('',#771,1.);
#455=VECTOR('',#774,1.);
#456=VECTOR('',#777,1.);
#457=VECTOR('',#778,1.);
#458=VECTOR('',#779,1.);
#459=VECTOR('',#782,1.);
#460=VECTOR('',#783,1.);
#461=VECTOR('',#786,1.);
#462=VECTOR('',#787,1.);
#463=VECTOR('',#790,1.);
#464=VECTOR('',#793,1.);
#465=VECTOR('',#794,1.);
#466=VECTOR('',#795,1.);
#467=VECTOR('',#798,1.);
#468=VECTOR('',#799,1.);
#469=VECTOR('',#802,1.);
#470=VECTOR('',#803,1.);
#471=VECTOR('',#806,1.);
#472=VECTOR('',#809,1.);
#473=VECTOR('',#810,1.);
#474=VECTOR('',#811,1.);
#475=VECTOR('',#814,1.);
#476=VECTOR('',#815,1.);
#477=VECTOR('',#818,1.);
#478=VECTOR('',#819,1.);
#479=VECTOR('',#822,1.);
#480=VECTOR('',#825,1.);
#481=VECTOR('',#826,1.);
#482=VECTOR('',#827,1.);
#483=VECTOR('',#830,1.);
#484=VECTOR('',#831,1.);
#485=VECTOR('',#834,1.);
#486=VECTOR('',#835,1.);
#487=VECTOR('',#838,1.);
#488=EDGE_LOOP('',(#12,#13,#14,#15));
#489=EDGE_LOOP('',(#16,#17,#18,#19));
#490=EDGE_LOOP('',(#20,#21,#22,#23));
#491=EDGE_LOOP('',(#24,#25,#26,#27));
#492=EDGE_LOOP('',(#28,#29,#30,#31));
#493=EDGE_LOOP('',(#32,#33,#34,#35));
#494=EDGE_LOOP('',(#36,#37,#38,#39));
#495=EDGE_LOOP('',(#40,#41,#42,#43));
#496=EDGE_LOOP('',(#44,#45,#46,#47));
#497=EDGE_LOOP('',(#48,#49,#50,#51));
#498=EDGE_LOOP('',(#52,#53,#54,#55));
#499=EDGE_LOOP('',(#56,#57,#58,#59));
#500=EDGE_LOOP('',(#60,#61,#62,#63));
#501=EDGE_LOOP('',(#64,#65,#66,#67));
#502=EDGE_LOOP('',(#68,#69,#70,#71));
#503=EDGE_LOOP('',(#72,#73,#74,#75));
#504=EDGE_LOOP('',(#76,#77,#78,#79));
#505=EDGE_LOOP('',(#80,#81,#82,#83));
#506=EDGE_LOOP('',(#84,#85,#86,#87));
#507=EDGE_LOOP('',(#88,#89,#90,#91));
#508=EDGE_LOOP('',(#92,#93,#94,#95));
#509=EDGE_LOOP('',(#96,#97,#98,#99));
#510=EDGE_LOOP('',(#100,#101,#102,#103));
#511=EDGE_LOOP('',(#104,#105,#106,#107));
#512=EDGE_LOOP('',(#108,#109,#110,#111));
#513=EDGE_LOOP('',(#112,#113,#114,#115));
#514=EDGE_LOOP('',(#116,#117,#118,#119));
#515=EDGE_LOOP('',(#120,#121,#122,#123));
#516=EDGE_LOOP('',(#124,#125,#126,#127));
#517=EDGE_LOOP('',(#128,#129,#130,#131));
#518=EDGE_LOOP('',(#132,#133,#134,#135));
#519=EDGE_LOOP('',(#136,#137,#138,#139));
#520=EDGE_LOOP('',(#140,#141,#142,#143));
#521=EDGE_LOOP('',(#144,#145,#146,#147));
#522=EDGE_LOOP('',(#148,#149,#150,#151));
#523=EDGE_LOOP('',(#152,#153,#154,#155));
#524=EDGE_LOOP('',(#156,#157,#158,#159));
#525=EDGE_LOOP('',(#160,#161,#162,#163));
#526=EDGE_LOOP('',(#164,#165,#166,#167));
#527=EDGE_LOOP('',(#168,#169,#170,#171));
#528=EDGE_LOOP('',(#172,#173,#174,#175));
#529=EDGE_LOOP('',(#176,#177,#178,#179));
#530=FACE_BOUND('',#488,.T.);
#531=FACE_BOUND('',#489,.T.);
#532=FACE_BOUND('',#490,.T.);
#533=FACE_BOUND('',#491,.T.);
#534=FACE_BOUND('',#492,.T.);
#535=FACE_BOUND('',#493,.T.);
#536=FACE_BOUND('',#494,.T.);
#537=FACE_BOUND('',#495,.T.);
#538=FACE_BOUND('',#496,.T.);
#539=FACE_BOUND('',#497,.T.);
#540=FACE_BOUND('',#498,.T.);
#541=FACE_BOUND('',#499,.T.);
#542=FACE_BOUND('',#500,.T.);
#543=FACE_BOUND('',#501,.T.);
#544=FACE_BOUND('',#502,.T.);
#545=FACE_BOUND('',#503,.T.);
#546=FACE_BOUND('',#504,.T.);
#547=FACE_BOUND('',#505,.T.);
#548=FACE_BOUND('',#506,.T.);
#549=FACE_BOUND('',#507,.T.);
#550=FACE_BOUND('',#508,.T.);
#551=FACE_BOUND('',#509,.T.);
#552=FACE_BOUND('',#510,.T.);
#553=FACE_BOUND('',#511,.T.);
#554=FACE_BOUND('',#512,.T.);
#555=FACE_BOUND('',#513,.T.);
#556=FACE_BOUND('',#514,.T.);
#557=FACE_BOUND('',#515,.T.);
#558=FACE_BOUND('',#516,.T.);
#559=FACE_BOUND('',#517,.T.);
#560=FACE_BOUND('',#518,.T.);
#561=FACE_BOUND('',#519,.T.);
#562=FACE_BOUND('',#520,.T.);
#563=FACE_BOUND('',#521,.T.);
#564=FACE_BOUND('',#522,.T.);
#565=FACE_BOUND('',#523,.T.);
#566=FACE_BOUND('',#524,.T.);
#567=FACE_BOUND('',#525,.T.);
#568=FACE_BOUND('',#526,.T.);
#569=FACE_BOUND('',#527,.T.);
#570=FACE_BOUND('',#528,.T.);
#571=FACE_BOUND('',#529,.T.);
#572=PLANE('',#657);
#573=PLANE('',#658);
#574=PLANE('',#659);
#575=PLANE('',#660);
#576=PLANE('',#661);
#577=PLANE('',#662);
#578=PLANE('',#663);
#579=PLANE('',#664);
#580=PLANE('',#665);
#581=PLANE('',#666);
#582=PLANE('',#667);
#583=PLANE('',#668);
#584=PLANE('',#669);
#585=PLANE('',#670);
#586=PLANE('',#671);
#587=PLANE('',#672);
#588=PLANE('',#673);
#589=PLANE('',#674);
#590=PLANE('',#675);
#591=PLANE('',#676);
#592=PLANE('',#677);
#593=PLANE('',#678);
#594=PLANE('',#679);
#595=PLANE('',#680);
#596=PLANE('',#681);
#597=PLANE('',#682);
#598=PLANE('',#683);
#599=PLANE('',#684);
#600=PLANE('',#685);
#601=PLANE('',#686);
#602=PLANE('',#687);
#603=PLANE('',#688);
#604=PLANE('',#689);
#605=PLANE('',#690);
#606=PLANE('',#691);
#607=PLANE('',#692);
#608=ADVANCED_FACE('',(#530,#531,#532,#533,#534,#535,#536),#572,.T.);
#609=ADVANCED_FACE('',(#537),#573,.F.);
#610=ADVANCED_FACE('',(#538),#574,.T.);
#611=ADVANCED_FACE('',(#539),#575,.F.);
#612=ADVANCED_FACE('',(#540),#576,.F.);
#613=ADVANCED_FACE('',(#541),#577,.T.);
#614=ADVANCED_FACE('',(#542),#578,.T.);
#615=ADVANCED_FACE('',(#543),#579,.T.);
#616=ADVANCED_FACE('',(#544),#580,.F.);
#617=ADVANCED_FACE('',(#545),#581,.F.);
#618=ADVANCED_FACE('',(#546),#582,.T.);
#619=ADVANCED_FACE('',(#547),#583,.F.);
#620=ADVANCED_FACE('',(#548),#584,.F.);
#621=ADVANCED_FACE('',(#549),#585,.T.);
#622=ADVANCED_FACE('',(#550),#586,.T.);
#623=ADVANCED_FACE('',(#551),#587,.F.);
#624=ADVANCED_FACE('',(#552),#588,.F.);
#625=ADVANCED_FACE('',(#553),#589,.T.);
#626=ADVANCED_FACE('',(#554),#590,.T.);
#627=ADVANCED_FACE('',(#555),#591,.F.);
#628=ADVANCED_FACE('',(#556),#592,.F.);
#629=ADVANCED_FACE('',(#557),#593,.T.);
#630=ADVANCED_FACE('',(#558),#594,.T.);
#631=ADVANCED_FACE('',(#559),#595,.F.);
#632=ADVANCED_FACE('',(#560),#596,.F.);
#633=ADVANCED_FACE('',(#561),#597,.T.);
#634=ADVANCED_FACE('',(#562),#598,.T.);
#635=ADVANCED_FACE('',(#563),#599,.F.);
#636=ADVANCED_FACE('',(#564),#600,.F.);
#637=ADVANCED_FACE('',(#565),#601,.T.);
#638=ADVANCED_FACE('',(#566),#602,.T.);
#639=ADVANCED_FACE('',(#567),#603,.T.);
#640=ADVANCED_FACE('',(#568),#604,.T.);
#641=ADVANCED_FACE('',(#569),#605,.T.);
#642=ADVANCED_FACE('',(#570),#606,.T.);
#643=ADVANCED_FACE('',(#571),#607,.T.);
#644=CLOSED_SHELL('',(#608,#609,#610,#611,#612,#613,#614,#615,#616,#617,
#618,#619,#620,#621,#622,#623,#624,#625,#626,#627,#628,#629,#630,#631,#632,
#633,#634,#635,#636,#637,#638,#639,#640,#641,#642,#643));
#645=STYLED_ITEM('',(#646),#653);
#646=PRESENTATION_STYLE_ASSIGNMENT((#647));
#647=SURFACE_STYLE_USAGE(.BOTH.,#648);
#648=SURFACE_SIDE_STYLE('',(#649));
#649=SURFACE_STYLE_FILL_AREA(#650);
#650=FILL_AREA_STYLE('',(#651));
#651=FILL_AREA_STYLE_COLOUR('',#652);
#652=COLOUR_RGB('',0.615686274509804,0.811764705882353,0.929411764705882);
#653=MANIFOLD_SOLID_BREP('Part 1',#644);
#654=SHAPE_DEFINITION_REPRESENTATION(#1034,#655);
#655=SHAPE_REPRESENTATION('Part 1',(#656),#1029);
#656=AXIS2_PLACEMENT_3D('',#851,#693,#694);
#657=AXIS2_PLACEMENT_3D('',#852,#695,#696);
#658=AXIS2_PLACEMENT_3D('',#909,#725,#726);
#659=AXIS2_PLACEMENT_3D('',#918,#731,#732);
#660=AXIS2_PLACEMENT_3D('',#921,#735,#736);
#661=AXIS2_PLACEMENT_3D('',#923,#738,#739);
#662=AXIS2_PLACEMENT_3D('',#925,#741,#742);
#663=AXIS2_PLACEMENT_3D('',#926,#743,#744);
#664=AXIS2_PLACEMENT_3D('',#932,#748,#749);
#665=AXIS2_PLACEMENT_3D('',#936,#752,#753);
#666=AXIS2_PLACEMENT_3D('',#940,#756,#757);
#667=AXIS2_PLACEMENT_3D('',#942,#759,#760);
#668=AXIS2_PLACEMENT_3D('',#948,#764,#765);
#669=AXIS2_PLACEMENT_3D('',#952,#768,#769);
#670=AXIS2_PLACEMENT_3D('',#956,#772,#773);
#671=AXIS2_PLACEMENT_3D('',#958,#775,#776);
#672=AXIS2_PLACEMENT_3D('',#964,#780,#781);
#673=AXIS2_PLACEMENT_3D('',#968,#784,#785);
#674=AXIS2_PLACEMENT_3D('',#972,#788,#789);
#675=AXIS2_PLACEMENT_3D('',#974,#791,#792);
#676=AXIS2_PLACEMENT_3D('',#980,#796,#797);
#677=AXIS2_PLACEMENT_3D('',#984,#800,#801);
#678=AXIS2_PLACEMENT_3D('',#988,#804,#805);
#679=AXIS2_PLACEMENT_3D('',#990,#807,#808);
#680=AXIS2_PLACEMENT_3D('',#996,#812,#813);
#681=AXIS2_PLACEMENT_3D('',#1000,#816,#817);
#682=AXIS2_PLACEMENT_3D('',#1004,#820,#821);
#683=AXIS2_PLACEMENT_3D('',#1006,#823,#824);
#684=AXIS2_PLACEMENT_3D('',#1012,#828,#829);
#685=AXIS2_PLACEMENT_3D('',#1016,#832,#833);
#686=AXIS2_PLACEMENT_3D('',#1020,#836,#837);
#687=AXIS2_PLACEMENT_3D('',#1022,#839,#840);
#688=AXIS2_PLACEMENT_3D('',#1023,#841,#842);
#689=AXIS2_PLACEMENT_3D('',#1024,#843,#844);
#690=AXIS2_PLACEMENT_3D('',#1025,#845,#846);
#691=AXIS2_PLACEMENT_3D('',#1026,#847,#848);
#692=AXIS2_PLACEMENT_3D('',#1027,#849,#850);
#693=DIRECTION('',(0.,0.,1.));
#694=DIRECTION('',(1.,0.,0.));
#695=DIRECTION('',(0.,-1.,0.));
#696=DIRECTION('',(1.,0.,0.));
#697=DIRECTION('',(0.,0.,1.));
#698=DIRECTION('',(1.,0.,0.));
#699=DIRECTION('',(0.,0.,1.));
#700=DIRECTION('',(1.,0.,5.73989385433502E-17));
#701=DIRECTION('',(1.,0.,0.));
#702=DIRECTION('',(0.,0.,-1.));
#703=DIRECTION('',(1.,0.,0.));
#704=DIRECTION('',(0.,0.,-1.));
#705=DIRECTION('',(0.,0.,-1.));
#706=DIRECTION('',(1.,0.,0.));
#707=DIRECTION('',(0.,0.,-1.));
#708=DIRECTION('',(1.,0.,0.));
#709=DIRECTION('',(0.,0.,-1.));
#710=DIRECTION('',(1.,0.,0.));
#711=DIRECTION('',(0.,0.,-1.));
#712=DIRECTION('',(1.,0.,0.));
#713=DIRECTION('',(0.,0.,-1.));
#714=DIRECTION('',(1.,0.,0.));
#715=DIRECTION('',(0.,0.,-1.));
#716=DIRECTION('',(1.,0.,0.));
#717=DIRECTION('',(0.,0.,-1.));
#718=DIRECTION('',(1.,0.,0.));
#719=DIRECTION('',(0.,0.,-1.));
#720=DIRECTION('',(1.,0.,0.));
#721=DIRECTION('',(0.,0.,-1.));
#722=DIRECTION('',(1.,0.,0.));
#723=DIRECTION('',(0.,0.,-1.));
#724=DIRECTION('',(1.,0.,0.));
#725=DIRECTION('',(0.,-1.,0.));
#726=DIRECTION('',(1.,0.,0.));
#727=DIRECTION('',(0.,0.,1.));
#728=DIRECTION('',(1.,0.,5.73989385433502E-17));
#729=DIRECTION('',(0.,0.,1.));
#730=DIRECTION('',(1.,0.,0.));
#731=DIRECTION('',(-1.,0.,0.));
#732=DIRECTION('',(0.,0.,1.));
#733=DIRECTION('',(0.,1.,0.));
#734=DIRECTION('',(0.,1.,0.));
#735=DIRECTION('',(0.,0.,1.));
#736=DIRECTION('',(1.,0.,0.));
#737=DIRECTION('',(0.,1.,0.));
#738=DIRECTION('',(-1.,0.,0.));
#739=DIRECTION('',(0.,0.,1.));
#740=DIRECTION('',(0.,1.,0.));
#741=DIRECTION('',(-5.73989385433502E-17,0.,1.));
#742=DIRECTION('',(1.,0.,5.73989385433503E-17));
#743=DIRECTION('',(-1.,0.,0.));
#744=DIRECTION('',(0.,0.,1.));
#745=DIRECTION('',(0.,0.,1.));
#746=DIRECTION('',(0.,-1.,0.));
#747=DIRECTION('',(0.,-1.,0.));
#748=DIRECTION('',(0.,0.,-1.));
#749=DIRECTION('',(-1.,0.,0.));
#750=DIRECTION('',(-1.,0.,0.));
#751=DIRECTION('',(0.,-1.,0.));
#752=DIRECTION('',(-1.,0.,0.));
#753=DIRECTION('',(0.,0.,1.));
#754=DIRECTION('',(0.,-1.,0.));
#755=DIRECTION('',(0.,0.,1.));
#756=DIRECTION('',(0.,0.,-1.));
#757=DIRECTION('',(-1.,0.,0.));
#758=DIRECTION('',(-1.,0.,0.));
#759=DIRECTION('',(0.,0.,-1.));
#760=DIRECTION('',(-1.,0.,0.));
#761=DIRECTION('',(-1.,0.,0.));
#762=DIRECTION('',(0.,-1.,0.));
#763=DIRECTION('',(0.,-1.,0.));
#764=DIRECTION('',(-1.,0.,0.));
#765=DIRECTION('',(0.,0.,1.));
#766=DIRECTION('',(0.,-1.,0.));
#767=DIRECTION('',(0.,0.,1.));
#768=DIRECTION('',(0.,0.,-1.));
#769=DIRECTION('',(-1.,0.,0.));
#770=DIRECTION('',(0.,-1.,0.));
#771=DIRECTION('',(-1.,0.,0.));
#772=DIRECTION('',(-1.,0.,0.));
#773=DIRECTION('',(0.,0.,1.));
#774=DIRECTION('',(0.,0.,1.));
#775=DIRECTION('',(0.,0.,-1.));
#776=DIRECTION('',(-1.,0.,0.));
#777=DIRECTION('',(-1.,0.,0.));
#778=DIRECTION('',(0.,-1.,0.));
#779=DIRECTION('',(0.,-1.,0.));
#780=DIRECTION('',(-1.,0.,0.));
#781=DIRECTION('',(0.,0.,1.));
#782=DIRECTION('',(0.,-1.,0.));
#783=DIRECTION('',(0.,0.,1.));
#784=DIRECTION('',(0.,0.,-1.));
#785=DIRECTION('',(-1.,0.,0.));
#786=DIRECTION('',(0.,-1.,0.));
#787=DIRECTION('',(-1.,0.,0.));
#788=DIRECTION('',(-1.,0.,0.));
#789=DIRECTION('',(0.,0.,1.));
#790=DIRECTION('',(0.,0.,1.));
#791=DIRECTION('',(0.,0.,-1.));
#792=DIRECTION('',(-1.,0.,0.));
#793=DIRECTION('',(-1.,0.,0.));
#794=DIRECTION('',(0.,-1.,0.));
#795=DIRECTION('',(0.,-1.,0.));
#796=DIRECTION('',(-1.,0.,0.));
#797=DIRECTION('',(0.,0.,1.));
#798=DIRECTION('',(0.,-1.,0.));
#799=DIRECTION('',(0.,0.,1.));
#800=DIRECTION('',(0.,0.,-1.));
#801=DIRECTION('',(-1.,0.,0.));
#802=DIRECTION('',(0.,-1.,0.));
#803=DIRECTION('',(-1.,0.,0.));
#804=DIRECTION('',(-1.,0.,0.));
#805=DIRECTION('',(0.,0.,1.));
#806=DIRECTION('',(0.,0.,1.));
#807=DIRECTION('',(0.,0.,-1.));
#808=DIRECTION('',(-1.,0.,0.));
#809=DIRECTION('',(-1.,0.,0.));
#810=DIRECTION('',(0.,-1.,0.));
#811=DIRECTION('',(0.,-1.,0.));
#812=DIRECTION('',(-1.,0.,0.));
#813=DIRECTION('',(0.,0.,1.));
#814=DIRECTION('',(0.,-1.,0.));
#815=DIRECTION('',(0.,0.,1.));
#816=DIRECTION('',(0.,0.,-1.));
#817=DIRECTION('',(-1.,0.,0.));
#818=DIRECTION('',(0.,-1.,0.));
#819=DIRECTION('',(-1.,0.,0.));
#820=DIRECTION('',(-1.,0.,0.));
#821=DIRECTION('',(0.,0.,1.));
#822=DIRECTION('',(0.,0.,1.));
#823=DIRECTION('',(0.,0.,-1.));
#824=DIRECTION('',(-1.,0.,0.));
#825=DIRECTION('',(-1.,0.,0.));
#826=DIRECTION('',(0.,-1.,0.));
#827=DIRECTION('',(0.,-1.,0.));
#828=DIRECTION('',(-1.,0.,0.));
#829=DIRECTION('',(0.,0.,1.));
#830=DIRECTION('',(0.,-1.,0.));
#831=DIRECTION('',(0.,0.,1.));
#832=DIRECTION('',(0.,0.,-1.));
#833=DIRECTION('',(-1.,0.,0.));
#834=DIRECTION('',(0.,-1.,0.));
#835=DIRECTION('',(-1.,0.,0.));
#836=DIRECTION('',(-1.,0.,0.));
#837=DIRECTION('',(0.,0.,1.));
#838=DIRECTION('',(0.,0.,1.));
#839=DIRECTION('',(0.,-1.,0.));
#840=DIRECTION('',(1.,0.,0.));
#841=DIRECTION('',(0.,-1.,0.));
#842=DIRECTION('',(1.,0.,0.));
#843=DIRECTION('',(0.,-1.,0.));
#844=DIRECTION('',(1.,0.,0.));
#845=DIRECTION('',(0.,-1.,0.));
#846=DIRECTION('',(1.,0.,0.));
#847=DIRECTION('',(0.,-1.,0.));
#848=DIRECTION('',(1.,0.,0.));
#849=DIRECTION('',(0.,-1.,0.));
#850=DIRECTION('',(1.,0.,0.));
#851=CARTESIAN_POINT('',(0.,0.,0.));
#852=CARTESIAN_POINT('',(-0.0015062502607703,-0.0206,-0.000218108998916916));
#853=CARTESIAN_POINT('',(-0.0355062502607703,-0.0206,-0.00791810899891692));
#854=CARTESIAN_POINT('',(-0.0355062502607703,-0.0206,-0.0192181089989169));
#855=CARTESIAN_POINT('',(-0.0355062502607703,-0.0206,0.00338189100108309));
#856=CARTESIAN_POINT('',(-0.00150625026077031,-0.0206,-0.0192181089989169));
#857=CARTESIAN_POINT('',(0.0324937497392297,-0.0206,-0.0192181089989169));
#858=CARTESIAN_POINT('',(0.0324937497392297,-0.0206,-0.00791810899891692));
#859=CARTESIAN_POINT('',(0.0324937497392297,-0.0206,0.00338189100108309));
#860=CARTESIAN_POINT('',(-0.00150625026077031,-0.0206,0.00338189100108309));
#861=CARTESIAN_POINT('',(-0.0238710455596447,-0.0206,0.0024));
#862=CARTESIAN_POINT('',(-0.0344921313226223,-0.0206,0.0024));
#863=CARTESIAN_POINT('',(-0.0132499597966671,-0.0206,0.0024));
#864=CARTESIAN_POINT('',(-0.0132499597966671,-0.0206,-0.00315));
#865=CARTESIAN_POINT('',(-0.0132499597966671,-0.0206,-0.0087));
#866=CARTESIAN_POINT('',(-0.0238710455596447,-0.0206,-0.0087));
#867=CARTESIAN_POINT('',(-0.0344921313226223,-0.0206,-0.0087));
#868=CARTESIAN_POINT('',(-0.0344921313226223,-0.0206,-0.00315));
#869=CARTESIAN_POINT('',(-0.0125062502607703,-0.0206,-0.00315));
#870=CARTESIAN_POINT('',(-0.0125062502607703,-0.0206,0.0024));
#871=CARTESIAN_POINT('',(-0.0125062502607703,-0.0206,-0.0087));
#872=CARTESIAN_POINT('',(-0.00147732112854718,-0.0206,0.0024));
#873=CARTESIAN_POINT('',(0.00955160800367594,-0.0206,0.0024));
#874=CARTESIAN_POINT('',(0.00955160800367594,-0.0206,-0.00315));
#875=CARTESIAN_POINT('',(0.00955160800367594,-0.0206,-0.0087));
#876=CARTESIAN_POINT('',(-0.00147732112854719,-0.0206,-0.0087));
#877=CARTESIAN_POINT('',(0.0104937497392297,-0.0206,-0.00315));
#878=CARTESIAN_POINT('',(0.0104937497392297,-0.0206,0.0024));
#879=CARTESIAN_POINT('',(0.0104937497392297,-0.0206,-0.0087));
#880=CARTESIAN_POINT('',(0.020912741304189,-0.0206,0.0024));
#881=CARTESIAN_POINT('',(0.0313317328691482,-0.0206,0.0024));
#882=CARTESIAN_POINT('',(0.0313317328691482,-0.0206,-0.00315));
#883=CARTESIAN_POINT('',(0.0313317328691482,-0.0206,-0.0087));
#884=CARTESIAN_POINT('',(0.020912741304189,-0.0206,-0.0087));
#885=CARTESIAN_POINT('',(0.0104937497392297,-0.0206,-0.0139698298001698));
#886=CARTESIAN_POINT('',(0.0104937497392297,-0.0206,-0.00962155060142279));
#887=CARTESIAN_POINT('',(0.0104937497392297,-0.0206,-0.0183181089989169));
#888=CARTESIAN_POINT('',(0.020912741304189,-0.0206,-0.00962155060142279));
#889=CARTESIAN_POINT('',(0.0313317328691482,-0.0206,-0.00962155060142279));
#890=CARTESIAN_POINT('',(0.0313317328691482,-0.0206,-0.0139698298001698));
#891=CARTESIAN_POINT('',(0.0313317328691482,-0.0206,-0.0183181089989169));
#892=CARTESIAN_POINT('',(0.020912741304189,-0.0206,-0.0183181089989169));
#893=CARTESIAN_POINT('',(-0.0125062502607703,-0.0206,-0.0139698298001698));
#894=CARTESIAN_POINT('',(-0.0125062502607703,-0.0206,-0.00962155060142279));
#895=CARTESIAN_POINT('',(-0.0125062502607703,-0.0206,-0.0183181089989169));
#896=CARTESIAN_POINT('',(-0.00147732112854718,-0.0206,-0.00962155060142279));
#897=CARTESIAN_POINT('',(0.00955160800367594,-0.0206,-0.00962155060142279));
#898=CARTESIAN_POINT('',(0.00955160800367594,-0.0206,-0.0139698298001698));
#899=CARTESIAN_POINT('',(0.00955160800367594,-0.0206,-0.0183181089989169));
#900=CARTESIAN_POINT('',(-0.00147732112854719,-0.0206,-0.0183181089989169));
#901=CARTESIAN_POINT('',(-0.0344921313226223,-0.0206,-0.0139698298001698));
#902=CARTESIAN_POINT('',(-0.0344921313226223,-0.0206,-0.00962155060142279));
#903=CARTESIAN_POINT('',(-0.0344921313226223,-0.0206,-0.0183181089989169));
#904=CARTESIAN_POINT('',(-0.0238710455596447,-0.0206,-0.00962155060142279));
#905=CARTESIAN_POINT('',(-0.0132499597966671,-0.0206,-0.00962155060142279));
#906=CARTESIAN_POINT('',(-0.0132499597966671,-0.0206,-0.0139698298001698));
#907=CARTESIAN_POINT('',(-0.0132499597966671,-0.0206,-0.0183181089989169));
#908=CARTESIAN_POINT('',(-0.0238710455596447,-0.0206,-0.0183181089989169));
#909=CARTESIAN_POINT('',(-0.0015062502607703,0.,-0.000218108998916916));
#910=CARTESIAN_POINT('',(-0.0355062502607703,0.,-0.00791810899891692));
#911=CARTESIAN_POINT('',(-0.0355062502607703,0.,-0.0192181089989169));
#912=CARTESIAN_POINT('',(-0.0355062502607703,0.,0.00338189100108309));
#913=CARTESIAN_POINT('',(-0.00150625026077031,0.,0.00338189100108309));
#914=CARTESIAN_POINT('',(0.0324937497392297,0.,0.00338189100108309));
#915=CARTESIAN_POINT('',(0.0324937497392297,0.,-0.00791810899891692));
#916=CARTESIAN_POINT('',(0.0324937497392297,0.,-0.0192181089989169));
#917=CARTESIAN_POINT('',(-0.00150625026077031,0.,-0.0192181089989169));
#918=CARTESIAN_POINT('',(-0.0355062502607703,-0.0206,-0.00791810899891692));
#919=CARTESIAN_POINT('',(-0.0355062502607703,-0.0206,-0.0192181089989169));
#920=CARTESIAN_POINT('',(-0.0355062502607703,-0.0206,0.00338189100108309));
#921=CARTESIAN_POINT('',(-0.00150625026077031,-0.0206,-0.0192181089989169));
#922=CARTESIAN_POINT('',(0.0324937497392297,-0.0206,-0.0192181089989169));
#923=CARTESIAN_POINT('',(0.0324937497392297,-0.0206,-0.00791810899891692));
#924=CARTESIAN_POINT('',(0.0324937497392297,-0.0206,0.00338189100108309));
#925=CARTESIAN_POINT('',(-0.00150625026077031,-0.0206,0.00338189100108309));
#926=CARTESIAN_POINT('',(-0.0132499597966671,0.0539695064361346,-0.00315));
#927=CARTESIAN_POINT('',(-0.0132499597966671,-0.002,-0.00315));
#928=CARTESIAN_POINT('',(-0.0132499597966671,-0.002,-0.0087));
#929=CARTESIAN_POINT('',(-0.0132499597966671,-0.002,0.0024));
#930=CARTESIAN_POINT('',(-0.0132499597966671,0.0539695064361346,-0.0087));
#931=CARTESIAN_POINT('',(-0.0132499597966671,0.0539695064361346,0.0024));
#932=CARTESIAN_POINT('',(-0.0238710455596447,0.0539695064361346,0.0024));
#933=CARTESIAN_POINT('',(-0.0238710455596447,-0.002,0.0024));
#934=CARTESIAN_POINT('',(-0.0344921313226223,-0.002,0.0024));
#935=CARTESIAN_POINT('',(-0.0344921313226223,0.0539695064361346,0.0024));
#936=CARTESIAN_POINT('',(-0.0344921313226223,0.0539695064361346,-0.00315));
#937=CARTESIAN_POINT('',(-0.0344921313226223,0.0539695064361346,-0.0087));
#938=CARTESIAN_POINT('',(-0.0344921313226223,-0.002,-0.0087));
#939=CARTESIAN_POINT('',(-0.0344921313226223,-0.002,-0.00315));
#940=CARTESIAN_POINT('',(-0.0238710455596447,0.0539695064361346,-0.0087));
#941=CARTESIAN_POINT('',(-0.0238710455596447,-0.002,-0.0087));
#942=CARTESIAN_POINT('',(-0.00147732112854718,0.0539695064361346,0.0024));
#943=CARTESIAN_POINT('',(-0.00147732112854718,-0.002,0.0024));
#944=CARTESIAN_POINT('',(0.00955160800367594,-0.002,0.0024));
#945=CARTESIAN_POINT('',(-0.0125062502607703,-0.002,0.0024));
#946=CARTESIAN_POINT('',(0.00955160800367594,0.0539695064361346,0.0024));
#947=CARTESIAN_POINT('',(-0.0125062502607703,0.0539695064361346,0.0024));
#948=CARTESIAN_POINT('',(-0.0125062502607703,0.0539695064361346,-0.00315));
#949=CARTESIAN_POINT('',(-0.0125062502607703,0.0539695064361346,-0.0087));
#950=CARTESIAN_POINT('',(-0.0125062502607703,-0.002,-0.0087));
#951=CARTESIAN_POINT('',(-0.0125062502607703,-0.002,-0.00315));
#952=CARTESIAN_POINT('',(-0.00147732112854719,0.0539695064361346,-0.0087));
#953=CARTESIAN_POINT('',(0.00955160800367594,0.0539695064361346,-0.0087));
#954=CARTESIAN_POINT('',(0.00955160800367594,-0.002,-0.0087));
#955=CARTESIAN_POINT('',(-0.00147732112854719,-0.002,-0.0087));
#956=CARTESIAN_POINT('',(0.00955160800367594,0.0539695064361346,-0.00315));
#957=CARTESIAN_POINT('',(0.00955160800367594,-0.002,-0.00315));
#958=CARTESIAN_POINT('',(0.020912741304189,0.0539695064361346,0.0024));
#959=CARTESIAN_POINT('',(0.020912741304189,-0.002,0.0024));
#960=CARTESIAN_POINT('',(0.0313317328691482,-0.002,0.0024));
#961=CARTESIAN_POINT('',(0.0104937497392297,-0.002,0.0024));
#962=CARTESIAN_POINT('',(0.0313317328691482,0.0539695064361346,0.0024));
#963=CARTESIAN_POINT('',(0.0104937497392297,0.0539695064361346,0.0024));
#964=CARTESIAN_POINT('',(0.0104937497392297,0.0539695064361346,-0.00315));
#965=CARTESIAN_POINT('',(0.0104937497392297,0.0539695064361346,-0.0087));
#966=CARTESIAN_POINT('',(0.0104937497392297,-0.002,-0.0087));
#967=CARTESIAN_POINT('',(0.0104937497392297,-0.002,-0.00315));
#968=CARTESIAN_POINT('',(0.020912741304189,0.0539695064361346,-0.0087));
#969=CARTESIAN_POINT('',(0.0313317328691482,0.0539695064361346,-0.0087));
#970=CARTESIAN_POINT('',(0.0313317328691482,-0.002,-0.0087));
#971=CARTESIAN_POINT('',(0.020912741304189,-0.002,-0.0087));
#972=CARTESIAN_POINT('',(0.0313317328691482,0.0539695064361346,-0.00315));
#973=CARTESIAN_POINT('',(0.0313317328691482,-0.002,-0.00315));
#974=CARTESIAN_POINT('',(0.020912741304189,0.0539695064361346,-0.00962155060142279));
#975=CARTESIAN_POINT('',(0.020912741304189,-0.002,-0.00962155060142279));
#976=CARTESIAN_POINT('',(0.0313317328691482,-0.002,-0.00962155060142279));
#977=CARTESIAN_POINT('',(0.0104937497392297,-0.002,-0.00962155060142279));
#978=CARTESIAN_POINT('',(0.0313317328691482,0.0539695064361346,-0.00962155060142279));
#979=CARTESIAN_POINT('',(0.0104937497392297,0.0539695064361346,-0.00962155060142279));
#980=CARTESIAN_POINT('',(0.0104937497392297,0.0539695064361346,-0.0139698298001698));
#981=CARTESIAN_POINT('',(0.0104937497392297,0.0539695064361346,-0.0183181089989169));
#982=CARTESIAN_POINT('',(0.0104937497392297,-0.002,-0.0183181089989169));
#983=CARTESIAN_POINT('',(0.0104937497392297,-0.002,-0.0139698298001698));
#984=CARTESIAN_POINT('',(0.020912741304189,0.0539695064361346,-0.0183181089989169));
#985=CARTESIAN_POINT('',(0.0313317328691482,0.0539695064361346,-0.0183181089989169));
#986=CARTESIAN_POINT('',(0.0313317328691482,-0.002,-0.0183181089989169));
#987=CARTESIAN_POINT('',(0.020912741304189,-0.002,-0.0183181089989169));
#988=CARTESIAN_POINT('',(0.0313317328691482,0.0539695064361346,-0.0139698298001698));
#989=CARTESIAN_POINT('',(0.0313317328691482,-0.002,-0.0139698298001698));
#990=CARTESIAN_POINT('',(-0.00147732112854718,0.0539695064361346,-0.00962155060142279));
#991=CARTESIAN_POINT('',(-0.00147732112854718,-0.002,-0.00962155060142279));
#992=CARTESIAN_POINT('',(0.00955160800367594,-0.002,-0.00962155060142279));
#993=CARTESIAN_POINT('',(-0.0125062502607703,-0.002,-0.00962155060142279));
#994=CARTESIAN_POINT('',(0.00955160800367594,0.0539695064361346,-0.00962155060142279));
#995=CARTESIAN_POINT('',(-0.0125062502607703,0.0539695064361346,-0.00962155060142279));
#996=CARTESIAN_POINT('',(-0.0125062502607703,0.0539695064361346,-0.0139698298001698));
#997=CARTESIAN_POINT('',(-0.0125062502607703,0.0539695064361346,-0.0183181089989169));
#998=CARTESIAN_POINT('',(-0.0125062502607703,-0.002,-0.0183181089989169));
#999=CARTESIAN_POINT('',(-0.0125062502607703,-0.002,-0.0139698298001698));
#1000=CARTESIAN_POINT('',(-0.00147732112854719,0.0539695064361346,-0.0183181089989169));
#1001=CARTESIAN_POINT('',(0.00955160800367594,0.0539695064361346,-0.0183181089989169));
#1002=CARTESIAN_POINT('',(0.00955160800367594,-0.002,-0.0183181089989169));
#1003=CARTESIAN_POINT('',(-0.00147732112854719,-0.002,-0.0183181089989169));
#1004=CARTESIAN_POINT('',(0.00955160800367594,0.0539695064361346,-0.0139698298001698));
#1005=CARTESIAN_POINT('',(0.00955160800367594,-0.002,-0.0139698298001698));
#1006=CARTESIAN_POINT('',(-0.0238710455596447,0.0539695064361346,-0.00962155060142279));
#1007=CARTESIAN_POINT('',(-0.0238710455596447,-0.002,-0.00962155060142279));
#1008=CARTESIAN_POINT('',(-0.0132499597966671,-0.002,-0.00962155060142279));
#1009=CARTESIAN_POINT('',(-0.0344921313226223,-0.002,-0.00962155060142279));
#1010=CARTESIAN_POINT('',(-0.0132499597966671,0.0539695064361346,-0.00962155060142279));
#1011=CARTESIAN_POINT('',(-0.0344921313226223,0.0539695064361346,-0.00962155060142279));
#1012=CARTESIAN_POINT('',(-0.0344921313226223,0.0539695064361346,-0.0139698298001698));
#1013=CARTESIAN_POINT('',(-0.0344921313226223,0.0539695064361346,-0.0183181089989169));
#1014=CARTESIAN_POINT('',(-0.0344921313226223,-0.002,-0.0183181089989169));
#1015=CARTESIAN_POINT('',(-0.0344921313226223,-0.002,-0.0139698298001698));
#1016=CARTESIAN_POINT('',(-0.0238710455596447,0.0539695064361346,-0.0183181089989169));
#1017=CARTESIAN_POINT('',(-0.0132499597966671,0.0539695064361346,-0.0183181089989169));
#1018=CARTESIAN_POINT('',(-0.0132499597966671,-0.002,-0.0183181089989169));
#1019=CARTESIAN_POINT('',(-0.0238710455596447,-0.002,-0.0183181089989169));
#1020=CARTESIAN_POINT('',(-0.0132499597966671,0.0539695064361346,-0.0139698298001698));
#1021=CARTESIAN_POINT('',(-0.0132499597966671,-0.002,-0.0139698298001698));
#1022=CARTESIAN_POINT('',(-0.0015062502607703,-0.002,-0.00791810899891692));
#1023=CARTESIAN_POINT('',(-0.0015062502607703,-0.002,-0.00791810899891692));
#1024=CARTESIAN_POINT('',(-0.0015062502607703,-0.002,-0.00791810899891692));
#1025=CARTESIAN_POINT('',(-0.0015062502607703,-0.002,-0.00791810899891692));
#1026=CARTESIAN_POINT('',(-0.0015062502607703,-0.002,-0.00791810899891692));
#1027=CARTESIAN_POINT('',(-0.0015062502607703,-0.002,-0.00791810899891692));
#1028=MECHANICAL_DESIGN_GEOMETRIC_PRESENTATION_REPRESENTATION('',(#645),
#1029);
#1029=(
GEOMETRIC_REPRESENTATION_CONTEXT(3)
GLOBAL_UNCERTAINTY_ASSIGNED_CONTEXT((#1030))
GLOBAL_UNIT_ASSIGNED_CONTEXT((#1033,#1032,#1031))
REPRESENTATION_CONTEXT('Part 1','TOP_LEVEL_ASSEMBLY_PART')
);
#1030=UNCERTAINTY_MEASURE_WITH_UNIT(LENGTH_MEASURE(1.E-8),#1033,
'DISTANCE_ACCURACY_VALUE','Maximum Tolerance applied to model');
#1031=(
NAMED_UNIT(*)
SI_UNIT($,.STERADIAN.)
SOLID_ANGLE_UNIT()
);
#1032=(
NAMED_UNIT(*)
PLANE_ANGLE_UNIT()
SI_UNIT($,.RADIAN.)
);
#1033=(
LENGTH_UNIT()
NAMED_UNIT(*)
SI_UNIT($,.METRE.)
);
#1034=PRODUCT_DEFINITION_SHAPE('','',#1035);
#1035=PRODUCT_DEFINITION('','',#1037,#1036);
#1036=PRODUCT_DEFINITION_CONTEXT('',#1043,'design');
#1037=PRODUCT_DEFINITION_FORMATION_WITH_SPECIFIED_SOURCE('','',#1039,
 .NOT_KNOWN.);
#1038=PRODUCT_RELATED_PRODUCT_CATEGORY('','',(#1039));
#1039=PRODUCT('Part 1','Part 1','Part 1',(#1041));
#1040=PRODUCT_CATEGORY('','');
#1041=PRODUCT_CONTEXT('',#1043,'mechanical');
#1042=APPLICATION_PROTOCOL_DEFINITION('international standard',
'ap242_managed_model_based_3d_engineering',2020,#1043);
#1043=APPLICATION_CONTEXT('managed model based 3d engineering');
ENDSEC;
END-ISO-10303-21;
