ISO-10303-21;
HEADER;
/* Generated by software containing ST-Developer
 * from STEP Tools, Inc. (www.steptools.com) 
 */
/* OPTION: using custom renumber hook */

FILE_DESCRIPTION(
/* description */ ('STEP AP242 Edition 2',
'CAx-IF Rec.Pracs.---Representation and Presentation of Product Manufa
cturing Information (PMI)---4.0---2014-10-13',
'CAx-IF Rec.Pracs.---3D Tessellated Geometry---0.4---2014-09-14','2;1',
'CAx-IF Rec.Pracs.---User Defined Attributes---1.5---2016-08-15'),
/* implementation_level */ '2;1');

FILE_NAME(
/* name */ 'fridge',
/* time_stamp */ '2026-09-13T22:01:31Z',
/* author */ (''),
/* organization */ (''),
/* preprocessor_version */ 'ST-DEVELOPER v20',
/* originating_system */ 'ONSHAPE BY PTC INC, 1.220',
/* authorisation */ '  ');

FILE_SCHEMA (('AP242_MANAGED_MODEL_BASED_3D_ENGINEERING_MIM_LF { 1 0 10303 442 3 1 4 }'));
ENDSEC;

DATA;
#10=SHAPE_REPRESENTATION_RELATIONSHIP('','',#700,#11);
#11=ADVANCED_BREP_SHAPE_REPRESENTATION('',(#698),#1150);
#12=CONICAL_SURFACE('',#751,0.00134608560828752,0.610865238198015);
#13=CONICAL_SURFACE('',#754,0.00134608560828752,0.610865238198015);
#14=CONICAL_SURFACE('',#757,0.00134608560828752,0.610865238198015);
#15=CONICAL_SURFACE('',#760,0.00134608560828752,0.610865238198015);
#16=SPHERICAL_SURFACE('',#729,0.004);
#17=SPHERICAL_SURFACE('',#733,0.004);
#18=CYLINDRICAL_SURFACE('',#718,0.004);
#19=CYLINDRICAL_SURFACE('',#720,0.004);
#20=CYLINDRICAL_SURFACE('',#727,0.004);
#21=CYLINDRICAL_SURFACE('',#731,0.004);
#22=CYLINDRICAL_SURFACE('',#735,0.004);
#23=CIRCLE('',#708,0.00134608560828752);
#24=CIRCLE('',#709,0.00134608560828752);
#25=CIRCLE('',#710,0.00134608560828752);
#26=CIRCLE('',#711,0.00134608560828752);
#27=CIRCLE('',#712,0.004);
#28=CIRCLE('',#713,0.004);
#29=CIRCLE('',#716,0.004);
#30=CIRCLE('',#717,0.004);
#31=CIRCLE('',#719,0.004);
#32=CIRCLE('',#721,0.004);
#33=CIRCLE('',#728,0.004);
#34=CIRCLE('',#730,0.004);
#35=CIRCLE('',#732,0.004);
#36=CIRCLE('',#734,0.004);
#37=CIRCLE('',#752,0.000645878070077815);
#38=CIRCLE('',#755,0.000645878070077815);
#39=CIRCLE('',#758,0.000645878070077815);
#40=CIRCLE('',#761,0.000645878070077815);
#41=ORIENTED_EDGE('',*,*,#219,.F.);
#42=ORIENTED_EDGE('',*,*,#220,.F.);
#43=ORIENTED_EDGE('',*,*,#221,.T.);
#44=ORIENTED_EDGE('',*,*,#222,.T.);
#45=ORIENTED_EDGE('',*,*,#223,.F.);
#46=ORIENTED_EDGE('',*,*,#222,.F.);
#47=ORIENTED_EDGE('',*,*,#224,.T.);
#48=ORIENTED_EDGE('',*,*,#225,.T.);
#49=ORIENTED_EDGE('',*,*,#226,.T.);
#50=ORIENTED_EDGE('',*,*,#227,.F.);
#51=ORIENTED_EDGE('',*,*,#228,.F.);
#52=ORIENTED_EDGE('',*,*,#229,.F.);
#53=ORIENTED_EDGE('',*,*,#230,.T.);
#54=ORIENTED_EDGE('',*,*,#231,.T.);
#55=ORIENTED_EDGE('',*,*,#232,.F.);
#56=ORIENTED_EDGE('',*,*,#233,.F.);
#57=ORIENTED_EDGE('',*,*,#234,.T.);
#58=ORIENTED_EDGE('',*,*,#235,.T.);
#59=ORIENTED_EDGE('',*,*,#236,.F.);
#60=ORIENTED_EDGE('',*,*,#237,.F.);
#61=ORIENTED_EDGE('',*,*,#238,.T.);
#62=ORIENTED_EDGE('',*,*,#239,.T.);
#63=ORIENTED_EDGE('',*,*,#240,.T.);
#64=ORIENTED_EDGE('',*,*,#241,.T.);
#65=ORIENTED_EDGE('',*,*,#242,.T.);
#66=ORIENTED_EDGE('',*,*,#243,.T.);
#67=ORIENTED_EDGE('',*,*,#244,.T.);
#68=ORIENTED_EDGE('',*,*,#245,.F.);
#69=ORIENTED_EDGE('',*,*,#246,.F.);
#70=ORIENTED_EDGE('',*,*,#247,.T.);
#71=ORIENTED_EDGE('',*,*,#248,.T.);
#72=ORIENTED_EDGE('',*,*,#249,.T.);
#73=ORIENTED_EDGE('',*,*,#250,.F.);
#74=ORIENTED_EDGE('',*,*,#251,.F.);
#75=ORIENTED_EDGE('',*,*,#252,.F.);
#76=ORIENTED_EDGE('',*,*,#253,.F.);
#77=ORIENTED_EDGE('',*,*,#254,.F.);
#78=ORIENTED_EDGE('',*,*,#255,.T.);
#79=ORIENTED_EDGE('',*,*,#225,.F.);
#80=ORIENTED_EDGE('',*,*,#256,.T.);
#81=ORIENTED_EDGE('',*,*,#246,.T.);
#82=ORIENTED_EDGE('',*,*,#257,.T.);
#83=ORIENTED_EDGE('',*,*,#258,.T.);
#84=ORIENTED_EDGE('',*,*,#259,.T.);
#85=ORIENTED_EDGE('',*,*,#254,.T.);
#86=ORIENTED_EDGE('',*,*,#260,.F.);
#87=ORIENTED_EDGE('',*,*,#245,.T.);
#88=ORIENTED_EDGE('',*,*,#261,.T.);
#89=ORIENTED_EDGE('',*,*,#260,.T.);
#90=ORIENTED_EDGE('',*,*,#257,.F.);
#91=ORIENTED_EDGE('',*,*,#249,.F.);
#92=ORIENTED_EDGE('',*,*,#262,.T.);
#93=ORIENTED_EDGE('',*,*,#244,.F.);
#94=ORIENTED_EDGE('',*,*,#263,.T.);
#95=ORIENTED_EDGE('',*,*,#258,.F.);
#96=ORIENTED_EDGE('',*,*,#261,.F.);
#97=ORIENTED_EDGE('',*,*,#248,.F.);
#98=ORIENTED_EDGE('',*,*,#264,.T.);
#99=ORIENTED_EDGE('',*,*,#242,.F.);
#100=ORIENTED_EDGE('',*,*,#262,.F.);
#101=ORIENTED_EDGE('',*,*,#238,.F.);
#102=ORIENTED_EDGE('',*,*,#265,.F.);
#103=ORIENTED_EDGE('',*,*,#266,.T.);
#104=ORIENTED_EDGE('',*,*,#267,.T.);
#105=ORIENTED_EDGE('',*,*,#268,.T.);
#106=ORIENTED_EDGE('',*,*,#221,.F.);
#107=ORIENTED_EDGE('',*,*,#269,.F.);
#108=ORIENTED_EDGE('',*,*,#265,.T.);
#109=ORIENTED_EDGE('',*,*,#270,.F.);
#110=ORIENTED_EDGE('',*,*,#271,.T.);
#111=ORIENTED_EDGE('',*,*,#227,.T.);
#112=ORIENTED_EDGE('',*,*,#272,.F.);
#113=ORIENTED_EDGE('',*,*,#273,.F.);
#114=ORIENTED_EDGE('',*,*,#267,.F.);
#115=ORIENTED_EDGE('',*,*,#274,.T.);
#116=ORIENTED_EDGE('',*,*,#272,.T.);
#117=ORIENTED_EDGE('',*,*,#266,.F.);
#118=ORIENTED_EDGE('',*,*,#269,.T.);
#119=ORIENTED_EDGE('',*,*,#220,.T.);
#120=ORIENTED_EDGE('',*,*,#275,.T.);
#121=ORIENTED_EDGE('',*,*,#270,.T.);
#122=ORIENTED_EDGE('',*,*,#274,.F.);
#123=ORIENTED_EDGE('',*,*,#276,.F.);
#124=ORIENTED_EDGE('',*,*,#247,.F.);
#125=ORIENTED_EDGE('',*,*,#256,.F.);
#126=ORIENTED_EDGE('',*,*,#224,.F.);
#127=ORIENTED_EDGE('',*,*,#268,.F.);
#128=ORIENTED_EDGE('',*,*,#241,.F.);
#129=ORIENTED_EDGE('',*,*,#264,.F.);
#130=ORIENTED_EDGE('',*,*,#276,.T.);
#131=ORIENTED_EDGE('',*,*,#277,.F.);
#132=ORIENTED_EDGE('',*,*,#278,.F.);
#133=ORIENTED_EDGE('',*,*,#243,.F.);
#134=ORIENTED_EDGE('',*,*,#277,.T.);
#135=ORIENTED_EDGE('',*,*,#240,.F.);
#136=ORIENTED_EDGE('',*,*,#263,.F.);
#137=ORIENTED_EDGE('',*,*,#278,.T.);
#138=ORIENTED_EDGE('',*,*,#279,.F.);
#139=ORIENTED_EDGE('',*,*,#273,.T.);
#140=ORIENTED_EDGE('',*,*,#226,.F.);
#141=ORIENTED_EDGE('',*,*,#255,.F.);
#142=ORIENTED_EDGE('',*,*,#259,.F.);
#143=ORIENTED_EDGE('',*,*,#279,.T.);
#144=ORIENTED_EDGE('',*,*,#239,.F.);
#145=ORIENTED_EDGE('',*,*,#234,.F.);
#146=ORIENTED_EDGE('',*,*,#280,.F.);
#147=ORIENTED_EDGE('',*,*,#281,.T.);
#148=ORIENTED_EDGE('',*,*,#282,.T.);
#149=ORIENTED_EDGE('',*,*,#237,.T.);
#150=ORIENTED_EDGE('',*,*,#283,.F.);
#151=ORIENTED_EDGE('',*,*,#284,.F.);
#152=ORIENTED_EDGE('',*,*,#280,.T.);
#153=ORIENTED_EDGE('',*,*,#236,.T.);
#154=ORIENTED_EDGE('',*,*,#285,.F.);
#155=ORIENTED_EDGE('',*,*,#286,.F.);
#156=ORIENTED_EDGE('',*,*,#283,.T.);
#157=ORIENTED_EDGE('',*,*,#235,.F.);
#158=ORIENTED_EDGE('',*,*,#282,.F.);
#159=ORIENTED_EDGE('',*,*,#287,.T.);
#160=ORIENTED_EDGE('',*,*,#285,.T.);
#161=ORIENTED_EDGE('',*,*,#281,.F.);
#162=ORIENTED_EDGE('',*,*,#284,.T.);
#163=ORIENTED_EDGE('',*,*,#286,.T.);
#164=ORIENTED_EDGE('',*,*,#287,.F.);
#165=ORIENTED_EDGE('',*,*,#230,.F.);
#166=ORIENTED_EDGE('',*,*,#288,.F.);
#167=ORIENTED_EDGE('',*,*,#289,.T.);
#168=ORIENTED_EDGE('',*,*,#290,.T.);
#169=ORIENTED_EDGE('',*,*,#233,.T.);
#170=ORIENTED_EDGE('',*,*,#291,.F.);
#171=ORIENTED_EDGE('',*,*,#292,.F.);
#172=ORIENTED_EDGE('',*,*,#288,.T.);
#173=ORIENTED_EDGE('',*,*,#232,.T.);
#174=ORIENTED_EDGE('',*,*,#293,.F.);
#175=ORIENTED_EDGE('',*,*,#294,.F.);
#176=ORIENTED_EDGE('',*,*,#291,.T.);
#177=ORIENTED_EDGE('',*,*,#231,.F.);
#178=ORIENTED_EDGE('',*,*,#290,.F.);
#179=ORIENTED_EDGE('',*,*,#295,.T.);
#180=ORIENTED_EDGE('',*,*,#293,.T.);
#181=ORIENTED_EDGE('',*,*,#289,.F.);
#182=ORIENTED_EDGE('',*,*,#292,.T.);
#183=ORIENTED_EDGE('',*,*,#294,.T.);
#184=ORIENTED_EDGE('',*,*,#295,.F.);
#185=ORIENTED_EDGE('',*,*,#296,.F.);
#186=ORIENTED_EDGE('',*,*,#297,.T.);
#187=ORIENTED_EDGE('',*,*,#298,.T.);
#188=ORIENTED_EDGE('',*,*,#275,.F.);
#189=ORIENTED_EDGE('',*,*,#223,.T.);
#190=ORIENTED_EDGE('',*,*,#299,.F.);
#191=ORIENTED_EDGE('',*,*,#300,.F.);
#192=ORIENTED_EDGE('',*,*,#296,.T.);
#193=ORIENTED_EDGE('',*,*,#219,.T.);
#194=ORIENTED_EDGE('',*,*,#229,.T.);
#195=ORIENTED_EDGE('',*,*,#301,.F.);
#196=ORIENTED_EDGE('',*,*,#302,.F.);
#197=ORIENTED_EDGE('',*,*,#299,.T.);
#198=ORIENTED_EDGE('',*,*,#228,.T.);
#199=ORIENTED_EDGE('',*,*,#271,.F.);
#200=ORIENTED_EDGE('',*,*,#298,.F.);
#201=ORIENTED_EDGE('',*,*,#303,.F.);
#202=ORIENTED_EDGE('',*,*,#301,.T.);
#203=ORIENTED_EDGE('',*,*,#297,.F.);
#204=ORIENTED_EDGE('',*,*,#300,.T.);
#205=ORIENTED_EDGE('',*,*,#302,.T.);
#206=ORIENTED_EDGE('',*,*,#303,.T.);
#207=ORIENTED_EDGE('',*,*,#304,.F.);
#208=ORIENTED_EDGE('',*,*,#253,.T.);
#209=ORIENTED_EDGE('',*,*,#304,.T.);
#210=ORIENTED_EDGE('',*,*,#305,.F.);
#211=ORIENTED_EDGE('',*,*,#252,.T.);
#212=ORIENTED_EDGE('',*,*,#305,.T.);
#213=ORIENTED_EDGE('',*,*,#306,.F.);
#214=ORIENTED_EDGE('',*,*,#251,.T.);
#215=ORIENTED_EDGE('',*,*,#306,.T.);
#216=ORIENTED_EDGE('',*,*,#307,.F.);
#217=ORIENTED_EDGE('',*,*,#250,.T.);
#218=ORIENTED_EDGE('',*,*,#307,.T.);
#219=EDGE_CURVE('',#308,#309,#366,.T.);
#220=EDGE_CURVE('',#310,#308,#367,.T.);
#221=EDGE_CURVE('',#310,#311,#368,.T.);
#222=EDGE_CURVE('',#311,#309,#369,.T.);
#223=EDGE_CURVE('',#309,#312,#370,.T.);
#224=EDGE_CURVE('',#311,#313,#371,.T.);
#225=EDGE_CURVE('',#313,#314,#372,.T.);
#226=EDGE_CURVE('',#314,#315,#373,.F.);
#227=EDGE_CURVE('',#316,#315,#374,.T.);
#228=EDGE_CURVE('',#317,#316,#375,.T.);
#229=EDGE_CURVE('',#312,#317,#376,.T.);
#230=EDGE_CURVE('',#318,#319,#377,.T.);
#231=EDGE_CURVE('',#319,#320,#378,.T.);
#232=EDGE_CURVE('',#321,#320,#379,.T.);
#233=EDGE_CURVE('',#318,#321,#380,.T.);
#234=EDGE_CURVE('',#322,#323,#381,.T.);
#235=EDGE_CURVE('',#323,#324,#382,.T.);
#236=EDGE_CURVE('',#325,#324,#383,.T.);
#237=EDGE_CURVE('',#322,#325,#384,.T.);
#238=EDGE_CURVE('',#326,#327,#385,.T.);
#239=EDGE_CURVE('',#327,#328,#386,.F.);
#240=EDGE_CURVE('',#328,#329,#387,.F.);
#241=EDGE_CURVE('',#329,#326,#388,.T.);
#242=EDGE_CURVE('',#330,#331,#389,.F.);
#243=EDGE_CURVE('',#331,#332,#390,.T.);
#244=EDGE_CURVE('',#332,#333,#391,.T.);
#245=EDGE_CURVE('',#330,#333,#392,.T.);
#246=EDGE_CURVE('',#334,#335,#393,.T.);
#247=EDGE_CURVE('',#334,#336,#394,.F.);
#248=EDGE_CURVE('',#336,#337,#395,.T.);
#249=EDGE_CURVE('',#337,#335,#396,.T.);
#250=EDGE_CURVE('',#338,#338,#23,.F.);
#251=EDGE_CURVE('',#339,#339,#24,.F.);
#252=EDGE_CURVE('',#340,#340,#25,.F.);
#253=EDGE_CURVE('',#341,#341,#26,.F.);
#254=EDGE_CURVE('',#342,#343,#397,.T.);
#255=EDGE_CURVE('',#342,#314,#27,.F.);
#256=EDGE_CURVE('',#313,#334,#28,.F.);
#257=EDGE_CURVE('',#335,#343,#398,.T.);
#258=EDGE_CURVE('',#344,#345,#399,.F.);
#259=EDGE_CURVE('',#345,#342,#400,.T.);
#260=EDGE_CURVE('',#344,#343,#401,.T.);
#261=EDGE_CURVE('',#333,#344,#29,.F.);
#262=EDGE_CURVE('',#337,#330,#30,.F.);
#263=EDGE_CURVE('',#332,#345,#31,.T.);
#264=EDGE_CURVE('',#336,#331,#32,.F.);
#265=EDGE_CURVE('',#346,#326,#402,.T.);
#266=EDGE_CURVE('',#346,#347,#403,.T.);
#267=EDGE_CURVE('',#347,#327,#404,.T.);
#268=EDGE_CURVE('',#326,#311,#405,.T.);
#269=EDGE_CURVE('',#346,#310,#406,.T.);
#270=EDGE_CURVE('',#348,#349,#407,.T.);
#271=EDGE_CURVE('',#348,#316,#408,.T.);
#272=EDGE_CURVE('',#349,#315,#409,.T.);
#273=EDGE_CURVE('',#327,#315,#410,.T.);
#274=EDGE_CURVE('',#347,#349,#411,.T.);
#275=EDGE_CURVE('',#308,#348,#412,.T.);
#276=EDGE_CURVE('',#336,#329,#33,.T.);
#277=EDGE_CURVE('',#331,#329,#34,.T.);
#278=EDGE_CURVE('',#332,#328,#35,.T.);
#279=EDGE_CURVE('',#345,#328,#36,.T.);
#280=EDGE_CURVE('',#350,#322,#413,.T.);
#281=EDGE_CURVE('',#350,#351,#414,.T.);
#282=EDGE_CURVE('',#351,#323,#415,.T.);
#283=EDGE_CURVE('',#352,#325,#416,.T.);
#284=EDGE_CURVE('',#350,#352,#417,.T.);
#285=EDGE_CURVE('',#353,#324,#418,.T.);
#286=EDGE_CURVE('',#352,#353,#419,.T.);
#287=EDGE_CURVE('',#351,#353,#420,.T.);
#288=EDGE_CURVE('',#354,#318,#421,.T.);
#289=EDGE_CURVE('',#354,#355,#422,.T.);
#290=EDGE_CURVE('',#355,#319,#423,.T.);
#291=EDGE_CURVE('',#356,#321,#424,.T.);
#292=EDGE_CURVE('',#354,#356,#425,.T.);
#293=EDGE_CURVE('',#357,#320,#426,.T.);
#294=EDGE_CURVE('',#356,#357,#427,.T.);
#295=EDGE_CURVE('',#355,#357,#428,.T.);
#296=EDGE_CURVE('',#358,#308,#429,.T.);
#297=EDGE_CURVE('',#358,#359,#430,.T.);
#298=EDGE_CURVE('',#359,#348,#431,.T.);
#299=EDGE_CURVE('',#360,#312,#432,.T.);
#300=EDGE_CURVE('',#358,#360,#433,.T.);
#301=EDGE_CURVE('',#361,#317,#434,.T.);
#302=EDGE_CURVE('',#360,#361,#435,.T.);
#303=EDGE_CURVE('',#361,#359,#436,.T.);
#304=EDGE_CURVE('',#362,#362,#37,.T.);
#305=EDGE_CURVE('',#363,#363,#38,.T.);
#306=EDGE_CURVE('',#364,#364,#39,.T.);
#307=EDGE_CURVE('',#365,#365,#40,.T.);
#308=VERTEX_POINT('',#961);
#309=VERTEX_POINT('',#962);
#310=VERTEX_POINT('',#964);
#311=VERTEX_POINT('',#966);
#312=VERTEX_POINT('',#970);
#313=VERTEX_POINT('',#972);
#314=VERTEX_POINT('',#974);
#315=VERTEX_POINT('',#976);
#316=VERTEX_POINT('',#978);
#317=VERTEX_POINT('',#980);
#318=VERTEX_POINT('',#983);
#319=VERTEX_POINT('',#984);
#320=VERTEX_POINT('',#986);
#321=VERTEX_POINT('',#988);
#322=VERTEX_POINT('',#992);
#323=VERTEX_POINT('',#993);
#324=VERTEX_POINT('',#995);
#325=VERTEX_POINT('',#997);
#326=VERTEX_POINT('',#1000);
#327=VERTEX_POINT('',#1001);
#328=VERTEX_POINT('',#1003);
#329=VERTEX_POINT('',#1005);
#330=VERTEX_POINT('',#1009);
#331=VERTEX_POINT('',#1010);
#332=VERTEX_POINT('',#1012);
#333=VERTEX_POINT('',#1014);
#334=VERTEX_POINT('',#1018);
#335=VERTEX_POINT('',#1019);
#336=VERTEX_POINT('',#1021);
#337=VERTEX_POINT('',#1023);
#338=VERTEX_POINT('',#1027);
#339=VERTEX_POINT('',#1029);
#340=VERTEX_POINT('',#1031);
#341=VERTEX_POINT('',#1033);
#342=VERTEX_POINT('',#1035);
#343=VERTEX_POINT('',#1036);
#344=VERTEX_POINT('',#1042);
#345=VERTEX_POINT('',#1043);
#346=VERTEX_POINT('',#1055);
#347=VERTEX_POINT('',#1057);
#348=VERTEX_POINT('',#1064);
#349=VERTEX_POINT('',#1065);
#350=VERTEX_POINT('',#1084);
#351=VERTEX_POINT('',#1086);
#352=VERTEX_POINT('',#1090);
#353=VERTEX_POINT('',#1094);
#354=VERTEX_POINT('',#1101);
#355=VERTEX_POINT('',#1103);
#356=VERTEX_POINT('',#1107);
#357=VERTEX_POINT('',#1111);
#358=VERTEX_POINT('',#1118);
#359=VERTEX_POINT('',#1120);
#360=VERTEX_POINT('',#1124);
#361=VERTEX_POINT('',#1128);
#362=VERTEX_POINT('',#1135);
#363=VERTEX_POINT('',#1139);
#364=VERTEX_POINT('',#1143);
#365=VERTEX_POINT('',#1147);
#366=LINE('',#960,#437);
#367=LINE('',#963,#438);
#368=LINE('',#965,#439);
#369=LINE('',#967,#440);
#370=LINE('',#969,#441);
#371=LINE('',#971,#442);
#372=LINE('',#973,#443);
#373=LINE('',#975,#444);
#374=LINE('',#977,#445);
#375=LINE('',#979,#446);
#376=LINE('',#981,#447);
#377=LINE('',#982,#448);
#378=LINE('',#985,#449);
#379=LINE('',#987,#450);
#380=LINE('',#989,#451);
#381=LINE('',#991,#452);
#382=LINE('',#994,#453);
#383=LINE('',#996,#454);
#384=LINE('',#998,#455);
#385=LINE('',#999,#456);
#386=LINE('',#1002,#457);
#387=LINE('',#1004,#458);
#388=LINE('',#1006,#459);
#389=LINE('',#1008,#460);
#390=LINE('',#1011,#461);
#391=LINE('',#1013,#462);
#392=LINE('',#1015,#463);
#393=LINE('',#1017,#464);
#394=LINE('',#1020,#465);
#395=LINE('',#1022,#466);
#396=LINE('',#1024,#467);
#397=LINE('',#1034,#468);
#398=LINE('',#1039,#469);
#399=LINE('',#1041,#470);
#400=LINE('',#1044,#471);
#401=LINE('',#1045,#472);
#402=LINE('',#1054,#473);
#403=LINE('',#1056,#474);
#404=LINE('',#1058,#475);
#405=LINE('',#1060,#476);
#406=LINE('',#1061,#477);
#407=LINE('',#1063,#478);
#408=LINE('',#1066,#479);
#409=LINE('',#1067,#480);
#410=LINE('',#1069,#481);
#411=LINE('',#1070,#482);
#412=LINE('',#1072,#483);
#413=LINE('',#1083,#484);
#414=LINE('',#1085,#485);
#415=LINE('',#1087,#486);
#416=LINE('',#1089,#487);
#417=LINE('',#1091,#488);
#418=LINE('',#1093,#489);
#419=LINE('',#1095,#490);
#420=LINE('',#1097,#491);
#421=LINE('',#1100,#492);
#422=LINE('',#1102,#493);
#423=LINE('',#1104,#494);
#424=LINE('',#1106,#495);
#425=LINE('',#1108,#496);
#426=LINE('',#1110,#497);
#427=LINE('',#1112,#498);
#428=LINE('',#1114,#499);
#429=LINE('',#1117,#500);
#430=LINE('',#1119,#501);
#431=LINE('',#1121,#502);
#432=LINE('',#1123,#503);
#433=LINE('',#1125,#504);
#434=LINE('',#1127,#505);
#435=LINE('',#1129,#506);
#436=LINE('',#1131,#507);
#437=VECTOR('',#767,1.);
#438=VECTOR('',#768,1.);
#439=VECTOR('',#769,1.);
#440=VECTOR('',#770,1.);
#441=VECTOR('',#773,1.);
#442=VECTOR('',#774,1.);
#443=VECTOR('',#775,1.);
#444=VECTOR('',#776,1.);
#445=VECTOR('',#777,1.);
#446=VECTOR('',#778,1.);
#447=VECTOR('',#779,1.);
#448=VECTOR('',#780,1.);
#449=VECTOR('',#781,1.);
#450=VECTOR('',#782,1.);
#451=VECTOR('',#783,1.);
#452=VECTOR('',#786,1.);
#453=VECTOR('',#787,1.);
#454=VECTOR('',#788,1.);
#455=VECTOR('',#789,1.);
#456=VECTOR('',#790,1.);
#457=VECTOR('',#791,1.);
#458=VECTOR('',#792,1.);
#459=VECTOR('',#793,1.);
#460=VECTOR('',#796,1.);
#461=VECTOR('',#797,1.);
#462=VECTOR('',#798,1.);
#463=VECTOR('',#799,1.);
#464=VECTOR('',#802,1.);
#465=VECTOR('',#803,1.);
#466=VECTOR('',#804,1.);
#467=VECTOR('',#805,1.);
#468=VECTOR('',#816,1.);
#469=VECTOR('',#821,1.);
#470=VECTOR('',#824,1.);
#471=VECTOR('',#825,1.);
#472=VECTOR('',#826,1.);
#473=VECTOR('',#843,1.);
#474=VECTOR('',#844,1.);
#475=VECTOR('',#845,1.);
#476=VECTOR('',#848,1.);
#477=VECTOR('',#849,1.);
#478=VECTOR('',#852,1.);
#479=VECTOR('',#853,1.);
#480=VECTOR('',#854,1.);
#481=VECTOR('',#857,1.);
#482=VECTOR('',#858,1.);
#483=VECTOR('',#861,1.);
#484=VECTOR('',#882,1.);
#485=VECTOR('',#883,1.);
#486=VECTOR('',#884,1.);
#487=VECTOR('',#887,1.);
#488=VECTOR('',#888,1.);
#489=VECTOR('',#891,1.);
#490=VECTOR('',#892,1.);
#491=VECTOR('',#895,1.);
#492=VECTOR('',#900,1.);
#493=VECTOR('',#901,1.);
#494=VECTOR('',#902,1.);
#495=VECTOR('',#905,1.);
#496=VECTOR('',#906,1.);
#497=VECTOR('',#909,1.);
#498=VECTOR('',#910,1.);
#499=VECTOR('',#913,1.);
#500=VECTOR('',#918,1.);
#501=VECTOR('',#919,1.);
#502=VECTOR('',#920,1.);
#503=VECTOR('',#923,1.);
#504=VECTOR('',#924,1.);
#505=VECTOR('',#927,1.);
#506=VECTOR('',#928,1.);
#507=VECTOR('',#931,1.);
#508=EDGE_LOOP('',(#41,#42,#43,#44));
#509=EDGE_LOOP('',(#45,#46,#47,#48,#49,#50,#51,#52));
#510=EDGE_LOOP('',(#53,#54,#55,#56));
#511=EDGE_LOOP('',(#57,#58,#59,#60));
#512=EDGE_LOOP('',(#61,#62,#63,#64));
#513=EDGE_LOOP('',(#65,#66,#67,#68));
#514=EDGE_LOOP('',(#69,#70,#71,#72));
#515=EDGE_LOOP('',(#73));
#516=EDGE_LOOP('',(#74));
#517=EDGE_LOOP('',(#75));
#518=EDGE_LOOP('',(#76));
#519=EDGE_LOOP('',(#77,#78,#79,#80,#81,#82));
#520=EDGE_LOOP('',(#83,#84,#85,#86));
#521=EDGE_LOOP('',(#87,#88,#89,#90,#91,#92));
#522=EDGE_LOOP('',(#93,#94,#95,#96));
#523=EDGE_LOOP('',(#97,#98,#99,#100));
#524=EDGE_LOOP('',(#101,#102,#103,#104));
#525=EDGE_LOOP('',(#105,#106,#107,#108));
#526=EDGE_LOOP('',(#109,#110,#111,#112));
#527=EDGE_LOOP('',(#113,#114,#115,#116));
#528=EDGE_LOOP('',(#117,#118,#119,#120,#121,#122));
#529=EDGE_LOOP('',(#123,#124,#125,#126,#127,#128));
#530=EDGE_LOOP('',(#129,#130,#131));
#531=EDGE_LOOP('',(#132,#133,#134,#135));
#532=EDGE_LOOP('',(#136,#137,#138));
#533=EDGE_LOOP('',(#139,#140,#141,#142,#143,#144));
#534=EDGE_LOOP('',(#145,#146,#147,#148));
#535=EDGE_LOOP('',(#149,#150,#151,#152));
#536=EDGE_LOOP('',(#153,#154,#155,#156));
#537=EDGE_LOOP('',(#157,#158,#159,#160));
#538=EDGE_LOOP('',(#161,#162,#163,#164));
#539=EDGE_LOOP('',(#165,#166,#167,#168));
#540=EDGE_LOOP('',(#169,#170,#171,#172));
#541=EDGE_LOOP('',(#173,#174,#175,#176));
#542=EDGE_LOOP('',(#177,#178,#179,#180));
#543=EDGE_LOOP('',(#181,#182,#183,#184));
#544=EDGE_LOOP('',(#185,#186,#187,#188));
#545=EDGE_LOOP('',(#189,#190,#191,#192,#193));
#546=EDGE_LOOP('',(#194,#195,#196,#197));
#547=EDGE_LOOP('',(#198,#199,#200,#201,#202));
#548=EDGE_LOOP('',(#203,#204,#205,#206));
#549=EDGE_LOOP('',(#207));
#550=EDGE_LOOP('',(#208));
#551=EDGE_LOOP('',(#209));
#552=EDGE_LOOP('',(#210));
#553=EDGE_LOOP('',(#211));
#554=EDGE_LOOP('',(#212));
#555=EDGE_LOOP('',(#213));
#556=EDGE_LOOP('',(#214));
#557=EDGE_LOOP('',(#215));
#558=EDGE_LOOP('',(#216));
#559=EDGE_LOOP('',(#217));
#560=EDGE_LOOP('',(#218));
#561=FACE_BOUND('',#508,.T.);
#562=FACE_BOUND('',#509,.T.);
#563=FACE_BOUND('',#510,.T.);
#564=FACE_BOUND('',#511,.T.);
#565=FACE_BOUND('',#512,.T.);
#566=FACE_BOUND('',#513,.T.);
#567=FACE_BOUND('',#514,.T.);
#568=FACE_BOUND('',#515,.T.);
#569=FACE_BOUND('',#516,.T.);
#570=FACE_BOUND('',#517,.T.);
#571=FACE_BOUND('',#518,.T.);
#572=FACE_BOUND('',#519,.T.);
#573=FACE_BOUND('',#520,.T.);
#574=FACE_BOUND('',#521,.T.);
#575=FACE_BOUND('',#522,.T.);
#576=FACE_BOUND('',#523,.T.);
#577=FACE_BOUND('',#524,.T.);
#578=FACE_BOUND('',#525,.T.);
#579=FACE_BOUND('',#526,.T.);
#580=FACE_BOUND('',#527,.T.);
#581=FACE_BOUND('',#528,.T.);
#582=FACE_BOUND('',#529,.T.);
#583=FACE_BOUND('',#530,.T.);
#584=FACE_BOUND('',#531,.T.);
#585=FACE_BOUND('',#532,.T.);
#586=FACE_BOUND('',#533,.T.);
#587=FACE_BOUND('',#534,.T.);
#588=FACE_BOUND('',#535,.T.);
#589=FACE_BOUND('',#536,.T.);
#590=FACE_BOUND('',#537,.T.);
#591=FACE_BOUND('',#538,.T.);
#592=FACE_BOUND('',#539,.T.);
#593=FACE_BOUND('',#540,.T.);
#594=FACE_BOUND('',#541,.T.);
#595=FACE_BOUND('',#542,.T.);
#596=FACE_BOUND('',#543,.T.);
#597=FACE_BOUND('',#544,.T.);
#598=FACE_BOUND('',#545,.T.);
#599=FACE_BOUND('',#546,.T.);
#600=FACE_BOUND('',#547,.T.);
#601=FACE_BOUND('',#548,.T.);
#602=FACE_BOUND('',#549,.T.);
#603=FACE_BOUND('',#550,.T.);
#604=FACE_BOUND('',#551,.T.);
#605=FACE_BOUND('',#552,.T.);
#606=FACE_BOUND('',#553,.T.);
#607=FACE_BOUND('',#554,.T.);
#608=FACE_BOUND('',#555,.T.);
#609=FACE_BOUND('',#556,.T.);
#610=FACE_BOUND('',#557,.T.);
#611=FACE_BOUND('',#558,.T.);
#612=FACE_BOUND('',#559,.T.);
#613=FACE_BOUND('',#560,.T.);
#614=PLANE('',#702);
#615=PLANE('',#703);
#616=PLANE('',#704);
#617=PLANE('',#705);
#618=PLANE('',#706);
#619=PLANE('',#707);
#620=PLANE('',#714);
#621=PLANE('',#715);
#622=PLANE('',#722);
#623=PLANE('',#723);
#624=PLANE('',#724);
#625=PLANE('',#725);
#626=PLANE('',#726);
#627=PLANE('',#736);
#628=PLANE('',#737);
#629=PLANE('',#738);
#630=PLANE('',#739);
#631=PLANE('',#740);
#632=PLANE('',#741);
#633=PLANE('',#742);
#634=PLANE('',#743);
#635=PLANE('',#744);
#636=PLANE('',#745);
#637=PLANE('',#746);
#638=PLANE('',#747);
#639=PLANE('',#748);
#640=PLANE('',#749);
#641=PLANE('',#750);
#642=PLANE('',#753);
#643=PLANE('',#756);
#644=PLANE('',#759);
#645=PLANE('',#762);
#646=ADVANCED_FACE('',(#561),#614,.F.);
#647=ADVANCED_FACE('',(#562,#563),#615,.T.);
#648=ADVANCED_FACE('',(#564,#565),#616,.T.);
#649=ADVANCED_FACE('',(#566),#617,.T.);
#650=ADVANCED_FACE('',(#567),#618,.F.);
#651=ADVANCED_FACE('',(#568,#569,#570,#571,#572),#619,.F.);
#652=ADVANCED_FACE('',(#573),#620,.T.);
#653=ADVANCED_FACE('',(#574),#621,.F.);
#654=ADVANCED_FACE('',(#575),#18,.T.);
#655=ADVANCED_FACE('',(#576),#19,.T.);
#656=ADVANCED_FACE('',(#577),#622,.T.);
#657=ADVANCED_FACE('',(#578),#623,.F.);
#658=ADVANCED_FACE('',(#579),#624,.F.);
#659=ADVANCED_FACE('',(#580),#625,.T.);
#660=ADVANCED_FACE('',(#581),#626,.T.);
#661=ADVANCED_FACE('',(#582),#20,.T.);
#662=ADVANCED_FACE('',(#583),#16,.T.);
#663=ADVANCED_FACE('',(#584),#21,.T.);
#664=ADVANCED_FACE('',(#585),#17,.T.);
#665=ADVANCED_FACE('',(#586),#22,.T.);
#666=ADVANCED_FACE('',(#587),#627,.T.);
#667=ADVANCED_FACE('',(#588),#628,.F.);
#668=ADVANCED_FACE('',(#589),#629,.F.);
#669=ADVANCED_FACE('',(#590),#630,.T.);
#670=ADVANCED_FACE('',(#591),#631,.T.);
#671=ADVANCED_FACE('',(#592),#632,.T.);
#672=ADVANCED_FACE('',(#593),#633,.F.);
#673=ADVANCED_FACE('',(#594),#634,.F.);
#674=ADVANCED_FACE('',(#595),#635,.T.);
#675=ADVANCED_FACE('',(#596),#636,.T.);
#676=ADVANCED_FACE('',(#597),#637,.T.);
#677=ADVANCED_FACE('',(#598),#638,.F.);
#678=ADVANCED_FACE('',(#599),#639,.F.);
#679=ADVANCED_FACE('',(#600),#640,.F.);
#680=ADVANCED_FACE('',(#601),#641,.T.);
#681=ADVANCED_FACE('',(#602,#603),#12,.T.);
#682=ADVANCED_FACE('',(#604),#642,.T.);
#683=ADVANCED_FACE('',(#605,#606),#13,.T.);
#684=ADVANCED_FACE('',(#607),#643,.T.);
#685=ADVANCED_FACE('',(#608,#609),#14,.T.);
#686=ADVANCED_FACE('',(#610),#644,.T.);
#687=ADVANCED_FACE('',(#611,#612),#15,.T.);
#688=ADVANCED_FACE('',(#613),#645,.T.);
#689=CLOSED_SHELL('',(#646,#647,#648,#649,#650,#651,#652,#653,#654,#655,
#656,#657,#658,#659,#660,#661,#662,#663,#664,#665,#666,#667,#668,#669,#670,
#671,#672,#673,#674,#675,#676,#677,#678,#679,#680,#681,#682,#683,#684,#685,
#686,#687,#688));
#690=STYLED_ITEM('',(#691),#698);
#691=PRESENTATION_STYLE_ASSIGNMENT((#692));
#692=SURFACE_STYLE_USAGE(.BOTH.,#693);
#693=SURFACE_SIDE_STYLE('',(#694));
#694=SURFACE_STYLE_FILL_AREA(#695);
#695=FILL_AREA_STYLE('',(#696));
#696=FILL_AREA_STYLE_COLOUR('',#697);
#697=COLOUR_RGB('',0.615686274509804,0.811764705882353,0.929411764705882);
#698=MANIFOLD_SOLID_BREP('Part 1',#689);
#699=SHAPE_DEFINITION_REPRESENTATION(#1155,#700);
#700=SHAPE_REPRESENTATION('Part 1',(#701),#1150);
#701=AXIS2_PLACEMENT_3D('',#958,#763,#764);
#702=AXIS2_PLACEMENT_3D('',#959,#765,#766);
#703=AXIS2_PLACEMENT_3D('',#968,#771,#772);
#704=AXIS2_PLACEMENT_3D('',#990,#784,#785);
#705=AXIS2_PLACEMENT_3D('',#1007,#794,#795);
#706=AXIS2_PLACEMENT_3D('',#1016,#800,#801);
#707=AXIS2_PLACEMENT_3D('',#1025,#806,#807);
#708=AXIS2_PLACEMENT_3D('',#1026,#808,#809);
#709=AXIS2_PLACEMENT_3D('',#1028,#810,#811);
#710=AXIS2_PLACEMENT_3D('',#1030,#812,#813);
#711=AXIS2_PLACEMENT_3D('',#1032,#814,#815);
#712=AXIS2_PLACEMENT_3D('',#1037,#817,#818);
#713=AXIS2_PLACEMENT_3D('',#1038,#819,#820);
#714=AXIS2_PLACEMENT_3D('',#1040,#822,#823);
#715=AXIS2_PLACEMENT_3D('',#1046,#827,#828);
#716=AXIS2_PLACEMENT_3D('',#1047,#829,#830);
#717=AXIS2_PLACEMENT_3D('',#1048,#831,#832);
#718=AXIS2_PLACEMENT_3D('',#1049,#833,#834);
#719=AXIS2_PLACEMENT_3D('',#1050,#835,#836);
#720=AXIS2_PLACEMENT_3D('',#1051,#837,#838);
#721=AXIS2_PLACEMENT_3D('',#1052,#839,#840);
#722=AXIS2_PLACEMENT_3D('',#1053,#841,#842);
#723=AXIS2_PLACEMENT_3D('',#1059,#846,#847);
#724=AXIS2_PLACEMENT_3D('',#1062,#850,#851);
#725=AXIS2_PLACEMENT_3D('',#1068,#855,#856);
#726=AXIS2_PLACEMENT_3D('',#1071,#859,#860);
#727=AXIS2_PLACEMENT_3D('',#1073,#862,#863);
#728=AXIS2_PLACEMENT_3D('',#1074,#864,#865);
#729=AXIS2_PLACEMENT_3D('',#1075,#866,#867);
#730=AXIS2_PLACEMENT_3D('',#1076,#868,#869);
#731=AXIS2_PLACEMENT_3D('',#1077,#870,#871);
#732=AXIS2_PLACEMENT_3D('',#1078,#872,#873);
#733=AXIS2_PLACEMENT_3D('',#1079,#874,#875);
#734=AXIS2_PLACEMENT_3D('',#1080,#876,#877);
#735=AXIS2_PLACEMENT_3D('',#1081,#878,#879);
#736=AXIS2_PLACEMENT_3D('',#1082,#880,#881);
#737=AXIS2_PLACEMENT_3D('',#1088,#885,#886);
#738=AXIS2_PLACEMENT_3D('',#1092,#889,#890);
#739=AXIS2_PLACEMENT_3D('',#1096,#893,#894);
#740=AXIS2_PLACEMENT_3D('',#1098,#896,#897);
#741=AXIS2_PLACEMENT_3D('',#1099,#898,#899);
#742=AXIS2_PLACEMENT_3D('',#1105,#903,#904);
#743=AXIS2_PLACEMENT_3D('',#1109,#907,#908);
#744=AXIS2_PLACEMENT_3D('',#1113,#911,#912);
#745=AXIS2_PLACEMENT_3D('',#1115,#914,#915);
#746=AXIS2_PLACEMENT_3D('',#1116,#916,#917);
#747=AXIS2_PLACEMENT_3D('',#1122,#921,#922);
#748=AXIS2_PLACEMENT_3D('',#1126,#925,#926);
#749=AXIS2_PLACEMENT_3D('',#1130,#929,#930);
#750=AXIS2_PLACEMENT_3D('',#1132,#932,#933);
#751=AXIS2_PLACEMENT_3D('',#1133,#934,#935);
#752=AXIS2_PLACEMENT_3D('',#1134,#936,#937);
#753=AXIS2_PLACEMENT_3D('',#1136,#938,#939);
#754=AXIS2_PLACEMENT_3D('',#1137,#940,#941);
#755=AXIS2_PLACEMENT_3D('',#1138,#942,#943);
#756=AXIS2_PLACEMENT_3D('',#1140,#944,#945);
#757=AXIS2_PLACEMENT_3D('',#1141,#946,#947);
#758=AXIS2_PLACEMENT_3D('',#1142,#948,#949);
#759=AXIS2_PLACEMENT_3D('',#1144,#950,#951);
#760=AXIS2_PLACEMENT_3D('',#1145,#952,#953);
#761=AXIS2_PLACEMENT_3D('',#1146,#954,#955);
#762=AXIS2_PLACEMENT_3D('',#1148,#956,#957);
#763=DIRECTION('',(0.,0.,1.));
#764=DIRECTION('',(1.,0.,0.));
#765=DIRECTION('',(0.,0.,-1.));
#766=DIRECTION('',(-1.,0.,0.));
#767=DIRECTION('',(0.,-1.,0.));
#768=DIRECTION('',(1.,0.,0.));
#769=DIRECTION('',(0.,-1.,0.));
#770=DIRECTION('',(1.,0.,0.));
#771=DIRECTION('',(0.,-1.,0.));
#772=DIRECTION('',(1.,0.,0.));
#773=DIRECTION('',(0.401966797281046,0.,-0.915654243633272));
#774=DIRECTION('',(1.02324701943458E-16,0.,-1.));
#775=DIRECTION('',(1.,0.,0.));
#776=DIRECTION('',(0.,0.,-1.));
#777=DIRECTION('',(1.,0.,0.));
#778=DIRECTION('',(0.721700568063266,0.,0.692205381413031));
#779=DIRECTION('',(1.,0.,0.));
#780=DIRECTION('',(1.,0.,0.));
#781=DIRECTION('',(0.,0.,-1.));
#782=DIRECTION('',(1.,0.,0.));
#783=DIRECTION('',(0.,0.,-1.));
#784=DIRECTION('',(0.,-1.,0.));
#785=DIRECTION('',(1.,0.,0.));
#786=DIRECTION('',(1.,0.,0.));
#787=DIRECTION('',(0.,0.,-1.));
#788=DIRECTION('',(1.,0.,0.));
#789=DIRECTION('',(0.,0.,-1.));
#790=DIRECTION('',(1.,0.,0.));
#791=DIRECTION('',(0.,0.,-1.));
#792=DIRECTION('',(1.,0.,0.));
#793=DIRECTION('',(1.02324701943458E-16,0.,-1.));
#794=DIRECTION('',(0.,0.,1.));
#795=DIRECTION('',(1.,0.,0.));
#796=DIRECTION('',(0.,1.,0.));
#797=DIRECTION('',(1.,0.,0.));
#798=DIRECTION('',(0.,1.,0.));
#799=DIRECTION('',(1.,0.,0.));
#800=DIRECTION('',(1.,0.,1.02324701943458E-16));
#801=DIRECTION('',(1.02324701943458E-16,0.,-1.));
#802=DIRECTION('',(0.,1.,0.));
#803=DIRECTION('',(1.02324701943458E-16,0.,-1.));
#804=DIRECTION('',(0.,1.,0.));
#805=DIRECTION('',(1.02324701943458E-16,0.,-1.));
#806=DIRECTION('',(0.,0.,1.));
#807=DIRECTION('',(1.,0.,0.));
#808=DIRECTION('',(0.,0.,1.));
#809=DIRECTION('',(1.,0.,0.));
#810=DIRECTION('',(0.,0.,1.));
#811=DIRECTION('',(1.,0.,0.));
#812=DIRECTION('',(0.,0.,1.));
#813=DIRECTION('',(1.,0.,0.));
#814=DIRECTION('',(0.,0.,1.));
#815=DIRECTION('',(1.,0.,0.));
#816=DIRECTION('',(0.,1.,0.));
#817=DIRECTION('',(0.,0.,1.));
#818=DIRECTION('',(1.,0.,0.));
#819=DIRECTION('',(0.,0.,1.));
#820=DIRECTION('',(1.,0.,0.));
#821=DIRECTION('',(1.,0.,0.));
#822=DIRECTION('',(1.,0.,0.));
#823=DIRECTION('',(0.,0.,-1.));
#824=DIRECTION('',(0.,1.,0.));
#825=DIRECTION('',(0.,0.,-1.));
#826=DIRECTION('',(0.,0.,-1.));
#827=DIRECTION('',(0.,-1.,0.));
#828=DIRECTION('',(1.,0.,0.));
#829=DIRECTION('',(0.,-1.,0.));
#830=DIRECTION('',(0.,0.,-1.));
#831=DIRECTION('',(0.,-1.,0.));
#832=DIRECTION('',(0.,0.,-1.));
#833=DIRECTION('',(0.,1.,0.));
#834=DIRECTION('',(0.,0.,1.));
#835=DIRECTION('',(0.,1.,0.));
#836=DIRECTION('',(0.,0.,1.));
#837=DIRECTION('',(0.,-1.,0.));
#838=DIRECTION('',(0.,0.,-1.));
#839=DIRECTION('',(0.,-1.,0.));
#840=DIRECTION('',(0.,0.,-1.));
#841=DIRECTION('',(0.,0.,-1.));
#842=DIRECTION('',(-1.,0.,0.));
#843=DIRECTION('',(0.,-1.,0.));
#844=DIRECTION('',(1.,0.,0.));
#845=DIRECTION('',(0.,-1.,0.));
#846=DIRECTION('',(-1.,0.,0.));
#847=DIRECTION('',(0.,0.,1.));
#848=DIRECTION('',(0.,0.,-1.));
#849=DIRECTION('',(0.,0.,-1.));
#850=DIRECTION('',(0.,0.,-1.));
#851=DIRECTION('',(-1.,0.,0.));
#852=DIRECTION('',(1.,0.,0.));
#853=DIRECTION('',(0.,-1.,0.));
#854=DIRECTION('',(0.,-1.,0.));
#855=DIRECTION('',(-1.,0.,0.));
#856=DIRECTION('',(0.,0.,1.));
#857=DIRECTION('',(0.,0.,-1.));
#858=DIRECTION('',(0.,0.,-1.));
#859=DIRECTION('',(0.,-1.,0.));
#860=DIRECTION('',(1.,0.,0.));
#861=DIRECTION('',(1.,0.,0.));
#862=DIRECTION('',(-1.02324701943458E-16,0.,1.));
#863=DIRECTION('',(1.,0.,1.02324701943458E-16));
#864=DIRECTION('',(0.,0.,1.));
#865=DIRECTION('',(1.,0.,0.));
#866=DIRECTION('',(0.,-1.,0.));
#867=DIRECTION('',(0.,0.,-1.));
#868=DIRECTION('',(1.,0.,0.));
#869=DIRECTION('',(0.,0.,-1.));
#870=DIRECTION('',(1.,0.,0.));
#871=DIRECTION('',(0.,0.,-1.));
#872=DIRECTION('',(1.,0.,0.));
#873=DIRECTION('',(0.,0.,-1.));
#874=DIRECTION('',(0.,-1.,0.));
#875=DIRECTION('',(0.,0.,-1.));
#876=DIRECTION('',(0.,0.,-1.));
#877=DIRECTION('',(-1.,0.,0.));
#878=DIRECTION('',(0.,0.,-1.));
#879=DIRECTION('',(-1.,0.,0.));
#880=DIRECTION('',(0.,0.,1.));
#881=DIRECTION('',(1.,0.,0.));
#882=DIRECTION('',(0.,1.,0.));
#883=DIRECTION('',(1.,0.,0.));
#884=DIRECTION('',(0.,1.,0.));
#885=DIRECTION('',(1.,0.,0.));
#886=DIRECTION('',(0.,0.,-1.));
#887=DIRECTION('',(0.,1.,0.));
#888=DIRECTION('',(0.,-0.104528463267653,-0.994521895368273));
#889=DIRECTION('',(0.,0.,1.));
#890=DIRECTION('',(1.,0.,0.));
#891=DIRECTION('',(0.,1.,0.));
#892=DIRECTION('',(1.,0.,0.));
#893=DIRECTION('',(1.,0.,0.));
#894=DIRECTION('',(0.,0.,-1.));
#895=DIRECTION('',(0.,-0.104528463267653,-0.994521895368273));
#896=DIRECTION('',(0.,-0.994521895368273,0.104528463267653));
#897=DIRECTION('',(0.,0.104528463267653,0.994521895368273));
#898=DIRECTION('',(0.,0.,1.));
#899=DIRECTION('',(1.,0.,0.));
#900=DIRECTION('',(0.,1.,0.));
#901=DIRECTION('',(1.,0.,0.));
#902=DIRECTION('',(0.,1.,0.));
#903=DIRECTION('',(1.,0.,0.));
#904=DIRECTION('',(0.,0.,-1.));
#905=DIRECTION('',(0.,1.,0.));
#906=DIRECTION('',(0.,0.0348994967025009,-0.999390827019096));
#907=DIRECTION('',(0.,0.,1.));
#908=DIRECTION('',(1.,0.,0.));
#909=DIRECTION('',(0.,1.,0.));
#910=DIRECTION('',(1.,0.,0.));
#911=DIRECTION('',(1.,0.,0.));
#912=DIRECTION('',(0.,0.,-1.));
#913=DIRECTION('',(0.,0.0348994967025009,-0.999390827019096));
#914=DIRECTION('',(0.,-0.999390827019096,-0.0348994967025009));
#915=DIRECTION('',(0.,0.0348994967025009,-0.999390827019096));
#916=DIRECTION('',(0.,0.,-1.));
#917=DIRECTION('',(-1.,0.,0.));
#918=DIRECTION('',(0.,-1.,0.));
#919=DIRECTION('',(1.,0.,0.));
#920=DIRECTION('',(0.,-1.,0.));
#921=DIRECTION('',(-0.915654243633271,0.,-0.401966797281046));
#922=DIRECTION('',(-0.401966797281046,0.,0.915654243633272));
#923=DIRECTION('',(0.,-1.,0.));
#924=DIRECTION('',(0.401966797281046,0.,-0.915654243633272));
#925=DIRECTION('',(0.,0.,-1.));
#926=DIRECTION('',(-1.,0.,0.));
#927=DIRECTION('',(0.,-1.,0.));
#928=DIRECTION('',(1.,0.,0.));
#929=DIRECTION('',(0.692205381413031,0.,-0.721700568063266));
#930=DIRECTION('',(-0.721700568063266,0.,-0.692205381413031));
#931=DIRECTION('',(0.721700568063266,0.,0.692205381413031));
#932=DIRECTION('',(0.,-1.,0.));
#933=DIRECTION('',(1.,0.,0.));
#934=DIRECTION('',(0.,0.,1.));
#935=DIRECTION('',(1.,0.,0.));
#936=DIRECTION('',(0.,0.,-1.));
#937=DIRECTION('',(-1.,0.,0.));
#938=DIRECTION('',(0.,0.,-1.));
#939=DIRECTION('',(1.,0.,0.));
#940=DIRECTION('',(0.,0.,1.));
#941=DIRECTION('',(1.,0.,0.));
#942=DIRECTION('',(0.,0.,-1.));
#943=DIRECTION('',(-1.,0.,0.));
#944=DIRECTION('',(0.,0.,-1.));
#945=DIRECTION('',(1.,0.,0.));
#946=DIRECTION('',(0.,0.,1.));
#947=DIRECTION('',(1.,0.,0.));
#948=DIRECTION('',(0.,0.,-1.));
#949=DIRECTION('',(-1.,0.,0.));
#950=DIRECTION('',(0.,0.,-1.));
#951=DIRECTION('',(1.,0.,0.));
#952=DIRECTION('',(0.,0.,1.));
#953=DIRECTION('',(1.,0.,0.));
#954=DIRECTION('',(0.,0.,-1.));
#955=DIRECTION('',(-1.,0.,0.));
#956=DIRECTION('',(0.,0.,-1.));
#957=DIRECTION('',(1.,0.,0.));
#958=CARTESIAN_POINT('',(0.,0.,0.));
#959=CARTESIAN_POINT('',(-0.000596591271460088,-0.0243,0.));
#960=CARTESIAN_POINT('',(-0.0121041676029563,-0.0242,0.));
#961=CARTESIAN_POINT('',(-0.0121041676029563,-0.0243,0.));
#962=CARTESIAN_POINT('',(-0.0121041676029563,-0.025,0.));
#963=CARTESIAN_POINT('',(-0.000596591271460088,-0.0243,0.));
#964=CARTESIAN_POINT('',(-0.0158863651603461,-0.0243,0.));
#965=CARTESIAN_POINT('',(-0.0158863651603461,-0.0243,0.));
#966=CARTESIAN_POINT('',(-0.0158863651603461,-0.025,0.));
#967=CARTESIAN_POINT('',(-0.000596591271460088,-0.025,0.));
#968=CARTESIAN_POINT('',(-0.000596591271460091,-0.025,-0.00536931771785021));
#969=CARTESIAN_POINT('',(-0.0117445555515587,-0.025,-0.000819172884803265));
#970=CARTESIAN_POINT('',(-0.0113849435001612,-0.025,-0.00163834576960653));
#971=CARTESIAN_POINT('',(-0.0158863651603461,-0.025,-0.0392755679786205));
#972=CARTESIAN_POINT('',(-0.0158863651603461,-0.025,-0.0392755679786205));
#973=CARTESIAN_POINT('',(-0.000596591271460088,-0.025,-0.0392755679786205));
#974=CARTESIAN_POINT('',(0.0146931826174259,-0.025,-0.0392755679786205));
#975=CARTESIAN_POINT('',(0.0146931826174259,-0.025,-0.00536931771785021));
#976=CARTESIAN_POINT('',(0.0146931826174259,-0.025,0.));
#977=CARTESIAN_POINT('',(-0.000596591271460088,-0.025,0.));
#978=CARTESIAN_POINT('',(0.0112705966457725,-0.025,0.));
#979=CARTESIAN_POINT('',(0.0104165184311569,-0.025,-0.000819172884803265));
#980=CARTESIAN_POINT('',(0.00956244021654129,-0.025,-0.00163834576960653));
#981=CARTESIAN_POINT('',(-0.00091125164180994,-0.025,-0.00163834576960653));
#982=CARTESIAN_POINT('',(-0.0137128657661378,-0.025,-0.00403066910803318));
#983=CARTESIAN_POINT('',(-0.0143772484734655,-0.025,-0.00403066910803318));
#984=CARTESIAN_POINT('',(-0.0130484830588102,-0.025,-0.00403066910803318));
#985=CARTESIAN_POINT('',(-0.0130484830588102,-0.025,-0.0179951852187515));
#986=CARTESIAN_POINT('',(-0.0130484830588102,-0.025,-0.0319597013294697));
#987=CARTESIAN_POINT('',(-0.0137128657661378,-0.025,-0.0319597013294697));
#988=CARTESIAN_POINT('',(-0.0143772484734655,-0.025,-0.0319597013294697));
#989=CARTESIAN_POINT('',(-0.0143772484734655,-0.025,-0.0179951852187515));
#990=CARTESIAN_POINT('',(-0.000596591271460091,-0.025,-0.00536931771785021));
#991=CARTESIAN_POINT('',(-0.013645073864609,-0.025,0.0128727406263351));
#992=CARTESIAN_POINT('',(-0.0142416646704078,-0.025,0.0128727406263351));
#993=CARTESIAN_POINT('',(-0.0130484830588102,-0.025,0.0128727406263351));
#994=CARTESIAN_POINT('',(-0.0130484830588102,-0.025,0.00993950176052749));
#995=CARTESIAN_POINT('',(-0.0130484830588102,-0.025,0.00700626289471984));
#996=CARTESIAN_POINT('',(-0.013645073864609,-0.025,0.00700626289471984));
#997=CARTESIAN_POINT('',(-0.0142416646704078,-0.025,0.00700626289471984));
#998=CARTESIAN_POINT('',(-0.0142416646704078,-0.025,0.00993950176052749));
#999=CARTESIAN_POINT('',(-0.000596591271460088,-0.025,0.00124277822628539));
#1000=CARTESIAN_POINT('',(-0.0158863651603461,-0.025,0.00124277822628539));
#1001=CARTESIAN_POINT('',(0.0146931826174259,-0.025,0.00124277822628539));
#1002=CARTESIAN_POINT('',(0.0146931826174259,-0.025,-0.00536931771785021));
#1003=CARTESIAN_POINT('',(0.0146931826174259,-0.025,0.0245369325429201));
#1004=CARTESIAN_POINT('',(-0.000596591271460091,-0.025,0.0245369325429201));
#1005=CARTESIAN_POINT('',(-0.0158863651603461,-0.025,0.0245369325429201));
#1006=CARTESIAN_POINT('',(-0.0158863651603461,-0.025,-0.0392755679786205));
#1007=CARTESIAN_POINT('',(-0.000596591271460088,-0.025,0.0285369325429201));
#1008=CARTESIAN_POINT('',(-0.0158863651603461,-0.025,0.0285369325429201));
#1009=CARTESIAN_POINT('',(-0.0158863651603461,0.,0.0285369325429201));
#1010=CARTESIAN_POINT('',(-0.0158863651603461,-0.021,0.0285369325429201));
#1011=CARTESIAN_POINT('',(-0.000596591271460088,-0.021,0.0285369325429201));
#1012=CARTESIAN_POINT('',(0.0146931826174259,-0.021,0.0285369325429201));
#1013=CARTESIAN_POINT('',(0.0146931826174259,-0.025,0.0285369325429201));
#1014=CARTESIAN_POINT('',(0.0146931826174259,0.,0.0285369325429201));
#1015=CARTESIAN_POINT('',(-0.000596591271460088,0.,0.0285369325429201));
#1016=CARTESIAN_POINT('',(-0.0198863651603461,-0.025,-0.00536931771785021));
#1017=CARTESIAN_POINT('',(-0.0198863651603461,-0.025,-0.0392755679786205));
#1018=CARTESIAN_POINT('',(-0.0198863651603461,-0.021,-0.0392755679786205));
#1019=CARTESIAN_POINT('',(-0.0198863651603461,0.,-0.0392755679786205));
#1020=CARTESIAN_POINT('',(-0.0198863651603461,-0.021,0.0245369325429201));
#1021=CARTESIAN_POINT('',(-0.0198863651603461,-0.021,0.0245369325429201));
#1022=CARTESIAN_POINT('',(-0.0198863651603461,0.,0.0245369325429201));
#1023=CARTESIAN_POINT('',(-0.0198863651603461,0.,0.0245369325429201));
#1024=CARTESIAN_POINT('',(-0.0198863651603461,0.,-0.00536931771785021));
#1025=CARTESIAN_POINT('',(-0.000596591271460088,-0.025,-0.0392755679786205));
#1026=CARTESIAN_POINT('',(0.0146931826174259,-0.021014204248786,-0.0392755679786205));
#1027=CARTESIAN_POINT('',(0.0160392682257134,-0.021014204248786,-0.0392755679786205));
#1028=CARTESIAN_POINT('',(-0.0145223494619131,-0.00286079512536529,-0.0392755679786205));
#1029=CARTESIAN_POINT('',(-0.0131762638536256,-0.00286079512536529,-0.0392755679786205));
#1030=CARTESIAN_POINT('',(0.0146931826174259,-0.00286079512536529,-0.0392755679786205));
#1031=CARTESIAN_POINT('',(0.0160392682257134,-0.00286079512536529,-0.0392755679786205));
#1032=CARTESIAN_POINT('',(-0.0145223494619131,-0.021014204248786,-0.0392755679786205));
#1033=CARTESIAN_POINT('',(-0.0131762638536256,-0.021014204248786,-0.0392755679786205));
#1034=CARTESIAN_POINT('',(0.0186931826174259,-0.025,-0.0392755679786205));
#1035=CARTESIAN_POINT('',(0.0186931826174259,-0.021,-0.0392755679786205));
#1036=CARTESIAN_POINT('',(0.0186931826174259,0.,-0.0392755679786205));
#1037=CARTESIAN_POINT('',(0.0146931826174259,-0.021,-0.0392755679786205));
#1038=CARTESIAN_POINT('',(-0.0158863651603461,-0.021,-0.0392755679786205));
#1039=CARTESIAN_POINT('',(-0.000596591271460088,0.,-0.0392755679786205));
#1040=CARTESIAN_POINT('',(0.0186931826174259,-0.025,-0.00536931771785021));
#1041=CARTESIAN_POINT('',(0.0186931826174259,-0.025,0.0245369325429201));
#1042=CARTESIAN_POINT('',(0.0186931826174259,0.,0.0245369325429201));
#1043=CARTESIAN_POINT('',(0.0186931826174259,-0.021,0.0245369325429201));
#1044=CARTESIAN_POINT('',(0.0186931826174259,-0.021,-0.00536931771785021));
#1045=CARTESIAN_POINT('',(0.0186931826174259,0.,-0.00536931771785021));
#1046=CARTESIAN_POINT('',(-0.000596591271460091,0.,-0.00536931771785021));
#1047=CARTESIAN_POINT('',(0.0146931826174259,0.,0.0245369325429201));
#1048=CARTESIAN_POINT('',(-0.0158863651603461,0.,0.0245369325429201));
#1049=CARTESIAN_POINT('',(0.0146931826174259,-0.025,0.0245369325429201));
#1050=CARTESIAN_POINT('',(0.0146931826174259,-0.021,0.0245369325429201));
#1051=CARTESIAN_POINT('',(-0.0158863651603461,-0.025,0.0245369325429201));
#1052=CARTESIAN_POINT('',(-0.0158863651603461,-0.021,0.0245369325429201));
#1053=CARTESIAN_POINT('',(-0.000596591271460088,-0.0243,0.00124277822628539));
#1054=CARTESIAN_POINT('',(-0.0158863651603461,-0.0243,0.00124277822628539));
#1055=CARTESIAN_POINT('',(-0.0158863651603461,-0.0243,0.00124277822628539));
#1056=CARTESIAN_POINT('',(-0.000596591271460088,-0.0243,0.00124277822628539));
#1057=CARTESIAN_POINT('',(0.0146931826174259,-0.0243,0.00124277822628539));
#1058=CARTESIAN_POINT('',(0.0146931826174259,-0.0243,0.00124277822628539));
#1059=CARTESIAN_POINT('',(-0.0158863651603461,-0.0243,0.000621389113142697));
#1060=CARTESIAN_POINT('',(-0.0158863651603461,-0.025,0.000621389113142697));
#1061=CARTESIAN_POINT('',(-0.0158863651603461,-0.0243,0.000621389113142697));
#1062=CARTESIAN_POINT('',(-0.000596591271460088,-0.0243,0.));
#1063=CARTESIAN_POINT('',(-0.000596591271460088,-0.0243,0.));
#1064=CARTESIAN_POINT('',(0.0112705966457725,-0.0243,0.));
#1065=CARTESIAN_POINT('',(0.0146931826174259,-0.0243,0.));
#1066=CARTESIAN_POINT('',(0.0112705966457725,-0.0242,0.));
#1067=CARTESIAN_POINT('',(0.0146931826174259,-0.0243,0.));
#1068=CARTESIAN_POINT('',(0.0146931826174259,-0.0243,0.000621389113142697));
#1069=CARTESIAN_POINT('',(0.0146931826174259,-0.025,0.000621389113142697));
#1070=CARTESIAN_POINT('',(0.0146931826174259,-0.0243,0.000621389113142697));
#1071=CARTESIAN_POINT('',(-0.000596591271460091,-0.0243,-0.00536931771785021));
#1072=CARTESIAN_POINT('',(-0.000596591271460088,-0.0243,0.));
#1073=CARTESIAN_POINT('',(-0.0158863651603461,-0.021,-0.00536931771785021));
#1074=CARTESIAN_POINT('',(-0.0158863651603461,-0.021,0.0245369325429201));
#1075=CARTESIAN_POINT('',(-0.0158863651603461,-0.021,0.0245369325429201));
#1076=CARTESIAN_POINT('',(-0.0158863651603461,-0.021,0.0245369325429201));
#1077=CARTESIAN_POINT('',(-0.000596591271460088,-0.021,0.0245369325429201));
#1078=CARTESIAN_POINT('',(0.0146931826174259,-0.021,0.0245369325429201));
#1079=CARTESIAN_POINT('',(0.0146931826174259,-0.021,0.0245369325429201));
#1080=CARTESIAN_POINT('',(0.0146931826174259,-0.021,0.0245369325429201));
#1081=CARTESIAN_POINT('',(0.0146931826174259,-0.021,-0.00536931771785021));
#1082=CARTESIAN_POINT('',(-0.013645073864609,-0.026,0.0128727406263351));
#1083=CARTESIAN_POINT('',(-0.0142416646704078,-0.026,0.0128727406263351));
#1084=CARTESIAN_POINT('',(-0.0142416646704078,-0.0253834083443155,0.0128727406263351));
#1085=CARTESIAN_POINT('',(-0.013645073864609,-0.0253834083443155,0.0128727406263351));
#1086=CARTESIAN_POINT('',(-0.0130484830588102,-0.0253834083443155,0.0128727406263351));
#1087=CARTESIAN_POINT('',(-0.0130484830588102,-0.026,0.0128727406263351));
#1088=CARTESIAN_POINT('',(-0.0142416646704078,-0.026,0.00993950176052749));
#1089=CARTESIAN_POINT('',(-0.0142416646704078,-0.026,0.00700626289471984));
#1090=CARTESIAN_POINT('',(-0.0142416646704078,-0.026,0.00700626289471984));
#1091=CARTESIAN_POINT('',(-0.0142416646704078,-0.0256950726739188,0.00990745260710812));
#1092=CARTESIAN_POINT('',(-0.013645073864609,-0.026,0.00700626289471984));
#1093=CARTESIAN_POINT('',(-0.0130484830588102,-0.026,0.00700626289471984));
#1094=CARTESIAN_POINT('',(-0.0130484830588102,-0.026,0.00700626289471984));
#1095=CARTESIAN_POINT('',(-0.013645073864609,-0.026,0.00700626289471984));
#1096=CARTESIAN_POINT('',(-0.0130484830588102,-0.026,0.00993950176052749));
#1097=CARTESIAN_POINT('',(-0.0130484830588102,-0.0256950726739188,0.00990745260710812));
#1098=CARTESIAN_POINT('',(-0.013645073864609,-0.026,0.00700626289471984));
#1099=CARTESIAN_POINT('',(-0.0137128657661378,-0.026,-0.00403066910803318));
#1100=CARTESIAN_POINT('',(-0.0143772484734655,-0.026,-0.00403066910803318));
#1101=CARTESIAN_POINT('',(-0.0143772484734655,-0.026,-0.00403066910803318));
#1102=CARTESIAN_POINT('',(-0.0137128657661378,-0.026,-0.00403066910803318));
#1103=CARTESIAN_POINT('',(-0.0130484830588102,-0.026,-0.00403066910803318));
#1104=CARTESIAN_POINT('',(-0.0130484830588102,-0.026,-0.00403066910803318));
#1105=CARTESIAN_POINT('',(-0.0143772484734655,-0.026,-0.0179951852187515));
#1106=CARTESIAN_POINT('',(-0.0143772484734655,-0.026,-0.0319597013294697));
#1107=CARTESIAN_POINT('',(-0.0143772484734655,-0.0250246967036677,-0.0319597013294697));
#1108=CARTESIAN_POINT('',(-0.0143772484734655,-0.0255129422992866,-0.0179781767890556));
#1109=CARTESIAN_POINT('',(-0.0137128657661378,-0.026,-0.0319597013294697));
#1110=CARTESIAN_POINT('',(-0.0130484830588102,-0.026,-0.0319597013294697));
#1111=CARTESIAN_POINT('',(-0.0130484830588102,-0.0250246967036677,-0.0319597013294697));
#1112=CARTESIAN_POINT('',(-0.0137128657661378,-0.0250246967036677,-0.0319597013294697));
#1113=CARTESIAN_POINT('',(-0.0130484830588102,-0.026,-0.0179951852187515));
#1114=CARTESIAN_POINT('',(-0.0130484830588102,-0.0255129422992866,-0.0179781767890556));
#1115=CARTESIAN_POINT('',(-0.0137128657661378,-0.026,-0.00403066910803318));
#1116=CARTESIAN_POINT('',(-0.000596591271460088,-0.0242,0.));
#1117=CARTESIAN_POINT('',(-0.0121041676029563,-0.0242,0.));
#1118=CARTESIAN_POINT('',(-0.0121041676029563,-0.0242,0.));
#1119=CARTESIAN_POINT('',(-0.000596591271460088,-0.0242,0.));
#1120=CARTESIAN_POINT('',(0.0112705966457725,-0.0242,0.));
#1121=CARTESIAN_POINT('',(0.0112705966457725,-0.0242,0.));
#1122=CARTESIAN_POINT('',(-0.0117445555515587,-0.0242,-0.000819172884803265));
#1123=CARTESIAN_POINT('',(-0.0113849435001612,-0.0242,-0.00163834576960653));
#1124=CARTESIAN_POINT('',(-0.0113849435001612,-0.0242,-0.00163834576960653));
#1125=CARTESIAN_POINT('',(-0.0117445555515587,-0.0242,-0.000819172884803265));
#1126=CARTESIAN_POINT('',(-0.00091125164180994,-0.0242,-0.00163834576960653));
#1127=CARTESIAN_POINT('',(0.00956244021654129,-0.0242,-0.00163834576960653));
#1128=CARTESIAN_POINT('',(0.00956244021654129,-0.0242,-0.00163834576960653));
#1129=CARTESIAN_POINT('',(-0.00091125164180994,-0.0242,-0.00163834576960653));
#1130=CARTESIAN_POINT('',(0.0104165184311569,-0.0242,-0.000819172884803265));
#1131=CARTESIAN_POINT('',(0.0104165184311569,-0.0242,-0.000819172884803265));
#1132=CARTESIAN_POINT('',(-0.000596591271460091,-0.0242,-0.0196377839893103));
#1133=CARTESIAN_POINT('',(-0.0145223494619131,-0.021014204248786,-0.0392755679786205));
#1134=CARTESIAN_POINT('',(-0.0145223494619131,-0.021014204248786,-0.0402755679786206));
#1135=CARTESIAN_POINT('',(-0.0151682275319909,-0.021014204248786,-0.0402755679786206));
#1136=CARTESIAN_POINT('',(-0.000596591271460084,-0.0125,-0.0402755679786206));
#1137=CARTESIAN_POINT('',(0.0146931826174259,-0.00286079512536529,-0.0392755679786205));
#1138=CARTESIAN_POINT('',(0.0146931826174259,-0.00286079512536529,-0.0402755679786206));
#1139=CARTESIAN_POINT('',(0.0140473045473481,-0.00286079512536529,-0.0402755679786206));
#1140=CARTESIAN_POINT('',(-0.000596591271460084,-0.0125,-0.0402755679786206));
#1141=CARTESIAN_POINT('',(-0.0145223494619131,-0.00286079512536529,-0.0392755679786205));
#1142=CARTESIAN_POINT('',(-0.0145223494619131,-0.00286079512536529,-0.0402755679786206));
#1143=CARTESIAN_POINT('',(-0.0151682275319909,-0.00286079512536529,-0.0402755679786206));
#1144=CARTESIAN_POINT('',(-0.000596591271460084,-0.0125,-0.0402755679786206));
#1145=CARTESIAN_POINT('',(0.0146931826174259,-0.021014204248786,-0.0392755679786205));
#1146=CARTESIAN_POINT('',(0.0146931826174259,-0.021014204248786,-0.0402755679786206));
#1147=CARTESIAN_POINT('',(0.0140473045473481,-0.021014204248786,-0.0402755679786206));
#1148=CARTESIAN_POINT('',(-0.000596591271460084,-0.0125,-0.0402755679786206));
#1149=MECHANICAL_DESIGN_GEOMETRIC_PRESENTATION_REPRESENTATION('',(#690),
#1150);
#1150=(
GEOMETRIC_REPRESENTATION_CONTEXT(3)
GLOBAL_UNCERTAINTY_ASSIGNED_CONTEXT((#1151))
GLOBAL_UNIT_ASSIGNED_CONTEXT((#1154,#1153,#1152))
REPRESENTATION_CONTEXT('Part 1','TOP_LEVEL_ASSEMBLY_PART')
);
#1151=UNCERTAINTY_MEASURE_WITH_UNIT(LENGTH_MEASURE(1.E-8),#1154,
'DISTANCE_ACCURACY_VALUE','Maximum Tolerance applied to model');
#1152=(
NAMED_UNIT(*)
SI_UNIT($,.STERADIAN.)
SOLID_ANGLE_UNIT()
);
#1153=(
NAMED_UNIT(*)
PLANE_ANGLE_UNIT()
SI_UNIT($,.RADIAN.)
);
#1154=(
LENGTH_UNIT()
NAMED_UNIT(*)
SI_UNIT($,.METRE.)
);
#1155=PRODUCT_DEFINITION_SHAPE('','',#1156);
#1156=PRODUCT_DEFINITION('','',#1158,#1157);
#1157=PRODUCT_DEFINITION_CONTEXT('',#1164,'design');
#1158=PRODUCT_DEFINITION_FORMATION_WITH_SPECIFIED_SOURCE('','',#1160,
 .NOT_KNOWN.);
#1159=PRODUCT_RELATED_PRODUCT_CATEGORY('','',(#1160));
#1160=PRODUCT('Part 1','Part 1','Part 1',(#1162));
#1161=PRODUCT_CATEGORY('','');
#1162=PRODUCT_CONTEXT('',#1164,'mechanical');
#1163=APPLICATION_PROTOCOL_DEFINITION('international standard',
'ap242_managed_model_based_3d_engineering',2020,#1164);
#1164=APPLICATION_CONTEXT('managed model based 3d engineering');
ENDSEC;
END-ISO-10303-21;
