ISO-10303-21;
HEADER;
/* Generated by software containing ST-Developer
 * from STEP Tools, Inc. (www.steptools.com) 
 */
/* OPTION: using custom renumber hook */

FILE_DESCRIPTION(
/* description */ ('STEP AP242 Edition 2',
'CAx-IF Rec.Pracs.---Representation and Presentation of Product Manufa
cturing Information (PMI)---4.0---2014-10-13',
'CAx-IF Rec.Pracs.---3D Tessellated Geometry---0.4---2014-09-14','2;1',
'CAx-IF Rec.Pracs.---User Defined Attributes---1.5---2016-08-15'),
/* implementation_level */ '2;1');

FILE_NAME(
/* name */ 'partition',
/* time_stamp */ '2026-09-05T01:47:50Z',
/* author */ (''),
/* organization */ (''),
/* preprocessor_version */ 'ST-DEVELOPER v20',
/* originating_system */ 'ONSHAPE BY PTC INC, 1.220',
/* authorisation */ '  ');

FILE_SCHEMA (('AP242_MANAGED_MODEL_BASED_3D_ENGINEERING_MIM_LF { 1 0 10303 442 3 1 4 }'));
ENDSEC;

DATA;
#10=SHAPE_REPRESENTATION_RELATIONSHIP('','',#209,#11);
#11=ADVANCED_BREP_SHAPE_REPRESENTATION('',(#207),#327);
#12=ORIENTED_CLOSED_SHELL('',*,#198,.F.);
#13=ORIENTED_EDGE('',*,*,#61,.F.);
#14=ORIENTED_EDGE('',*,*,#62,.F.);
#15=ORIENTED_EDGE('',*,*,#63,.T.);
#16=ORIENTED_EDGE('',*,*,#64,.T.);
#17=ORIENTED_EDGE('',*,*,#65,.T.);
#18=ORIENTED_EDGE('',*,*,#66,.F.);
#19=ORIENTED_EDGE('',*,*,#67,.F.);
#20=ORIENTED_EDGE('',*,*,#62,.T.);
#21=ORIENTED_EDGE('',*,*,#68,.T.);
#22=ORIENTED_EDGE('',*,*,#69,.F.);
#23=ORIENTED_EDGE('',*,*,#70,.F.);
#24=ORIENTED_EDGE('',*,*,#66,.T.);
#25=ORIENTED_EDGE('',*,*,#71,.F.);
#26=ORIENTED_EDGE('',*,*,#64,.F.);
#27=ORIENTED_EDGE('',*,*,#72,.T.);
#28=ORIENTED_EDGE('',*,*,#69,.T.);
#29=ORIENTED_EDGE('',*,*,#61,.T.);
#30=ORIENTED_EDGE('',*,*,#71,.T.);
#31=ORIENTED_EDGE('',*,*,#68,.F.);
#32=ORIENTED_EDGE('',*,*,#65,.F.);
#33=ORIENTED_EDGE('',*,*,#63,.F.);
#34=ORIENTED_EDGE('',*,*,#67,.T.);
#35=ORIENTED_EDGE('',*,*,#70,.T.);
#36=ORIENTED_EDGE('',*,*,#72,.F.);
#37=ORIENTED_EDGE('',*,*,#73,.F.);
#38=ORIENTED_EDGE('',*,*,#74,.T.);
#39=ORIENTED_EDGE('',*,*,#75,.T.);
#40=ORIENTED_EDGE('',*,*,#76,.F.);
#41=ORIENTED_EDGE('',*,*,#77,.T.);
#42=ORIENTED_EDGE('',*,*,#78,.F.);
#43=ORIENTED_EDGE('',*,*,#75,.F.);
#44=ORIENTED_EDGE('',*,*,#79,.T.);
#45=ORIENTED_EDGE('',*,*,#80,.F.);
#46=ORIENTED_EDGE('',*,*,#81,.F.);
#47=ORIENTED_EDGE('',*,*,#76,.T.);
#48=ORIENTED_EDGE('',*,*,#78,.T.);
#49=ORIENTED_EDGE('',*,*,#82,.F.);
#50=ORIENTED_EDGE('',*,*,#83,.F.);
#51=ORIENTED_EDGE('',*,*,#73,.T.);
#52=ORIENTED_EDGE('',*,*,#81,.T.);
#53=ORIENTED_EDGE('',*,*,#84,.T.);
#54=ORIENTED_EDGE('',*,*,#79,.F.);
#55=ORIENTED_EDGE('',*,*,#74,.F.);
#56=ORIENTED_EDGE('',*,*,#83,.T.);
#57=ORIENTED_EDGE('',*,*,#84,.F.);
#58=ORIENTED_EDGE('',*,*,#82,.T.);
#59=ORIENTED_EDGE('',*,*,#80,.T.);
#60=ORIENTED_EDGE('',*,*,#77,.F.);
#61=EDGE_CURVE('',#85,#86,#101,.T.);
#62=EDGE_CURVE('',#87,#85,#102,.T.);
#63=EDGE_CURVE('',#87,#88,#103,.T.);
#64=EDGE_CURVE('',#88,#86,#104,.T.);
#65=EDGE_CURVE('',#85,#89,#105,.T.);
#66=EDGE_CURVE('',#90,#89,#106,.T.);
#67=EDGE_CURVE('',#87,#90,#107,.T.);
#68=EDGE_CURVE('',#89,#91,#108,.T.);
#69=EDGE_CURVE('',#92,#91,#109,.T.);
#70=EDGE_CURVE('',#90,#92,#110,.T.);
#71=EDGE_CURVE('',#86,#91,#111,.T.);
#72=EDGE_CURVE('',#88,#92,#112,.T.);
#73=EDGE_CURVE('',#93,#94,#113,.T.);
#74=EDGE_CURVE('',#93,#95,#114,.T.);
#75=EDGE_CURVE('',#95,#96,#115,.T.);
#76=EDGE_CURVE('',#94,#96,#116,.T.);
#77=EDGE_CURVE('',#97,#98,#117,.T.);
#78=EDGE_CURVE('',#96,#98,#118,.T.);
#79=EDGE_CURVE('',#95,#97,#119,.T.);
#80=EDGE_CURVE('',#99,#98,#120,.T.);
#81=EDGE_CURVE('',#94,#99,#121,.T.);
#82=EDGE_CURVE('',#100,#99,#122,.T.);
#83=EDGE_CURVE('',#93,#100,#123,.T.);
#84=EDGE_CURVE('',#100,#97,#124,.T.);
#85=VERTEX_POINT('',#276);
#86=VERTEX_POINT('',#277);
#87=VERTEX_POINT('',#279);
#88=VERTEX_POINT('',#281);
#89=VERTEX_POINT('',#285);
#90=VERTEX_POINT('',#287);
#91=VERTEX_POINT('',#291);
#92=VERTEX_POINT('',#293);
#93=VERTEX_POINT('',#302);
#94=VERTEX_POINT('',#303);
#95=VERTEX_POINT('',#305);
#96=VERTEX_POINT('',#307);
#97=VERTEX_POINT('',#311);
#98=VERTEX_POINT('',#312);
#99=VERTEX_POINT('',#317);
#100=VERTEX_POINT('',#321);
#101=LINE('',#275,#125);
#102=LINE('',#278,#126);
#103=LINE('',#280,#127);
#104=LINE('',#282,#128);
#105=LINE('',#284,#129);
#106=LINE('',#286,#130);
#107=LINE('',#288,#131);
#108=LINE('',#290,#132);
#109=LINE('',#292,#133);
#110=LINE('',#294,#134);
#111=LINE('',#296,#135);
#112=LINE('',#297,#136);
#113=LINE('',#301,#137);
#114=LINE('',#304,#138);
#115=LINE('',#306,#139);
#116=LINE('',#308,#140);
#117=LINE('',#310,#141);
#118=LINE('',#313,#142);
#119=LINE('',#314,#143);
#120=LINE('',#316,#144);
#121=LINE('',#318,#145);
#122=LINE('',#320,#146);
#123=LINE('',#322,#147);
#124=LINE('',#324,#148);
#125=VECTOR('',#227,1.);
#126=VECTOR('',#228,1.);
#127=VECTOR('',#229,1.);
#128=VECTOR('',#230,1.);
#129=VECTOR('',#233,1.);
#130=VECTOR('',#234,1.);
#131=VECTOR('',#235,1.);
#132=VECTOR('',#238,1.);
#133=VECTOR('',#239,1.);
#134=VECTOR('',#240,1.);
#135=VECTOR('',#243,1.);
#136=VECTOR('',#244,1.);
#137=VECTOR('',#251,1.);
#138=VECTOR('',#252,1.);
#139=VECTOR('',#253,1.);
#140=VECTOR('',#254,1.);
#141=VECTOR('',#257,1.);
#142=VECTOR('',#258,1.);
#143=VECTOR('',#259,1.);
#144=VECTOR('',#262,1.);
#145=VECTOR('',#263,1.);
#146=VECTOR('',#266,1.);
#147=VECTOR('',#267,1.);
#148=VECTOR('',#270,1.);
#149=EDGE_LOOP('',(#13,#14,#15,#16));
#150=EDGE_LOOP('',(#17,#18,#19,#20));
#151=EDGE_LOOP('',(#21,#22,#23,#24));
#152=EDGE_LOOP('',(#25,#26,#27,#28));
#153=EDGE_LOOP('',(#29,#30,#31,#32));
#154=EDGE_LOOP('',(#33,#34,#35,#36));
#155=EDGE_LOOP('',(#37,#38,#39,#40));
#156=EDGE_LOOP('',(#41,#42,#43,#44));
#157=EDGE_LOOP('',(#45,#46,#47,#48));
#158=EDGE_LOOP('',(#49,#50,#51,#52));
#159=EDGE_LOOP('',(#53,#54,#55,#56));
#160=EDGE_LOOP('',(#57,#58,#59,#60));
#161=FACE_BOUND('',#149,.T.);
#162=FACE_BOUND('',#150,.T.);
#163=FACE_BOUND('',#151,.T.);
#164=FACE_BOUND('',#152,.T.);
#165=FACE_BOUND('',#153,.T.);
#166=FACE_BOUND('',#154,.T.);
#167=FACE_BOUND('',#155,.T.);
#168=FACE_BOUND('',#156,.T.);
#169=FACE_BOUND('',#157,.T.);
#170=FACE_BOUND('',#158,.T.);
#171=FACE_BOUND('',#159,.T.);
#172=FACE_BOUND('',#160,.T.);
#173=PLANE('',#211);
#174=PLANE('',#212);
#175=PLANE('',#213);
#176=PLANE('',#214);
#177=PLANE('',#215);
#178=PLANE('',#216);
#179=PLANE('',#217);
#180=PLANE('',#218);
#181=PLANE('',#219);
#182=PLANE('',#220);
#183=PLANE('',#221);
#184=PLANE('',#222);
#185=ADVANCED_FACE('',(#161),#173,.T.);
#186=ADVANCED_FACE('',(#162),#174,.F.);
#187=ADVANCED_FACE('',(#163),#175,.F.);
#188=ADVANCED_FACE('',(#164),#176,.T.);
#189=ADVANCED_FACE('',(#165),#177,.F.);
#190=ADVANCED_FACE('',(#166),#178,.T.);
#191=ADVANCED_FACE('',(#167),#179,.T.);
#192=ADVANCED_FACE('',(#168),#180,.F.);
#193=ADVANCED_FACE('',(#169),#181,.T.);
#194=ADVANCED_FACE('',(#170),#182,.T.);
#195=ADVANCED_FACE('',(#171),#183,.F.);
#196=ADVANCED_FACE('',(#172),#184,.F.);
#197=CLOSED_SHELL('',(#185,#186,#187,#188,#189,#190));
#198=CLOSED_SHELL('',(#191,#192,#193,#194,#195,#196));
#199=STYLED_ITEM('',(#200),#207);
#200=PRESENTATION_STYLE_ASSIGNMENT((#201));
#201=SURFACE_STYLE_USAGE(.BOTH.,#202);
#202=SURFACE_SIDE_STYLE('',(#203));
#203=SURFACE_STYLE_FILL_AREA(#204);
#204=FILL_AREA_STYLE('',(#205));
#205=FILL_AREA_STYLE_COLOUR('',#206);
#206=COLOUR_RGB('',0.615686274509804,0.811764705882353,0.929411764705882);
#207=BREP_WITH_VOIDS('Part 1',#197,(#12));
#208=SHAPE_DEFINITION_REPRESENTATION(#332,#209);
#209=SHAPE_REPRESENTATION('Part 1',(#210),#327);
#210=AXIS2_PLACEMENT_3D('',#273,#223,#224);
#211=AXIS2_PLACEMENT_3D('',#274,#225,#226);
#212=AXIS2_PLACEMENT_3D('',#283,#231,#232);
#213=AXIS2_PLACEMENT_3D('',#289,#236,#237);
#214=AXIS2_PLACEMENT_3D('',#295,#241,#242);
#215=AXIS2_PLACEMENT_3D('',#298,#245,#246);
#216=AXIS2_PLACEMENT_3D('',#299,#247,#248);
#217=AXIS2_PLACEMENT_3D('',#300,#249,#250);
#218=AXIS2_PLACEMENT_3D('',#309,#255,#256);
#219=AXIS2_PLACEMENT_3D('',#315,#260,#261);
#220=AXIS2_PLACEMENT_3D('',#319,#264,#265);
#221=AXIS2_PLACEMENT_3D('',#323,#268,#269);
#222=AXIS2_PLACEMENT_3D('',#325,#271,#272);
#223=DIRECTION('',(0.,0.,1.));
#224=DIRECTION('',(1.,0.,0.));
#225=DIRECTION('',(0.,0.,1.));
#226=DIRECTION('',(1.,0.,0.));
#227=DIRECTION('',(1.,0.,0.));
#228=DIRECTION('',(0.,1.,0.));
#229=DIRECTION('',(1.,0.,0.));
#230=DIRECTION('',(0.,1.,0.));
#231=DIRECTION('',(1.,0.,0.));
#232=DIRECTION('',(0.,0.,-1.));
#233=DIRECTION('',(0.,0.,-1.));
#234=DIRECTION('',(0.,1.,0.));
#235=DIRECTION('',(0.,0.,-1.));
#236=DIRECTION('',(0.,0.,1.));
#237=DIRECTION('',(1.,0.,0.));
#238=DIRECTION('',(1.,0.,0.));
#239=DIRECTION('',(0.,1.,0.));
#240=DIRECTION('',(1.,0.,0.));
#241=DIRECTION('',(1.,0.,6.14381231075119E-17));
#242=DIRECTION('',(6.14381231075119E-17,0.,-1.));
#243=DIRECTION('',(6.14381231075119E-17,0.,-1.));
#244=DIRECTION('',(6.14381231075119E-17,0.,-1.));
#245=DIRECTION('',(0.,-1.,0.));
#246=DIRECTION('',(1.,0.,0.));
#247=DIRECTION('',(0.,-1.,0.));
#248=DIRECTION('',(1.,0.,0.));
#249=DIRECTION('',(0.,-1.,0.));
#250=DIRECTION('',(1.,0.,0.));
#251=DIRECTION('',(1.,0.,0.));
#252=DIRECTION('',(0.,0.,-1.));
#253=DIRECTION('',(1.,0.,0.));
#254=DIRECTION('',(0.,0.,-1.));
#255=DIRECTION('',(0.,0.,-1.));
#256=DIRECTION('',(-1.,0.,0.));
#257=DIRECTION('',(1.,0.,0.));
#258=DIRECTION('',(0.,-1.,0.));
#259=DIRECTION('',(0.,-1.,0.));
#260=DIRECTION('',(-1.,0.,0.));
#261=DIRECTION('',(0.,0.,1.));
#262=DIRECTION('',(0.,0.,-1.));
#263=DIRECTION('',(0.,-1.,0.));
#264=DIRECTION('',(0.,0.,-1.));
#265=DIRECTION('',(-1.,0.,0.));
#266=DIRECTION('',(1.,0.,0.));
#267=DIRECTION('',(0.,-1.,0.));
#268=DIRECTION('',(-1.,0.,0.));
#269=DIRECTION('',(0.,0.,1.));
#270=DIRECTION('',(0.,0.,-1.));
#271=DIRECTION('',(0.,-1.,0.));
#272=DIRECTION('',(1.,0.,0.));
#273=CARTESIAN_POINT('',(0.,0.,0.));
#274=CARTESIAN_POINT('',(-0.034488638266921,-0.0327,0.0435653404891491));
#275=CARTESIAN_POINT('',(-0.034488638266921,0.,0.0435653404891491));
#276=CARTESIAN_POINT('',(-0.0694886382669211,0.,0.0435653404891491));
#277=CARTESIAN_POINT('',(0.000511361733078958,0.,0.0435653404891491));
#278=CARTESIAN_POINT('',(-0.0694886382669211,-0.0327,0.0435653404891491));
#279=CARTESIAN_POINT('',(-0.0694886382669211,-0.0385,0.0435653404891491));
#280=CARTESIAN_POINT('',(-0.034488638266921,-0.0385,0.0435653404891491));
#281=CARTESIAN_POINT('',(0.000511361733078958,-0.0385,0.0435653404891491));
#282=CARTESIAN_POINT('',(0.000511361733078958,-0.0327,0.0435653404891491));
#283=CARTESIAN_POINT('',(-0.0694886382669211,-0.0327,-0.00143465951085091));
#284=CARTESIAN_POINT('',(-0.0694886382669211,0.,-0.00143465951085091));
#285=CARTESIAN_POINT('',(-0.0694886382669211,0.,-0.0464346595108509));
#286=CARTESIAN_POINT('',(-0.0694886382669211,-0.0327,-0.0464346595108509));
#287=CARTESIAN_POINT('',(-0.0694886382669211,-0.0385,-0.0464346595108509));
#288=CARTESIAN_POINT('',(-0.0694886382669211,-0.0385,-0.00143465951085091));
#289=CARTESIAN_POINT('',(-0.034488638266921,-0.0327,-0.0464346595108509));
#290=CARTESIAN_POINT('',(-0.034488638266921,0.,-0.0464346595108509));
#291=CARTESIAN_POINT('',(0.000511361733078963,0.,-0.0464346595108509));
#292=CARTESIAN_POINT('',(0.000511361733078963,-0.0327,-0.0464346595108509));
#293=CARTESIAN_POINT('',(0.000511361733078963,-0.0385,-0.0464346595108509));
#294=CARTESIAN_POINT('',(-0.034488638266921,-0.0385,-0.0464346595108509));
#295=CARTESIAN_POINT('',(0.000511361733078961,-0.0327,-0.00143465951085091));
#296=CARTESIAN_POINT('',(0.000511361733078961,0.,-0.00143465951085091));
#297=CARTESIAN_POINT('',(0.000511361733078961,-0.0385,-0.00143465951085091));
#298=CARTESIAN_POINT('',(-0.034488638266921,0.,-0.00143465951085091));
#299=CARTESIAN_POINT('',(-0.034488638266921,-0.0385,-0.00143465951085091));
#300=CARTESIAN_POINT('',(-0.034488638266921,-0.0061,-0.00143465951085091));
#301=CARTESIAN_POINT('',(-0.0341051141731441,-0.0061,0.0325142070651055));
#302=CARTESIAN_POINT('',(-0.0616477280855179,-0.0061,0.0325142070651055));
#303=CARTESIAN_POINT('',(-0.00656250026077032,-0.0061,0.0325142070651055));
#304=CARTESIAN_POINT('',(-0.0616477280855179,-0.0061,-0.00288352183997631));
#305=CARTESIAN_POINT('',(-0.0616477280855179,-0.0061,-0.038281250745058));
#306=CARTESIAN_POINT('',(-0.0341051141731441,-0.0061,-0.038281250745058));
#307=CARTESIAN_POINT('',(-0.00656250026077032,-0.0061,-0.038281250745058));
#308=CARTESIAN_POINT('',(-0.00656250026077032,-0.0061,-0.00288352183997631));
#309=CARTESIAN_POINT('',(-0.0341051141731441,-0.0061,-0.038281250745058));
#310=CARTESIAN_POINT('',(-0.0341051141731441,-0.0327,-0.038281250745058));
#311=CARTESIAN_POINT('',(-0.0616477280855179,-0.0327,-0.038281250745058));
#312=CARTESIAN_POINT('',(-0.00656250026077032,-0.0327,-0.038281250745058));
#313=CARTESIAN_POINT('',(-0.00656250026077032,-0.0061,-0.038281250745058));
#314=CARTESIAN_POINT('',(-0.0616477280855179,-0.0061,-0.038281250745058));
#315=CARTESIAN_POINT('',(-0.00656250026077032,-0.0061,-0.00288352183997631));
#316=CARTESIAN_POINT('',(-0.00656250026077032,-0.0327,-0.00288352183997631));
#317=CARTESIAN_POINT('',(-0.00656250026077032,-0.0327,0.0325142070651055));
#318=CARTESIAN_POINT('',(-0.00656250026077032,-0.0061,0.0325142070651055));
#319=CARTESIAN_POINT('',(-0.0341051141731441,-0.0061,0.0325142070651055));
#320=CARTESIAN_POINT('',(-0.0341051141731441,-0.0327,0.0325142070651055));
#321=CARTESIAN_POINT('',(-0.0616477280855179,-0.0327,0.0325142070651055));
#322=CARTESIAN_POINT('',(-0.0616477280855179,-0.0061,0.0325142070651055));
#323=CARTESIAN_POINT('',(-0.0616477280855179,-0.0061,-0.00288352183997631));
#324=CARTESIAN_POINT('',(-0.0616477280855179,-0.0327,-0.00288352183997631));
#325=CARTESIAN_POINT('',(-0.034488638266921,-0.0327,-0.00143465951085091));
#326=MECHANICAL_DESIGN_GEOMETRIC_PRESENTATION_REPRESENTATION('',(#199),
#327);
#327=(
GEOMETRIC_REPRESENTATION_CONTEXT(3)
GLOBAL_UNCERTAINTY_ASSIGNED_CONTEXT((#328))
GLOBAL_UNIT_ASSIGNED_CONTEXT((#331,#330,#329))
REPRESENTATION_CONTEXT('Part 1','TOP_LEVEL_ASSEMBLY_PART')
);
#328=UNCERTAINTY_MEASURE_WITH_UNIT(LENGTH_MEASURE(1.E-8),#331,
'DISTANCE_ACCURACY_VALUE','Maximum Tolerance applied to model');
#329=(
NAMED_UNIT(*)
SI_UNIT($,.STERADIAN.)
SOLID_ANGLE_UNIT()
);
#330=(
NAMED_UNIT(*)
PLANE_ANGLE_UNIT()
SI_UNIT($,.RADIAN.)
);
#331=(
LENGTH_UNIT()
NAMED_UNIT(*)
SI_UNIT($,.METRE.)
);
#332=PRODUCT_DEFINITION_SHAPE('','',#333);
#333=PRODUCT_DEFINITION('','',#335,#334);
#334=PRODUCT_DEFINITION_CONTEXT('',#341,'design');
#335=PRODUCT_DEFINITION_FORMATION_WITH_SPECIFIED_SOURCE('','',#337,
 .NOT_KNOWN.);
#336=PRODUCT_RELATED_PRODUCT_CATEGORY('','',(#337));
#337=PRODUCT('Part 1','Part 1','Part 1',(#339));
#338=PRODUCT_CATEGORY('','');
#339=PRODUCT_CONTEXT('',#341,'mechanical');
#340=APPLICATION_PROTOCOL_DEFINITION('international standard',
'ap242_managed_model_based_3d_engineering',2020,#341);
#341=APPLICATION_CONTEXT('managed model based 3d engineering');
ENDSEC;
END-ISO-10303-21;
