ISO-10303-21;
HEADER;
/* Generated by software containing ST-Developer
 * from STEP Tools, Inc. (www.steptools.com) 
 */
/* OPTION: using custom renumber hook */

FILE_DESCRIPTION(
/* description */ ('STEP AP242 Edition 2',
'CAx-IF Rec.Pracs.---Representation and Presentation of Product Manufa
cturing Information (PMI)---4.0---2014-10-13',
'CAx-IF Rec.Pracs.---3D Tessellated Geometry---0.4---2014-09-14','2;1',
'CAx-IF Rec.Pracs.---User Defined Attributes---1.5---2016-08-15'),
/* implementation_level */ '2;1');

FILE_NAME(
/* name */ 'sink',
/* time_stamp */ '2026-09-13T22:01:14Z',
/* author */ (''),
/* organization */ (''),
/* preprocessor_version */ 'ST-DEVELOPER v20',
/* originating_system */ 'ONSHAPE BY PTC INC, 1.220',
/* authorisation */ '  ');

FILE_SCHEMA (('AP242_MANAGED_MODEL_BASED_3D_ENGINEERING_MIM_LF { 1 0 10303 442 3 1 4 }'));
ENDSEC;

DATA;
#10=SHAPE_REPRESENTATION_RELATIONSHIP('','',#785,#11);
#11=ADVANCED_BREP_SHAPE_REPRESENTATION('',(#783),#1269);
#12=CYLINDRICAL_SURFACE('',#841,0.00109279629910514);
#13=CYLINDRICAL_SURFACE('',#844,0.000965308107185224);
#14=CONICAL_SURFACE('',#826,0.000846803295704348,0.174532925199433);
#15=CONICAL_SURFACE('',#829,0.000846803295704347,0.174532925199433);
#16=CONICAL_SURFACE('',#832,0.000846803295704347,0.174532925199433);
#17=CONICAL_SURFACE('',#835,0.000846803295704348,0.174532925199433);
#18=CONICAL_SURFACE('',#838,0.00084680329570435,0.174532925199433);
#19=LINE('',#1057,#103);
#20=LINE('',#1060,#104);
#21=LINE('',#1062,#105);
#22=LINE('',#1064,#106);
#23=LINE('',#1065,#107);
#24=LINE('',#1068,#108);
#25=LINE('',#1070,#109);
#26=LINE('',#1072,#110);
#27=LINE('',#1074,#111);
#28=LINE('',#1077,#112);
#29=LINE('',#1079,#113);
#30=LINE('',#1081,#114);
#31=LINE('',#1083,#115);
#32=LINE('',#1085,#116);
#33=LINE('',#1087,#117);
#34=LINE('',#1089,#118);
#35=LINE('',#1093,#119);
#36=LINE('',#1095,#120);
#37=LINE('',#1097,#121);
#38=LINE('',#1101,#122);
#39=LINE('',#1104,#123);
#40=LINE('',#1106,#124);
#41=LINE('',#1108,#125);
#42=LINE('',#1112,#126);
#43=LINE('',#1115,#127);
#44=LINE('',#1117,#128);
#45=LINE('',#1119,#129);
#46=LINE('',#1123,#130);
#47=LINE('',#1125,#131);
#48=LINE('',#1127,#132);
#49=LINE('',#1129,#133);
#50=LINE('',#1132,#134);
#51=LINE('',#1133,#135);
#52=LINE('',#1135,#136);
#53=LINE('',#1137,#137);
#54=LINE('',#1139,#138);
#55=LINE('',#1141,#139);
#56=LINE('',#1143,#140);
#57=LINE('',#1144,#141);
#58=LINE('',#1146,#142);
#59=LINE('',#1149,#143);
#60=LINE('',#1151,#144);
#61=LINE('',#1152,#145);
#62=LINE('',#1154,#146);
#63=LINE('',#1155,#147);
#64=LINE('',#1159,#148);
#65=LINE('',#1161,#149);
#66=LINE('',#1163,#150);
#67=LINE('',#1165,#151);
#68=LINE('',#1167,#152);
#69=LINE('',#1169,#153);
#70=LINE('',#1171,#154);
#71=LINE('',#1173,#155);
#72=LINE('',#1175,#156);
#73=LINE('',#1177,#157);
#74=LINE('',#1179,#158);
#75=LINE('',#1181,#159);
#76=LINE('',#1183,#160);
#77=LINE('',#1185,#161);
#78=LINE('',#1187,#162);
#79=LINE('',#1189,#163);
#80=LINE('',#1191,#164);
#81=LINE('',#1193,#165);
#82=LINE('',#1195,#166);
#83=LINE('',#1197,#167);
#84=LINE('',#1199,#168);
#85=LINE('',#1201,#169);
#86=LINE('',#1203,#170);
#87=LINE('',#1205,#171);
#88=LINE('',#1208,#172);
#89=LINE('',#1210,#173);
#90=LINE('',#1212,#174);
#91=LINE('',#1214,#175);
#92=LINE('',#1215,#176);
#93=LINE('',#1217,#177);
#94=LINE('',#1219,#178);
#95=LINE('',#1222,#179);
#96=LINE('',#1224,#180);
#97=LINE('',#1226,#181);
#98=LINE('',#1228,#182);
#99=LINE('',#1230,#183);
#100=LINE('',#1232,#184);
#101=LINE('',#1234,#185);
#102=LINE('',#1236,#186);
#103=VECTOR('',#853,1.);
#104=VECTOR('',#854,1.);
#105=VECTOR('',#855,1.);
#106=VECTOR('',#856,1.);
#107=VECTOR('',#857,1.);
#108=VECTOR('',#858,1.);
#109=VECTOR('',#859,1.);
#110=VECTOR('',#860,1.);
#111=VECTOR('',#863,1.);
#112=VECTOR('',#864,1.);
#113=VECTOR('',#865,1.);
#114=VECTOR('',#866,1.);
#115=VECTOR('',#867,1.);
#116=VECTOR('',#868,1.);
#117=VECTOR('',#869,1.);
#118=VECTOR('',#870,1.);
#119=VECTOR('',#875,1.);
#120=VECTOR('',#876,1.);
#121=VECTOR('',#877,1.);
#122=VECTOR('',#882,1.);
#123=VECTOR('',#883,1.);
#124=VECTOR('',#884,1.);
#125=VECTOR('',#885,1.);
#126=VECTOR('',#890,1.);
#127=VECTOR('',#891,1.);
#128=VECTOR('',#892,1.);
#129=VECTOR('',#893,1.);
#130=VECTOR('',#898,1.);
#131=VECTOR('',#899,1.);
#132=VECTOR('',#900,1.);
#133=VECTOR('',#903,1.);
#134=VECTOR('',#904,1.);
#135=VECTOR('',#905,1.);
#136=VECTOR('',#906,1.);
#137=VECTOR('',#907,1.);
#138=VECTOR('',#908,1.);
#139=VECTOR('',#909,1.);
#140=VECTOR('',#910,1.);
#141=VECTOR('',#911,1.);
#142=VECTOR('',#914,1.);
#143=VECTOR('',#915,1.);
#144=VECTOR('',#916,1.);
#145=VECTOR('',#917,1.);
#146=VECTOR('',#918,1.);
#147=VECTOR('',#919,1.);
#148=VECTOR('',#924,1.);
#149=VECTOR('',#925,1.);
#150=VECTOR('',#928,1.);
#151=VECTOR('',#931,1.);
#152=VECTOR('',#932,1.);
#153=VECTOR('',#935,1.);
#154=VECTOR('',#938,1.);
#155=VECTOR('',#939,1.);
#156=VECTOR('',#942,1.);
#157=VECTOR('',#943,1.);
#158=VECTOR('',#946,1.);
#159=VECTOR('',#949,1.);
#160=VECTOR('',#950,1.);
#161=VECTOR('',#953,1.);
#162=VECTOR('',#956,1.);
#163=VECTOR('',#957,1.);
#164=VECTOR('',#960,1.);
#165=VECTOR('',#961,1.);
#166=VECTOR('',#964,1.);
#167=VECTOR('',#965,1.);
#168=VECTOR('',#966,1.);
#169=VECTOR('',#969,1.);
#170=VECTOR('',#972,1.);
#171=VECTOR('',#975,1.);
#172=VECTOR('',#976,1.);
#173=VECTOR('',#977,1.);
#174=VECTOR('',#978,1.);
#175=VECTOR('',#981,1.);
#176=VECTOR('',#982,1.);
#177=VECTOR('',#985,1.);
#178=VECTOR('',#988,1.);
#179=VECTOR('',#993,1.);
#180=VECTOR('',#994,1.);
#181=VECTOR('',#995,1.);
#182=VECTOR('',#998,1.);
#183=VECTOR('',#999,1.);
#184=VECTOR('',#1002,1.);
#185=VECTOR('',#1003,1.);
#186=VECTOR('',#1006,1.);
#187=ORIENTED_EDGE('',*,*,#383,.F.);
#188=ORIENTED_EDGE('',*,*,#384,.F.);
#189=ORIENTED_EDGE('',*,*,#385,.T.);
#190=ORIENTED_EDGE('',*,*,#386,.T.);
#191=ORIENTED_EDGE('',*,*,#387,.F.);
#192=ORIENTED_EDGE('',*,*,#388,.F.);
#193=ORIENTED_EDGE('',*,*,#389,.T.);
#194=ORIENTED_EDGE('',*,*,#390,.T.);
#195=ORIENTED_EDGE('',*,*,#391,.F.);
#196=ORIENTED_EDGE('',*,*,#392,.T.);
#197=ORIENTED_EDGE('',*,*,#393,.T.);
#198=ORIENTED_EDGE('',*,*,#394,.T.);
#199=ORIENTED_EDGE('',*,*,#395,.T.);
#200=ORIENTED_EDGE('',*,*,#396,.F.);
#201=ORIENTED_EDGE('',*,*,#397,.F.);
#202=ORIENTED_EDGE('',*,*,#398,.T.);
#203=ORIENTED_EDGE('',*,*,#399,.F.);
#204=ORIENTED_EDGE('',*,*,#400,.F.);
#205=ORIENTED_EDGE('',*,*,#401,.F.);
#206=ORIENTED_EDGE('',*,*,#398,.F.);
#207=ORIENTED_EDGE('',*,*,#402,.T.);
#208=ORIENTED_EDGE('',*,*,#403,.F.);
#209=ORIENTED_EDGE('',*,*,#404,.F.);
#210=ORIENTED_EDGE('',*,*,#405,.F.);
#211=ORIENTED_EDGE('',*,*,#406,.T.);
#212=ORIENTED_EDGE('',*,*,#407,.F.);
#213=ORIENTED_EDGE('',*,*,#408,.F.);
#214=ORIENTED_EDGE('',*,*,#409,.F.);
#215=ORIENTED_EDGE('',*,*,#410,.T.);
#216=ORIENTED_EDGE('',*,*,#411,.T.);
#217=ORIENTED_EDGE('',*,*,#412,.T.);
#218=ORIENTED_EDGE('',*,*,#413,.F.);
#219=ORIENTED_EDGE('',*,*,#414,.F.);
#220=ORIENTED_EDGE('',*,*,#415,.T.);
#221=ORIENTED_EDGE('',*,*,#416,.T.);
#222=ORIENTED_EDGE('',*,*,#417,.F.);
#223=ORIENTED_EDGE('',*,*,#394,.F.);
#224=ORIENTED_EDGE('',*,*,#418,.F.);
#225=ORIENTED_EDGE('',*,*,#419,.T.);
#226=ORIENTED_EDGE('',*,*,#402,.F.);
#227=ORIENTED_EDGE('',*,*,#397,.T.);
#228=ORIENTED_EDGE('',*,*,#420,.T.);
#229=ORIENTED_EDGE('',*,*,#421,.F.);
#230=ORIENTED_EDGE('',*,*,#422,.F.);
#231=ORIENTED_EDGE('',*,*,#423,.F.);
#232=ORIENTED_EDGE('',*,*,#424,.F.);
#233=ORIENTED_EDGE('',*,*,#425,.T.);
#234=ORIENTED_EDGE('',*,*,#406,.F.);
#235=ORIENTED_EDGE('',*,*,#426,.F.);
#236=ORIENTED_EDGE('',*,*,#427,.F.);
#237=ORIENTED_EDGE('',*,*,#428,.T.);
#238=ORIENTED_EDGE('',*,*,#429,.F.);
#239=ORIENTED_EDGE('',*,*,#421,.T.);
#240=ORIENTED_EDGE('',*,*,#430,.T.);
#241=ORIENTED_EDGE('',*,*,#431,.F.);
#242=ORIENTED_EDGE('',*,*,#412,.F.);
#243=ORIENTED_EDGE('',*,*,#432,.F.);
#244=ORIENTED_EDGE('',*,*,#433,.F.);
#245=ORIENTED_EDGE('',*,*,#434,.F.);
#246=ORIENTED_EDGE('',*,*,#422,.T.);
#247=ORIENTED_EDGE('',*,*,#429,.T.);
#248=ORIENTED_EDGE('',*,*,#435,.F.);
#249=ORIENTED_EDGE('',*,*,#396,.T.);
#250=ORIENTED_EDGE('',*,*,#436,.T.);
#251=ORIENTED_EDGE('',*,*,#430,.F.);
#252=ORIENTED_EDGE('',*,*,#420,.F.);
#253=ORIENTED_EDGE('',*,*,#401,.T.);
#254=ORIENTED_EDGE('',*,*,#437,.F.);
#255=ORIENTED_EDGE('',*,*,#438,.F.);
#256=ORIENTED_EDGE('',*,*,#399,.T.);
#257=ORIENTED_EDGE('',*,*,#403,.T.);
#258=ORIENTED_EDGE('',*,*,#419,.F.);
#259=ORIENTED_EDGE('',*,*,#439,.F.);
#260=ORIENTED_EDGE('',*,*,#437,.T.);
#261=ORIENTED_EDGE('',*,*,#405,.T.);
#262=ORIENTED_EDGE('',*,*,#440,.F.);
#263=ORIENTED_EDGE('',*,*,#441,.F.);
#264=ORIENTED_EDGE('',*,*,#426,.T.);
#265=ORIENTED_EDGE('',*,*,#408,.T.);
#266=ORIENTED_EDGE('',*,*,#442,.F.);
#267=ORIENTED_EDGE('',*,*,#443,.F.);
#268=ORIENTED_EDGE('',*,*,#440,.T.);
#269=ORIENTED_EDGE('',*,*,#407,.T.);
#270=ORIENTED_EDGE('',*,*,#425,.F.);
#271=ORIENTED_EDGE('',*,*,#444,.F.);
#272=ORIENTED_EDGE('',*,*,#442,.T.);
#273=ORIENTED_EDGE('',*,*,#434,.T.);
#274=ORIENTED_EDGE('',*,*,#445,.F.);
#275=ORIENTED_EDGE('',*,*,#446,.F.);
#276=ORIENTED_EDGE('',*,*,#423,.T.);
#277=ORIENTED_EDGE('',*,*,#435,.T.);
#278=ORIENTED_EDGE('',*,*,#428,.F.);
#279=ORIENTED_EDGE('',*,*,#447,.F.);
#280=ORIENTED_EDGE('',*,*,#445,.T.);
#281=ORIENTED_EDGE('',*,*,#411,.F.);
#282=ORIENTED_EDGE('',*,*,#448,.F.);
#283=ORIENTED_EDGE('',*,*,#449,.T.);
#284=ORIENTED_EDGE('',*,*,#432,.T.);
#285=ORIENTED_EDGE('',*,*,#410,.F.);
#286=ORIENTED_EDGE('',*,*,#450,.F.);
#287=ORIENTED_EDGE('',*,*,#451,.T.);
#288=ORIENTED_EDGE('',*,*,#448,.T.);
#289=ORIENTED_EDGE('',*,*,#416,.F.);
#290=ORIENTED_EDGE('',*,*,#452,.F.);
#291=ORIENTED_EDGE('',*,*,#453,.T.);
#292=ORIENTED_EDGE('',*,*,#454,.T.);
#293=ORIENTED_EDGE('',*,*,#415,.F.);
#294=ORIENTED_EDGE('',*,*,#393,.F.);
#295=ORIENTED_EDGE('',*,*,#455,.T.);
#296=ORIENTED_EDGE('',*,*,#452,.T.);
#297=ORIENTED_EDGE('',*,*,#392,.F.);
#298=ORIENTED_EDGE('',*,*,#438,.T.);
#299=ORIENTED_EDGE('',*,*,#439,.T.);
#300=ORIENTED_EDGE('',*,*,#418,.T.);
#301=ORIENTED_EDGE('',*,*,#441,.T.);
#302=ORIENTED_EDGE('',*,*,#443,.T.);
#303=ORIENTED_EDGE('',*,*,#444,.T.);
#304=ORIENTED_EDGE('',*,*,#424,.T.);
#305=ORIENTED_EDGE('',*,*,#446,.T.);
#306=ORIENTED_EDGE('',*,*,#447,.T.);
#307=ORIENTED_EDGE('',*,*,#427,.T.);
#308=ORIENTED_EDGE('',*,*,#449,.F.);
#309=ORIENTED_EDGE('',*,*,#451,.F.);
#310=ORIENTED_EDGE('',*,*,#456,.F.);
#311=ORIENTED_EDGE('',*,*,#453,.F.);
#312=ORIENTED_EDGE('',*,*,#455,.F.);
#313=ORIENTED_EDGE('',*,*,#457,.T.);
#314=ORIENTED_EDGE('',*,*,#458,.T.);
#315=ORIENTED_EDGE('',*,*,#459,.F.);
#316=ORIENTED_EDGE('',*,*,#460,.F.);
#317=ORIENTED_EDGE('',*,*,#454,.F.);
#318=ORIENTED_EDGE('',*,*,#456,.T.);
#319=ORIENTED_EDGE('',*,*,#450,.T.);
#320=ORIENTED_EDGE('',*,*,#413,.T.);
#321=ORIENTED_EDGE('',*,*,#431,.T.);
#322=ORIENTED_EDGE('',*,*,#436,.F.);
#323=ORIENTED_EDGE('',*,*,#395,.F.);
#324=ORIENTED_EDGE('',*,*,#417,.T.);
#325=ORIENTED_EDGE('',*,*,#457,.F.);
#326=ORIENTED_EDGE('',*,*,#461,.F.);
#327=ORIENTED_EDGE('',*,*,#384,.T.);
#328=ORIENTED_EDGE('',*,*,#462,.T.);
#329=ORIENTED_EDGE('',*,*,#460,.T.);
#330=ORIENTED_EDGE('',*,*,#463,.F.);
#331=ORIENTED_EDGE('',*,*,#385,.F.);
#332=ORIENTED_EDGE('',*,*,#461,.T.);
#333=ORIENTED_EDGE('',*,*,#459,.T.);
#334=ORIENTED_EDGE('',*,*,#464,.F.);
#335=ORIENTED_EDGE('',*,*,#386,.F.);
#336=ORIENTED_EDGE('',*,*,#463,.T.);
#337=ORIENTED_EDGE('',*,*,#458,.F.);
#338=ORIENTED_EDGE('',*,*,#462,.F.);
#339=ORIENTED_EDGE('',*,*,#387,.T.);
#340=ORIENTED_EDGE('',*,*,#464,.T.);
#341=ORIENTED_EDGE('',*,*,#389,.F.);
#342=ORIENTED_EDGE('',*,*,#465,.F.);
#343=ORIENTED_EDGE('',*,*,#466,.T.);
#344=ORIENTED_EDGE('',*,*,#467,.T.);
#345=ORIENTED_EDGE('',*,*,#388,.T.);
#346=ORIENTED_EDGE('',*,*,#468,.F.);
#347=ORIENTED_EDGE('',*,*,#469,.F.);
#348=ORIENTED_EDGE('',*,*,#465,.T.);
#349=ORIENTED_EDGE('',*,*,#391,.T.);
#350=ORIENTED_EDGE('',*,*,#470,.F.);
#351=ORIENTED_EDGE('',*,*,#471,.F.);
#352=ORIENTED_EDGE('',*,*,#468,.T.);
#353=ORIENTED_EDGE('',*,*,#390,.F.);
#354=ORIENTED_EDGE('',*,*,#467,.F.);
#355=ORIENTED_EDGE('',*,*,#472,.T.);
#356=ORIENTED_EDGE('',*,*,#470,.T.);
#357=ORIENTED_EDGE('',*,*,#473,.F.);
#358=ORIENTED_EDGE('',*,*,#466,.F.);
#359=ORIENTED_EDGE('',*,*,#469,.T.);
#360=ORIENTED_EDGE('',*,*,#471,.T.);
#361=ORIENTED_EDGE('',*,*,#472,.F.);
#362=ORIENTED_EDGE('',*,*,#474,.F.);
#363=ORIENTED_EDGE('',*,*,#433,.T.);
#364=ORIENTED_EDGE('',*,*,#474,.T.);
#365=ORIENTED_EDGE('',*,*,#475,.F.);
#366=ORIENTED_EDGE('',*,*,#414,.T.);
#367=ORIENTED_EDGE('',*,*,#475,.T.);
#368=ORIENTED_EDGE('',*,*,#476,.F.);
#369=ORIENTED_EDGE('',*,*,#409,.T.);
#370=ORIENTED_EDGE('',*,*,#476,.T.);
#371=ORIENTED_EDGE('',*,*,#477,.F.);
#372=ORIENTED_EDGE('',*,*,#404,.T.);
#373=ORIENTED_EDGE('',*,*,#477,.T.);
#374=ORIENTED_EDGE('',*,*,#478,.F.);
#375=ORIENTED_EDGE('',*,*,#400,.T.);
#376=ORIENTED_EDGE('',*,*,#478,.T.);
#377=ORIENTED_EDGE('',*,*,#479,.F.);
#378=ORIENTED_EDGE('',*,*,#473,.T.);
#379=ORIENTED_EDGE('',*,*,#479,.T.);
#380=ORIENTED_EDGE('',*,*,#480,.F.);
#381=ORIENTED_EDGE('',*,*,#383,.T.);
#382=ORIENTED_EDGE('',*,*,#480,.T.);
#383=EDGE_CURVE('',#481,#481,#551,.T.);
#384=EDGE_CURVE('',#482,#483,#19,.T.);
#385=EDGE_CURVE('',#482,#484,#20,.T.);
#386=EDGE_CURVE('',#484,#485,#21,.T.);
#387=EDGE_CURVE('',#483,#485,#22,.T.);
#388=EDGE_CURVE('',#486,#487,#23,.T.);
#389=EDGE_CURVE('',#486,#488,#24,.T.);
#390=EDGE_CURVE('',#488,#489,#25,.T.);
#391=EDGE_CURVE('',#487,#489,#26,.T.);
#392=EDGE_CURVE('',#490,#491,#27,.T.);
#393=EDGE_CURVE('',#491,#492,#28,.T.);
#394=EDGE_CURVE('',#492,#493,#29,.T.);
#395=EDGE_CURVE('',#493,#494,#30,.T.);
#396=EDGE_CURVE('',#495,#494,#31,.T.);
#397=EDGE_CURVE('',#496,#495,#32,.T.);
#398=EDGE_CURVE('',#496,#497,#33,.T.);
#399=EDGE_CURVE('',#490,#497,#34,.T.);
#400=EDGE_CURVE('',#498,#498,#552,.T.);
#401=EDGE_CURVE('',#497,#499,#35,.T.);
#402=EDGE_CURVE('',#496,#500,#36,.T.);
#403=EDGE_CURVE('',#499,#500,#37,.T.);
#404=EDGE_CURVE('',#501,#501,#553,.T.);
#405=EDGE_CURVE('',#502,#503,#38,.T.);
#406=EDGE_CURVE('',#502,#504,#39,.T.);
#407=EDGE_CURVE('',#505,#504,#40,.T.);
#408=EDGE_CURVE('',#503,#505,#41,.T.);
#409=EDGE_CURVE('',#506,#506,#554,.T.);
#410=EDGE_CURVE('',#507,#508,#42,.T.);
#411=EDGE_CURVE('',#508,#509,#43,.T.);
#412=EDGE_CURVE('',#509,#510,#44,.T.);
#413=EDGE_CURVE('',#507,#510,#45,.T.);
#414=EDGE_CURVE('',#511,#511,#555,.T.);
#415=EDGE_CURVE('',#492,#512,#46,.T.);
#416=EDGE_CURVE('',#512,#513,#47,.T.);
#417=EDGE_CURVE('',#493,#513,#48,.T.);
#418=EDGE_CURVE('',#514,#515,#49,.T.);
#419=EDGE_CURVE('',#514,#500,#50,.T.);
#420=EDGE_CURVE('',#495,#516,#51,.T.);
#421=EDGE_CURVE('',#517,#516,#52,.T.);
#422=EDGE_CURVE('',#518,#517,#53,.T.);
#423=EDGE_CURVE('',#519,#518,#54,.T.);
#424=EDGE_CURVE('',#520,#519,#55,.T.);
#425=EDGE_CURVE('',#520,#504,#56,.T.);
#426=EDGE_CURVE('',#515,#502,#57,.T.);
#427=EDGE_CURVE('',#521,#522,#58,.T.);
#428=EDGE_CURVE('',#521,#523,#59,.T.);
#429=EDGE_CURVE('',#517,#523,#60,.T.);
#430=EDGE_CURVE('',#516,#524,#61,.T.);
#431=EDGE_CURVE('',#510,#524,#62,.T.);
#432=EDGE_CURVE('',#522,#509,#63,.T.);
#433=EDGE_CURVE('',#525,#525,#556,.T.);
#434=EDGE_CURVE('',#518,#526,#64,.T.);
#435=EDGE_CURVE('',#526,#523,#65,.T.);
#436=EDGE_CURVE('',#494,#524,#66,.T.);
#437=EDGE_CURVE('',#527,#499,#67,.T.);
#438=EDGE_CURVE('',#490,#527,#68,.T.);
#439=EDGE_CURVE('',#527,#514,#69,.T.);
#440=EDGE_CURVE('',#528,#503,#70,.T.);
#441=EDGE_CURVE('',#515,#528,#71,.T.);
#442=EDGE_CURVE('',#529,#505,#72,.T.);
#443=EDGE_CURVE('',#528,#529,#73,.T.);
#444=EDGE_CURVE('',#529,#520,#74,.T.);
#445=EDGE_CURVE('',#530,#526,#75,.T.);
#446=EDGE_CURVE('',#519,#530,#76,.T.);
#447=EDGE_CURVE('',#530,#521,#77,.T.);
#448=EDGE_CURVE('',#531,#508,#78,.T.);
#449=EDGE_CURVE('',#531,#522,#79,.T.);
#450=EDGE_CURVE('',#532,#507,#80,.T.);
#451=EDGE_CURVE('',#532,#531,#81,.T.);
#452=EDGE_CURVE('',#533,#512,#82,.T.);
#453=EDGE_CURVE('',#533,#534,#83,.T.);
#454=EDGE_CURVE('',#534,#513,#84,.T.);
#455=EDGE_CURVE('',#491,#533,#85,.T.);
#456=EDGE_CURVE('',#534,#532,#86,.T.);
#457=EDGE_CURVE('',#535,#536,#87,.T.);
#458=EDGE_CURVE('',#536,#537,#88,.T.);
#459=EDGE_CURVE('',#538,#537,#89,.T.);
#460=EDGE_CURVE('',#535,#538,#90,.T.);
#461=EDGE_CURVE('',#482,#535,#91,.T.);
#462=EDGE_CURVE('',#483,#536,#92,.T.);
#463=EDGE_CURVE('',#484,#538,#93,.T.);
#464=EDGE_CURVE('',#485,#537,#94,.T.);
#465=EDGE_CURVE('',#539,#486,#95,.T.);
#466=EDGE_CURVE('',#539,#540,#96,.T.);
#467=EDGE_CURVE('',#540,#488,#97,.T.);
#468=EDGE_CURVE('',#541,#487,#98,.T.);
#469=EDGE_CURVE('',#539,#541,#99,.T.);
#470=EDGE_CURVE('',#542,#489,#100,.T.);
#471=EDGE_CURVE('',#541,#542,#101,.T.);
#472=EDGE_CURVE('',#540,#542,#102,.T.);
#473=EDGE_CURVE('',#543,#543,#557,.T.);
#474=EDGE_CURVE('',#544,#544,#558,.T.);
#475=EDGE_CURVE('',#545,#545,#559,.T.);
#476=EDGE_CURVE('',#546,#546,#560,.T.);
#477=EDGE_CURVE('',#547,#547,#561,.T.);
#478=EDGE_CURVE('',#548,#548,#562,.T.);
#479=EDGE_CURVE('',#549,#549,#563,.T.);
#480=EDGE_CURVE('',#550,#550,#564,.T.);
#481=VERTEX_POINT('',#1056);
#482=VERTEX_POINT('',#1058);
#483=VERTEX_POINT('',#1059);
#484=VERTEX_POINT('',#1061);
#485=VERTEX_POINT('',#1063);
#486=VERTEX_POINT('',#1066);
#487=VERTEX_POINT('',#1067);
#488=VERTEX_POINT('',#1069);
#489=VERTEX_POINT('',#1071);
#490=VERTEX_POINT('',#1075);
#491=VERTEX_POINT('',#1076);
#492=VERTEX_POINT('',#1078);
#493=VERTEX_POINT('',#1080);
#494=VERTEX_POINT('',#1082);
#495=VERTEX_POINT('',#1084);
#496=VERTEX_POINT('',#1086);
#497=VERTEX_POINT('',#1088);
#498=VERTEX_POINT('',#1092);
#499=VERTEX_POINT('',#1094);
#500=VERTEX_POINT('',#1096);
#501=VERTEX_POINT('',#1100);
#502=VERTEX_POINT('',#1102);
#503=VERTEX_POINT('',#1103);
#504=VERTEX_POINT('',#1105);
#505=VERTEX_POINT('',#1107);
#506=VERTEX_POINT('',#1111);
#507=VERTEX_POINT('',#1113);
#508=VERTEX_POINT('',#1114);
#509=VERTEX_POINT('',#1116);
#510=VERTEX_POINT('',#1118);
#511=VERTEX_POINT('',#1122);
#512=VERTEX_POINT('',#1124);
#513=VERTEX_POINT('',#1126);
#514=VERTEX_POINT('',#1130);
#515=VERTEX_POINT('',#1131);
#516=VERTEX_POINT('',#1134);
#517=VERTEX_POINT('',#1136);
#518=VERTEX_POINT('',#1138);
#519=VERTEX_POINT('',#1140);
#520=VERTEX_POINT('',#1142);
#521=VERTEX_POINT('',#1147);
#522=VERTEX_POINT('',#1148);
#523=VERTEX_POINT('',#1150);
#524=VERTEX_POINT('',#1153);
#525=VERTEX_POINT('',#1158);
#526=VERTEX_POINT('',#1160);
#527=VERTEX_POINT('',#1166);
#528=VERTEX_POINT('',#1172);
#529=VERTEX_POINT('',#1176);
#530=VERTEX_POINT('',#1182);
#531=VERTEX_POINT('',#1188);
#532=VERTEX_POINT('',#1192);
#533=VERTEX_POINT('',#1196);
#534=VERTEX_POINT('',#1198);
#535=VERTEX_POINT('',#1206);
#536=VERTEX_POINT('',#1207);
#537=VERTEX_POINT('',#1209);
#538=VERTEX_POINT('',#1211);
#539=VERTEX_POINT('',#1223);
#540=VERTEX_POINT('',#1225);
#541=VERTEX_POINT('',#1229);
#542=VERTEX_POINT('',#1233);
#543=VERTEX_POINT('',#1239);
#544=VERTEX_POINT('',#1242);
#545=VERTEX_POINT('',#1246);
#546=VERTEX_POINT('',#1250);
#547=VERTEX_POINT('',#1254);
#548=VERTEX_POINT('',#1258);
#549=VERTEX_POINT('',#1262);
#550=VERTEX_POINT('',#1266);
#551=CIRCLE('',#788,0.000965308107185224);
#552=CIRCLE('',#791,0.00049414933428742);
#553=CIRCLE('',#793,0.000494149334287419);
#554=CIRCLE('',#795,0.000494149334287418);
#555=CIRCLE('',#797,0.000494149334287418);
#556=CIRCLE('',#801,0.000494149334287419);
#557=CIRCLE('',#825,0.00109279629910514);
#558=CIRCLE('',#827,0.000846803295704348);
#559=CIRCLE('',#830,0.000846803295704347);
#560=CIRCLE('',#833,0.000846803295704347);
#561=CIRCLE('',#836,0.000846803295704348);
#562=CIRCLE('',#839,0.00084680329570435);
#563=CIRCLE('',#842,0.00109279629910514);
#564=CIRCLE('',#845,0.000965308107185224);
#565=EDGE_LOOP('',(#187));
#566=EDGE_LOOP('',(#188,#189,#190,#191));
#567=EDGE_LOOP('',(#192,#193,#194,#195));
#568=EDGE_LOOP('',(#196,#197,#198,#199,#200,#201,#202,#203));
#569=EDGE_LOOP('',(#204));
#570=EDGE_LOOP('',(#205,#206,#207,#208));
#571=EDGE_LOOP('',(#209));
#572=EDGE_LOOP('',(#210,#211,#212,#213));
#573=EDGE_LOOP('',(#214));
#574=EDGE_LOOP('',(#215,#216,#217,#218));
#575=EDGE_LOOP('',(#219));
#576=EDGE_LOOP('',(#220,#221,#222,#223));
#577=EDGE_LOOP('',(#224,#225,#226,#227,#228,#229,#230,#231,#232,#233,#234,
#235));
#578=EDGE_LOOP('',(#236,#237,#238,#239,#240,#241,#242,#243));
#579=EDGE_LOOP('',(#244));
#580=EDGE_LOOP('',(#245,#246,#247,#248));
#581=EDGE_LOOP('',(#249,#250,#251,#252));
#582=EDGE_LOOP('',(#253,#254,#255,#256));
#583=EDGE_LOOP('',(#257,#258,#259,#260));
#584=EDGE_LOOP('',(#261,#262,#263,#264));
#585=EDGE_LOOP('',(#265,#266,#267,#268));
#586=EDGE_LOOP('',(#269,#270,#271,#272));
#587=EDGE_LOOP('',(#273,#274,#275,#276));
#588=EDGE_LOOP('',(#277,#278,#279,#280));
#589=EDGE_LOOP('',(#281,#282,#283,#284));
#590=EDGE_LOOP('',(#285,#286,#287,#288));
#591=EDGE_LOOP('',(#289,#290,#291,#292));
#592=EDGE_LOOP('',(#293,#294,#295,#296));
#593=EDGE_LOOP('',(#297,#298,#299,#300,#301,#302,#303,#304,#305,#306,#307,
#308,#309,#310,#311,#312));
#594=EDGE_LOOP('',(#313,#314,#315,#316));
#595=EDGE_LOOP('',(#317,#318,#319,#320,#321,#322,#323,#324));
#596=EDGE_LOOP('',(#325,#326,#327,#328));
#597=EDGE_LOOP('',(#329,#330,#331,#332));
#598=EDGE_LOOP('',(#333,#334,#335,#336));
#599=EDGE_LOOP('',(#337,#338,#339,#340));
#600=EDGE_LOOP('',(#341,#342,#343,#344));
#601=EDGE_LOOP('',(#345,#346,#347,#348));
#602=EDGE_LOOP('',(#349,#350,#351,#352));
#603=EDGE_LOOP('',(#353,#354,#355,#356));
#604=EDGE_LOOP('',(#357));
#605=EDGE_LOOP('',(#358,#359,#360,#361));
#606=EDGE_LOOP('',(#362));
#607=EDGE_LOOP('',(#363));
#608=EDGE_LOOP('',(#364));
#609=EDGE_LOOP('',(#365));
#610=EDGE_LOOP('',(#366));
#611=EDGE_LOOP('',(#367));
#612=EDGE_LOOP('',(#368));
#613=EDGE_LOOP('',(#369));
#614=EDGE_LOOP('',(#370));
#615=EDGE_LOOP('',(#371));
#616=EDGE_LOOP('',(#372));
#617=EDGE_LOOP('',(#373));
#618=EDGE_LOOP('',(#374));
#619=EDGE_LOOP('',(#375));
#620=EDGE_LOOP('',(#376));
#621=EDGE_LOOP('',(#377));
#622=EDGE_LOOP('',(#378));
#623=EDGE_LOOP('',(#379));
#624=EDGE_LOOP('',(#380));
#625=EDGE_LOOP('',(#381));
#626=EDGE_LOOP('',(#382));
#627=FACE_BOUND('',#565,.T.);
#628=FACE_BOUND('',#566,.T.);
#629=FACE_BOUND('',#567,.T.);
#630=FACE_BOUND('',#568,.T.);
#631=FACE_BOUND('',#569,.T.);
#632=FACE_BOUND('',#570,.T.);
#633=FACE_BOUND('',#571,.T.);
#634=FACE_BOUND('',#572,.T.);
#635=FACE_BOUND('',#573,.T.);
#636=FACE_BOUND('',#574,.T.);
#637=FACE_BOUND('',#575,.T.);
#638=FACE_BOUND('',#576,.T.);
#639=FACE_BOUND('',#577,.T.);
#640=FACE_BOUND('',#578,.T.);
#641=FACE_BOUND('',#579,.T.);
#642=FACE_BOUND('',#580,.T.);
#643=FACE_BOUND('',#581,.T.);
#644=FACE_BOUND('',#582,.T.);
#645=FACE_BOUND('',#583,.T.);
#646=FACE_BOUND('',#584,.T.);
#647=FACE_BOUND('',#585,.T.);
#648=FACE_BOUND('',#586,.T.);
#649=FACE_BOUND('',#587,.T.);
#650=FACE_BOUND('',#588,.T.);
#651=FACE_BOUND('',#589,.T.);
#652=FACE_BOUND('',#590,.T.);
#653=FACE_BOUND('',#591,.T.);
#654=FACE_BOUND('',#592,.T.);
#655=FACE_BOUND('',#593,.T.);
#656=FACE_BOUND('',#594,.T.);
#657=FACE_BOUND('',#595,.T.);
#658=FACE_BOUND('',#596,.T.);
#659=FACE_BOUND('',#597,.T.);
#660=FACE_BOUND('',#598,.T.);
#661=FACE_BOUND('',#599,.T.);
#662=FACE_BOUND('',#600,.T.);
#663=FACE_BOUND('',#601,.T.);
#664=FACE_BOUND('',#602,.T.);
#665=FACE_BOUND('',#603,.T.);
#666=FACE_BOUND('',#604,.T.);
#667=FACE_BOUND('',#605,.T.);
#668=FACE_BOUND('',#606,.T.);
#669=FACE_BOUND('',#607,.T.);
#670=FACE_BOUND('',#608,.T.);
#671=FACE_BOUND('',#609,.T.);
#672=FACE_BOUND('',#610,.T.);
#673=FACE_BOUND('',#611,.T.);
#674=FACE_BOUND('',#612,.T.);
#675=FACE_BOUND('',#613,.T.);
#676=FACE_BOUND('',#614,.T.);
#677=FACE_BOUND('',#615,.T.);
#678=FACE_BOUND('',#616,.T.);
#679=FACE_BOUND('',#617,.T.);
#680=FACE_BOUND('',#618,.T.);
#681=FACE_BOUND('',#619,.T.);
#682=FACE_BOUND('',#620,.T.);
#683=FACE_BOUND('',#621,.T.);
#684=FACE_BOUND('',#622,.T.);
#685=FACE_BOUND('',#623,.T.);
#686=FACE_BOUND('',#624,.T.);
#687=FACE_BOUND('',#625,.T.);
#688=FACE_BOUND('',#626,.T.);
#689=PLANE('',#787);
#690=PLANE('',#789);
#691=PLANE('',#790);
#692=PLANE('',#792);
#693=PLANE('',#794);
#694=PLANE('',#796);
#695=PLANE('',#798);
#696=PLANE('',#799);
#697=PLANE('',#800);
#698=PLANE('',#802);
#699=PLANE('',#803);
#700=PLANE('',#804);
#701=PLANE('',#805);
#702=PLANE('',#806);
#703=PLANE('',#807);
#704=PLANE('',#808);
#705=PLANE('',#809);
#706=PLANE('',#810);
#707=PLANE('',#811);
#708=PLANE('',#812);
#709=PLANE('',#813);
#710=PLANE('',#814);
#711=PLANE('',#815);
#712=PLANE('',#816);
#713=PLANE('',#817);
#714=PLANE('',#818);
#715=PLANE('',#819);
#716=PLANE('',#820);
#717=PLANE('',#821);
#718=PLANE('',#822);
#719=PLANE('',#823);
#720=PLANE('',#824);
#721=PLANE('',#828);
#722=PLANE('',#831);
#723=PLANE('',#834);
#724=PLANE('',#837);
#725=PLANE('',#840);
#726=PLANE('',#843);
#727=PLANE('',#846);
#728=ADVANCED_FACE('',(#627,#628,#629),#689,.T.);
#729=ADVANCED_FACE('',(#630),#690,.T.);
#730=ADVANCED_FACE('',(#631,#632),#691,.T.);
#731=ADVANCED_FACE('',(#633,#634),#692,.T.);
#732=ADVANCED_FACE('',(#635,#636),#693,.T.);
#733=ADVANCED_FACE('',(#637,#638),#694,.T.);
#734=ADVANCED_FACE('',(#639),#695,.F.);
#735=ADVANCED_FACE('',(#640),#696,.F.);
#736=ADVANCED_FACE('',(#641,#642),#697,.T.);
#737=ADVANCED_FACE('',(#643),#698,.F.);
#738=ADVANCED_FACE('',(#644),#699,.F.);
#739=ADVANCED_FACE('',(#645),#700,.F.);
#740=ADVANCED_FACE('',(#646),#701,.F.);
#741=ADVANCED_FACE('',(#647),#702,.F.);
#742=ADVANCED_FACE('',(#648),#703,.F.);
#743=ADVANCED_FACE('',(#649),#704,.F.);
#744=ADVANCED_FACE('',(#650),#705,.F.);
#745=ADVANCED_FACE('',(#651),#706,.T.);
#746=ADVANCED_FACE('',(#652),#707,.T.);
#747=ADVANCED_FACE('',(#653),#708,.T.);
#748=ADVANCED_FACE('',(#654),#709,.T.);
#749=ADVANCED_FACE('',(#655),#710,.T.);
#750=ADVANCED_FACE('',(#656,#657),#711,.F.);
#751=ADVANCED_FACE('',(#658),#712,.T.);
#752=ADVANCED_FACE('',(#659),#713,.F.);
#753=ADVANCED_FACE('',(#660),#714,.F.);
#754=ADVANCED_FACE('',(#661),#715,.T.);
#755=ADVANCED_FACE('',(#662),#716,.T.);
#756=ADVANCED_FACE('',(#663),#717,.F.);
#757=ADVANCED_FACE('',(#664),#718,.F.);
#758=ADVANCED_FACE('',(#665),#719,.T.);
#759=ADVANCED_FACE('',(#666,#667),#720,.T.);
#760=ADVANCED_FACE('',(#668,#669),#14,.T.);
#761=ADVANCED_FACE('',(#670),#721,.T.);
#762=ADVANCED_FACE('',(#671,#672),#15,.T.);
#763=ADVANCED_FACE('',(#673),#722,.T.);
#764=ADVANCED_FACE('',(#674,#675),#16,.T.);
#765=ADVANCED_FACE('',(#676),#723,.T.);
#766=ADVANCED_FACE('',(#677,#678),#17,.T.);
#767=ADVANCED_FACE('',(#679),#724,.T.);
#768=ADVANCED_FACE('',(#680,#681),#18,.T.);
#769=ADVANCED_FACE('',(#682),#725,.T.);
#770=ADVANCED_FACE('',(#683,#684),#12,.F.);
#771=ADVANCED_FACE('',(#685),#726,.T.);
#772=ADVANCED_FACE('',(#686,#687),#13,.T.);
#773=ADVANCED_FACE('',(#688),#727,.T.);
#774=CLOSED_SHELL('',(#728,#729,#730,#731,#732,#733,#734,#735,#736,#737,
#738,#739,#740,#741,#742,#743,#744,#745,#746,#747,#748,#749,#750,#751,#752,
#753,#754,#755,#756,#757,#758,#759,#760,#761,#762,#763,#764,#765,#766,#767,
#768,#769,#770,#771,#772,#773));
#775=STYLED_ITEM('',(#776),#783);
#776=PRESENTATION_STYLE_ASSIGNMENT((#777));
#777=SURFACE_STYLE_USAGE(.BOTH.,#778);
#778=SURFACE_SIDE_STYLE('',(#779));
#779=SURFACE_STYLE_FILL_AREA(#780);
#780=FILL_AREA_STYLE('',(#781));
#781=FILL_AREA_STYLE_COLOUR('',#782);
#782=COLOUR_RGB('',0.615686274509804,0.811764705882353,0.929411764705882);
#783=MANIFOLD_SOLID_BREP('Part 1',#774);
#784=SHAPE_DEFINITION_REPRESENTATION(#1274,#785);
#785=SHAPE_REPRESENTATION('Part 1',(#786),#1269);
#786=AXIS2_PLACEMENT_3D('',#1053,#847,#848);
#787=AXIS2_PLACEMENT_3D('',#1054,#849,#850);
#788=AXIS2_PLACEMENT_3D('',#1055,#851,#852);
#789=AXIS2_PLACEMENT_3D('',#1073,#861,#862);
#790=AXIS2_PLACEMENT_3D('',#1090,#871,#872);
#791=AXIS2_PLACEMENT_3D('',#1091,#873,#874);
#792=AXIS2_PLACEMENT_3D('',#1098,#878,#879);
#793=AXIS2_PLACEMENT_3D('',#1099,#880,#881);
#794=AXIS2_PLACEMENT_3D('',#1109,#886,#887);
#795=AXIS2_PLACEMENT_3D('',#1110,#888,#889);
#796=AXIS2_PLACEMENT_3D('',#1120,#894,#895);
#797=AXIS2_PLACEMENT_3D('',#1121,#896,#897);
#798=AXIS2_PLACEMENT_3D('',#1128,#901,#902);
#799=AXIS2_PLACEMENT_3D('',#1145,#912,#913);
#800=AXIS2_PLACEMENT_3D('',#1156,#920,#921);
#801=AXIS2_PLACEMENT_3D('',#1157,#922,#923);
#802=AXIS2_PLACEMENT_3D('',#1162,#926,#927);
#803=AXIS2_PLACEMENT_3D('',#1164,#929,#930);
#804=AXIS2_PLACEMENT_3D('',#1168,#933,#934);
#805=AXIS2_PLACEMENT_3D('',#1170,#936,#937);
#806=AXIS2_PLACEMENT_3D('',#1174,#940,#941);
#807=AXIS2_PLACEMENT_3D('',#1178,#944,#945);
#808=AXIS2_PLACEMENT_3D('',#1180,#947,#948);
#809=AXIS2_PLACEMENT_3D('',#1184,#951,#952);
#810=AXIS2_PLACEMENT_3D('',#1186,#954,#955);
#811=AXIS2_PLACEMENT_3D('',#1190,#958,#959);
#812=AXIS2_PLACEMENT_3D('',#1194,#962,#963);
#813=AXIS2_PLACEMENT_3D('',#1200,#967,#968);
#814=AXIS2_PLACEMENT_3D('',#1202,#970,#971);
#815=AXIS2_PLACEMENT_3D('',#1204,#973,#974);
#816=AXIS2_PLACEMENT_3D('',#1213,#979,#980);
#817=AXIS2_PLACEMENT_3D('',#1216,#983,#984);
#818=AXIS2_PLACEMENT_3D('',#1218,#986,#987);
#819=AXIS2_PLACEMENT_3D('',#1220,#989,#990);
#820=AXIS2_PLACEMENT_3D('',#1221,#991,#992);
#821=AXIS2_PLACEMENT_3D('',#1227,#996,#997);
#822=AXIS2_PLACEMENT_3D('',#1231,#1000,#1001);
#823=AXIS2_PLACEMENT_3D('',#1235,#1004,#1005);
#824=AXIS2_PLACEMENT_3D('',#1237,#1007,#1008);
#825=AXIS2_PLACEMENT_3D('',#1238,#1009,#1010);
#826=AXIS2_PLACEMENT_3D('',#1240,#1011,#1012);
#827=AXIS2_PLACEMENT_3D('',#1241,#1013,#1014);
#828=AXIS2_PLACEMENT_3D('',#1243,#1015,#1016);
#829=AXIS2_PLACEMENT_3D('',#1244,#1017,#1018);
#830=AXIS2_PLACEMENT_3D('',#1245,#1019,#1020);
#831=AXIS2_PLACEMENT_3D('',#1247,#1021,#1022);
#832=AXIS2_PLACEMENT_3D('',#1248,#1023,#1024);
#833=AXIS2_PLACEMENT_3D('',#1249,#1025,#1026);
#834=AXIS2_PLACEMENT_3D('',#1251,#1027,#1028);
#835=AXIS2_PLACEMENT_3D('',#1252,#1029,#1030);
#836=AXIS2_PLACEMENT_3D('',#1253,#1031,#1032);
#837=AXIS2_PLACEMENT_3D('',#1255,#1033,#1034);
#838=AXIS2_PLACEMENT_3D('',#1256,#1035,#1036);
#839=AXIS2_PLACEMENT_3D('',#1257,#1037,#1038);
#840=AXIS2_PLACEMENT_3D('',#1259,#1039,#1040);
#841=AXIS2_PLACEMENT_3D('',#1260,#1041,#1042);
#842=AXIS2_PLACEMENT_3D('',#1261,#1043,#1044);
#843=AXIS2_PLACEMENT_3D('',#1263,#1045,#1046);
#844=AXIS2_PLACEMENT_3D('',#1264,#1047,#1048);
#845=AXIS2_PLACEMENT_3D('',#1265,#1049,#1050);
#846=AXIS2_PLACEMENT_3D('',#1267,#1051,#1052);
#847=DIRECTION('',(0.,0.,1.));
#848=DIRECTION('',(1.,0.,0.));
#849=DIRECTION('',(-1.020425574104E-16,0.,1.));
#850=DIRECTION('',(1.,0.,1.020425574104E-16));
#851=DIRECTION('',(-1.020425574104E-16,0.,1.));
#852=DIRECTION('',(1.,0.,1.020425574104E-16));
#853=DIRECTION('',(1.,0.,1.020425574104E-16));
#854=DIRECTION('',(0.,-1.,0.));
#855=DIRECTION('',(1.,0.,1.020425574104E-16));
#856=DIRECTION('',(0.,-1.,0.));
#857=DIRECTION('',(0.,-1.,0.));
#858=DIRECTION('',(1.,0.,1.020425574104E-16));
#859=DIRECTION('',(0.,-1.,0.));
#860=DIRECTION('',(1.,0.,1.020425574104E-16));
#861=DIRECTION('',(-1.,0.,0.));
#862=DIRECTION('',(0.,0.,1.));
#863=DIRECTION('',(0.,0.,1.));
#864=DIRECTION('',(0.,-1.,0.));
#865=DIRECTION('',(0.,0.,1.));
#866=DIRECTION('',(0.,1.,0.));
#867=DIRECTION('',(0.,0.,1.));
#868=DIRECTION('',(0.,1.,0.));
#869=DIRECTION('',(0.,0.,1.));
#870=DIRECTION('',(0.,-1.,0.));
#871=DIRECTION('',(0.,-1.,0.));
#872=DIRECTION('',(1.,0.,0.));
#873=DIRECTION('',(0.,-1.,0.));
#874=DIRECTION('',(0.,0.,-1.));
#875=DIRECTION('',(1.,0.,0.));
#876=DIRECTION('',(1.,0.,0.));
#877=DIRECTION('',(0.,0.,-1.));
#878=DIRECTION('',(0.,-1.,0.));
#879=DIRECTION('',(1.,0.,0.));
#880=DIRECTION('',(0.,-1.,0.));
#881=DIRECTION('',(0.,0.,-1.));
#882=DIRECTION('',(-5.65449660634899E-16,0.,1.));
#883=DIRECTION('',(1.,0.,0.));
#884=DIRECTION('',(0.,0.,-1.));
#885=DIRECTION('',(1.,0.,0.));
#886=DIRECTION('',(0.,-1.,0.));
#887=DIRECTION('',(1.,0.,0.));
#888=DIRECTION('',(0.,-1.,0.));
#889=DIRECTION('',(0.,0.,-1.));
#890=DIRECTION('',(0.,0.,-1.));
#891=DIRECTION('',(1.,0.,0.));
#892=DIRECTION('',(0.,0.,1.));
#893=DIRECTION('',(1.,0.,1.020425574104E-16));
#894=DIRECTION('',(0.,-1.,0.));
#895=DIRECTION('',(1.,0.,0.));
#896=DIRECTION('',(0.,-1.,0.));
#897=DIRECTION('',(0.,0.,-1.));
#898=DIRECTION('',(1.,0.,0.));
#899=DIRECTION('',(0.,0.,1.));
#900=DIRECTION('',(1.,0.,1.020425574104E-16));
#901=DIRECTION('',(0.,0.,1.));
#902=DIRECTION('',(1.,0.,0.));
#903=DIRECTION('',(1.,0.,0.));
#904=DIRECTION('',(0.,-1.,0.));
#905=DIRECTION('',(1.,0.,0.));
#906=DIRECTION('',(0.,1.,0.));
#907=DIRECTION('',(1.,0.,0.));
#908=DIRECTION('',(0.,-1.,0.));
#909=DIRECTION('',(1.,0.,0.));
#910=DIRECTION('',(0.,-1.,0.));
#911=DIRECTION('',(0.,-1.,0.));
#912=DIRECTION('',(-1.,0.,0.));
#913=DIRECTION('',(0.,0.,1.));
#914=DIRECTION('',(0.,0.,1.));
#915=DIRECTION('',(0.,-1.,0.));
#916=DIRECTION('',(0.,0.,1.));
#917=DIRECTION('',(0.,0.,1.));
#918=DIRECTION('',(0.,1.,0.));
#919=DIRECTION('',(0.,-1.,0.));
#920=DIRECTION('',(0.,-1.,0.));
#921=DIRECTION('',(1.,0.,0.));
#922=DIRECTION('',(0.,-1.,0.));
#923=DIRECTION('',(0.,0.,-1.));
#924=DIRECTION('',(0.,0.,1.));
#925=DIRECTION('',(1.,0.,0.));
#926=DIRECTION('',(0.,-1.,0.));
#927=DIRECTION('',(1.,0.,0.));
#928=DIRECTION('',(1.,0.,1.020425574104E-16));
#929=DIRECTION('',(0.,0.,-1.));
#930=DIRECTION('',(-1.,0.,0.));
#931=DIRECTION('',(0.,-1.,0.));
#932=DIRECTION('',(1.,0.,0.));
#933=DIRECTION('',(-1.,0.,0.));
#934=DIRECTION('',(0.,0.,1.));
#935=DIRECTION('',(0.,0.,-1.));
#936=DIRECTION('',(1.,0.,5.65449660634899E-16));
#937=DIRECTION('',(5.65449660634899E-16,0.,-1.));
#938=DIRECTION('',(0.,-1.,0.));
#939=DIRECTION('',(-5.65449660634899E-16,0.,1.));
#940=DIRECTION('',(0.,0.,-1.));
#941=DIRECTION('',(-1.,0.,0.));
#942=DIRECTION('',(0.,-1.,0.));
#943=DIRECTION('',(1.,0.,0.));
#944=DIRECTION('',(-1.,0.,0.));
#945=DIRECTION('',(0.,0.,1.));
#946=DIRECTION('',(0.,0.,-1.));
#947=DIRECTION('',(1.,0.,0.));
#948=DIRECTION('',(0.,0.,-1.));
#949=DIRECTION('',(0.,-1.,0.));
#950=DIRECTION('',(0.,0.,1.));
#951=DIRECTION('',(0.,0.,-1.));
#952=DIRECTION('',(-1.,0.,0.));
#953=DIRECTION('',(1.,0.,0.));
#954=DIRECTION('',(0.,0.,-1.));
#955=DIRECTION('',(-1.,0.,0.));
#956=DIRECTION('',(0.,-1.,0.));
#957=DIRECTION('',(1.,0.,0.));
#958=DIRECTION('',(-1.,0.,0.));
#959=DIRECTION('',(0.,0.,1.));
#960=DIRECTION('',(0.,-1.,0.));
#961=DIRECTION('',(0.,0.,-1.));
#962=DIRECTION('',(1.,0.,0.));
#963=DIRECTION('',(0.,0.,-1.));
#964=DIRECTION('',(0.,-1.,0.));
#965=DIRECTION('',(0.,0.,1.));
#966=DIRECTION('',(0.,-1.,0.));
#967=DIRECTION('',(0.,0.,-1.));
#968=DIRECTION('',(-1.,0.,0.));
#969=DIRECTION('',(1.,0.,0.));
#970=DIRECTION('',(0.,-1.,0.));
#971=DIRECTION('',(1.,0.,0.));
#972=DIRECTION('',(1.,0.,1.020425574104E-16));
#973=DIRECTION('',(-1.020425574104E-16,0.,1.));
#974=DIRECTION('',(1.,0.,1.020425574104E-16));
#975=DIRECTION('',(1.,0.,1.020425574104E-16));
#976=DIRECTION('',(0.,-1.,0.));
#977=DIRECTION('',(1.,0.,1.020425574104E-16));
#978=DIRECTION('',(0.,-1.,0.));
#979=DIRECTION('',(0.,1.,0.));
#980=DIRECTION('',(0.,0.,1.));
#981=DIRECTION('',(1.020425574104E-16,0.,-1.));
#982=DIRECTION('',(1.020425574104E-16,0.,-1.));
#983=DIRECTION('',(1.,0.,1.020425574104E-16));
#984=DIRECTION('',(1.020425574104E-16,0.,-1.));
#985=DIRECTION('',(1.020425574104E-16,0.,-1.));
#986=DIRECTION('',(0.,1.,0.));
#987=DIRECTION('',(0.,0.,1.));
#988=DIRECTION('',(1.020425574104E-16,0.,-1.));
#989=DIRECTION('',(1.,0.,1.020425574104E-16));
#990=DIRECTION('',(1.020425574104E-16,0.,-1.));
#991=DIRECTION('',(0.,-1.,0.));
#992=DIRECTION('',(0.,0.,-1.));
#993=DIRECTION('',(-1.020425574104E-16,0.,1.));
#994=DIRECTION('',(1.,0.,1.020425574104E-16));
#995=DIRECTION('',(-1.020425574104E-16,0.,1.));
#996=DIRECTION('',(-1.,0.,-1.020425574104E-16));
#997=DIRECTION('',(-1.020425574104E-16,0.,1.));
#998=DIRECTION('',(-1.020425574104E-16,0.,1.));
#999=DIRECTION('',(0.,-1.,0.));
#1000=DIRECTION('',(0.,-1.,0.));
#1001=DIRECTION('',(0.,0.,-1.));
#1002=DIRECTION('',(-1.020425574104E-16,0.,1.));
#1003=DIRECTION('',(1.,0.,1.020425574104E-16));
#1004=DIRECTION('',(-1.,0.,-1.020425574104E-16));
#1005=DIRECTION('',(-1.020425574104E-16,0.,1.));
#1006=DIRECTION('',(0.,-1.,0.));
#1007=DIRECTION('',(-1.020425574104E-16,0.,1.));
#1008=DIRECTION('',(1.,0.,1.020425574104E-16));
#1009=DIRECTION('',(-1.020425574104E-16,0.,1.));
#1010=DIRECTION('',(1.,0.,1.020425574104E-16));
#1011=DIRECTION('',(0.,-1.,0.));
#1012=DIRECTION('',(0.,0.,-1.));
#1013=DIRECTION('',(0.,-1.,0.));
#1014=DIRECTION('',(0.,0.,-1.));
#1015=DIRECTION('',(0.,-1.,0.));
#1016=DIRECTION('',(1.,0.,0.));
#1017=DIRECTION('',(0.,-1.,0.));
#1018=DIRECTION('',(0.,0.,-1.));
#1019=DIRECTION('',(0.,-1.,0.));
#1020=DIRECTION('',(0.,0.,-1.));
#1021=DIRECTION('',(0.,-1.,0.));
#1022=DIRECTION('',(1.,0.,0.));
#1023=DIRECTION('',(0.,-1.,0.));
#1024=DIRECTION('',(0.,0.,-1.));
#1025=DIRECTION('',(0.,-1.,0.));
#1026=DIRECTION('',(0.,0.,-1.));
#1027=DIRECTION('',(0.,-1.,0.));
#1028=DIRECTION('',(1.,0.,0.));
#1029=DIRECTION('',(0.,-1.,0.));
#1030=DIRECTION('',(0.,0.,-1.));
#1031=DIRECTION('',(0.,-1.,0.));
#1032=DIRECTION('',(0.,0.,-1.));
#1033=DIRECTION('',(0.,-1.,0.));
#1034=DIRECTION('',(1.,0.,0.));
#1035=DIRECTION('',(0.,-1.,0.));
#1036=DIRECTION('',(0.,0.,-1.));
#1037=DIRECTION('',(0.,-1.,0.));
#1038=DIRECTION('',(0.,0.,-1.));
#1039=DIRECTION('',(0.,-1.,0.));
#1040=DIRECTION('',(1.,0.,0.));
#1041=DIRECTION('',(-1.020425574104E-16,0.,1.));
#1042=DIRECTION('',(1.,0.,1.020425574104E-16));
#1043=DIRECTION('',(-1.020425574104E-16,0.,1.));
#1044=DIRECTION('',(1.,0.,1.020425574104E-16));
#1045=DIRECTION('',(-1.020425574104E-16,0.,1.));
#1046=DIRECTION('',(1.,0.,1.020425574104E-16));
#1047=DIRECTION('',(1.020425574104E-16,0.,-1.));
#1048=DIRECTION('',(-1.,0.,-1.020425574104E-16));
#1049=DIRECTION('',(-1.020425574104E-16,0.,1.));
#1050=DIRECTION('',(1.,0.,1.020425574104E-16));
#1051=DIRECTION('',(-1.020425574104E-16,0.,1.));
#1052=DIRECTION('',(1.,0.,1.020425574104E-16));
#1053=CARTESIAN_POINT('',(0.,0.,0.));
#1054=CARTESIAN_POINT('',(-0.00154008902609348,-0.0156610184221528,0.0199818910010831));
#1055=CARTESIAN_POINT('',(-0.0246684979647398,-0.00484125642105937,0.0199818910010831));
#1056=CARTESIAN_POINT('',(-0.0237031898575546,-0.00484125642105937,0.0199818910010831));
#1057=CARTESIAN_POINT('',(-0.00154008902609348,0.00107796315569431,0.0199818910010831));
#1058=CARTESIAN_POINT('',(-0.0368594489991665,0.00107796315569431,0.0199818910010831));
#1059=CARTESIAN_POINT('',(0.0337792709469796,0.00107796315569431,0.0199818910010831));
#1060=CARTESIAN_POINT('',(-0.0368594489991665,-0.0156610184221528,0.0199818910010831));
#1061=CARTESIAN_POINT('',(-0.0368594489991665,-0.0324,0.0199818910010831));
#1062=CARTESIAN_POINT('',(-0.00154008902609348,-0.0324,0.0199818910010831));
#1063=CARTESIAN_POINT('',(0.0337792709469796,-0.0324,0.0199818910010831));
#1064=CARTESIAN_POINT('',(0.0337792709469796,-0.0156610184221528,0.0199818910010831));
#1065=CARTESIAN_POINT('',(-0.0348158068954945,-0.0133109213985503,0.0199818910010831));
#1066=CARTESIAN_POINT('',(-0.0348158068954945,-0.00744012698680164,0.0199818910010831));
#1067=CARTESIAN_POINT('',(-0.0348158068954945,-0.0191817158102989,0.0199818910010831));
#1068=CARTESIAN_POINT('',(-0.0247616330161691,-0.00744012698680164,0.0199818910010831));
#1069=CARTESIAN_POINT('',(-0.0147074591368437,-0.00744012698680164,0.0199818910010831));
#1070=CARTESIAN_POINT('',(-0.0147074591368437,-0.0133109213985503,0.0199818910010831));
#1071=CARTESIAN_POINT('',(-0.0147074591368437,-0.0191817158102989,0.0199818910010831));
#1072=CARTESIAN_POINT('',(-0.0247616330161691,-0.0191817158102989,0.0199818910010831));
#1073=CARTESIAN_POINT('',(-0.0355062502607703,-0.031,-0.00021810899891692));
#1074=CARTESIAN_POINT('',(-0.0355062502607703,-0.029,-0.00021810899891692));
#1075=CARTESIAN_POINT('',(-0.0355062502607703,-0.029,0.0114605454728007));
#1076=CARTESIAN_POINT('',(-0.0355062502607703,-0.029,0.0122818910010831));
#1077=CARTESIAN_POINT('',(-0.0355062502607703,-0.029,0.0122818910010831));
#1078=CARTESIAN_POINT('',(-0.0355062502607703,-0.031,0.0122818910010831));
#1079=CARTESIAN_POINT('',(-0.0355062502607703,-0.031,-0.00021810899891692));
#1080=CARTESIAN_POINT('',(-0.0355062502607703,-0.031,0.0187818910010831));
#1081=CARTESIAN_POINT('',(-0.0355062502607703,-0.031,0.0187818910010831));
#1082=CARTESIAN_POINT('',(-0.0355062502607703,0.,0.0187818910010831));
#1083=CARTESIAN_POINT('',(-0.0355062502607703,0.,-0.00021810899891692));
#1084=CARTESIAN_POINT('',(-0.0355062502607703,0.,-0.0192181089989169));
#1085=CARTESIAN_POINT('',(-0.0355062502607703,-0.031,-0.0192181089989169));
#1086=CARTESIAN_POINT('',(-0.0355062502607703,-0.031,-0.0192181089989169));
#1087=CARTESIAN_POINT('',(-0.0355062502607703,-0.031,-0.00021810899891692));
#1088=CARTESIAN_POINT('',(-0.0355062502607703,-0.031,0.0114605454728007));
#1089=CARTESIAN_POINT('',(-0.0355062502607703,-0.029,0.0114605454728007));
#1090=CARTESIAN_POINT('',(-0.0015062502607703,-0.031,-0.000218108998916916));
#1091=CARTESIAN_POINT('',(-0.0332259187102318,-0.031,0.00786054547280073));
#1092=CARTESIAN_POINT('',(-0.0332259187102318,-0.031,0.00736639613851331));
#1093=CARTESIAN_POINT('',(-0.0243781050287187,-0.031,0.0114605454728007));
#1094=CARTESIAN_POINT('',(-0.0132499597966671,-0.031,0.0114605454728007));
#1095=CARTESIAN_POINT('',(-0.00150625026077031,-0.031,-0.0192181089989169));
#1096=CARTESIAN_POINT('',(-0.0132499597966671,-0.031,-0.0192181089989169));
#1097=CARTESIAN_POINT('',(-0.0132499597966671,-0.031,-0.00387878176305809));
#1098=CARTESIAN_POINT('',(-0.0015062502607703,-0.031,-0.000218108998916916));
#1099=CARTESIAN_POINT('',(-0.0102062502607703,-0.031,0.00786054547280073));
#1100=CARTESIAN_POINT('',(-0.0102062502607703,-0.031,0.00736639613851331));
#1101=CARTESIAN_POINT('',(-0.0125062502607703,-0.031,-0.00387878176305809));
#1102=CARTESIAN_POINT('',(-0.0125062502607703,-0.031,-0.0192181089989169));
#1103=CARTESIAN_POINT('',(-0.0125062502607703,-0.031,0.0114605454728007));
#1104=CARTESIAN_POINT('',(-0.00150625026077031,-0.031,-0.0192181089989169));
#1105=CARTESIAN_POINT('',(0.00955160800367594,-0.031,-0.0192181089989169));
#1106=CARTESIAN_POINT('',(0.00955160800367594,-0.031,-0.00387878176305809));
#1107=CARTESIAN_POINT('',(0.00955160800367594,-0.031,0.0114605454728007));
#1108=CARTESIAN_POINT('',(-0.00147732112854719,-0.031,0.0114605454728007));
#1109=CARTESIAN_POINT('',(-0.0015062502607703,-0.031,-0.000218108998916916));
#1110=CARTESIAN_POINT('',(0.0023,-0.031,0.0155318910010831));
#1111=CARTESIAN_POINT('',(0.0023,-0.031,0.0150377416667957));
#1112=CARTESIAN_POINT('',(-0.00103489344473928,-0.031,0.0155318910010831));
#1113=CARTESIAN_POINT('',(-0.00103489344473928,-0.031,0.0187818910010831));
#1114=CARTESIAN_POINT('',(-0.00103489344473928,-0.031,0.0122818910010831));
#1115=CARTESIAN_POINT('',(0.0157294281472452,-0.031,0.0122818910010831));
#1116=CARTESIAN_POINT('',(0.0324937497392297,-0.031,0.0122818910010831));
#1117=CARTESIAN_POINT('',(0.0324937497392297,-0.031,-0.000218108998916912));
#1118=CARTESIAN_POINT('',(0.0324937497392297,-0.031,0.0187818910010831));
#1119=CARTESIAN_POINT('',(-0.00150625026077031,-0.031,0.0187818910010831));
#1120=CARTESIAN_POINT('',(-0.0015062502607703,-0.031,-0.000218108998916916));
#1121=CARTESIAN_POINT('',(-0.00539152324199677,-0.031,0.0155318910010831));
#1122=CARTESIAN_POINT('',(-0.00539152324199677,-0.031,0.0150377416667957));
#1123=CARTESIAN_POINT('',(-0.0187722430184483,-0.031,0.0122818910010831));
#1124=CARTESIAN_POINT('',(-0.00203823577612639,-0.031,0.0122818910010831));
#1125=CARTESIAN_POINT('',(-0.00203823577612639,-0.031,0.0155318910010831));
#1126=CARTESIAN_POINT('',(-0.00203823577612639,-0.031,0.0187818910010831));
#1127=CARTESIAN_POINT('',(-0.00150625026077031,-0.031,0.0187818910010831));
#1128=CARTESIAN_POINT('',(-0.00150625026077031,-0.031,-0.0192181089989169));
#1129=CARTESIAN_POINT('',(-0.00150625026077031,-0.029,-0.0192181089989169));
#1130=CARTESIAN_POINT('',(-0.0132499597966671,-0.029,-0.0192181089989169));
#1131=CARTESIAN_POINT('',(-0.0125062502607703,-0.029,-0.0192181089989169));
#1132=CARTESIAN_POINT('',(-0.0132499597966671,-0.029,-0.0192181089989169));
#1133=CARTESIAN_POINT('',(-0.00150625026077031,0.,-0.0192181089989169));
#1134=CARTESIAN_POINT('',(0.0324937497392297,0.,-0.0192181089989169));
#1135=CARTESIAN_POINT('',(0.0324937497392297,-0.031,-0.0192181089989169));
#1136=CARTESIAN_POINT('',(0.0324937497392297,-0.031,-0.0192181089989169));
#1137=CARTESIAN_POINT('',(-0.00150625026077031,-0.031,-0.0192181089989169));
#1138=CARTESIAN_POINT('',(0.0104937497392297,-0.031,-0.0192181089989169));
#1139=CARTESIAN_POINT('',(0.0104937497392297,-0.029,-0.0192181089989169));
#1140=CARTESIAN_POINT('',(0.0104937497392297,-0.029,-0.0192181089989169));
#1141=CARTESIAN_POINT('',(-0.00150625026077031,-0.029,-0.0192181089989169));
#1142=CARTESIAN_POINT('',(0.00955160800367594,-0.029,-0.0192181089989169));
#1143=CARTESIAN_POINT('',(0.00955160800367594,-0.029,-0.0192181089989169));
#1144=CARTESIAN_POINT('',(-0.0125062502607703,-0.029,-0.0192181089989169));
#1145=CARTESIAN_POINT('',(0.0324937497392297,-0.031,-0.000218108998916912));
#1146=CARTESIAN_POINT('',(0.0324937497392297,-0.029,-0.000218108998916912));
#1147=CARTESIAN_POINT('',(0.0324937497392297,-0.029,0.0114605454728007));
#1148=CARTESIAN_POINT('',(0.0324937497392297,-0.029,0.0122818910010831));
#1149=CARTESIAN_POINT('',(0.0324937497392297,-0.029,0.0114605454728007));
#1150=CARTESIAN_POINT('',(0.0324937497392297,-0.031,0.0114605454728007));
#1151=CARTESIAN_POINT('',(0.0324937497392297,-0.031,-0.000218108998916912));
#1152=CARTESIAN_POINT('',(0.0324937497392297,0.,-0.000218108998916912));
#1153=CARTESIAN_POINT('',(0.0324937497392297,0.,0.0187818910010831));
#1154=CARTESIAN_POINT('',(0.0324937497392297,-0.031,0.0187818910010831));
#1155=CARTESIAN_POINT('',(0.0324937497392297,-0.029,0.0122818910010831));
#1156=CARTESIAN_POINT('',(-0.0015062502607703,-0.031,-0.000218108998916916));
#1157=CARTESIAN_POINT('',(0.0134937497392297,-0.031,0.00786054547280073));
#1158=CARTESIAN_POINT('',(0.0134937497392297,-0.031,0.00736639613851331));
#1159=CARTESIAN_POINT('',(0.0104937497392297,-0.031,-0.00387878176305809));
#1160=CARTESIAN_POINT('',(0.0104937497392297,-0.031,0.0114605454728007));
#1161=CARTESIAN_POINT('',(0.0214937497392297,-0.031,0.0114605454728007));
#1162=CARTESIAN_POINT('',(-0.0015062502607703,0.,-0.000218108998916916));
#1163=CARTESIAN_POINT('',(-0.00150625026077031,0.,0.0187818910010831));
#1164=CARTESIAN_POINT('',(-0.0243781050287187,-0.029,0.0114605454728007));
#1165=CARTESIAN_POINT('',(-0.0132499597966671,-0.029,0.0114605454728007));
#1166=CARTESIAN_POINT('',(-0.0132499597966671,-0.029,0.0114605454728007));
#1167=CARTESIAN_POINT('',(-0.0243781050287187,-0.029,0.0114605454728007));
#1168=CARTESIAN_POINT('',(-0.0132499597966671,-0.029,-0.00387878176305809));
#1169=CARTESIAN_POINT('',(-0.0132499597966671,-0.029,-0.00387878176305809));
#1170=CARTESIAN_POINT('',(-0.0125062502607703,-0.029,-0.00387878176305809));
#1171=CARTESIAN_POINT('',(-0.0125062502607703,-0.029,0.0114605454728007));
#1172=CARTESIAN_POINT('',(-0.0125062502607703,-0.029,0.0114605454728007));
#1173=CARTESIAN_POINT('',(-0.0125062502607703,-0.029,-0.00387878176305809));
#1174=CARTESIAN_POINT('',(-0.00147732112854719,-0.029,0.0114605454728007));
#1175=CARTESIAN_POINT('',(0.00955160800367594,-0.029,0.0114605454728007));
#1176=CARTESIAN_POINT('',(0.00955160800367594,-0.029,0.0114605454728007));
#1177=CARTESIAN_POINT('',(-0.00147732112854719,-0.029,0.0114605454728007));
#1178=CARTESIAN_POINT('',(0.00955160800367594,-0.029,-0.00387878176305809));
#1179=CARTESIAN_POINT('',(0.00955160800367594,-0.029,-0.00387878176305809));
#1180=CARTESIAN_POINT('',(0.0104937497392297,-0.029,-0.00387878176305809));
#1181=CARTESIAN_POINT('',(0.0104937497392297,-0.029,0.0114605454728007));
#1182=CARTESIAN_POINT('',(0.0104937497392297,-0.029,0.0114605454728007));
#1183=CARTESIAN_POINT('',(0.0104937497392297,-0.029,-0.00387878176305809));
#1184=CARTESIAN_POINT('',(0.0214937497392297,-0.029,0.0114605454728007));
#1185=CARTESIAN_POINT('',(0.0214937497392297,-0.029,0.0114605454728007));
#1186=CARTESIAN_POINT('',(0.0157294281472452,-0.029,0.0122818910010831));
#1187=CARTESIAN_POINT('',(-0.00103489344473928,-0.029,0.0122818910010831));
#1188=CARTESIAN_POINT('',(-0.00103489344473928,-0.029,0.0122818910010831));
#1189=CARTESIAN_POINT('',(0.0157294281472452,-0.029,0.0122818910010831));
#1190=CARTESIAN_POINT('',(-0.00103489344473928,-0.029,0.0155318910010831));
#1191=CARTESIAN_POINT('',(-0.00103489344473928,-0.029,0.0187818910010831));
#1192=CARTESIAN_POINT('',(-0.00103489344473928,-0.029,0.0187818910010831));
#1193=CARTESIAN_POINT('',(-0.00103489344473928,-0.029,0.0155318910010831));
#1194=CARTESIAN_POINT('',(-0.00203823577612639,-0.029,0.0155318910010831));
#1195=CARTESIAN_POINT('',(-0.00203823577612639,-0.029,0.0122818910010831));
#1196=CARTESIAN_POINT('',(-0.00203823577612639,-0.029,0.0122818910010831));
#1197=CARTESIAN_POINT('',(-0.00203823577612639,-0.029,0.0155318910010831));
#1198=CARTESIAN_POINT('',(-0.00203823577612639,-0.029,0.0187818910010831));
#1199=CARTESIAN_POINT('',(-0.00203823577612639,-0.029,0.0187818910010831));
#1200=CARTESIAN_POINT('',(-0.0187722430184483,-0.029,0.0122818910010831));
#1201=CARTESIAN_POINT('',(-0.0187722430184483,-0.029,0.0122818910010831));
#1202=CARTESIAN_POINT('',(-0.0015062502607703,-0.029,-0.000218108998916916));
#1203=CARTESIAN_POINT('',(-0.00150625026077031,-0.029,0.0187818910010831));
#1204=CARTESIAN_POINT('',(-0.00154008902609348,-0.0156610184221528,0.0187818910010831));
#1205=CARTESIAN_POINT('',(-0.00154008902609348,0.00107796315569431,0.0187818910010831));
#1206=CARTESIAN_POINT('',(-0.0368594489991665,0.00107796315569431,0.0187818910010831));
#1207=CARTESIAN_POINT('',(0.0337792709469796,0.00107796315569431,0.0187818910010831));
#1208=CARTESIAN_POINT('',(0.0337792709469796,-0.0156610184221528,0.0187818910010831));
#1209=CARTESIAN_POINT('',(0.0337792709469796,-0.0324,0.0187818910010831));
#1210=CARTESIAN_POINT('',(-0.00154008902609348,-0.0324,0.0187818910010831));
#1211=CARTESIAN_POINT('',(-0.0368594489991665,-0.0324,0.0187818910010831));
#1212=CARTESIAN_POINT('',(-0.0368594489991665,-0.0156610184221528,0.0187818910010831));
#1213=CARTESIAN_POINT('',(-0.00154008902609348,0.00107796315569431,0.0199818910010831));
#1214=CARTESIAN_POINT('',(-0.0368594489991665,0.00107796315569431,0.0199818910010831));
#1215=CARTESIAN_POINT('',(0.0337792709469796,0.00107796315569431,0.0199818910010831));
#1216=CARTESIAN_POINT('',(-0.0368594489991665,-0.0156610184221528,0.0199818910010831));
#1217=CARTESIAN_POINT('',(-0.0368594489991665,-0.0324,0.0199818910010831));
#1218=CARTESIAN_POINT('',(-0.00154008902609348,-0.0324,0.0199818910010831));
#1219=CARTESIAN_POINT('',(0.0337792709469796,-0.0324,0.0199818910010831));
#1220=CARTESIAN_POINT('',(0.0337792709469796,-0.0156610184221528,0.0199818910010831));
#1221=CARTESIAN_POINT('',(-0.0247616330161691,-0.00744012698680164,0.0117818910010831));
#1222=CARTESIAN_POINT('',(-0.0348158068954945,-0.00744012698680164,0.0117818910010831));
#1223=CARTESIAN_POINT('',(-0.0348158068954945,-0.00744012698680164,0.0117818910010831));
#1224=CARTESIAN_POINT('',(-0.0247616330161691,-0.00744012698680164,0.0117818910010831));
#1225=CARTESIAN_POINT('',(-0.0147074591368437,-0.00744012698680164,0.0117818910010831));
#1226=CARTESIAN_POINT('',(-0.0147074591368437,-0.00744012698680164,0.0117818910010831));
#1227=CARTESIAN_POINT('',(-0.0348158068954945,-0.0133109213985503,0.0117818910010831));
#1228=CARTESIAN_POINT('',(-0.0348158068954945,-0.0191817158102989,0.0117818910010831));
#1229=CARTESIAN_POINT('',(-0.0348158068954945,-0.0191817158102989,0.0117818910010831));
#1230=CARTESIAN_POINT('',(-0.0348158068954945,-0.0133109213985503,0.0117818910010831));
#1231=CARTESIAN_POINT('',(-0.0247616330161691,-0.0191817158102989,0.0117818910010831));
#1232=CARTESIAN_POINT('',(-0.0147074591368437,-0.0191817158102989,0.0117818910010831));
#1233=CARTESIAN_POINT('',(-0.0147074591368437,-0.0191817158102989,0.0117818910010831));
#1234=CARTESIAN_POINT('',(-0.0247616330161691,-0.0191817158102989,0.0117818910010831));
#1235=CARTESIAN_POINT('',(-0.0147074591368437,-0.0133109213985503,0.0117818910010831));
#1236=CARTESIAN_POINT('',(-0.0147074591368437,-0.0133109213985503,0.0117818910010831));
#1237=CARTESIAN_POINT('',(-0.00154008902609348,-0.0156610184221528,0.0117818910010831));
#1238=CARTESIAN_POINT('',(-0.0247616330161691,-0.0133109213985503,0.0117818910010831));
#1239=CARTESIAN_POINT('',(-0.0236688367170639,-0.0133109213985503,0.0117818910010831));
#1240=CARTESIAN_POINT('',(0.0134937497392297,-0.033,0.00786054547280073));
#1241=CARTESIAN_POINT('',(0.0134937497392297,-0.033,0.00786054547280073));
#1242=CARTESIAN_POINT('',(0.0134937497392297,-0.033,0.00701374217709638));
#1243=CARTESIAN_POINT('',(-0.0105828486129181,-0.033,0.0128978165890897));
#1244=CARTESIAN_POINT('',(-0.00539152324199677,-0.033,0.0155318910010831));
#1245=CARTESIAN_POINT('',(-0.00539152324199677,-0.033,0.0155318910010831));
#1246=CARTESIAN_POINT('',(-0.00539152324199677,-0.033,0.0146850877053788));
#1247=CARTESIAN_POINT('',(-0.0105828486129181,-0.033,0.0128978165890897));
#1248=CARTESIAN_POINT('',(0.0023,-0.033,0.0155318910010831));
#1249=CARTESIAN_POINT('',(0.0023,-0.033,0.0155318910010831));
#1250=CARTESIAN_POINT('',(0.0023,-0.033,0.0146850877053788));
#1251=CARTESIAN_POINT('',(-0.0105828486129181,-0.033,0.0128978165890897));
#1252=CARTESIAN_POINT('',(-0.0102062502607703,-0.033,0.00786054547280073));
#1253=CARTESIAN_POINT('',(-0.0102062502607703,-0.033,0.00786054547280073));
#1254=CARTESIAN_POINT('',(-0.0102062502607703,-0.033,0.00701374217709638));
#1255=CARTESIAN_POINT('',(-0.0105828486129181,-0.033,0.0128978165890897));
#1256=CARTESIAN_POINT('',(-0.0332259187102318,-0.033,0.00786054547280073));
#1257=CARTESIAN_POINT('',(-0.0332259187102318,-0.033,0.00786054547280073));
#1258=CARTESIAN_POINT('',(-0.0332259187102318,-0.033,0.00701374217709638));
#1259=CARTESIAN_POINT('',(-0.0105828486129181,-0.033,0.0128978165890897));
#1260=CARTESIAN_POINT('',(-0.0247616330161691,-0.0133109213985503,0.00878189100108308));
#1261=CARTESIAN_POINT('',(-0.0247616330161691,-0.0133109213985503,0.00878189100108308));
#1262=CARTESIAN_POINT('',(-0.0236688367170639,-0.0133109213985503,0.00878189100108308));
#1263=CARTESIAN_POINT('',(-0.0247616330161691,-0.0133109213985503,0.00878189100108308));
#1264=CARTESIAN_POINT('',(-0.0246684979647398,-0.00484125642105937,0.0249818910010831));
#1265=CARTESIAN_POINT('',(-0.0246684979647398,-0.00484125642105937,0.0249818910010831));
#1266=CARTESIAN_POINT('',(-0.0237031898575546,-0.00484125642105937,0.0249818910010831));
#1267=CARTESIAN_POINT('',(-0.00154008902609348,-0.0156610184221528,0.0249818910010831));
#1268=MECHANICAL_DESIGN_GEOMETRIC_PRESENTATION_REPRESENTATION('',(#775),
#1269);
#1269=(
GEOMETRIC_REPRESENTATION_CONTEXT(3)
GLOBAL_UNCERTAINTY_ASSIGNED_CONTEXT((#1270))
GLOBAL_UNIT_ASSIGNED_CONTEXT((#1273,#1272,#1271))
REPRESENTATION_CONTEXT('Part 1','TOP_LEVEL_ASSEMBLY_PART')
);
#1270=UNCERTAINTY_MEASURE_WITH_UNIT(LENGTH_MEASURE(1.E-8),#1273,
'DISTANCE_ACCURACY_VALUE','Maximum Tolerance applied to model');
#1271=(
NAMED_UNIT(*)
SI_UNIT($,.STERADIAN.)
SOLID_ANGLE_UNIT()
);
#1272=(
NAMED_UNIT(*)
PLANE_ANGLE_UNIT()
SI_UNIT($,.RADIAN.)
);
#1273=(
LENGTH_UNIT()
NAMED_UNIT(*)
SI_UNIT($,.METRE.)
);
#1274=PRODUCT_DEFINITION_SHAPE('','',#1275);
#1275=PRODUCT_DEFINITION('','',#1277,#1276);
#1276=PRODUCT_DEFINITION_CONTEXT('',#1283,'design');
#1277=PRODUCT_DEFINITION_FORMATION_WITH_SPECIFIED_SOURCE('','',#1279,
 .NOT_KNOWN.);
#1278=PRODUCT_RELATED_PRODUCT_CATEGORY('','',(#1279));
#1279=PRODUCT('Part 1','Part 1','Part 1',(#1281));
#1280=PRODUCT_CATEGORY('','');
#1281=PRODUCT_CONTEXT('',#1283,'mechanical');
#1282=APPLICATION_PROTOCOL_DEFINITION('international standard',
'ap242_managed_model_based_3d_engineering',2020,#1283);
#1283=APPLICATION_CONTEXT('managed model based 3d engineering');
ENDSEC;
END-ISO-10303-21;
