ISO-10303-21;
HEADER;
/* Generated by software containing ST-Developer
 * from STEP Tools, Inc. (www.steptools.com) 
 */
/* OPTION: using custom renumber hook */

FILE_DESCRIPTION(
/* description */ ('STEP AP242 Edition 2',
'CAx-IF Rec.Pracs.---Representation and Presentation of Product Manufa
cturing Information (PMI)---4.0---2014-10-13',
'CAx-IF Rec.Pracs.---3D Tessellated Geometry---0.4---2014-09-14','2;1',
'CAx-IF Rec.Pracs.---User Defined Attributes---1.5---2016-08-15'),
/* implementation_level */ '2;1');

FILE_NAME(
/* name */ 'table',
/* time_stamp */ '2026-09-05T01:48:04Z',
/* author */ (''),
/* organization */ (''),
/* preprocessor_version */ 'ST-DEVELOPER v20',
/* originating_system */ 'ONSHAPE BY PTC INC, 1.220',
/* authorisation */ '  ');

FILE_SCHEMA (('AP242_MANAGED_MODEL_BASED_3D_ENGINEERING_MIM_LF { 1 0 10303 442 3 1 4 }'));
ENDSEC;

DATA;
#10=SHAPE_REPRESENTATION_RELATIONSHIP('','',#535,#11);
#11=ADVANCED_BREP_SHAPE_REPRESENTATION('',(#533),#837);
#12=ORIENTED_EDGE('',*,*,#156,.F.);
#13=ORIENTED_EDGE('',*,*,#157,.T.);
#14=ORIENTED_EDGE('',*,*,#158,.T.);
#15=ORIENTED_EDGE('',*,*,#159,.T.);
#16=ORIENTED_EDGE('',*,*,#160,.F.);
#17=ORIENTED_EDGE('',*,*,#161,.T.);
#18=ORIENTED_EDGE('',*,*,#162,.F.);
#19=ORIENTED_EDGE('',*,*,#163,.F.);
#20=ORIENTED_EDGE('',*,*,#164,.F.);
#21=ORIENTED_EDGE('',*,*,#165,.F.);
#22=ORIENTED_EDGE('',*,*,#166,.T.);
#23=ORIENTED_EDGE('',*,*,#167,.F.);
#24=ORIENTED_EDGE('',*,*,#168,.F.);
#25=ORIENTED_EDGE('',*,*,#169,.F.);
#26=ORIENTED_EDGE('',*,*,#170,.F.);
#27=ORIENTED_EDGE('',*,*,#171,.F.);
#28=ORIENTED_EDGE('',*,*,#172,.T.);
#29=ORIENTED_EDGE('',*,*,#173,.T.);
#30=ORIENTED_EDGE('',*,*,#174,.F.);
#31=ORIENTED_EDGE('',*,*,#175,.T.);
#32=ORIENTED_EDGE('',*,*,#171,.T.);
#33=ORIENTED_EDGE('',*,*,#176,.T.);
#34=ORIENTED_EDGE('',*,*,#177,.T.);
#35=ORIENTED_EDGE('',*,*,#178,.T.);
#36=ORIENTED_EDGE('',*,*,#179,.F.);
#37=ORIENTED_EDGE('',*,*,#180,.T.);
#38=ORIENTED_EDGE('',*,*,#181,.F.);
#39=ORIENTED_EDGE('',*,*,#182,.F.);
#40=ORIENTED_EDGE('',*,*,#181,.T.);
#41=ORIENTED_EDGE('',*,*,#183,.T.);
#42=ORIENTED_EDGE('',*,*,#184,.T.);
#43=ORIENTED_EDGE('',*,*,#185,.T.);
#44=ORIENTED_EDGE('',*,*,#186,.F.);
#45=ORIENTED_EDGE('',*,*,#187,.T.);
#46=ORIENTED_EDGE('',*,*,#188,.F.);
#47=ORIENTED_EDGE('',*,*,#189,.F.);
#48=ORIENTED_EDGE('',*,*,#190,.F.);
#49=ORIENTED_EDGE('',*,*,#191,.F.);
#50=ORIENTED_EDGE('',*,*,#192,.F.);
#51=ORIENTED_EDGE('',*,*,#173,.F.);
#52=ORIENTED_EDGE('',*,*,#193,.T.);
#53=ORIENTED_EDGE('',*,*,#188,.T.);
#54=ORIENTED_EDGE('',*,*,#194,.F.);
#55=ORIENTED_EDGE('',*,*,#195,.T.);
#56=ORIENTED_EDGE('',*,*,#172,.F.);
#57=ORIENTED_EDGE('',*,*,#182,.T.);
#58=ORIENTED_EDGE('',*,*,#189,.T.);
#59=ORIENTED_EDGE('',*,*,#193,.F.);
#60=ORIENTED_EDGE('',*,*,#191,.T.);
#61=ORIENTED_EDGE('',*,*,#196,.T.);
#62=ORIENTED_EDGE('',*,*,#197,.T.);
#63=ORIENTED_EDGE('',*,*,#167,.T.);
#64=ORIENTED_EDGE('',*,*,#198,.F.);
#65=ORIENTED_EDGE('',*,*,#199,.F.);
#66=ORIENTED_EDGE('',*,*,#200,.F.);
#67=ORIENTED_EDGE('',*,*,#175,.F.);
#68=ORIENTED_EDGE('',*,*,#201,.T.);
#69=ORIENTED_EDGE('',*,*,#198,.T.);
#70=ORIENTED_EDGE('',*,*,#166,.F.);
#71=ORIENTED_EDGE('',*,*,#202,.F.);
#72=ORIENTED_EDGE('',*,*,#199,.T.);
#73=ORIENTED_EDGE('',*,*,#201,.F.);
#74=ORIENTED_EDGE('',*,*,#174,.T.);
#75=ORIENTED_EDGE('',*,*,#192,.T.);
#76=ORIENTED_EDGE('',*,*,#203,.F.);
#77=ORIENTED_EDGE('',*,*,#204,.T.);
#78=ORIENTED_EDGE('',*,*,#161,.F.);
#79=ORIENTED_EDGE('',*,*,#205,.F.);
#80=ORIENTED_EDGE('',*,*,#206,.T.);
#81=ORIENTED_EDGE('',*,*,#179,.T.);
#82=ORIENTED_EDGE('',*,*,#205,.T.);
#83=ORIENTED_EDGE('',*,*,#160,.T.);
#84=ORIENTED_EDGE('',*,*,#207,.F.);
#85=ORIENTED_EDGE('',*,*,#208,.T.);
#86=ORIENTED_EDGE('',*,*,#184,.F.);
#87=ORIENTED_EDGE('',*,*,#209,.F.);
#88=ORIENTED_EDGE('',*,*,#206,.F.);
#89=ORIENTED_EDGE('',*,*,#209,.T.);
#90=ORIENTED_EDGE('',*,*,#183,.F.);
#91=ORIENTED_EDGE('',*,*,#180,.F.);
#92=ORIENTED_EDGE('',*,*,#210,.T.);
#93=ORIENTED_EDGE('',*,*,#163,.T.);
#94=ORIENTED_EDGE('',*,*,#211,.F.);
#95=ORIENTED_EDGE('',*,*,#212,.T.);
#96=ORIENTED_EDGE('',*,*,#177,.F.);
#97=ORIENTED_EDGE('',*,*,#213,.F.);
#98=ORIENTED_EDGE('',*,*,#169,.T.);
#99=ORIENTED_EDGE('',*,*,#214,.T.);
#100=ORIENTED_EDGE('',*,*,#215,.T.);
#101=ORIENTED_EDGE('',*,*,#164,.T.);
#102=ORIENTED_EDGE('',*,*,#210,.F.);
#103=ORIENTED_EDGE('',*,*,#216,.F.);
#104=ORIENTED_EDGE('',*,*,#213,.T.);
#105=ORIENTED_EDGE('',*,*,#176,.F.);
#106=ORIENTED_EDGE('',*,*,#170,.T.);
#107=ORIENTED_EDGE('',*,*,#216,.T.);
#108=ORIENTED_EDGE('',*,*,#217,.F.);
#109=ORIENTED_EDGE('',*,*,#218,.T.);
#110=ORIENTED_EDGE('',*,*,#158,.F.);
#111=ORIENTED_EDGE('',*,*,#219,.F.);
#112=ORIENTED_EDGE('',*,*,#220,.T.);
#113=ORIENTED_EDGE('',*,*,#186,.T.);
#114=ORIENTED_EDGE('',*,*,#221,.F.);
#115=ORIENTED_EDGE('',*,*,#195,.F.);
#116=ORIENTED_EDGE('',*,*,#222,.T.);
#117=ORIENTED_EDGE('',*,*,#219,.T.);
#118=ORIENTED_EDGE('',*,*,#157,.F.);
#119=ORIENTED_EDGE('',*,*,#223,.F.);
#120=ORIENTED_EDGE('',*,*,#220,.F.);
#121=ORIENTED_EDGE('',*,*,#222,.F.);
#122=ORIENTED_EDGE('',*,*,#194,.T.);
#123=ORIENTED_EDGE('',*,*,#187,.F.);
#124=ORIENTED_EDGE('',*,*,#196,.F.);
#125=ORIENTED_EDGE('',*,*,#190,.T.);
#126=ORIENTED_EDGE('',*,*,#221,.T.);
#127=ORIENTED_EDGE('',*,*,#224,.T.);
#128=ORIENTED_EDGE('',*,*,#156,.T.);
#129=ORIENTED_EDGE('',*,*,#197,.F.);
#130=ORIENTED_EDGE('',*,*,#224,.F.);
#131=ORIENTED_EDGE('',*,*,#223,.T.);
#132=ORIENTED_EDGE('',*,*,#208,.F.);
#133=ORIENTED_EDGE('',*,*,#225,.F.);
#134=ORIENTED_EDGE('',*,*,#217,.T.);
#135=ORIENTED_EDGE('',*,*,#185,.F.);
#136=ORIENTED_EDGE('',*,*,#159,.F.);
#137=ORIENTED_EDGE('',*,*,#218,.F.);
#138=ORIENTED_EDGE('',*,*,#225,.T.);
#139=ORIENTED_EDGE('',*,*,#207,.T.);
#140=ORIENTED_EDGE('',*,*,#168,.T.);
#141=ORIENTED_EDGE('',*,*,#200,.T.);
#142=ORIENTED_EDGE('',*,*,#226,.T.);
#143=ORIENTED_EDGE('',*,*,#214,.F.);
#144=ORIENTED_EDGE('',*,*,#165,.T.);
#145=ORIENTED_EDGE('',*,*,#215,.F.);
#146=ORIENTED_EDGE('',*,*,#226,.F.);
#147=ORIENTED_EDGE('',*,*,#202,.T.);
#148=ORIENTED_EDGE('',*,*,#227,.T.);
#149=ORIENTED_EDGE('',*,*,#203,.T.);
#150=ORIENTED_EDGE('',*,*,#178,.F.);
#151=ORIENTED_EDGE('',*,*,#212,.F.);
#152=ORIENTED_EDGE('',*,*,#162,.T.);
#153=ORIENTED_EDGE('',*,*,#204,.F.);
#154=ORIENTED_EDGE('',*,*,#227,.F.);
#155=ORIENTED_EDGE('',*,*,#211,.T.);
#156=EDGE_CURVE('',#228,#229,#276,.T.);
#157=EDGE_CURVE('',#228,#230,#277,.T.);
#158=EDGE_CURVE('',#230,#231,#278,.T.);
#159=EDGE_CURVE('',#231,#232,#279,.T.);
#160=EDGE_CURVE('',#233,#232,#280,.T.);
#161=EDGE_CURVE('',#233,#234,#281,.T.);
#162=EDGE_CURVE('',#235,#234,#282,.T.);
#163=EDGE_CURVE('',#236,#235,#283,.T.);
#164=EDGE_CURVE('',#237,#236,#284,.T.);
#165=EDGE_CURVE('',#238,#237,#285,.T.);
#166=EDGE_CURVE('',#238,#239,#286,.T.);
#167=EDGE_CURVE('',#229,#239,#287,.T.);
#168=EDGE_CURVE('',#240,#241,#288,.T.);
#169=EDGE_CURVE('',#242,#240,#289,.T.);
#170=EDGE_CURVE('',#243,#242,#290,.T.);
#171=EDGE_CURVE('',#244,#243,#291,.T.);
#172=EDGE_CURVE('',#244,#245,#292,.T.);
#173=EDGE_CURVE('',#245,#246,#293,.T.);
#174=EDGE_CURVE('',#247,#246,#294,.T.);
#175=EDGE_CURVE('',#247,#241,#295,.T.);
#176=EDGE_CURVE('',#243,#248,#296,.T.);
#177=EDGE_CURVE('',#248,#249,#297,.T.);
#178=EDGE_CURVE('',#249,#250,#298,.T.);
#179=EDGE_CURVE('',#251,#250,#299,.T.);
#180=EDGE_CURVE('',#251,#252,#300,.T.);
#181=EDGE_CURVE('',#253,#252,#301,.T.);
#182=EDGE_CURVE('',#244,#253,#302,.T.);
#183=EDGE_CURVE('',#252,#254,#303,.T.);
#184=EDGE_CURVE('',#254,#255,#304,.T.);
#185=EDGE_CURVE('',#255,#256,#305,.T.);
#186=EDGE_CURVE('',#257,#256,#306,.T.);
#187=EDGE_CURVE('',#257,#258,#307,.T.);
#188=EDGE_CURVE('',#259,#258,#308,.T.);
#189=EDGE_CURVE('',#253,#259,#309,.T.);
#190=EDGE_CURVE('',#260,#261,#310,.T.);
#191=EDGE_CURVE('',#262,#260,#311,.T.);
#192=EDGE_CURVE('',#246,#262,#312,.T.);
#193=EDGE_CURVE('',#245,#259,#313,.T.);
#194=EDGE_CURVE('',#263,#258,#314,.T.);
#195=EDGE_CURVE('',#263,#261,#315,.T.);
#196=EDGE_CURVE('',#260,#264,#316,.T.);
#197=EDGE_CURVE('',#264,#229,#317,.T.);
#198=EDGE_CURVE('',#265,#239,#318,.T.);
#199=EDGE_CURVE('',#262,#265,#319,.T.);
#200=EDGE_CURVE('',#241,#266,#320,.T.);
#201=EDGE_CURVE('',#247,#265,#321,.T.);
#202=EDGE_CURVE('',#266,#238,#322,.T.);
#203=EDGE_CURVE('',#267,#250,#323,.T.);
#204=EDGE_CURVE('',#267,#234,#324,.T.);
#205=EDGE_CURVE('',#268,#233,#325,.T.);
#206=EDGE_CURVE('',#268,#251,#326,.T.);
#207=EDGE_CURVE('',#269,#232,#327,.T.);
#208=EDGE_CURVE('',#269,#255,#328,.T.);
#209=EDGE_CURVE('',#268,#254,#329,.T.);
#210=EDGE_CURVE('',#270,#236,#330,.T.);
#211=EDGE_CURVE('',#271,#235,#331,.T.);
#212=EDGE_CURVE('',#271,#249,#332,.T.);
#213=EDGE_CURVE('',#270,#248,#333,.T.);
#214=EDGE_CURVE('',#240,#272,#334,.T.);
#215=EDGE_CURVE('',#272,#237,#335,.T.);
#216=EDGE_CURVE('',#242,#270,#336,.T.);
#217=EDGE_CURVE('',#273,#256,#337,.T.);
#218=EDGE_CURVE('',#273,#231,#338,.T.);
#219=EDGE_CURVE('',#274,#230,#339,.T.);
#220=EDGE_CURVE('',#274,#257,#340,.T.);
#221=EDGE_CURVE('',#261,#275,#341,.T.);
#222=EDGE_CURVE('',#263,#274,#342,.T.);
#223=EDGE_CURVE('',#275,#228,#343,.T.);
#224=EDGE_CURVE('',#275,#264,#344,.T.);
#225=EDGE_CURVE('',#273,#269,#345,.T.);
#226=EDGE_CURVE('',#266,#272,#346,.T.);
#227=EDGE_CURVE('',#271,#267,#347,.T.);
#228=VERTEX_POINT('',#692);
#229=VERTEX_POINT('',#693);
#230=VERTEX_POINT('',#695);
#231=VERTEX_POINT('',#697);
#232=VERTEX_POINT('',#699);
#233=VERTEX_POINT('',#701);
#234=VERTEX_POINT('',#703);
#235=VERTEX_POINT('',#705);
#236=VERTEX_POINT('',#707);
#237=VERTEX_POINT('',#709);
#238=VERTEX_POINT('',#711);
#239=VERTEX_POINT('',#713);
#240=VERTEX_POINT('',#717);
#241=VERTEX_POINT('',#718);
#242=VERTEX_POINT('',#720);
#243=VERTEX_POINT('',#722);
#244=VERTEX_POINT('',#724);
#245=VERTEX_POINT('',#726);
#246=VERTEX_POINT('',#728);
#247=VERTEX_POINT('',#730);
#248=VERTEX_POINT('',#734);
#249=VERTEX_POINT('',#736);
#250=VERTEX_POINT('',#738);
#251=VERTEX_POINT('',#740);
#252=VERTEX_POINT('',#742);
#253=VERTEX_POINT('',#744);
#254=VERTEX_POINT('',#748);
#255=VERTEX_POINT('',#750);
#256=VERTEX_POINT('',#752);
#257=VERTEX_POINT('',#754);
#258=VERTEX_POINT('',#756);
#259=VERTEX_POINT('',#758);
#260=VERTEX_POINT('',#762);
#261=VERTEX_POINT('',#763);
#262=VERTEX_POINT('',#765);
#263=VERTEX_POINT('',#769);
#264=VERTEX_POINT('',#774);
#265=VERTEX_POINT('',#777);
#266=VERTEX_POINT('',#781);
#267=VERTEX_POINT('',#787);
#268=VERTEX_POINT('',#790);
#269=VERTEX_POINT('',#794);
#270=VERTEX_POINT('',#800);
#271=VERTEX_POINT('',#802);
#272=VERTEX_POINT('',#807);
#273=VERTEX_POINT('',#813);
#274=VERTEX_POINT('',#816);
#275=VERTEX_POINT('',#820);
#276=LINE('',#691,#348);
#277=LINE('',#694,#349);
#278=LINE('',#696,#350);
#279=LINE('',#698,#351);
#280=LINE('',#700,#352);
#281=LINE('',#702,#353);
#282=LINE('',#704,#354);
#283=LINE('',#706,#355);
#284=LINE('',#708,#356);
#285=LINE('',#710,#357);
#286=LINE('',#712,#358);
#287=LINE('',#714,#359);
#288=LINE('',#716,#360);
#289=LINE('',#719,#361);
#290=LINE('',#721,#362);
#291=LINE('',#723,#363);
#292=LINE('',#725,#364);
#293=LINE('',#727,#365);
#294=LINE('',#729,#366);
#295=LINE('',#731,#367);
#296=LINE('',#733,#368);
#297=LINE('',#735,#369);
#298=LINE('',#737,#370);
#299=LINE('',#739,#371);
#300=LINE('',#741,#372);
#301=LINE('',#743,#373);
#302=LINE('',#745,#374);
#303=LINE('',#747,#375);
#304=LINE('',#749,#376);
#305=LINE('',#751,#377);
#306=LINE('',#753,#378);
#307=LINE('',#755,#379);
#308=LINE('',#757,#380);
#309=LINE('',#759,#381);
#310=LINE('',#761,#382);
#311=LINE('',#764,#383);
#312=LINE('',#766,#384);
#313=LINE('',#767,#385);
#314=LINE('',#768,#386);
#315=LINE('',#770,#387);
#316=LINE('',#773,#388);
#317=LINE('',#775,#389);
#318=LINE('',#776,#390);
#319=LINE('',#778,#391);
#320=LINE('',#780,#392);
#321=LINE('',#782,#393);
#322=LINE('',#783,#394);
#323=LINE('',#786,#395);
#324=LINE('',#788,#396);
#325=LINE('',#789,#397);
#326=LINE('',#791,#398);
#327=LINE('',#793,#399);
#328=LINE('',#795,#400);
#329=LINE('',#796,#401);
#330=LINE('',#799,#402);
#331=LINE('',#801,#403);
#332=LINE('',#803,#404);
#333=LINE('',#804,#405);
#334=LINE('',#806,#406);
#335=LINE('',#808,#407);
#336=LINE('',#809,#408);
#337=LINE('',#812,#409);
#338=LINE('',#814,#410);
#339=LINE('',#815,#411);
#340=LINE('',#817,#412);
#341=LINE('',#819,#413);
#342=LINE('',#821,#414);
#343=LINE('',#822,#415);
#344=LINE('',#825,#416);
#345=LINE('',#828,#417);
#346=LINE('',#831,#418);
#347=LINE('',#834,#419);
#348=VECTOR('',#567,1.);
#349=VECTOR('',#568,1.);
#350=VECTOR('',#569,1.);
#351=VECTOR('',#570,1.);
#352=VECTOR('',#571,1.);
#353=VECTOR('',#572,1.);
#354=VECTOR('',#573,1.);
#355=VECTOR('',#574,1.);
#356=VECTOR('',#575,1.);
#357=VECTOR('',#576,1.);
#358=VECTOR('',#577,1.);
#359=VECTOR('',#578,1.);
#360=VECTOR('',#581,1.);
#361=VECTOR('',#582,1.);
#362=VECTOR('',#583,1.);
#363=VECTOR('',#584,1.);
#364=VECTOR('',#585,1.);
#365=VECTOR('',#586,1.);
#366=VECTOR('',#587,1.);
#367=VECTOR('',#588,1.);
#368=VECTOR('',#591,1.);
#369=VECTOR('',#592,1.);
#370=VECTOR('',#593,1.);
#371=VECTOR('',#594,1.);
#372=VECTOR('',#595,1.);
#373=VECTOR('',#596,1.);
#374=VECTOR('',#597,1.);
#375=VECTOR('',#600,1.);
#376=VECTOR('',#601,1.);
#377=VECTOR('',#602,1.);
#378=VECTOR('',#603,1.);
#379=VECTOR('',#604,1.);
#380=VECTOR('',#605,1.);
#381=VECTOR('',#606,1.);
#382=VECTOR('',#609,1.);
#383=VECTOR('',#610,1.);
#384=VECTOR('',#611,1.);
#385=VECTOR('',#612,1.);
#386=VECTOR('',#613,1.);
#387=VECTOR('',#614,1.);
#388=VECTOR('',#619,1.);
#389=VECTOR('',#620,1.);
#390=VECTOR('',#621,1.);
#391=VECTOR('',#622,1.);
#392=VECTOR('',#625,1.);
#393=VECTOR('',#626,1.);
#394=VECTOR('',#627,1.);
#395=VECTOR('',#632,1.);
#396=VECTOR('',#633,1.);
#397=VECTOR('',#634,1.);
#398=VECTOR('',#635,1.);
#399=VECTOR('',#638,1.);
#400=VECTOR('',#639,1.);
#401=VECTOR('',#640,1.);
#402=VECTOR('',#645,1.);
#403=VECTOR('',#646,1.);
#404=VECTOR('',#647,1.);
#405=VECTOR('',#648,1.);
#406=VECTOR('',#651,1.);
#407=VECTOR('',#652,1.);
#408=VECTOR('',#653,1.);
#409=VECTOR('',#658,1.);
#410=VECTOR('',#659,1.);
#411=VECTOR('',#660,1.);
#412=VECTOR('',#661,1.);
#413=VECTOR('',#664,1.);
#414=VECTOR('',#665,1.);
#415=VECTOR('',#666,1.);
#416=VECTOR('',#671,1.);
#417=VECTOR('',#676,1.);
#418=VECTOR('',#681,1.);
#419=VECTOR('',#686,1.);
#420=EDGE_LOOP('',(#12,#13,#14,#15,#16,#17,#18,#19,#20,#21,#22,#23));
#421=EDGE_LOOP('',(#24,#25,#26,#27,#28,#29,#30,#31));
#422=EDGE_LOOP('',(#32,#33,#34,#35,#36,#37,#38,#39));
#423=EDGE_LOOP('',(#40,#41,#42,#43,#44,#45,#46,#47));
#424=EDGE_LOOP('',(#48,#49,#50,#51,#52,#53,#54,#55));
#425=EDGE_LOOP('',(#56,#57,#58,#59));
#426=EDGE_LOOP('',(#60,#61,#62,#63,#64,#65));
#427=EDGE_LOOP('',(#66,#67,#68,#69,#70,#71));
#428=EDGE_LOOP('',(#72,#73,#74,#75));
#429=EDGE_LOOP('',(#76,#77,#78,#79,#80,#81));
#430=EDGE_LOOP('',(#82,#83,#84,#85,#86,#87));
#431=EDGE_LOOP('',(#88,#89,#90,#91));
#432=EDGE_LOOP('',(#92,#93,#94,#95,#96,#97));
#433=EDGE_LOOP('',(#98,#99,#100,#101,#102,#103));
#434=EDGE_LOOP('',(#104,#105,#106,#107));
#435=EDGE_LOOP('',(#108,#109,#110,#111,#112,#113));
#436=EDGE_LOOP('',(#114,#115,#116,#117,#118,#119));
#437=EDGE_LOOP('',(#120,#121,#122,#123));
#438=EDGE_LOOP('',(#124,#125,#126,#127));
#439=EDGE_LOOP('',(#128,#129,#130,#131));
#440=EDGE_LOOP('',(#132,#133,#134,#135));
#441=EDGE_LOOP('',(#136,#137,#138,#139));
#442=EDGE_LOOP('',(#140,#141,#142,#143));
#443=EDGE_LOOP('',(#144,#145,#146,#147));
#444=EDGE_LOOP('',(#148,#149,#150,#151));
#445=EDGE_LOOP('',(#152,#153,#154,#155));
#446=FACE_BOUND('',#420,.T.);
#447=FACE_BOUND('',#421,.T.);
#448=FACE_BOUND('',#422,.T.);
#449=FACE_BOUND('',#423,.T.);
#450=FACE_BOUND('',#424,.T.);
#451=FACE_BOUND('',#425,.T.);
#452=FACE_BOUND('',#426,.T.);
#453=FACE_BOUND('',#427,.T.);
#454=FACE_BOUND('',#428,.T.);
#455=FACE_BOUND('',#429,.T.);
#456=FACE_BOUND('',#430,.T.);
#457=FACE_BOUND('',#431,.T.);
#458=FACE_BOUND('',#432,.T.);
#459=FACE_BOUND('',#433,.T.);
#460=FACE_BOUND('',#434,.T.);
#461=FACE_BOUND('',#435,.T.);
#462=FACE_BOUND('',#436,.T.);
#463=FACE_BOUND('',#437,.T.);
#464=FACE_BOUND('',#438,.T.);
#465=FACE_BOUND('',#439,.T.);
#466=FACE_BOUND('',#440,.T.);
#467=FACE_BOUND('',#441,.T.);
#468=FACE_BOUND('',#442,.T.);
#469=FACE_BOUND('',#443,.T.);
#470=FACE_BOUND('',#444,.T.);
#471=FACE_BOUND('',#445,.T.);
#472=PLANE('',#537);
#473=PLANE('',#538);
#474=PLANE('',#539);
#475=PLANE('',#540);
#476=PLANE('',#541);
#477=PLANE('',#542);
#478=PLANE('',#543);
#479=PLANE('',#544);
#480=PLANE('',#545);
#481=PLANE('',#546);
#482=PLANE('',#547);
#483=PLANE('',#548);
#484=PLANE('',#549);
#485=PLANE('',#550);
#486=PLANE('',#551);
#487=PLANE('',#552);
#488=PLANE('',#553);
#489=PLANE('',#554);
#490=PLANE('',#555);
#491=PLANE('',#556);
#492=PLANE('',#557);
#493=PLANE('',#558);
#494=PLANE('',#559);
#495=PLANE('',#560);
#496=PLANE('',#561);
#497=PLANE('',#562);
#498=ADVANCED_FACE('',(#446),#472,.F.);
#499=ADVANCED_FACE('',(#447),#473,.T.);
#500=ADVANCED_FACE('',(#448),#474,.F.);
#501=ADVANCED_FACE('',(#449),#475,.F.);
#502=ADVANCED_FACE('',(#450),#476,.T.);
#503=ADVANCED_FACE('',(#451),#477,.T.);
#504=ADVANCED_FACE('',(#452),#478,.F.);
#505=ADVANCED_FACE('',(#453),#479,.T.);
#506=ADVANCED_FACE('',(#454),#480,.T.);
#507=ADVANCED_FACE('',(#455),#481,.T.);
#508=ADVANCED_FACE('',(#456),#482,.F.);
#509=ADVANCED_FACE('',(#457),#483,.T.);
#510=ADVANCED_FACE('',(#458),#484,.F.);
#511=ADVANCED_FACE('',(#459),#485,.F.);
#512=ADVANCED_FACE('',(#460),#486,.T.);
#513=ADVANCED_FACE('',(#461),#487,.T.);
#514=ADVANCED_FACE('',(#462),#488,.T.);
#515=ADVANCED_FACE('',(#463),#489,.T.);
#516=ADVANCED_FACE('',(#464),#490,.T.);
#517=ADVANCED_FACE('',(#465),#491,.F.);
#518=ADVANCED_FACE('',(#466),#492,.T.);
#519=ADVANCED_FACE('',(#467),#493,.T.);
#520=ADVANCED_FACE('',(#468),#494,.T.);
#521=ADVANCED_FACE('',(#469),#495,.F.);
#522=ADVANCED_FACE('',(#470),#496,.T.);
#523=ADVANCED_FACE('',(#471),#497,.F.);
#524=CLOSED_SHELL('',(#498,#499,#500,#501,#502,#503,#504,#505,#506,#507,
#508,#509,#510,#511,#512,#513,#514,#515,#516,#517,#518,#519,#520,#521,#522,
#523));
#525=STYLED_ITEM('',(#526),#533);
#526=PRESENTATION_STYLE_ASSIGNMENT((#527));
#527=SURFACE_STYLE_USAGE(.BOTH.,#528);
#528=SURFACE_SIDE_STYLE('',(#529));
#529=SURFACE_STYLE_FILL_AREA(#530);
#530=FILL_AREA_STYLE('',(#531));
#531=FILL_AREA_STYLE_COLOUR('',#532);
#532=COLOUR_RGB('',0.615686274509804,0.811764705882353,0.929411764705882);
#533=MANIFOLD_SOLID_BREP('Part 1',#524);
#534=SHAPE_DEFINITION_REPRESENTATION(#842,#535);
#535=SHAPE_REPRESENTATION('Part 1',(#536),#837);
#536=AXIS2_PLACEMENT_3D('',#689,#563,#564);
#537=AXIS2_PLACEMENT_3D('',#690,#565,#566);
#538=AXIS2_PLACEMENT_3D('',#715,#579,#580);
#539=AXIS2_PLACEMENT_3D('',#732,#589,#590);
#540=AXIS2_PLACEMENT_3D('',#746,#598,#599);
#541=AXIS2_PLACEMENT_3D('',#760,#607,#608);
#542=AXIS2_PLACEMENT_3D('',#771,#615,#616);
#543=AXIS2_PLACEMENT_3D('',#772,#617,#618);
#544=AXIS2_PLACEMENT_3D('',#779,#623,#624);
#545=AXIS2_PLACEMENT_3D('',#784,#628,#629);
#546=AXIS2_PLACEMENT_3D('',#785,#630,#631);
#547=AXIS2_PLACEMENT_3D('',#792,#636,#637);
#548=AXIS2_PLACEMENT_3D('',#797,#641,#642);
#549=AXIS2_PLACEMENT_3D('',#798,#643,#644);
#550=AXIS2_PLACEMENT_3D('',#805,#649,#650);
#551=AXIS2_PLACEMENT_3D('',#810,#654,#655);
#552=AXIS2_PLACEMENT_3D('',#811,#656,#657);
#553=AXIS2_PLACEMENT_3D('',#818,#662,#663);
#554=AXIS2_PLACEMENT_3D('',#823,#667,#668);
#555=AXIS2_PLACEMENT_3D('',#824,#669,#670);
#556=AXIS2_PLACEMENT_3D('',#826,#672,#673);
#557=AXIS2_PLACEMENT_3D('',#827,#674,#675);
#558=AXIS2_PLACEMENT_3D('',#829,#677,#678);
#559=AXIS2_PLACEMENT_3D('',#830,#679,#680);
#560=AXIS2_PLACEMENT_3D('',#832,#682,#683);
#561=AXIS2_PLACEMENT_3D('',#833,#684,#685);
#562=AXIS2_PLACEMENT_3D('',#835,#687,#688);
#563=DIRECTION('',(0.,0.,1.));
#564=DIRECTION('',(1.,0.,0.));
#565=DIRECTION('',(0.,0.,1.));
#566=DIRECTION('',(1.,0.,0.));
#567=DIRECTION('',(0.,-1.,0.));
#568=DIRECTION('',(1.,0.,0.));
#569=DIRECTION('',(0.,1.,0.));
#570=DIRECTION('',(1.,0.,0.));
#571=DIRECTION('',(0.,1.,0.));
#572=DIRECTION('',(1.,0.,0.));
#573=DIRECTION('',(0.,1.,0.));
#574=DIRECTION('',(1.,0.,0.));
#575=DIRECTION('',(0.,1.,0.));
#576=DIRECTION('',(1.,-4.33680201680425E-17,0.));
#577=DIRECTION('',(0.,1.,0.));
#578=DIRECTION('',(1.,0.,0.));
#579=DIRECTION('',(0.,-1.,0.));
#580=DIRECTION('',(0.,0.,-1.));
#581=DIRECTION('',(-1.,0.,0.));
#582=DIRECTION('',(0.,0.,1.));
#583=DIRECTION('',(-1.,0.,0.));
#584=DIRECTION('',(0.,0.,-1.));
#585=DIRECTION('',(-1.,0.,0.));
#586=DIRECTION('',(0.,0.,-1.));
#587=DIRECTION('',(-1.,0.,0.));
#588=DIRECTION('',(0.,0.,1.));
#589=DIRECTION('',(-1.,0.,0.));
#590=DIRECTION('',(0.,0.,1.));
#591=DIRECTION('',(0.,1.,0.));
#592=DIRECTION('',(0.,0.,1.));
#593=DIRECTION('',(0.,1.,0.));
#594=DIRECTION('',(0.,0.,1.));
#595=DIRECTION('',(0.,1.,0.));
#596=DIRECTION('',(0.,0.,-1.));
#597=DIRECTION('',(0.,1.,0.));
#598=DIRECTION('',(9.63735264431559E-17,-1.,0.));
#599=DIRECTION('',(1.,9.63735264431559E-17,0.));
#600=DIRECTION('',(-1.,-9.63735264431559E-17,0.));
#601=DIRECTION('',(0.,0.,1.));
#602=DIRECTION('',(-1.,-9.63735264431559E-17,0.));
#603=DIRECTION('',(0.,0.,1.));
#604=DIRECTION('',(-1.,-9.63735264431559E-17,0.));
#605=DIRECTION('',(0.,0.,-1.));
#606=DIRECTION('',(-1.,-9.63735264431559E-17,0.));
#607=DIRECTION('',(-1.,0.,0.));
#608=DIRECTION('',(0.,0.,1.));
#609=DIRECTION('',(0.,1.,0.));
#610=DIRECTION('',(0.,0.,1.));
#611=DIRECTION('',(0.,1.,0.));
#612=DIRECTION('',(0.,1.,0.));
#613=DIRECTION('',(0.,1.,0.));
#614=DIRECTION('',(0.,0.,1.));
#615=DIRECTION('',(0.,0.,1.));
#616=DIRECTION('',(1.,0.,0.));
#617=DIRECTION('',(0.,-1.,0.));
#618=DIRECTION('',(0.,0.,-1.));
#619=DIRECTION('',(1.,0.,0.));
#620=DIRECTION('',(0.,0.,1.));
#621=DIRECTION('',(0.,0.,1.));
#622=DIRECTION('',(1.,0.,0.));
#623=DIRECTION('',(1.,0.,0.));
#624=DIRECTION('',(0.,0.,-1.));
#625=DIRECTION('',(0.,1.,0.));
#626=DIRECTION('',(0.,1.,0.));
#627=DIRECTION('',(0.,0.,1.));
#628=DIRECTION('',(0.,0.,-1.));
#629=DIRECTION('',(1.,0.,0.));
#630=DIRECTION('',(0.,-1.,0.));
#631=DIRECTION('',(0.,0.,-1.));
#632=DIRECTION('',(1.,0.,0.));
#633=DIRECTION('',(0.,0.,1.));
#634=DIRECTION('',(0.,0.,1.));
#635=DIRECTION('',(1.,0.,0.));
#636=DIRECTION('',(1.,0.,0.));
#637=DIRECTION('',(0.,0.,-1.));
#638=DIRECTION('',(0.,0.,1.));
#639=DIRECTION('',(0.,1.,0.));
#640=DIRECTION('',(0.,1.,0.));
#641=DIRECTION('',(0.,0.,-1.));
#642=DIRECTION('',(1.,0.,0.));
#643=DIRECTION('',(0.,-1.,0.));
#644=DIRECTION('',(0.,0.,-1.));
#645=DIRECTION('',(0.,0.,1.));
#646=DIRECTION('',(0.,0.,1.));
#647=DIRECTION('',(1.,0.,0.));
#648=DIRECTION('',(1.,0.,0.));
#649=DIRECTION('',(1.,0.,0.));
#650=DIRECTION('',(0.,0.,-1.));
#651=DIRECTION('',(0.,1.,0.));
#652=DIRECTION('',(0.,0.,1.));
#653=DIRECTION('',(0.,1.,0.));
#654=DIRECTION('',(0.,0.,-1.));
#655=DIRECTION('',(1.,0.,0.));
#656=DIRECTION('',(1.,0.,0.));
#657=DIRECTION('',(0.,0.,-1.));
#658=DIRECTION('',(0.,1.,0.));
#659=DIRECTION('',(0.,0.,1.));
#660=DIRECTION('',(0.,0.,1.));
#661=DIRECTION('',(0.,1.,0.));
#662=DIRECTION('',(0.,-1.,0.));
#663=DIRECTION('',(0.,0.,-1.));
#664=DIRECTION('',(1.,0.,0.));
#665=DIRECTION('',(1.,0.,0.));
#666=DIRECTION('',(0.,0.,1.));
#667=DIRECTION('',(0.,0.,-1.));
#668=DIRECTION('',(1.,0.,0.));
#669=DIRECTION('',(0.,0.,-1.));
#670=DIRECTION('',(1.,0.,0.));
#671=DIRECTION('',(0.,-1.,0.));
#672=DIRECTION('',(-1.,0.,0.));
#673=DIRECTION('',(0.,0.,1.));
#674=DIRECTION('',(0.,0.,-1.));
#675=DIRECTION('',(1.,0.,0.));
#676=DIRECTION('',(1.,0.,0.));
#677=DIRECTION('',(0.,-1.,0.));
#678=DIRECTION('',(0.,0.,-1.));
#679=DIRECTION('',(0.,0.,-1.));
#680=DIRECTION('',(1.,0.,0.));
#681=DIRECTION('',(1.,-4.33680201680425E-17,0.));
#682=DIRECTION('',(-4.33680201680425E-17,-1.,0.));
#683=DIRECTION('',(1.,-4.33680201680425E-17,0.));
#684=DIRECTION('',(0.,0.,-1.));
#685=DIRECTION('',(1.,0.,0.));
#686=DIRECTION('',(0.,1.,0.));
#687=DIRECTION('',(1.,0.,0.));
#688=DIRECTION('',(0.,0.,-1.));
#689=CARTESIAN_POINT('',(0.,0.,0.));
#690=CARTESIAN_POINT('',(-0.018,0.0105,0.));
#691=CARTESIAN_POINT('',(-0.0345,0.0105,0.));
#692=CARTESIAN_POINT('',(-0.0345,0.018,0.));
#693=CARTESIAN_POINT('',(-0.0345,0.003,0.));
#694=CARTESIAN_POINT('',(-0.03375,0.018,0.));
#695=CARTESIAN_POINT('',(-0.033,0.018,0.));
#696=CARTESIAN_POINT('',(-0.033,0.02025,0.));
#697=CARTESIAN_POINT('',(-0.033,0.0195,0.));
#698=CARTESIAN_POINT('',(-0.0179999769191524,0.0195,0.));
#699=CARTESIAN_POINT('',(-0.00299995383830479,0.0195,0.));
#700=CARTESIAN_POINT('',(-0.00299995383830479,0.01875,0.));
#701=CARTESIAN_POINT('',(-0.00299995383830479,0.018,0.));
#702=CARTESIAN_POINT('',(-0.000749953838304788,0.018,0.));
#703=CARTESIAN_POINT('',(-0.00149995383830479,0.018,0.));
#704=CARTESIAN_POINT('',(-0.00149995383830479,0.0105,0.));
#705=CARTESIAN_POINT('',(-0.00149995383830479,0.003,0.));
#706=CARTESIAN_POINT('',(-0.00224995383830479,0.003,0.));
#707=CARTESIAN_POINT('',(-0.00299995383830479,0.003,0.));
#708=CARTESIAN_POINT('',(-0.00299995383830479,0.00075,0.));
#709=CARTESIAN_POINT('',(-0.00299995383830479,0.0015,0.));
#710=CARTESIAN_POINT('',(-0.0179999769191524,0.0015,0.));
#711=CARTESIAN_POINT('',(-0.033,0.0015,0.));
#712=CARTESIAN_POINT('',(-0.033,0.00225,0.));
#713=CARTESIAN_POINT('',(-0.033,0.003,0.));
#714=CARTESIAN_POINT('',(-0.03525,0.003,0.));
#715=CARTESIAN_POINT('',(-0.018,0.,0.0015));
#716=CARTESIAN_POINT('',(-0.018,0.,-0.0013));
#717=CARTESIAN_POINT('',(-0.00299995383830479,0.,-0.0013));
#718=CARTESIAN_POINT('',(-0.033,0.,-0.0013));
#719=CARTESIAN_POINT('',(-0.00299995383830479,0.,-0.01));
#720=CARTESIAN_POINT('',(-0.00299995383830479,0.,-0.01));
#721=CARTESIAN_POINT('',(-0.018,0.,-0.01));
#722=CARTESIAN_POINT('',(0.,0.,-0.01));
#723=CARTESIAN_POINT('',(0.,0.,0.0015));
#724=CARTESIAN_POINT('',(0.,0.,0.0015));
#725=CARTESIAN_POINT('',(-0.018,0.,0.0015));
#726=CARTESIAN_POINT('',(-0.036,-2.60208521396521E-18,0.0015));
#727=CARTESIAN_POINT('',(-0.036,-2.60208521396521E-18,0.0015));
#728=CARTESIAN_POINT('',(-0.036,-2.60208521396521E-18,-0.01));
#729=CARTESIAN_POINT('',(-0.018,0.,-0.01));
#730=CARTESIAN_POINT('',(-0.033,0.,-0.01));
#731=CARTESIAN_POINT('',(-0.033,0.,-0.01));
#732=CARTESIAN_POINT('',(0.,0.0105,0.0015));
#733=CARTESIAN_POINT('',(0.,0.0105,-0.01));
#734=CARTESIAN_POINT('',(0.,0.003,-0.01));
#735=CARTESIAN_POINT('',(0.,0.003,-0.01));
#736=CARTESIAN_POINT('',(0.,0.003,-0.0013));
#737=CARTESIAN_POINT('',(0.,0.0105,-0.0013));
#738=CARTESIAN_POINT('',(0.,0.018,-0.0013));
#739=CARTESIAN_POINT('',(0.,0.018,-0.01));
#740=CARTESIAN_POINT('',(0.,0.018,-0.01));
#741=CARTESIAN_POINT('',(0.,0.0105,-0.01));
#742=CARTESIAN_POINT('',(-3.46944695195361E-18,0.021,-0.01));
#743=CARTESIAN_POINT('',(-3.46944695195361E-18,0.021,0.0015));
#744=CARTESIAN_POINT('',(-3.46944695195361E-18,0.021,0.0015));
#745=CARTESIAN_POINT('',(0.,0.0105,0.0015));
#746=CARTESIAN_POINT('',(-0.018,0.021,0.0015));
#747=CARTESIAN_POINT('',(-0.018,0.021,-0.01));
#748=CARTESIAN_POINT('',(-0.00299995383830479,0.021,-0.01));
#749=CARTESIAN_POINT('',(-0.00299995383830479,0.021,-0.01));
#750=CARTESIAN_POINT('',(-0.00299995383830479,0.021,-0.0013));
#751=CARTESIAN_POINT('',(-0.018,0.021,-0.0013));
#752=CARTESIAN_POINT('',(-0.033,0.021,-0.0013));
#753=CARTESIAN_POINT('',(-0.033,0.021,-0.01));
#754=CARTESIAN_POINT('',(-0.033,0.021,-0.01));
#755=CARTESIAN_POINT('',(-0.018,0.021,-0.01));
#756=CARTESIAN_POINT('',(-0.036,0.021,-0.01));
#757=CARTESIAN_POINT('',(-0.036,0.021,0.0015));
#758=CARTESIAN_POINT('',(-0.036,0.021,0.0015));
#759=CARTESIAN_POINT('',(-0.018,0.021,0.0015));
#760=CARTESIAN_POINT('',(-0.036,0.0105,0.0015));
#761=CARTESIAN_POINT('',(-0.036,0.0105,-0.0013));
#762=CARTESIAN_POINT('',(-0.036,0.003,-0.0013));
#763=CARTESIAN_POINT('',(-0.036,0.018,-0.0013));
#764=CARTESIAN_POINT('',(-0.036,0.003,-0.01));
#765=CARTESIAN_POINT('',(-0.036,0.003,-0.01));
#766=CARTESIAN_POINT('',(-0.036,0.0105,-0.01));
#767=CARTESIAN_POINT('',(-0.036,0.0105,0.0015));
#768=CARTESIAN_POINT('',(-0.036,0.0105,-0.01));
#769=CARTESIAN_POINT('',(-0.036,0.018,-0.01));
#770=CARTESIAN_POINT('',(-0.036,0.018,-0.01));
#771=CARTESIAN_POINT('',(-0.018,0.0105,0.0015));
#772=CARTESIAN_POINT('',(-0.03525,0.003,-0.01));
#773=CARTESIAN_POINT('',(-0.03525,0.003,-0.0013));
#774=CARTESIAN_POINT('',(-0.0345,0.003,-0.0013));
#775=CARTESIAN_POINT('',(-0.0345,0.003,-0.0013));
#776=CARTESIAN_POINT('',(-0.033,0.003,-0.01));
#777=CARTESIAN_POINT('',(-0.033,0.003,-0.01));
#778=CARTESIAN_POINT('',(-0.03525,0.003,-0.01));
#779=CARTESIAN_POINT('',(-0.033,0.00225,-0.01));
#780=CARTESIAN_POINT('',(-0.033,0.00225,-0.0013));
#781=CARTESIAN_POINT('',(-0.033,0.0015,-0.0013));
#782=CARTESIAN_POINT('',(-0.033,0.00225,-0.01));
#783=CARTESIAN_POINT('',(-0.033,0.0015,-0.0013));
#784=CARTESIAN_POINT('',(-0.0179999769191524,0.0105,-0.01));
#785=CARTESIAN_POINT('',(-0.000749953838304788,0.018,-0.01));
#786=CARTESIAN_POINT('',(-0.000749953838304788,0.018,-0.0013));
#787=CARTESIAN_POINT('',(-0.00149995383830479,0.018,-0.0013));
#788=CARTESIAN_POINT('',(-0.00149995383830479,0.018,-0.0013));
#789=CARTESIAN_POINT('',(-0.00299995383830479,0.018,-0.01));
#790=CARTESIAN_POINT('',(-0.00299995383830479,0.018,-0.01));
#791=CARTESIAN_POINT('',(-0.000749953838304788,0.018,-0.01));
#792=CARTESIAN_POINT('',(-0.00299995383830479,0.01875,-0.01));
#793=CARTESIAN_POINT('',(-0.00299995383830479,0.0195,-0.0013));
#794=CARTESIAN_POINT('',(-0.00299995383830479,0.0195,-0.0013));
#795=CARTESIAN_POINT('',(-0.00299995383830479,0.01875,-0.0013));
#796=CARTESIAN_POINT('',(-0.00299995383830479,0.01875,-0.01));
#797=CARTESIAN_POINT('',(-0.0179999769191524,0.0105,-0.01));
#798=CARTESIAN_POINT('',(-0.00224995383830479,0.003,-0.01));
#799=CARTESIAN_POINT('',(-0.00299995383830479,0.003,-0.01));
#800=CARTESIAN_POINT('',(-0.00299995383830479,0.003,-0.01));
#801=CARTESIAN_POINT('',(-0.00149995383830479,0.003,-0.0013));
#802=CARTESIAN_POINT('',(-0.00149995383830479,0.003,-0.0013));
#803=CARTESIAN_POINT('',(-0.00224995383830479,0.003,-0.0013));
#804=CARTESIAN_POINT('',(-0.00224995383830479,0.003,-0.01));
#805=CARTESIAN_POINT('',(-0.00299995383830479,0.00075,-0.01));
#806=CARTESIAN_POINT('',(-0.00299995383830479,0.00075,-0.0013));
#807=CARTESIAN_POINT('',(-0.00299995383830479,0.0015,-0.0013));
#808=CARTESIAN_POINT('',(-0.00299995383830479,0.0015,-0.0013));
#809=CARTESIAN_POINT('',(-0.00299995383830479,0.00075,-0.01));
#810=CARTESIAN_POINT('',(-0.0179999769191524,0.0105,-0.01));
#811=CARTESIAN_POINT('',(-0.033,0.02025,-0.01));
#812=CARTESIAN_POINT('',(-0.033,0.02025,-0.0013));
#813=CARTESIAN_POINT('',(-0.033,0.0195,-0.0013));
#814=CARTESIAN_POINT('',(-0.033,0.0195,-0.0013));
#815=CARTESIAN_POINT('',(-0.033,0.018,-0.01));
#816=CARTESIAN_POINT('',(-0.033,0.018,-0.01));
#817=CARTESIAN_POINT('',(-0.033,0.02025,-0.01));
#818=CARTESIAN_POINT('',(-0.03375,0.018,-0.01));
#819=CARTESIAN_POINT('',(-0.03375,0.018,-0.0013));
#820=CARTESIAN_POINT('',(-0.0345,0.018,-0.0013));
#821=CARTESIAN_POINT('',(-0.03375,0.018,-0.01));
#822=CARTESIAN_POINT('',(-0.0345,0.018,-0.0013));
#823=CARTESIAN_POINT('',(-0.0179999769191524,0.0105,-0.01));
#824=CARTESIAN_POINT('',(-0.0179999769191524,0.0105,-0.0013));
#825=CARTESIAN_POINT('',(-0.0345,0.0105,-0.0013));
#826=CARTESIAN_POINT('',(-0.0345,0.0105,-0.0013));
#827=CARTESIAN_POINT('',(-0.0179999769191524,0.0105,-0.0013));
#828=CARTESIAN_POINT('',(-0.0179999769191524,0.0195,-0.0013));
#829=CARTESIAN_POINT('',(-0.0179999769191524,0.0195,-0.0013));
#830=CARTESIAN_POINT('',(-0.0179999769191524,0.0105,-0.0013));
#831=CARTESIAN_POINT('',(-0.0179999769191524,0.0015,-0.0013));
#832=CARTESIAN_POINT('',(-0.0179999769191524,0.0015,-0.0013));
#833=CARTESIAN_POINT('',(-0.0179999769191524,0.0105,-0.0013));
#834=CARTESIAN_POINT('',(-0.00149995383830479,0.0105,-0.0013));
#835=CARTESIAN_POINT('',(-0.00149995383830479,0.0105,-0.0013));
#836=MECHANICAL_DESIGN_GEOMETRIC_PRESENTATION_REPRESENTATION('',(#525),
#837);
#837=(
GEOMETRIC_REPRESENTATION_CONTEXT(3)
GLOBAL_UNCERTAINTY_ASSIGNED_CONTEXT((#838))
GLOBAL_UNIT_ASSIGNED_CONTEXT((#841,#840,#839))
REPRESENTATION_CONTEXT('Part 1','TOP_LEVEL_ASSEMBLY_PART')
);
#838=UNCERTAINTY_MEASURE_WITH_UNIT(LENGTH_MEASURE(2.00000000000867E-7),
#841,'DISTANCE_ACCURACY_VALUE','Maximum Tolerance applied to model');
#839=(
NAMED_UNIT(*)
SI_UNIT($,.STERADIAN.)
SOLID_ANGLE_UNIT()
);
#840=(
NAMED_UNIT(*)
PLANE_ANGLE_UNIT()
SI_UNIT($,.RADIAN.)
);
#841=(
LENGTH_UNIT()
NAMED_UNIT(*)
SI_UNIT($,.METRE.)
);
#842=PRODUCT_DEFINITION_SHAPE('','',#843);
#843=PRODUCT_DEFINITION('','',#845,#844);
#844=PRODUCT_DEFINITION_CONTEXT('',#851,'design');
#845=PRODUCT_DEFINITION_FORMATION_WITH_SPECIFIED_SOURCE('','',#847,
 .NOT_KNOWN.);
#846=PRODUCT_RELATED_PRODUCT_CATEGORY('','',(#847));
#847=PRODUCT('Part 1','Part 1','Part 1',(#849));
#848=PRODUCT_CATEGORY('','');
#849=PRODUCT_CONTEXT('',#851,'mechanical');
#850=APPLICATION_PROTOCOL_DEFINITION('international standard',
'ap242_managed_model_based_3d_engineering',2020,#851);
#851=APPLICATION_CONTEXT('managed model based 3d engineering');
ENDSEC;
END-ISO-10303-21;
